<?xml version="1.0" encoding="utf-8"?>
<!-- Generator: Adobe Illustrator 16.0.0, SVG Export Plug-In . SVG Version: 6.00 Build 0)  -->
<!DOCTYPE svg PUBLIC "-//W3C//DTD SVG 1.1//EN" "http://www.w3.org/Graphics/SVG/1.1/DTD/svg11.dtd">
<svg version="1.1" xmlns="http://www.w3.org/2000/svg" xmlns:xlink="http://www.w3.org/1999/xlink" x="0px" y="0px"
	 width="1131.755px" height="1294.358px" viewBox="0 0 1131.755 1294.358" enable-background="new 0 0 1131.755 1294.358"
	 xml:space="preserve">
<g id="Layer_1">
</g>
<g id="Layer_2">
	<path fill="#22C16A" d="M416.53,329.421l57.751-83.671c0.23-0.334,0.689-0.418,1.023-0.188l53.461,36.899
		c0.334,0.23,0.418,0.689,0.188,1.023l-57.751,83.67c-0.231,0.335-0.689,0.419-1.023,0.188l-53.461-36.898
		C416.383,330.213,416.299,329.755,416.53,329.421z"/>
	<path fill="#22C16A" d="M405.871,129.004l69.74,48.807c0.333,0.232,0.414,0.691,0.181,1.024l-42.634,60.921
		c-0.233,0.333-0.692,0.414-1.025,0.181l-69.74-48.806c-0.333-0.233-0.413-0.692-0.181-1.025l42.635-60.92
		C405.079,128.853,405.538,128.772,405.871,129.004z"/>
	<path fill="#06371C" d="M417.546,189.405l0.019-17.08l6.838,0.013c1.241-0.019,2.294,0.176,3.135,0.553
		c0.843,0.378,1.476,0.9,1.884,1.546c0.428,0.666,0.632,1.414,0.645,2.291c-0.006,0.659-0.133,1.25-0.407,1.75
		c-0.271,0.498-0.637,0.906-1.101,1.231c-0.459,0.321-0.989,0.538-1.581,0.677l-0.005,0.164c0.64,0.013,1.252,0.204,1.818,0.544
		c0.57,0.334,1.037,0.816,1.39,1.426c0.354,0.6,0.53,1.326,0.536,2.173c-0.009,0.895-0.234,1.707-0.671,2.437
		c-0.451,0.699-1.121,1.24-1.989,1.654c-0.871,0.418-1.943,0.625-3.218,0.625L417.546,189.405z M421.158,186.458l2.938-0.003
		c1.001-0.006,1.73-0.207,2.202-0.572c0.454-0.398,0.691-0.908,0.687-1.561c0.003-0.467-0.113-0.888-0.328-1.237
		c-0.239-0.377-0.561-0.655-0.984-0.859c-0.418-0.211-0.905-0.297-1.491-0.309l-3.032-0.013L421.158,186.458z M421.159,179.47
		l2.687,0.013c0.478-0.021,0.92-0.103,1.311-0.26c0.383-0.186,0.686-0.437,0.915-0.755c0.235-0.315,0.346-0.702,0.342-1.162
		c-0.002-0.615-0.222-1.12-0.648-1.479c-0.44-0.389-1.057-0.575-1.864-0.591l-2.729,0.013L421.159,179.47z"/>
	<path fill="#22C16A" d="M339.724,211.279l70.56,49.38c0.333,0.233,0.413,0.692,0.181,1.024l-42.635,60.921
		c-0.232,0.333-0.691,0.414-1.024,0.182l-70.56-49.38c-0.332-0.232-0.413-0.691-0.181-1.025l42.635-60.92
		C338.932,211.127,339.391,211.046,339.724,211.279z"/>
	<path fill="#06371C" d="M348.295,275.62l-3.529,0.011l5.386-15.596l4.242-0.002l5.37,15.584h-3.536l-3.899-12.021l-0.109,0.007
		L348.295,275.62z M348.076,269.5l8.337-0.009l0.003,2.576l-8.337,0.008L348.076,269.5z"/>
	<path fill="#22C16A" d="M487.578,379.461l57.182-82.848c0.232-0.334,0.689-0.418,1.025-0.188l53.459,36.899
		c0.336,0.231,0.42,0.688,0.188,1.023l-57.182,82.848c-0.23,0.334-0.689,0.418-1.023,0.188l-53.46-36.899
		C487.432,380.253,487.348,379.795,487.578,379.461z"/>
	<path fill="#22C16A" d="M611.172,370.56l61.283,42.301c0.229,0.158,0.285,0.471,0.127,0.699l-20.615,29.865
		c-0.158,0.229-0.471,0.285-0.699,0.128l-61.281-42.302c-0.229-0.157-0.287-0.471-0.129-0.698l20.615-29.865
		C610.631,370.459,610.943,370.402,611.172,370.56z"/>
	<path fill="#22C16A" d="M588.771,403.959l61.283,42.302c0.229,0.157,0.285,0.471,0.127,0.699l-20.615,29.865
		c-0.156,0.229-0.471,0.285-0.697,0.128l-61.283-42.302c-0.229-0.158-0.285-0.471-0.129-0.699l20.615-29.865
		C588.23,403.859,588.543,403.802,588.771,403.959z"/>
	<path fill="#22C16A" d="M813.199,440.189l171.57,113.027c0.447,0.295,0.572,0.897,0.277,1.346l-29.176,44.284
		c-0.295,0.448-0.896,0.571-1.344,0.276l-171.57-113.028c-0.447-0.295-0.572-0.897-0.277-1.345l29.174-44.284
		C812.148,440.017,812.752,439.893,813.199,440.189z"/>
	<path fill="#22C16A" d="M756.531,481.855l171.57,113.028c0.447,0.295,0.572,0.897,0.275,1.346l-29.172,44.285
		c-0.297,0.447-0.898,0.57-1.346,0.275l-171.57-113.028c-0.447-0.295-0.572-0.897-0.277-1.345l29.174-44.284
		C755.48,481.684,756.084,481.56,756.531,481.855z"/>
	<path fill="#22C16A" d="M237.628,1023.435h139.669c0.386,0,0.699,0.313,0.699,0.697v38.668c0,0.387-0.313,0.699-0.699,0.699
		H237.628c-0.386,0-0.698-0.313-0.698-0.699v-38.668C236.93,1023.747,237.243,1023.435,237.628,1023.435z"/>
	<path fill="#22C16A" d="M98.288,1103.786l56.299-126.727c0.157-0.354,0.569-0.512,0.922-0.355l35.338,15.699
		c0.353,0.156,0.511,0.57,0.354,0.922l-56.299,126.727c-0.156,0.352-0.569,0.512-0.922,0.355l-35.338-15.699
		C98.29,1104.552,98.131,1104.138,98.288,1103.786z"/>
	<path fill="#22C16A" d="M253.628,1066.964h139.669c0.386,0,0.699,0.313,0.699,0.699v38.666c0,0.387-0.313,0.699-0.699,0.699
		H253.628c-0.386,0-0.698-0.313-0.698-0.699v-38.666C252.93,1067.276,253.243,1066.964,253.628,1066.964z"/>
	<path fill="#22C16A" d="M137.553,1121.896l56.299-126.727c0.156-0.352,0.569-0.512,0.922-0.354l35.337,15.697
		c0.353,0.158,0.512,0.57,0.354,0.922l-56.299,126.727c-0.156,0.354-0.569,0.512-0.922,0.355l-35.337-15.699
		C137.555,1122.661,137.396,1122.249,137.553,1121.896z"/>
	<path fill="none" stroke="#22C16A" stroke-width="6" stroke-dasharray="12,12" d="M317.197,123.205
		c-11.183,21.59-36.585,121.75-49.148,174.319c-0.811,3.39,0.682,6.9,3.673,8.69l251.058,150.35c3.813,2.28,5.033,7.23,2.721,11.03
		l-4.449,7.29c-2.175,3.57-1.24,8.21,2.146,10.65l267.975,193.49c1.918,1.379,3.125,3.52,3.283,5.879
		c1.965,29.521,4.34,94-0.258,143.801c-6,65-151.5,111-277,137.5c-125.5,26.5-230,0-305,0s-111,14-131,86.5s26,101,70.5,115.5
		c33.632,10.959,115.432,66.811,158.38,97.83c3.834,2.76,9.19,1.66,11.627-2.391c19.243-32.01,55.475-88.92,76.493-109.939
		c22.763-22.76,227.153-134.131,327.004-187.24c0.34-0.18,0.639-0.359,0.949-0.59c37.82-27.869,113.359-93.74,116.547-137.17
		c2.98-40.621-10.01-97.42-18.268-125.74c-0.998-3.43,0.32-7.109,3.301-9.07l179.297-117.959c3.27-2.149,4.5-6.36,2.91-9.93
		l-36.939-82.99c-0.521-1.19-1.291-2.2-2.311-3c-146.76-115.61-451.791-352.521-509.991-384.81
		C387.697,54.705,331.697,95.205,317.197,123.205z"/>
	<path fill="#06371C" d="M468.771,314.242l-3.529,0.011l5.386-15.596l4.242-0.002l5.37,15.584h-3.536l-3.899-12.021l-0.109,0.007
		L468.771,314.242z M468.553,308.122l8.337-0.009l0.003,2.576l-8.337,0.008L468.553,308.122z"/>
	<path fill="#06371C" d="M539.818,365.444l0.02-17.08l6.838,0.013c1.24-0.019,2.293,0.176,3.135,0.553
		c0.842,0.378,1.475,0.9,1.883,1.546c0.428,0.666,0.633,1.414,0.645,2.291c-0.006,0.659-0.133,1.25-0.406,1.75
		c-0.27,0.498-0.637,0.906-1.102,1.231c-0.459,0.321-0.988,0.538-1.58,0.677l-0.006,0.164c0.641,0.013,1.252,0.204,1.818,0.544
		c0.57,0.334,1.037,0.816,1.391,1.426c0.354,0.6,0.529,1.326,0.535,2.173c-0.008,0.895-0.234,1.707-0.67,2.437
		c-0.451,0.699-1.121,1.24-1.99,1.654c-0.869,0.418-1.943,0.625-3.217,0.625L539.818,365.444z M543.43,362.497l2.939-0.003
		c1-0.006,1.73-0.207,2.201-0.572c0.455-0.398,0.691-0.908,0.688-1.561c0.002-0.467-0.113-0.888-0.328-1.237
		c-0.24-0.377-0.561-0.655-0.984-0.859c-0.418-0.211-0.904-0.297-1.49-0.309l-3.033-0.013L543.43,362.497z M543.432,355.509
		l2.688,0.013c0.477-0.021,0.92-0.103,1.311-0.26c0.383-0.186,0.686-0.437,0.916-0.755c0.234-0.315,0.346-0.702,0.342-1.162
		c-0.002-0.615-0.223-1.12-0.648-1.479c-0.441-0.389-1.057-0.575-1.865-0.591l-2.729,0.013L543.432,355.509z"/>
	<path fill="#06371C" d="M616.758,431.458l-3.529,0.011l5.387-15.596l4.242-0.002l5.369,15.584h-3.535l-3.898-12.021l-0.109,0.007
		L616.758,431.458z M616.539,425.337l8.338-0.009l0.002,2.576l-8.338,0.008L616.539,425.337z"/>
	<path fill="#22C16A" d="M681.172,418.959l61.283,42.301c0.229,0.158,0.285,0.471,0.127,0.699l-20.615,29.865
		c-0.158,0.229-0.471,0.285-0.699,0.128l-61.281-42.302c-0.229-0.157-0.287-0.471-0.129-0.698l20.615-29.865
		C680.631,418.859,680.943,418.801,681.172,418.959z"/>
	<path fill="#22C16A" d="M658.771,452.359l61.283,42.302c0.229,0.157,0.285,0.471,0.127,0.699l-20.615,29.865
		c-0.156,0.229-0.471,0.285-0.697,0.128l-61.283-42.302c-0.229-0.158-0.285-0.471-0.129-0.699l20.615-29.865
		C658.23,452.258,658.543,452.202,658.771,452.359z"/>
	<path fill="#06371C" d="M684.152,480.04l0.018-17.08l6.838,0.013c1.242-0.019,2.295,0.176,3.135,0.553
		c0.844,0.378,1.477,0.9,1.885,1.546c0.428,0.666,0.631,1.414,0.645,2.291c-0.008,0.659-0.133,1.25-0.408,1.75
		c-0.27,0.498-0.637,0.906-1.1,1.231c-0.459,0.321-0.99,0.538-1.582,0.677l-0.004,0.164c0.639,0.013,1.252,0.204,1.818,0.544
		c0.57,0.334,1.037,0.816,1.389,1.426c0.354,0.6,0.531,1.326,0.537,2.173c-0.01,0.895-0.234,1.707-0.672,2.437
		c-0.451,0.699-1.121,1.24-1.988,1.654c-0.871,0.418-1.943,0.625-3.219,0.625L684.152,480.04z M687.764,477.092l2.938-0.003
		c1.002-0.006,1.73-0.207,2.203-0.572c0.453-0.398,0.689-0.908,0.686-1.561c0.004-0.467-0.113-0.888-0.328-1.237
		c-0.238-0.377-0.561-0.655-0.984-0.859c-0.418-0.211-0.904-0.297-1.49-0.309l-3.031-0.013L687.764,477.092z M687.764,470.105
		l2.688,0.013c0.479-0.021,0.92-0.103,1.311-0.26c0.385-0.186,0.688-0.437,0.916-0.755c0.234-0.315,0.346-0.702,0.342-1.162
		c-0.002-0.615-0.221-1.12-0.648-1.479c-0.439-0.389-1.057-0.575-1.863-0.591l-2.729,0.013L687.764,470.105z"/>
	<path fill="#06371C" d="M861.271,516.431l-3.529,0.011l5.387-15.596l4.242-0.002l5.371,15.584h-3.537l-3.898-12.021l-0.109,0.007
		L861.271,516.431z M861.053,510.311l8.338-0.009l0.002,2.576l-8.336,0.008L861.053,510.311z"/>
	<path fill="#06371C" d="M818.816,567.778l0.018-17.08l6.838,0.013c1.242-0.019,2.295,0.176,3.135,0.553
		c0.844,0.378,1.477,0.9,1.885,1.546c0.428,0.666,0.631,1.414,0.645,2.291c-0.006,0.659-0.133,1.25-0.406,1.75
		c-0.271,0.498-0.639,0.906-1.102,1.231c-0.459,0.321-0.99,0.538-1.582,0.677l-0.004,0.164c0.641,0.013,1.252,0.204,1.818,0.544
		c0.57,0.334,1.037,0.816,1.389,1.426c0.355,0.6,0.531,1.326,0.537,2.173c-0.01,0.895-0.234,1.707-0.672,2.437
		c-0.451,0.699-1.119,1.24-1.988,1.654c-0.871,0.418-1.943,0.625-3.219,0.625L818.816,567.778z M822.428,564.831l2.938-0.003
		c1.002-0.006,1.73-0.207,2.203-0.572c0.453-0.398,0.691-0.908,0.686-1.561c0.004-0.467-0.113-0.888-0.328-1.237
		c-0.238-0.377-0.561-0.655-0.984-0.859c-0.418-0.211-0.904-0.297-1.49-0.309l-3.031-0.013L822.428,564.831z M822.43,557.843
		l2.686,0.013c0.479-0.021,0.92-0.103,1.313-0.26c0.383-0.186,0.686-0.437,0.914-0.755c0.234-0.315,0.346-0.702,0.342-1.162
		c-0.002-0.615-0.221-1.12-0.648-1.479c-0.439-0.389-1.057-0.575-1.863-0.591l-2.729,0.013L822.43,557.843z"/>
	<path fill="#06371C" d="M156.32,1072.036l0.019-17.08l6.838,0.014c1.241-0.02,2.294,0.176,3.135,0.553
		c0.843,0.377,1.476,0.9,1.884,1.545c0.428,0.666,0.632,1.414,0.645,2.291c-0.006,0.66-0.133,1.25-0.407,1.75
		c-0.271,0.498-0.637,0.906-1.101,1.232c-0.459,0.32-0.989,0.537-1.581,0.676l-0.005,0.164c0.64,0.014,1.252,0.205,1.818,0.545
		c0.57,0.334,1.037,0.816,1.39,1.426c0.354,0.6,0.53,1.326,0.536,2.172c-0.009,0.895-0.234,1.707-0.671,2.438
		c-0.451,0.699-1.121,1.24-1.989,1.654c-0.871,0.418-1.943,0.625-3.218,0.625L156.32,1072.036z M159.931,1069.089l2.938-0.002
		c1.001-0.006,1.73-0.207,2.202-0.572c0.454-0.398,0.691-0.908,0.687-1.561c0.003-0.467-0.113-0.889-0.328-1.238
		c-0.239-0.377-0.561-0.654-0.984-0.859c-0.418-0.211-0.905-0.297-1.491-0.309l-3.032-0.012L159.931,1069.089z M159.933,1062.103
		l2.687,0.012c0.478-0.021,0.92-0.102,1.311-0.26c0.383-0.186,0.686-0.436,0.915-0.754c0.235-0.316,0.346-0.703,0.342-1.162
		c-0.002-0.615-0.222-1.121-0.648-1.479c-0.44-0.389-1.057-0.576-1.864-0.592l-2.729,0.014L159.933,1062.103z"/>
	<path fill="#06371C" d="M303.493,1072.829l-3.529,0.01l5.386-15.596l4.242-0.002l5.37,15.584h-3.536l-3.899-12.02l-0.109,0.006
		L303.493,1072.829z M303.274,1066.708l8.337-0.008l0.003,2.576l-8.337,0.008L303.274,1066.708z"/>
	<g>
		<g id="Cirkel_9_">
			<path fill="#FFFFFF" d="M539.818,234.904h0.002c26.697,0,48.34,21.642,48.34,48.339v0.003c0,26.697-21.643,48.339-48.34,48.339
				h-0.002c-26.697,0-48.339-21.642-48.339-48.339v-0.003C491.479,256.545,513.121,234.904,539.818,234.904z"/>
		</g>
		<g id="Color_9_">
			<path fill="#18B369" d="M572.338,293.394l-3.518-6.317c-0.215-0.386-0.619-0.625-1.061-0.625h-2.07
				c0.375-1.281,0.766-2.773,1.08-4.328c1.256-6.223,0.621-10.238-1.891-11.937c-2.029-1.372-3.059-2.483-3.234-3.502
				c-0.172-0.99,0.369-2.206,1.928-4.332c1.381-1.884,1.723-3.496,1.021-4.793c-0.885-1.627-3.258-2.341-7.053-2.124
				c-2.395,0.136-4.057,0.969-4.945,2.47c-1.189,2.013-0.834,4.946,1.088,8.964c0.797,1.666,0.895,3.012,0.285,3.995
				c-1.076,1.743-4.52,2.794-9.443,2.881c-2.33,0.047-3.934-0.542-4.768-1.734c-1.096-1.567-0.998-4.357,0.27-7.653
				c1.611-4.188,2.373-9.869,0.443-13.116c-0.854-1.438-2.184-2.313-3.843-2.532c-3.095-0.406-4.443,1.063-5.745,2.486
				c-0.696,0.759-1.442,1.574-2.576,2.292c-0.621,0.395-1.359,0.76-2.268,1.071c-0.539,0.186-1.136,0.354-1.807,0.495
				c-0.248,0.052-0.488,0.104-0.722,0.159c-0.155,0.327-0.246,0.708-0.246,1.116c0,0.512,0.142,0.981,0.375,1.355
				c0.338-0.084,0.701-0.167,1.097-0.253c0.714-0.152,1.365-0.33,1.956-0.528c0.96-0.321,1.772-0.694,2.469-1.095
				c1.666-0.955,2.681-2.064,3.513-2.971c1.195-1.306,1.796-1.96,3.635-1.717c0.931,0.122,1.589,0.556,2.07,1.362
				c1.438,2.418,0.775,7.363-0.623,10.998c-0.919,2.388-2.14,6.854,0.007,9.923c1.327,1.896,3.622,2.83,6.805,2.771
				c7.502-0.134,10.377-2.268,11.467-4.034c1.072-1.734,1.02-3.863-0.158-6.326c-1.48-3.096-1.902-5.466-1.188-6.675
				c0.449-0.763,1.455-1.192,2.988-1.281c3.301-0.189,4.555,0.45,4.775,0.856c0.156,0.288,0.018,1.016-0.844,2.19
				c-1.668,2.275-2.709,4.196-2.363,6.188c0.303,1.736,1.619,3.311,4.27,5.101c1.572,1.062,1.883,4.405,0.873,9.411
				c-0.355,1.763-0.822,3.46-1.242,4.838h-45.064c-0.043-0.474-0.09-0.944-0.138-1.407c-0.36-3.468-0.645-6.204,1.958-8.491
				c4.171-3.665,2.208-8.916,1.035-12.054c-0.288-0.77-0.536-1.434-0.655-1.934c-0.108-0.46-0.252-0.896-0.378-1.279
				c-0.293-0.894-0.462-1.46-0.262-1.811c0.138-0.239,0.535-0.617,1.64-1.058c-0.287-0.626-0.449-1.334-0.449-2.083
				c0-0.118,0.005-0.236,0.014-0.354c-1.738,0.626-2.779,1.356-3.312,2.282c-0.754,1.31-0.323,2.623,0.058,3.782
				c0.116,0.356,0.237,0.723,0.324,1.085c0.154,0.648,0.426,1.378,0.744,2.224c1.393,3.729,2.329,7.009-0.364,9.374
				c-3.544,3.116-3.15,6.905-2.771,10.569c0.039,0.385,0.081,0.769,0.116,1.158h-2.952c-0.44,0-0.846,0.239-1.063,0.622
				l-3.533,6.318c-0.211,0.377-0.207,0.838,0.012,1.21c0.218,0.371,0.617,0.6,1.049,0.6h62.121c0.432,0,0.83-0.229,1.047-0.6
				c0.221-0.372,0.225-0.833,0.016-1.207V293.394z M511.229,292.771l2.172-3.885h2.367c0,0.358-0.012,0.714-0.038,1.07
				c-0.049,0.67,0.452,1.253,1.122,1.305c0.67,0.051,1.253-0.452,1.305-1.122c0.032-0.422,0.044-0.839,0.046-1.252h44.146
				c-0.16,0.452-0.262,0.715-0.266,0.725c-0.24,0.628,0.072,1.33,0.699,1.573c0.145,0.054,0.293,0.081,0.438,0.081
				c0.488,0,0.949-0.297,1.135-0.779c0.025-0.062,0.25-0.653,0.57-1.599h2.119l2.164,3.885h-57.98V292.771z"/>
		</g>
		<g id="Yellow_9_">
			<path fill="#FAC80E" d="M536.026,276.592l-4.111-10.676c-0.503-1.308-1.815-2.063-3.145-1.924l-1.427-3.821
				c1.113-0.833,1.847-2.243,1.847-3.84c0-0.175-0.01-0.349-0.027-0.52c-0.697,0.401-1.509,0.774-2.469,1.095
				c-0.201,0.932-0.878,1.62-1.683,1.62c-0.556,0-1.051-0.329-1.371-0.839c-0.233-0.373-0.375-0.845-0.375-1.356
				c0-0.406,0.09-0.787,0.245-1.114c0.306-0.646,0.863-1.08,1.501-1.08c0.384,0,0.738,0.159,1.026,0.426
				c0.909-0.313,1.647-0.678,2.269-1.071c-0.766-1.087-1.958-1.786-3.295-1.786c-2.196,0-4.001,1.886-4.166,4.271
				c-0.009,0.118-0.014,0.236-0.014,0.354c0,0.75,0.162,1.457,0.448,2.084c0.689,1.509,2.103,2.545,3.729,2.545
				c0.01,0,0.02,0,0.029,0l1.538,4.114c-0.74,0.822-1.004,2.019-0.58,3.12l4.111,10.675c0.603,1.563,2.357,2.342,3.92,1.739
				l0.257-0.099c1.563-0.602,2.342-2.355,1.74-3.918H536.026z"/>
		</g>
		<path fill="#06371C" d="M514.527,301.922l-0.004,8.09h-1.474l-3.516-5.088l-0.057-0.003l0,5.089l-1.712,0.003l0.004-8.09
			l1.496,0.005l3.493,5.08l0.072-0.002l-0.009-5.078L514.527,301.922z M518.667,310.127c-0.621-0.002-1.149-0.135-1.61-0.378
			c-0.45-0.255-0.791-0.616-1.026-1.089c-0.245-0.464-0.371-1.013-0.362-1.66c-0.01-0.618,0.12-1.17,0.359-1.64
			c0.241-0.472,0.586-0.842,1.025-1.104c0.438-0.263,0.951-0.39,1.55-0.393c0.399-0.001,0.772,0.062,1.117,0.192
			c0.344,0.128,0.654,0.313,0.906,0.572c0.266,0.253,0.468,0.573,0.61,0.961c0.141,0.39,0.213,0.838,0.221,1.349l-0.006,0.467
			l-5.118,0.002l0.006-1.047h3.533c-0.002-0.24-0.058-0.452-0.154-0.646c-0.109-0.185-0.262-0.326-0.446-0.435
			c-0.185-0.107-0.401-0.158-0.641-0.163c-0.255,0-0.485,0.063-0.679,0.181c-0.193,0.114-0.342,0.268-0.458,0.47
			c-0.105,0.19-0.17,0.413-0.169,0.651l-0.006,0.994c0.005,0.297,0.056,0.556,0.17,0.772c0.114,0.219,0.27,0.391,0.477,0.507
			c0.208,0.117,0.45,0.177,0.738,0.171c0.184,0.003,0.349-0.021,0.511-0.077c0.15-0.047,0.279-0.125,0.401-0.237
			c0.109-0.105,0.187-0.229,0.246-0.384l1.561,0.099c-0.085,0.377-0.243,0.701-0.488,0.98c-0.245,0.278-0.553,0.49-0.937,0.647
			C519.613,310.047,519.174,310.124,518.667,310.127z M522.553,310.003l-0.001-6.065l1.625,0.003l0.001,1.057l0.07-0.003
			c0.106-0.374,0.292-0.658,0.544-0.846c0.264-0.199,0.563-0.294,0.907-0.299c0.088-0.001,0.17,0.009,0.268,0.021
			c0.098,0.011,0.182,0.025,0.264,0.038l-0.006,1.496c-0.072-0.029-0.181-0.05-0.32-0.07c-0.141-0.016-0.271-0.021-0.383-0.024
			c-0.254,0.003-0.472,0.056-0.668,0.165c-0.187,0.102-0.339,0.249-0.459,0.442c-0.107,0.188-0.158,0.403-0.166,0.655l0.001,3.434
			L522.553,310.003z M532.936,303.934l-2.114,6.063h-1.896l-2.127-6.058l1.782-0.006l1.252,4.343l0.07-0.003l1.248-4.336
			L532.936,303.934z M536.368,310.113c-0.622-0.003-1.162-0.126-1.611-0.379c-0.448-0.255-0.791-0.616-1.036-1.081
			c-0.25-0.462-0.362-1.022-0.365-1.659c0.005-0.627,0.12-1.17,0.361-1.642c0.24-0.47,0.585-0.84,1.023-1.104
			c0.439-0.261,0.964-0.396,1.55-0.393c0.401,0,0.773,0.064,1.119,0.193c0.356,0.12,0.654,0.313,0.906,0.572
			c0.264,0.253,0.469,0.574,0.609,0.962c0.152,0.381,0.227,0.827,0.221,1.35l0.006,0.457l-5.118,0.003l-0.007-1.038l3.536-0.001
			c-0.003-0.24-0.047-0.462-0.155-0.646c-0.108-0.183-0.25-0.335-0.444-0.433c-0.184-0.108-0.389-0.167-0.642-0.164
			c-0.255,0.001-0.473,0.056-0.678,0.177c-0.194,0.117-0.343,0.271-0.459,0.473c-0.104,0.19-0.158,0.404-0.169,0.651l0.007,0.985
			c-0.008,0.305,0.058,0.558,0.159,0.783c0.113,0.217,0.281,0.381,0.477,0.505c0.208,0.119,0.449,0.178,0.738,0.172
			c0.184,0.003,0.35-0.021,0.511-0.076c0.162-0.058,0.29-0.135,0.4-0.24c0.109-0.104,0.187-0.229,0.246-0.381l1.561,0.097
			c-0.084,0.377-0.244,0.703-0.486,0.982c-0.246,0.278-0.555,0.49-0.939,0.647C537.301,310.04,536.862,310.116,536.368,310.113z
			 M547.229,304.232c-0.023-0.323-0.172-0.562-0.404-0.743c-0.234-0.18-0.566-0.264-0.982-0.26
			c-0.273-0.002-0.504,0.033-0.703,0.116c-0.186,0.074-0.332,0.18-0.436,0.317c-0.105,0.14-0.146,0.29-0.152,0.467
			c-0.008,0.146,0.023,0.271,0.096,0.375c0.061,0.113,0.16,0.204,0.27,0.287c0.123,0.073,0.262,0.141,0.414,0.2
			c0.162,0.05,0.322,0.1,0.498,0.141l0.723,0.176c0.359,0.073,0.688,0.179,0.979,0.311c0.293,0.132,0.549,0.293,0.758,0.49
			c0.223,0.188,0.395,0.41,0.506,0.677c0.121,0.259,0.184,0.558,0.182,0.897c0.01,0.488-0.127,0.923-0.371,1.282
			c-0.244,0.358-0.609,0.646-1.076,0.843c-0.463,0.199-1.031,0.302-1.688,0.3c-0.643-0.007-1.219-0.102-1.703-0.301
			c-0.482-0.199-0.854-0.498-1.123-0.891c-0.271-0.394-0.41-0.883-0.428-1.461l1.656-0.004c0.021,0.27,0.092,0.502,0.232,0.679
			c0.141,0.179,0.324,0.315,0.555,0.409c0.24,0.084,0.496,0.136,0.801,0.13c0.277,0.006,0.535-0.041,0.75-0.126
			c0.217-0.083,0.375-0.194,0.504-0.353c0.115-0.148,0.178-0.323,0.174-0.514c0-0.184-0.051-0.337-0.17-0.454
			c-0.104-0.126-0.25-0.235-0.457-0.322c-0.203-0.085-0.459-0.161-0.746-0.235l-0.883-0.22c-0.678-0.168-1.221-0.423-1.611-0.779
			c-0.402-0.345-0.59-0.826-0.598-1.417c0.006-0.496,0.131-0.919,0.389-1.285c0.271-0.37,0.641-0.654,1.1-0.859
			c0.461-0.205,0.99-0.31,1.574-0.308c0.602,0,1.127,0.102,1.578,0.305c0.449,0.205,0.795,0.493,1.047,0.858
			c0.252,0.364,0.381,0.787,0.385,1.271L547.229,304.232z M550.098,312.263l-0.002-8.337l1.656-0.001l0.01,1.014h0.072
			c0.07-0.161,0.176-0.324,0.314-0.493c0.141-0.168,0.33-0.316,0.559-0.432c0.219-0.108,0.504-0.168,0.848-0.17
			c0.439,0.003,0.848,0.119,1.225,0.346c0.375,0.229,0.672,0.576,0.898,1.036c0.225,0.458,0.334,1.04,0.338,1.732
			c-0.004,0.678-0.115,1.253-0.326,1.712c-0.223,0.469-0.514,0.815-0.893,1.059c-0.365,0.236-0.777,0.352-1.246,0.357
			c-0.326,0.002-0.604-0.054-0.826-0.165c-0.234-0.104-0.42-0.239-0.566-0.398c-0.137-0.173-0.252-0.338-0.33-0.505l-0.053,0.001
			l0.014,3.237L550.098,312.263z M551.748,306.953c-0.002,0.364,0.051,0.676,0.146,0.946c0.094,0.271,0.24,0.48,0.434,0.629
			c0.191,0.146,0.424,0.218,0.695,0.216c0.273,0.002,0.498-0.07,0.688-0.219c0.199-0.16,0.332-0.363,0.436-0.638
			c0.102-0.271,0.146-0.578,0.152-0.937c-0.004-0.347-0.051-0.655-0.146-0.922c-0.105-0.263-0.25-0.469-0.432-0.625
			c-0.191-0.148-0.426-0.222-0.701-0.223c-0.271,0-0.508,0.077-0.701,0.223c-0.178,0.139-0.326,0.347-0.43,0.616
			C551.797,306.282,551.74,306.596,551.748,306.953z M557.141,309.98l-0.014-6.057l1.689-0.006l0.002,6.063L557.141,309.98z
			 M557.971,303.14c-0.252,0.005-0.459-0.085-0.645-0.247c-0.172-0.17-0.258-0.373-0.256-0.609c-0.01-0.224,0.086-0.428,0.262-0.596
			c0.178-0.165,0.393-0.249,0.646-0.252c0.24,0.005,0.459,0.085,0.633,0.257c0.184,0.16,0.268,0.362,0.266,0.596
			c-0.002,0.237-0.084,0.433-0.26,0.6C558.439,303.054,558.225,303.139,557.971,303.14z M560.164,309.98l-0.012-6.055l1.635-0.006
			l0.002,1.055l0.059,0.005c0.119-0.381,0.305-0.666,0.557-0.853c0.266-0.198,0.563-0.294,0.908-0.298
			c0.076,0.006,0.17,0.01,0.268,0.021c0.098,0.009,0.182,0.024,0.264,0.038l-0.006,1.494c-0.074-0.026-0.193-0.041-0.332-0.06
			c-0.141-0.018-0.26-0.031-0.383-0.025c-0.242-0.007-0.459,0.047-0.658,0.157c-0.197,0.106-0.352,0.256-0.459,0.443
			c-0.105,0.188-0.17,0.411-0.164,0.655l0.002,3.431L560.164,309.98z M566.258,310.096c-0.383-0.001-0.723-0.069-1.031-0.2
			c-0.299-0.141-0.543-0.337-0.713-0.608c-0.182-0.263-0.266-0.598-0.27-0.997c0.004-0.339,0.064-0.619,0.193-0.854
			c0.119-0.226,0.297-0.416,0.498-0.548c0.211-0.141,0.463-0.252,0.727-0.316c0.279-0.074,0.57-0.129,0.861-0.152
			c0.355-0.039,0.641-0.074,0.857-0.105c0.213-0.033,0.377-0.087,0.463-0.147c0.1-0.065,0.156-0.168,0.158-0.299l-0.012-0.016
			c0.006-0.255-0.072-0.448-0.238-0.58c-0.15-0.141-0.363-0.214-0.654-0.211c-0.307,0.003-0.551,0.073-0.73,0.21
			c-0.17,0.123-0.291,0.289-0.352,0.493l-1.549-0.132c0.076-0.364,0.225-0.68,0.457-0.947c0.23-0.273,0.539-0.486,0.898-0.625
			c0.369-0.15,0.793-0.223,1.283-0.226c0.332,0.003,0.65,0.044,0.959,0.122c0.311,0.078,0.592,0.197,0.832,0.361
			c0.244,0.165,0.43,0.384,0.572,0.64c0.143,0.258,0.209,0.566,0.205,0.931l0.002,4.091l-1.588-0.003v-0.844l-0.051,0.003
			c-0.104,0.194-0.227,0.358-0.385,0.498c-0.172,0.147-0.367,0.261-0.588,0.337C566.83,310.053,566.566,310.092,566.258,310.096z
			 M566.748,308.931c0.24,0.006,0.459-0.045,0.648-0.142c0.199-0.108,0.344-0.237,0.447-0.405c0.105-0.166,0.17-0.363,0.168-0.575
			l-0.006-0.641c-0.049,0.032-0.121,0.062-0.211,0.09c-0.088,0.029-0.197,0.057-0.311,0.079c-0.111,0.023-0.225,0.042-0.34,0.062
			c-0.115,0.018-0.215,0.03-0.301,0.038c-0.199,0.029-0.381,0.082-0.521,0.142c-0.141,0.061-0.262,0.148-0.348,0.261
			c-0.076,0.103-0.115,0.231-0.113,0.388c-0.006,0.233,0.078,0.407,0.25,0.524C566.27,308.875,566.49,308.931,566.748,308.931z
			 M572.666,301.887l-0.004,8.09l-1.678-0.002l-0.008-8.082L572.666,301.887z"/>
	</g>
	<g>
		<g id="Cirkel_8_">
			<path fill="#FFFFFF" d="M351.399,148.359h0.001c26.749,0,48.433,21.685,48.433,48.433v0.001
				c0,26.749-21.684,48.433-48.433,48.433h-0.001c-26.749,0-48.432-21.684-48.432-48.433v-0.001
				C302.967,170.043,324.65,148.359,351.399,148.359z"/>
		</g>
		<g id="Color_8_">
			<path fill="#18B369" d="M385.486,187.666l-21.344-21.345c-0.311-0.311-0.72-0.466-1.126-0.466c-0.406,0-0.815,0.155-1.126,0.466
				L351.4,176.81l1.846,1.846l9.771-9.771l19.908,19.907l-11.297,11.297c-2.25-0.413-4.738-1.073-7.299-1.933l1.797-0.69
				c0.673-0.257,1.008-1.013,0.75-1.684c-0.258-0.674-1.013-1.009-1.685-0.751l-4.61,1.771c-0.626,0.241-0.969,0.915-0.791,1.563
				l1.417,5.159c0.159,0.579,0.683,0.958,1.257,0.958c0.114,0,0.231-0.016,0.347-0.046c0.696-0.191,1.104-0.909,0.913-1.603
				l-0.644-2.343c2.086,0.715,4.241,1.34,6.341,1.811l-6.403,6.401l-9.771-9.771l-1.846,1.845l10.489,10.49
				c0.311,0.311,0.72,0.466,1.126,0.466c0.407,0,0.815-0.155,1.126-0.466l8.385-8.387c1.374,0.201,2.695,0.316,3.917,0.316
				c2.845,0,5.167-0.605,6.457-2.09c1.548-1.783,1.418-4.37-0.386-7.69c-0.062-0.112-0.139-0.211-0.224-0.3l3.195-3.194
				C386.108,189.298,386.108,188.289,385.486,187.666L385.486,187.666z M380.931,199.393c-0.837,0.964-3.026,1.371-6.053,1.135
				l5.527-5.528C381.176,196.509,381.81,198.378,380.931,199.393z"/>
		</g>
		<g id="Yellow_8_">
			<path fill="#FAC80E" d="M362.255,187.666l-9.009-9.01l-1.846-1.846l-10.489-10.489c-0.622-0.621-1.632-0.621-2.254,0
				l-8.384,8.385c3.023,0.442,6.315,1.315,9.449,2.389l-0.644-2.343c-0.191-0.695,0.217-1.412,0.913-1.603
				c0.695-0.191,1.413,0.217,1.603,0.912l1.416,5.159c0.179,0.647-0.164,1.321-0.791,1.563l-4.609,1.77
				c-0.154,0.059-0.311,0.088-0.466,0.088c-0.525,0-1.019-0.318-1.218-0.838c-0.258-0.673,0.077-1.427,0.75-1.684l1.797-0.69
				c-3.602-1.21-7.063-2.021-9.915-2.315c-0.215-0.021-0.428-0.041-0.635-0.057l-5.527,5.527l0,0l-1.888,1.889l0,0l-3.195,3.194
				c-0.622,0.622-0.622,1.632,0,2.254l21.344,21.345c0.622,0.621,1.632,0.621,2.253,0l10.489-10.49l1.845-1.845l9.01-9.01
				c0.622-0.622,0.622-1.632,0-2.254L362.255,187.666z"/>
		</g>
		<g id="color__1_">
			<path fill="#18B369" d="M341.593,174.064c-0.191-0.696-0.909-1.105-1.603-0.913c-0.695,0.19-1.104,0.908-0.913,1.603l0.644,2.342
				c-7.876-2.699-16.763-4.141-19.823-0.615c-1.548,1.785-1.418,4.372,0.386,7.691c0.062,0.112,0.138,0.212,0.224,0.299l1.888-1.889
				c-0.772-1.508-1.407-3.377-0.526-4.393c0.894-1.03,3.332-1.424,6.687-1.078c2.853,0.295,6.313,1.105,9.915,2.315l-1.797,0.689
				c-0.673,0.259-1.008,1.014-0.75,1.686c0.2,0.52,0.694,0.837,1.218,0.837c0.155,0,0.314-0.027,0.467-0.087l4.609-1.77
				c0.627-0.242,0.969-0.916,0.792-1.564l-1.417-5.158L341.593,174.064z"/>
		</g>
		<path fill="#06371C" d="M317.803,218.573l-0.002-1.41l6.642-0.005l0.002,1.411l-2.471,0.009l0.008,6.68l-1.693-0.005l-0.007-6.678
			L317.803,218.573z M325.516,225.25l-0.009-6.072l1.687,0.007l0.001,6.06L325.516,225.25z M326.352,218.403
			c-0.253-0.008-0.461-0.081-0.641-0.248c-0.176-0.168-0.261-0.364-0.265-0.602c-0.002-0.237,0.09-0.428,0.26-0.604
			c0.182-0.165,0.4-0.246,0.645-0.251c0.253,0.004,0.459,0.08,0.638,0.248c0.18,0.169,0.274,0.376,0.27,0.599
			c0.002,0.237-0.083,0.442-0.266,0.606C326.814,218.315,326.607,218.405,326.352,218.403z M331.286,225.362
			c-0.623-0.003-1.153-0.126-1.604-0.394c-0.45-0.271-0.79-0.638-1.031-1.108c-0.23-0.463-0.357-1.016-0.352-1.622
			c-0.003-0.621,0.119-1.164,0.352-1.639c0.247-0.468,0.591-0.835,1.036-1.094c0.44-0.272,0.971-0.404,1.578-0.412
			c0.536,0.009,1,0.105,1.393,0.29c0.399,0.193,0.716,0.466,0.949,0.815c0.226,0.339,0.361,0.753,0.382,1.216h-1.591
			c-0.042-0.301-0.162-0.546-0.352-0.724c-0.186-0.182-0.437-0.279-0.747-0.283c-0.261,0-0.49,0.07-0.678,0.221
			c-0.195,0.136-0.349,0.334-0.454,0.61c-0.111,0.262-0.161,0.591-0.161,0.972c0,0.387,0.051,0.715,0.159,0.989
			c0.11,0.272,0.261,0.477,0.452,0.616c0.195,0.14,0.426,0.215,0.687,0.214c0.189-0.004,0.366-0.037,0.513-0.12
			c0.159-0.075,0.283-0.196,0.384-0.344c0.106-0.147,0.169-0.337,0.204-0.545l1.59,0.001c-0.029,0.46-0.159,0.864-0.382,1.22
			c-0.227,0.345-0.53,0.63-0.931,0.818C332.291,225.261,331.827,225.366,331.286,225.362z M336.59,223.494l0.003-2.016l0.241-0.008
			l1.944-2.297l1.932,0.001l-2.613,3.041l-0.397,0.002L336.59,223.494z M335.068,225.238l-0.011-8.089l1.688,0.008l0,8.075
			L335.068,225.238z M338.857,225.236l-1.782-2.634l1.111-1.2l2.639,3.828L338.857,225.236z M344.05,225.348
			c-0.624-0.002-1.158-0.123-1.608-0.374c-0.447-0.252-0.792-0.617-1.038-1.085c-0.243-0.471-0.365-1.026-0.357-1.654
			c-0.01-0.633,0.115-1.178,0.358-1.643c0.239-0.479,0.58-0.846,1.024-1.102c0.438-0.27,0.958-0.399,1.548-0.407
			c0.406,0.008,0.781,0.074,1.123,0.199c0.347,0.125,0.65,0.314,0.91,0.572c0.261,0.255,0.46,0.574,0.611,0.965
			c0.138,0.377,0.216,0.835,0.215,1.348l-0.001,0.459l-5.121,0.004l-0.002-1.043l3.536-0.008c0.002-0.24-0.045-0.445-0.157-0.643
			c-0.102-0.183-0.253-0.331-0.432-0.426c-0.185-0.109-0.4-0.161-0.65-0.169c-0.256-0.004-0.479,0.062-0.676,0.18
			c-0.194,0.118-0.351,0.268-0.459,0.471c-0.114,0.188-0.168,0.409-0.169,0.65v0.987c0.005,0.308,0.058,0.563,0.167,0.779
			c0.111,0.217,0.278,0.394,0.48,0.507c0.202,0.116,0.451,0.18,0.733,0.182c0.186-0.002,0.356-0.029,0.51-0.083
			c0.155-0.051,0.291-0.129,0.397-0.241c0.115-0.101,0.199-0.23,0.256-0.382l1.555,0.103c-0.083,0.368-0.242,0.699-0.484,0.979
			c-0.241,0.278-0.562,0.486-0.942,0.644C344.993,225.272,344.549,225.344,344.05,225.348z M351.152,219.161l0.002,1.263
			l-3.656-0.001l-0.001-1.263L351.152,219.161z M348.333,217.714l1.679-0.008l0.007,5.656c-0.007,0.151,0.023,0.275,0.073,0.369
			c0.042,0.08,0.112,0.14,0.195,0.174c0.085,0.031,0.187,0.054,0.298,0.047c0.077,0.001,0.161-0.004,0.236-0.021
			c0.077-0.017,0.141-0.024,0.183-0.034l0.27,1.258c-0.087,0.022-0.207,0.053-0.359,0.085c-0.154,0.036-0.34,0.057-0.561,0.064
			c-0.397,0.022-0.759-0.037-1.059-0.153c-0.31-0.131-0.54-0.318-0.712-0.582c-0.164-0.252-0.254-0.592-0.246-0.981L348.333,217.714
			z M354.542,218.542l0-1.408l6.641-0.005l0.002,1.407l-2.471,0.012l0,6.667l-1.684,0.009l-0.008-6.68L354.542,218.542z
			 M362.756,225.215l-1.661-6.067l1.71,0.01l0.938,4.066l0.056-0.003l0.978-4.072l1.669-0.001l0.997,4.047l0.051,0.002l0.919-4.054
			h1.699l-1.644,6.061l-1.78,0.003l-1.042-3.811l-0.077-0.002l-1.036,3.821H362.756z M371.016,225.211l-0.01-6.073l1.687,0.007
			l0.002,6.062L371.016,225.211z M371.854,218.361c-0.253-0.005-0.462-0.079-0.643-0.243c-0.178-0.169-0.271-0.38-0.264-0.605
			c-0.004-0.234,0.088-0.427,0.259-0.602c0.182-0.164,0.391-0.256,0.645-0.252c0.254,0.007,0.462,0.082,0.638,0.252
			c0.179,0.163,0.268,0.358,0.271,0.596c0.002,0.237-0.083,0.443-0.266,0.607C372.315,218.276,372.107,218.367,371.854,218.361z
			 M379.088,220.871l-1.542,0.09c-0.026-0.128-0.085-0.252-0.171-0.354c-0.087-0.104-0.2-0.19-0.343-0.255
			c-0.141-0.065-0.307-0.095-0.505-0.104c-0.262,0.002-0.478,0.062-0.659,0.168c-0.18,0.106-0.262,0.262-0.264,0.442
			c0.001,0.147,0.054,0.256,0.169,0.357c0.117,0.101,0.315,0.182,0.598,0.241l1.098,0.218c0.597,0.132,1.031,0.321,1.324,0.594
			c0.283,0.261,0.43,0.612,0.432,1.05c0.001,0.401-0.119,0.745-0.349,1.053c-0.236,0.293-0.549,0.531-0.953,0.704
			c-0.41,0.158-0.87,0.244-1.397,0.246c-0.806-0.004-1.439-0.162-1.921-0.504c-0.468-0.328-0.75-0.791-0.834-1.371l1.658-0.083
			c0.045,0.241,0.169,0.43,0.359,0.553c0.198,0.136,0.437,0.189,0.741,0.194c0.293-0.003,0.53-0.06,0.711-0.169
			c0.175-0.124,0.273-0.266,0.276-0.45c-0.001-0.146-0.07-0.279-0.197-0.375c-0.124-0.094-0.322-0.176-0.585-0.229l-1.045-0.204
			c-0.59-0.112-1.041-0.332-1.33-0.621c-0.278-0.282-0.423-0.654-0.427-1.11c0.002-0.387,0.103-0.732,0.314-1.008
			c0.215-0.276,0.51-0.503,0.9-0.65c0.382-0.158,0.833-0.235,1.354-0.235c0.763-0.002,1.366,0.16,1.811,0.489
			C378.751,219.863,379.008,220.304,379.088,220.871z M383.504,219.13v1.263l-3.647,0.011l0-1.264L383.504,219.13z M380.683,217.684
			l1.678-0.007l0.006,5.655c0.005,0.16,0.023,0.276,0.076,0.369c0.043,0.077,0.111,0.142,0.195,0.174s0.187,0.051,0.297,0.047
			c0.079-0.001,0.161-0.001,0.236-0.02c0.081-0.019,0.142-0.027,0.181-0.036l0.271,1.26c-0.085,0.021-0.205,0.051-0.358,0.084
			c-0.154,0.035-0.339,0.057-0.552,0.076c-0.407,0.013-0.768-0.048-1.069-0.166c-0.299-0.118-0.54-0.317-0.711-0.581
			c-0.162-0.252-0.245-0.579-0.244-0.981L380.683,217.684z"/>
	</g>
	<g>
		<g id="Cirkel_4_">
			<path fill="#FFFFFF" d="M221.605,1055.575h0.002c26.766,0,48.464,21.699,48.464,48.465v0.002
				c0,26.766-21.698,48.465-48.464,48.465h-0.002c-26.766,0-48.464-21.699-48.464-48.465v-0.002
				C173.141,1077.274,194.839,1055.575,221.605,1055.575z"/>
		</g>
		<g id="Color_4_">
			<path fill="#18B369" d="M244.186,1069.964h-43.724c-3.168,0-5.746,2.578-5.746,5.746v41.957c0,0.582,0.473,1.055,1.054,1.055
				c0.581,0,1.053-0.473,1.053-1.055v-16.119h4.086v10.096c0,0.582,0.472,1.053,1.053,1.053c0.582,0,1.054-0.471,1.054-1.053
				v-32.156c0-1.123,0.914-2.037,2.039-2.037h34.538c1.124,0,2.038,0.914,2.038,2.037v32.156c0,0.582,0.473,1.053,1.054,1.053
				c0.582,0,1.053-0.471,1.053-1.053v-10.096h4.086v16.119c0,0.582,0.473,1.055,1.054,1.055c0.581,0,1.053-0.473,1.053-1.055
				v-41.957c0-3.168-2.577-5.746-5.746-5.746H244.186z M246.972,1073.374c0.532,0.631,0.854,1.447,0.854,2.336v9.467l-4.086,1.602
				v-7.291c0-0.941-0.315-1.809-0.845-2.506L246.972,1073.374z M221.211,1075.341h-7.792l-1.619-3.27h9.411V1075.341z
				 M223.377,1072.071h9.411l-1.618,3.27h-7.792V1072.071z M200.909,1086.8l-4.086-1.6v-9.49c0-0.873,0.31-1.678,0.826-2.307
				l4.079,3.609c-0.515,0.691-0.821,1.547-0.821,2.473v7.314H200.909z M196.823,1099.438v-11.975l4.086,1.602v10.373H196.823z
				 M203.408,1075.681l-3.929-3.475c0.314-0.086,0.643-0.135,0.983-0.135h8.987l1.618,3.27h-6.013c-0.584,0-1.142,0.121-1.648,0.342
				L203.408,1075.681z M233.522,1075.339l1.618-3.27h9.046c0.323,0,0.637,0.045,0.937,0.123l-3.92,3.473
				c-0.495-0.209-1.038-0.326-1.608-0.326H233.522L233.522,1075.339z M243.739,1099.437v-10.398l4.086-1.6v11.998H243.739z"/>
		</g>
		<g id="Yellow_4_">
			<g>
				<path fill="#FAC80E" d="M230.31,1073.853c-1.354,0.594-3.111,3.703-4.066,5.426c-0.954,1.723-2.065,4.164-5.063,3.883
					c-2.997-0.279-4.845-4.604-7.923-4.576c-3.081,0.023-1.694,2.16-0.373,3.191c1.321,1.027,4.441,3.449,4.555,6.299
					s-0.269,5.928,0.653,9.074c0.922,3.146,3.13,6.951,4.35,7.693c1.22,0.742,1.836,0.98,2.829,0.48
					c0.994-0.498,1.045-1.951,0.344-3.34c-1.184-2.342-3.831-3.014-4.076-7.303c-0.08-1.396,1.161-3.246,2.445-1.807
					c1.284,1.443,3.391,3.084,6.603,3.27c3.21,0.186,5.45,0.314,5.452-1.691c0-2.006-3.471-1.797-5.69-2.111
					c-2.221-0.314-4.307-2-4.662-4.246c-0.367-2.311,2.234-6.137,3.279-7.682c1.045-1.545,2.828-3.393,3.206-4.541
					c0.376-1.148-0.037-2.818-1.857-2.018L230.31,1073.853z"/>
				<circle fill="#FAC80E" cx="221.523" cy="1079.306" r="3.057"/>
			</g>
		</g>
		<g>
			<path fill="#06371C" d="M186.71,1122.196l2.265-0.002l2.379,5.832l0.095,0.004l2.406-5.836l2.245,0.006l0.001,8.676l-1.775-0.002
				l0.012-5.648l-0.072-0.002l-2.249,5.605l-1.213,0.002l-2.244-5.627h-0.071l-0.003,5.666l-1.776,0.002L186.71,1122.196z
				 M200.522,1131.003c-0.654-0.002-1.229-0.137-1.704-0.42c-0.478-0.287-0.837-0.682-1.108-1.182
				c-0.269-0.498-0.39-1.086-0.382-1.754c0.002-0.676,0.118-1.26,0.385-1.764c0.264-0.508,0.629-0.898,1.11-1.18
				c0.482-0.281,1.049-0.422,1.706-0.422c0.654,0.002,1.228,0.141,1.705,0.422c0.474,0.283,0.836,0.68,1.106,1.18
				c0.248,0.506,0.391,1.09,0.388,1.764c-0.006,0.67-0.123,1.248-0.389,1.756c-0.266,0.504-0.63,0.895-1.111,1.18
				C201.746,1130.864,201.177,1131.005,200.522,1131.003z M200.532,1129.603c0.303,0,0.548-0.08,0.751-0.252
				c0.203-0.174,0.358-0.41,0.458-0.707c0.101-0.295,0.141-0.625,0.157-1.012c-0.004-0.377-0.059-0.713-0.167-1.008
				c-0.087-0.303-0.239-0.535-0.453-0.703c-0.196-0.176-0.444-0.264-0.746-0.262c-0.305-0.002-0.548,0.082-0.771,0.262
				c-0.203,0.176-0.357,0.41-0.458,0.705c-0.101,0.295-0.141,0.627-0.138,1.004c-0.017,0.387,0.038,0.721,0.147,1.016
				c0.104,0.293,0.258,0.529,0.451,0.705C199.98,1129.517,200.229,1129.604,200.532,1129.603z M206.712,1127.112l-0.011,3.764
				l-1.799-0.002l0.006-6.512l1.709,0.008l-0.006,1.152l0.092-0.008c0.136-0.377,0.378-0.674,0.72-0.896
				c0.327-0.217,0.742-0.334,1.232-0.334c0.444,0.002,0.839,0.104,1.183,0.297c0.323,0.203,0.589,0.484,0.774,0.85
				c0.185,0.365,0.283,0.797,0.274,1.307l0.017,4.137l-1.82,0.004l0.006-3.822c0.009-0.4-0.102-0.707-0.297-0.936
				c-0.215-0.223-0.499-0.334-0.851-0.336c-0.255,0.006-0.465,0.053-0.655,0.158c-0.184,0.104-0.328,0.258-0.425,0.455
				C206.763,1126.593,206.707,1126.837,206.712,1127.112z M213.952,1129.007l-0.002-2.162l0.277-0.006l2.08-2.469l2.077-0.002
				l-2.797,3.27l-0.442,0.006L213.952,1129.007z M212.328,1130.872l0.001-8.676l1.797,0.002l0.002,8.676L212.328,1130.872z
				 M216.393,1130.876l-1.913-2.838l1.189-1.27l2.828,4.109L216.393,1130.876z M221.962,1131.003
				c-0.675,0.002-1.25-0.131-1.723-0.408c-0.494-0.27-0.854-0.658-1.12-1.156c-0.25-0.508-0.394-1.096-0.395-1.783
				c0.004-0.67,0.141-1.258,0.405-1.768c0.247-0.498,0.609-0.889,1.09-1.178c0.479-0.283,1.026-0.422,1.677-0.428
				c0.422,0.004,0.827,0.074,1.192,0.211c0.364,0.141,0.691,0.344,0.973,0.617c0.286,0.271,0.488,0.621,0.646,1.033
				c0.161,0.41,0.235,0.895,0.245,1.445l-0.01,0.5l-5.491-0.004l-0.003-1.113l3.803-0.004c0.004-0.264-0.052-0.488-0.166-0.693
				c-0.111-0.201-0.274-0.355-0.487-0.463c-0.191-0.119-0.425-0.174-0.682-0.174c-0.279,0-0.514,0.059-0.735,0.189
				c-0.202,0.121-0.36,0.287-0.479,0.5c-0.117,0.207-0.176,0.438-0.181,0.697l-0.014,1.072c0.003,0.316,0.076,0.588,0.183,0.828
				c0.127,0.234,0.299,0.412,0.52,0.539c0.221,0.127,0.481,0.193,0.785,0.193c0.188,0.004,0.385-0.029,0.547-0.084
				s0.31-0.145,0.425-0.254c0.113-0.107,0.214-0.252,0.282-0.42l1.659,0.113c-0.078,0.398-0.25,0.75-0.515,1.051
				c-0.264,0.297-0.603,0.531-1.021,0.697C222.975,1130.917,222.498,1131.003,221.962,1131.003z M227.053,1133.323
				c-0.213-0.01-0.431-0.025-0.634-0.061c-0.2-0.031-0.359-0.078-0.499-0.127l0.406-1.35c0.215,0.064,0.416,0.096,0.583,0.102
				c0.165,0.012,0.313-0.031,0.439-0.115c0.125-0.084,0.225-0.225,0.32-0.436l0.091-0.268l-2.32-6.701l1.892,0.006l1.351,4.775
				l0.07-0.002l1.358-4.777l1.895,0.008l-2.521,7.207c-0.128,0.35-0.292,0.656-0.504,0.916c-0.19,0.256-0.449,0.459-0.783,0.607
				C227.886,1133.251,227.498,1133.323,227.053,1133.323z M232.974,1130.878l0.002-8.678l1.801,0.008v3.26l0.047,0.004
				c0.085-0.178,0.194-0.354,0.346-0.539c0.153-0.184,0.365-0.34,0.591-0.455c0.25-0.123,0.55-0.184,0.923-0.186
				c0.468,0.002,0.917,0.117,1.307,0.371c0.413,0.24,0.72,0.619,0.963,1.115c0.244,0.49,0.356,1.115,0.358,1.859
				c-0.003,0.729-0.108,1.334-0.352,1.84c-0.224,0.492-0.544,0.873-0.944,1.127c-0.403,0.254-0.836,0.381-1.35,0.385
				c-0.35,0.002-0.633-0.061-0.892-0.172c-0.24-0.119-0.444-0.262-0.593-0.441c-0.148-0.178-0.276-0.355-0.357-0.535l-0.069-0.004
				l-0.004,1.043L232.974,1130.878z M234.733,1127.63c0.006,0.381,0.062,0.721,0.166,1.01c0.106,0.289,0.253,0.518,0.464,0.674
				c0.209,0.154,0.455,0.234,0.737,0.238c0.301-0.004,0.547-0.08,0.755-0.244c0.204-0.166,0.343-0.383,0.447-0.676
				c0.125-0.295,0.167-0.627,0.164-1.002c0.017-0.383-0.039-0.713-0.14-0.998c-0.124-0.277-0.271-0.504-0.48-0.658
				c-0.192-0.168-0.438-0.25-0.742-0.248c-0.303,0.002-0.549,0.08-0.737,0.229c-0.211,0.158-0.369,0.383-0.475,0.668
				C234.785,1126.907,234.747,1127.237,234.733,1127.63z M242.372,1131.007c-0.418,0-0.779-0.076-1.1-0.221
				c-0.322-0.15-0.582-0.363-0.778-0.646c-0.196-0.283-0.286-0.646-0.288-1.07c0.003-0.363,0.076-0.672,0.203-0.912
				c0.143-0.252,0.315-0.445,0.553-0.598c0.215-0.146,0.488-0.264,0.782-0.342c0.292-0.076,0.596-0.125,0.911-0.154
				c0.38-0.039,0.688-0.078,0.909-0.109c0.24-0.039,0.404-0.09,0.511-0.166c0.109-0.072,0.157-0.172,0.163-0.313l-0.009-0.021
				c-0.001-0.268-0.074-0.482-0.251-0.623c-0.16-0.152-0.401-0.223-0.708-0.223c-0.325,0.002-0.577,0.068-0.768,0.215
				c-0.194,0.145-0.325,0.318-0.392,0.535l-1.672-0.133c0.082-0.395,0.255-0.74,0.501-1.027s0.567-0.512,0.965-0.67
				c0.396-0.158,0.851-0.236,1.366-0.232c0.372-0.008,0.718,0.035,1.037,0.125c0.342,0.084,0.634,0.217,0.898,0.389
				c0.265,0.178,0.461,0.406,0.61,0.689c0.145,0.279,0.222,0.607,0.23,0.994l-0.01,4.389h-1.707l-0.004-0.9l-0.046-0.002
				c-0.099,0.199-0.25,0.385-0.417,0.535c-0.184,0.16-0.39,0.275-0.633,0.363C242.985,1130.96,242.699,1131.003,242.372,1131.007z
				 M242.894,1129.757c0.257,0.004,0.492-0.049,0.703-0.154c0.208-0.109,0.354-0.25,0.482-0.434c0.108-0.18,0.16-0.381,0.172-0.615
				l-0.003-0.689c-0.053,0.035-0.134,0.07-0.234,0.104c-0.104,0.029-0.208,0.057-0.316,0.076c-0.129,0.027-0.258,0.053-0.368,0.064
				c-0.132,0.021-0.24,0.039-0.33,0.049c-0.217,0.031-0.406,0.082-0.563,0.148c-0.156,0.066-0.279,0.16-0.369,0.275
				c-0.089,0.113-0.123,0.252-0.137,0.428c0.014,0.238,0.098,0.43,0.274,0.559C242.375,1129.698,242.615,1129.761,242.894,1129.757z
				 M247.433,1130.884l0.007-6.506h1.752l-0.008,1.137h0.07c0.123-0.408,0.316-0.709,0.598-0.918
				c0.278-0.209,0.605-0.316,0.959-0.311c0.093-0.002,0.189,0.008,0.308,0.014c0.1,0.014,0.199,0.025,0.277,0.041l-0.01,1.609
				c-0.082-0.027-0.208-0.047-0.356-0.066c-0.148-0.02-0.273-0.033-0.411-0.029c-0.258-0.004-0.49,0.049-0.696,0.166
				c-0.207,0.111-0.369,0.271-0.508,0.482c-0.1,0.195-0.161,0.43-0.181,0.705l0.001,3.682L247.433,1130.884z"/>
			<path fill="#06371C" d="M257.404,1126.188l-1.653,0.096c-0.027-0.137-0.091-0.27-0.183-0.381
				c-0.093-0.109-0.214-0.203-0.368-0.271c-0.151-0.072-0.329-0.102-0.542-0.111c-0.281,0.002-0.512,0.066-0.707,0.18
				c-0.192,0.113-0.281,0.281-0.282,0.475c0.001,0.158,0.057,0.273,0.181,0.383c0.126,0.107,0.339,0.195,0.641,0.258l1.177,0.234
				c0.64,0.141,1.105,0.344,1.419,0.637c0.303,0.279,0.461,0.656,0.463,1.125c0.001,0.43-0.128,0.799-0.374,1.129
				c-0.253,0.313-0.589,0.568-1.022,0.754c-0.439,0.17-0.933,0.262-1.498,0.264c-0.863-0.004-1.542-0.172-2.059-0.539
				c-0.502-0.352-0.805-0.848-0.895-1.471l1.778-0.088c0.049,0.258,0.181,0.461,0.385,0.592c0.212,0.145,0.469,0.203,0.795,0.209
				c0.314-0.004,0.568-0.064,0.763-0.182c0.187-0.133,0.292-0.285,0.295-0.482c-0.002-0.156-0.076-0.301-0.211-0.402
				c-0.132-0.102-0.345-0.188-0.627-0.246l-1.12-0.219c-0.633-0.121-1.116-0.355-1.426-0.666c-0.298-0.303-0.453-0.701-0.458-1.189
				c0.002-0.416,0.11-0.785,0.337-1.082c0.23-0.295,0.546-0.537,0.965-0.697c0.409-0.168,0.893-0.252,1.451-0.252
				c0.818-0.002,1.464,0.172,1.941,0.525C257.042,1125.106,257.318,1125.581,257.404,1126.188z"/>
		</g>
	</g>
	<g>
		<g id="Cirkel_6_">
			<path fill="#FFFFFF" d="M692.156,351.275h0.002c26.768,0,48.467,21.699,48.467,48.467v0.003
				c0,26.768-21.699,48.468-48.467,48.468h-0.002c-26.768,0-48.469-21.7-48.469-48.468v-0.003
				C643.688,372.974,665.389,351.275,692.156,351.275z"/>
		</g>
		<g id="Color_6_">
			<path fill="#18B369" d="M725.65,411.32c0.014-0.026,0.027-0.056,0.037-0.084c0.006-0.013,0.012-0.026,0.018-0.04
				c0.014-0.036,0.025-0.072,0.035-0.11c0-0.005,0.002-0.012,0.004-0.017c0.01-0.045,0.02-0.089,0.025-0.136
				c0-0.008,0-0.016,0.002-0.025c0.004-0.035,0.008-0.072,0.008-0.108c0-0.012,0-0.026,0-0.039c0-0.032-0.002-0.065-0.006-0.098
				c0-0.015-0.002-0.028-0.004-0.041c-0.002-0.033-0.01-0.067-0.016-0.1c-0.004-0.012-0.006-0.025-0.008-0.037
				c-0.01-0.046-0.023-0.09-0.039-0.134l-12.557-34.052c-0.027-0.149-0.08-0.29-0.152-0.414l-4.053-10.991
				c-0.021-0.054-0.045-0.104-0.07-0.154c-0.004-0.011-0.012-0.021-0.02-0.032c-0.027-0.049-0.057-0.096-0.092-0.138
				c0,0-0.002-0.002-0.004-0.004c-0.033-0.043-0.07-0.082-0.109-0.122c-0.006-0.007-0.016-0.016-0.021-0.022
				c-0.039-0.037-0.082-0.071-0.127-0.102c-0.008-0.003-0.012-0.009-0.018-0.013c-0.041-0.026-0.084-0.052-0.125-0.073
				c-0.012-0.004-0.02-0.011-0.029-0.015c-0.049-0.024-0.098-0.043-0.148-0.061c-0.012-0.003-0.021-0.007-0.031-0.008
				c-0.051-0.016-0.1-0.028-0.15-0.036c-0.006,0-0.01-0.002-0.014-0.003c-0.057-0.009-0.115-0.013-0.172-0.015
				c-0.006,0-0.008,0-0.014,0h-30.492c0,0-0.008,0-0.012,0c-0.059,0-0.115,0.006-0.172,0.015c-0.004,0-0.008,0-0.01,0.001
				c-0.055,0.008-0.105,0.021-0.156,0.035c-0.01,0.004-0.02,0.007-0.029,0.01c-0.051,0.016-0.102,0.037-0.15,0.059
				c-0.008,0.006-0.02,0.011-0.027,0.015c-0.045,0.021-0.088,0.048-0.127,0.075c-0.006,0.003-0.012,0.007-0.018,0.012
				c-0.043,0.031-0.086,0.066-0.127,0.104c-0.006,0.007-0.014,0.015-0.021,0.021c-0.039,0.037-0.074,0.076-0.109,0.12
				c0,0,0,0.003-0.002,0.005c-0.033,0.044-0.064,0.091-0.092,0.139c-0.008,0.011-0.012,0.021-0.018,0.032
				c-0.027,0.05-0.053,0.102-0.07,0.152l-16.764,45.458c-0.016,0.045-0.029,0.089-0.041,0.133c-0.002,0.014-0.004,0.024-0.006,0.038
				c-0.006,0.032-0.014,0.066-0.018,0.1c-0.002,0.013-0.002,0.027-0.002,0.041c-0.004,0.032-0.006,0.066-0.006,0.099
				c0,0.012,0,0.025,0,0.038c0,0.038,0.004,0.073,0.006,0.109c0,0.009,0,0.017,0.002,0.025c0.008,0.046,0.014,0.09,0.025,0.135
				c0,0.006,0.004,0.013,0.006,0.018c0.01,0.037,0.021,0.072,0.035,0.108c0.004,0.015,0.01,0.028,0.016,0.042
				c0.012,0.029,0.025,0.056,0.037,0.083c0.008,0.015,0.016,0.029,0.021,0.041c0.018,0.032,0.035,0.061,0.055,0.089
				c0.006,0.008,0.008,0.015,0.012,0.021c0,0.002,0.004,0.004,0.006,0.005c0.025,0.038,0.055,0.073,0.086,0.107
				c0.004,0.005,0.008,0.009,0.012,0.012c0.027,0.029,0.055,0.058,0.084,0.084c0.008,0.01,0.018,0.017,0.027,0.023
				c0.025,0.022,0.051,0.043,0.078,0.063c0.012,0.008,0.021,0.016,0.033,0.023c0.027,0.018,0.055,0.034,0.082,0.049
				c0.014,0.008,0.025,0.015,0.039,0.021c0.029,0.015,0.061,0.028,0.094,0.043c0.01,0.004,0.02,0.009,0.031,0.015
				c0,0,0.002,0,0.004,0c0.039,0.017,0.08,0.028,0.119,0.039c0.012,0.001,0.02,0.004,0.031,0.006
				c0.035,0.009,0.07,0.016,0.107,0.021c0.01,0,0.02,0.004,0.027,0.004c0.045,0.006,0.092,0.009,0.135,0.009h0.004h19.982
				c0,0,0,0,0.002,0h0.002h24.039c0,0,0,0,0.002,0c0,0,0,0,0.002,0h19.982h0.002c0.045,0,0.092-0.003,0.137-0.009
				c0.01,0,0.02-0.002,0.029-0.004c0.035-0.005,0.07-0.012,0.105-0.019c0.012-0.002,0.02-0.004,0.029-0.007
				c0.041-0.011,0.082-0.022,0.121-0.038c0,0,0.002,0,0.004-0.002c0.012-0.003,0.021-0.008,0.031-0.012
				c0.033-0.015,0.064-0.029,0.094-0.043c0.012-0.008,0.023-0.015,0.039-0.021c0.027-0.015,0.055-0.032,0.08-0.051
				c0.014-0.006,0.023-0.014,0.035-0.022c0.027-0.02,0.053-0.039,0.08-0.062c0.008-0.009,0.018-0.016,0.027-0.024
				c0.029-0.027,0.059-0.055,0.084-0.083c0.004-0.006,0.01-0.01,0.012-0.014c0.031-0.033,0.061-0.069,0.086-0.105
				c0-0.003,0.004-0.004,0.006-0.006c0.004-0.008,0.008-0.015,0.012-0.021c0.018-0.029,0.037-0.058,0.055-0.089
				c0.006-0.013,0.014-0.027,0.02-0.041H725.65z M685.191,389.963l2.014-12.237H697.9l2.016,12.237H685.191L685.191,389.963z
				 M700.316,392.403l2.824,17.15h-21.174l2.822-17.15H700.316z M696.061,366.536l1.441,8.751h-9.893l1.441-8.751H696.061
				L696.061,366.536z M706.951,366.536l3.227,8.751h-10.207l-1.439-8.751h8.418H706.951z M685.137,375.287h-10.205l3.225-8.751h8.42
				l-1.441,8.751H685.137z M674.031,377.726h10.705l-2.016,12.237H669.52L674.031,377.726L674.031,377.726z M700.373,377.726h10.703
				l4.514,12.237h-13.201L700.373,377.726z M666.721,397.547l1.912-5.186c0.102,0.027,0.205,0.041,0.316,0.041h13.369l-2.824,17.15
				h-17.201L666.721,397.547L666.721,397.547z M705.611,409.553l-2.822-17.15h13.393c0.1,0,0.199-0.012,0.293-0.036l0.877,2.378
				l5.463,14.808L705.611,409.553L705.611,409.553z"/>
		</g>
		<g id="Yellow_6_">
			<path fill="#FAC80E" d="M721.004,375.48c-4.492,1.026-16.898,3.864-19.861,4.541c-0.252,0.058-0.457-0.206-0.338-0.438
				c0.52-1.005,1.605-3.104,2.41-4.659c0.133-0.254-0.127-0.535-0.391-0.421c-1.506,0.647-4.748,2.044-5.797,2.494
				c-0.174,0.076-0.373-0.025-0.418-0.21c-0.365-1.561-1.844-7.863-2.469-10.491c-0.072-0.308-0.508-0.316-0.592-0.01
				c-0.977,3.565-2.484,8.856-2.918,10.371c-0.059,0.204-0.301,0.288-0.473,0.162l-15.357-11.164
				c-0.26-0.188-0.596,0.098-0.451,0.384l6.674,13.158c0.09,0.179-0.012,0.396-0.211,0.438c-2.029,0.421-11.414,2.371-14.904,3.1
				c-0.318,0.066-0.326,0.518-0.01,0.596c4.656,1.144,11.822,2.901,13.588,3.335c0.201,0.05,0.295,0.278,0.188,0.454l-6.863,11.241
				c-0.17,0.277,0.152,0.592,0.426,0.418c3.029-1.941,11.314-7.246,13.326-8.534c0.199-0.127,0.459,0.008,0.471,0.245
				c0.223,4.731,0.443,9.415,0.664,14.097c0.016,0.325,0.459,0.403,0.586,0.104l5.535-13.128c0.082-0.192,0.328-0.25,0.484-0.112
				c1.703,1.501,9.871,8.684,14.836,13.048c0.24,0.212,0.6-0.04,0.486-0.337c-1.361-3.577-5.5-14.397-6.154-16.105
				c-0.049-0.133-0.002-0.284,0.117-0.362c1.699-1.122,13.549-8.945,17.652-11.66c0.283-0.188,0.094-0.628-0.238-0.552
				L721.004,375.48z"/>
		</g>
		<path fill="#06371C" d="M662.693,419.479l2.332,0.017l2.436,5.984l0.111,0.009l2.467-5.981l2.314-0.005l-0.014,8.907l-1.83-0.005
			l0.014-5.793l-0.078-0.007l-2.309,5.757l-1.242,0.003l-2.303-5.788l-0.074-0.005l-0.01,5.821l-1.814,0.017V419.479z
			 M673.861,428.417l0.014-6.674l1.848-0.008l-0.018,6.677L673.861,428.417z M674.799,420.873c-0.268,0.007-0.51-0.09-0.707-0.273
			c-0.197-0.189-0.293-0.416-0.283-0.659c-0.004-0.265,0.096-0.476,0.283-0.664c0.211-0.173,0.441-0.274,0.709-0.283
			c0.283,0.014,0.52,0.113,0.705,0.28c0.197,0.187,0.299,0.411,0.303,0.671c-0.01,0.244-0.1,0.482-0.309,0.652
			C675.313,420.788,675.082,420.887,674.799,420.873z M679.051,424.556v3.877l-1.859-0.017l0.016-6.677l1.758-0.005l0.014,1.195
			l0.064-0.014c0.16-0.376,0.404-0.689,0.746-0.924c0.357-0.215,0.777-0.331,1.266-0.34c0.465,0,0.869,0.105,1.215,0.309
			c0.344,0.201,0.623,0.509,0.811,0.879c0.188,0.371,0.275,0.811,0.281,1.335l-0.004,4.26l-1.861-0.012l0.016-3.912
			c0-0.413-0.1-0.728-0.314-0.962c-0.213-0.233-0.508-0.356-0.871-0.34c-0.248-0.005-0.477,0.038-0.656,0.16
			c-0.193,0.1-0.34,0.258-0.453,0.456C679.117,424.039,679.066,424.282,679.051,424.556z M687.859,428.568
			c-0.688,0.005-1.281-0.142-1.777-0.418c-0.488-0.284-0.863-0.671-1.131-1.193c-0.268-0.518-0.402-1.132-0.402-1.833
			c0.006-0.684,0.133-1.298,0.402-1.806c0.275-0.518,0.652-0.919,1.131-1.217c0.492-0.278,1.059-0.435,1.721-0.42
			c0.438-0.01,0.846,0.063,1.229,0.21c0.385,0.146,0.719,0.356,1,0.636c0.281,0.273,0.5,0.624,0.672,1.063
			c0.154,0.42,0.225,0.902,0.23,1.485l-0.004,0.501l-5.635,0.002l0.002-1.147l3.891-0.005c0.004-0.265-0.049-0.494-0.17-0.704
			c-0.117-0.21-0.279-0.368-0.486-0.491s-0.432-0.17-0.711-0.185c-0.271,0.015-0.527,0.066-0.736,0.213
			c-0.219,0.12-0.387,0.295-0.516,0.503c-0.115,0.225-0.188,0.451-0.189,0.716l-0.004,1.092c0.012,0.343,0.068,0.628,0.191,0.869
			c0.121,0.234,0.289,0.411,0.52,0.551c0.23,0.135,0.49,0.188,0.811,0.203c0.205,0.005,0.391-0.033,0.563-0.093
			c0.17-0.057,0.322-0.132,0.447-0.248c0.109-0.134,0.209-0.264,0.275-0.425l1.715,0.113c-0.086,0.413-0.268,0.771-0.541,1.073
			c-0.268,0.305-0.611,0.541-1.033,0.713C688.904,428.497,688.41,428.573,687.859,428.568z M695,428.448l0.016-8.91l5.904,0.02
			v1.557l-4.023-0.021l0.01,2.139l3.619,0.007v1.555l-3.637-0.026l0.006,3.697L695,428.448z M702.139,428.471l0.016-6.677
			l1.846-0.007l-0.016,6.674L702.139,428.471z M703.078,420.92c-0.268,0.012-0.51-0.088-0.707-0.274
			c-0.199-0.188-0.297-0.413-0.285-0.657c-0.004-0.262,0.096-0.477,0.285-0.663c0.207-0.175,0.438-0.274,0.709-0.286
			c0.281,0.017,0.521,0.113,0.701,0.283c0.197,0.187,0.299,0.411,0.305,0.674c-0.01,0.238-0.1,0.479-0.307,0.649
			C703.594,420.834,703.359,420.937,703.078,420.92z M708.516,428.606c-0.686,0.002-1.281-0.149-1.775-0.424
			c-0.49-0.28-0.863-0.67-1.133-1.188c-0.27-0.521-0.402-1.132-0.4-1.839c0.004-0.68,0.145-1.277,0.404-1.805
			c0.271-0.513,0.648-0.917,1.127-1.214c0.494-0.284,1.057-0.438,1.721-0.424c0.436-0.004,0.846,0.064,1.229,0.213
			c0.387,0.146,0.719,0.357,1.002,0.634c0.279,0.273,0.5,0.623,0.67,1.067c0.152,0.418,0.238,0.919,0.232,1.481l-0.006,0.503h-5.635
			l0.004-1.15l3.887-0.002c0.004-0.265-0.047-0.494-0.166-0.702c-0.119-0.212-0.277-0.371-0.486-0.491
			c-0.203-0.12-0.434-0.17-0.697-0.163c-0.287-0.01-0.545,0.05-0.75,0.189c-0.221,0.125-0.389,0.298-0.518,0.503
			c-0.113,0.225-0.186,0.451-0.188,0.718l0.008,1.108c-0.002,0.326,0.055,0.607,0.178,0.848c0.119,0.239,0.305,0.436,0.521,0.551
			c0.229,0.14,0.504,0.213,0.809,0.211c0.209,0,0.391-0.033,0.561-0.093c0.17-0.063,0.326-0.137,0.449-0.253
			c0.109-0.132,0.213-0.26,0.277-0.428l1.711,0.116c-0.084,0.411-0.264,0.772-0.535,1.075c-0.27,0.303-0.615,0.541-1.037,0.711
			C709.559,428.533,709.068,428.608,708.516,428.606z M714.668,419.59l-0.018,8.906l-1.859-0.014l0.018-8.907L714.668,419.59z
			 M718.594,428.603c-0.51,0-0.965-0.128-1.385-0.401c-0.4-0.25-0.727-0.643-0.963-1.153c-0.238-0.513-0.352-1.139-0.361-1.895
			c0.002-0.763,0.137-1.39,0.377-1.906c0.242-0.516,0.57-0.891,0.982-1.146c0.412-0.253,0.859-0.383,1.355-0.373
			c0.377,0.003,0.684,0.062,0.932,0.185c0.26,0.139,0.463,0.295,0.615,0.481c0.158,0.189,0.275,0.374,0.357,0.551l0.053-0.007
			l0.004-3.348l1.857,0.009l-0.02,8.912l-1.826-0.005l-0.008-1.082l-0.08-0.005c-0.076,0.203-0.203,0.378-0.355,0.567
			c-0.164,0.172-0.373,0.318-0.627,0.432C719.262,428.558,718.945,428.594,718.594,428.603z M719.189,427.138
			c0.295,0,0.549-0.085,0.748-0.25c0.205-0.175,0.369-0.399,0.482-0.686c0.107-0.31,0.172-0.645,0.164-1.054
			c0.008-0.388-0.045-0.732-0.16-1.032c-0.104-0.281-0.27-0.522-0.473-0.676c-0.205-0.153-0.465-0.238-0.762-0.238
			c-0.303,0.002-0.555,0.087-0.775,0.238c-0.203,0.17-0.365,0.399-0.467,0.702c-0.111,0.283-0.168,0.614-0.176,0.999
			c0.014,0.406,0.068,0.749,0.164,1.037c0.115,0.303,0.277,0.543,0.475,0.699C718.627,427.053,718.871,427.12,719.189,427.138z"/>
	</g>
	<g>
		<g id="Cirkel_1_">
			<path fill="#FFFFFF" d="M902.279,536.285h0.002c26.441,0,47.877,21.436,47.877,47.878v0.002
				c0,26.442-21.436,47.878-47.877,47.878h-0.002c-26.443,0-47.879-21.436-47.879-47.878v-0.002
				C854.4,557.72,875.836,536.285,902.279,536.285z"/>
		</g>
		<g id="Color_1_">
			<path fill="#18B369" d="M934.537,584.366l-3.59-6.452c-0.213-0.381-0.615-0.618-1.053-0.618h-56.236
				c-0.436,0-0.838,0.237-1.053,0.617l-3.607,6.452c-0.209,0.373-0.205,0.829,0.012,1.197s0.611,0.595,1.039,0.595h7.959
				c-0.525,0.815-0.832,1.787-0.832,2.829c0,2.889,2.35,5.237,5.238,5.237s5.238-2.349,5.238-5.237c0-1.042-0.309-2.012-0.834-2.829
				h4.092c-0.527,0.815-0.834,1.787-0.834,2.829c0,2.889,2.35,5.237,5.238,5.237s5.238-2.349,5.238-5.237
				c0-1.042-0.309-2.012-0.832-2.829h4.088c-0.527,0.815-0.832,1.787-0.832,2.829c0,2.889,2.35,5.237,5.238,5.237
				c2.887,0,5.236-2.349,5.236-5.237c0-1.042-0.307-2.012-0.832-2.829h4.09c-0.527,0.815-0.834,1.787-0.834,2.829
				c0,2.889,2.35,5.237,5.238,5.237s5.238-2.349,5.238-5.237c0-1.042-0.309-2.012-0.834-2.829h7.961
				c0.428,0,0.822-0.227,1.039-0.595s0.221-0.824,0.014-1.196H934.537z M885.244,588.986c0,1.559-1.268,2.829-2.828,2.829
				s-2.83-1.269-2.83-2.829s1.27-2.829,2.83-2.829S885.244,587.425,885.244,588.986z M898.145,588.986
				c0,1.559-1.268,2.829-2.828,2.829s-2.83-1.269-2.83-2.829s1.27-2.829,2.83-2.829S898.145,587.425,898.145,588.986z
				 M911.047,588.986c0,1.559-1.27,2.829-2.83,2.829s-2.828-1.269-2.828-2.829s1.268-2.829,2.828-2.829
				S911.047,587.425,911.047,588.986z M923.947,588.986c0,1.559-1.268,2.829-2.828,2.829s-2.83-1.269-2.83-2.829
				s1.27-2.829,2.83-2.829S923.947,587.425,923.947,588.986z M872.105,583.748l2.26-4.041h54.822l2.25,4.041h-59.334H872.105z"/>
		</g>
		<g id="Yellow_1_">
			<g>
				<circle fill="#FAC80E" cx="906.102" cy="551.958" r="3.767"/>
				<path fill="#FAC80E" d="M897.602,556.276c2.326,1.871,2.201,3.667,1.787,6.416c-0.412,2.75-0.779,6.692-3.346,9.993
					c-2.568,3.3-4.768,8.021-3.025,9.075c1.742,1.054,3.576,0.275,4.309-1.466c0.732-1.742,4.27-8.278,4.676-9.9
					c0.824-3.3,3.115,2.659,3.025,4.767c-0.092,2.108-2.568,5.729,0,6.692c2.566,0.963,3.301-2.659,4.033-5.408
					c0.732-2.75-2.018-7.609-2.201-9.442c-0.184-1.832-0.816-7.001,1.934-7.185c2.75-0.185,8.975-0.882,8.883-4
					s-5.775,0.458-7.791,0.733c-2.018,0.274-4.584,0.642-7.059-0.733s-7.426-7.976-9.166-6.508
					C891.918,550.776,894.475,553.762,897.602,556.276L897.602,556.276z"/>
			</g>
		</g>
		<path fill="#06371C" d="M873.684,604.081l-1.582-0.01c-0.025-0.202-0.084-0.382-0.174-0.542c-0.088-0.16-0.203-0.304-0.344-0.416
			c-0.137-0.112-0.297-0.195-0.48-0.262c-0.178-0.055-0.373-0.083-0.586-0.087c-0.379,0.002-0.713,0.095-0.998,0.281
			c-0.285,0.188-0.508,0.457-0.662,0.823c-0.158,0.353-0.232,0.792-0.242,1.296c0.002,0.531,0.074,0.967,0.234,1.332
			c0.152,0.352,0.375,0.627,0.662,0.813c0.277,0.179,0.607,0.274,0.982,0.279c0.205-0.009,0.402-0.028,0.58-0.083
			c0.18-0.056,0.336-0.143,0.48-0.237c0.135-0.118,0.254-0.243,0.346-0.397c0.094-0.154,0.162-0.324,0.199-0.521l1.57,0.003
			c-0.041,0.339-0.141,0.669-0.307,0.98c-0.164,0.31-0.379,0.593-0.656,0.835c-0.266,0.254-0.598,0.438-0.969,0.588
			c-0.379,0.138-0.801,0.212-1.273,0.21c-0.662-0.004-1.248-0.152-1.766-0.453s-0.926-0.736-1.219-1.295
			c-0.299-0.567-0.445-1.251-0.441-2.051c-0.002-0.811,0.156-1.491,0.453-2.063c0.309-0.56,0.721-0.985,1.242-1.279
			s1.104-0.442,1.75-0.444c0.428,0.001,0.828,0.068,1.191,0.188c0.365,0.119,0.693,0.298,0.971,0.521
			c0.285,0.234,0.52,0.519,0.691,0.843C873.518,603.269,873.631,603.647,873.684,604.081z M874.754,608.875l0.018-5.536l1.49,0.007
			v0.968l0.053-0.004c0.1-0.346,0.275-0.601,0.514-0.772c0.234-0.186,0.51-0.271,0.818-0.27c0.084,0.007,0.16,0.003,0.252,0.021
			c0.086,0.007,0.164,0.02,0.232,0.036l-0.006,1.36c-0.068-0.018-0.172-0.042-0.295-0.054c-0.125-0.014-0.246-0.029-0.348-0.022
			c-0.23-0.008-0.428,0.045-0.607,0.146c-0.18,0.087-0.318,0.225-0.418,0.4c-0.1,0.175-0.156,0.367-0.152,0.6l-0.012,3.13
			L874.754,608.875z M881.154,609.01c-0.561-0.008-1.045-0.128-1.451-0.362c-0.408-0.249-0.717-0.576-0.939-1.009
			c-0.219-0.433-0.326-0.926-0.328-1.501c0.004-0.565,0.113-1.071,0.334-1.499c0.225-0.427,0.539-0.759,0.945-0.995
			c0.412-0.236,0.898-0.353,1.453-0.356c0.563,0.006,1.047,0.127,1.447,0.363c0.412,0.245,0.723,0.575,0.943,1.008
			c0.221,0.431,0.326,0.926,0.328,1.502c-0.006,0.564-0.117,1.059-0.34,1.487c-0.225,0.428-0.533,0.771-0.943,1.008
			C882.195,608.889,881.711,609.005,881.154,609.01z M881.164,607.817c0.258,0.003,0.469-0.07,0.639-0.215
			c0.174-0.144,0.297-0.351,0.387-0.597c0.088-0.259,0.135-0.54,0.131-0.866c0.008-0.316-0.035-0.602-0.125-0.854
			c-0.088-0.255-0.215-0.453-0.389-0.604c-0.164-0.142-0.379-0.22-0.637-0.225c-0.256-0.001-0.471,0.075-0.646,0.222
			c-0.174,0.146-0.307,0.342-0.393,0.6c-0.092,0.249-0.131,0.54-0.137,0.854c0.002,0.328,0.043,0.612,0.131,0.867
			c0.09,0.254,0.217,0.45,0.391,0.602C880.688,607.739,880.908,607.815,881.164,607.817z M885.832,608.915l-1.496-5.546l1.559,0.012
			l0.848,3.721h0.049l0.906-3.716l1.521,0.002l0.893,3.693h0.047l0.855-3.696l1.555,0.014l-1.525,5.523h-1.621l-0.943-3.487
			l-0.07-0.001l-0.957,3.482L885.832,608.915z M895.268,609.027c-0.422-0.003-0.803-0.112-1.141-0.328
			c-0.338-0.217-0.607-0.54-0.803-0.958c-0.197-0.434-0.293-0.948-0.293-1.572c0.004-0.627,0.105-1.16,0.313-1.577
			c0.201-0.431,0.479-0.736,0.818-0.941c0.338-0.221,0.711-0.325,1.123-0.315c0.309,0,0.566,0.053,0.768,0.154
			c0.213,0.109,0.381,0.234,0.504,0.388c0.133,0.163,0.232,0.316,0.297,0.461l0.049,0.001l0.01-2.771l1.529,0.001l-0.021,7.38
			l-1.516-0.005v-0.892l-0.061,0.009c-0.07,0.154-0.176,0.301-0.309,0.453c-0.133,0.146-0.299,0.272-0.514,0.365
			C895.818,608.981,895.57,609.033,895.268,609.027z M895.756,607.803c0.252,0.007,0.457-0.064,0.631-0.193
			c0.172-0.142,0.307-0.326,0.398-0.574c0.092-0.247,0.141-0.53,0.145-0.856c0.002-0.332-0.043-0.614-0.139-0.864
			c-0.086-0.239-0.223-0.431-0.389-0.556c-0.176-0.135-0.385-0.201-0.637-0.209c-0.248,0.006-0.465,0.07-0.633,0.213
			c-0.176,0.13-0.305,0.325-0.402,0.558c-0.086,0.244-0.133,0.525-0.129,0.851c-0.006,0.314,0.037,0.601,0.129,0.852
			c0.086,0.24,0.219,0.436,0.387,0.574C895.291,607.734,895.506,607.81,895.756,607.803z M906.08,603.716
			c-0.029-0.294-0.154-0.523-0.369-0.679c-0.223-0.167-0.514-0.242-0.891-0.246c-0.258-0.003-0.473,0.029-0.645,0.109
			c-0.174,0.067-0.314,0.158-0.408,0.284c-0.094,0.123-0.141,0.265-0.135,0.43c-0.006,0.131,0.018,0.24,0.078,0.341
			c0.063,0.1,0.148,0.184,0.256,0.254c0.105,0.071,0.236,0.141,0.375,0.191c0.141,0.049,0.291,0.091,0.451,0.126l0.664,0.16
			c0.326,0.082,0.617,0.172,0.885,0.294c0.27,0.119,0.5,0.267,0.699,0.448c0.193,0.168,0.348,0.381,0.457,0.621
			c0.111,0.239,0.168,0.514,0.164,0.813c-0.002,0.455-0.121,0.846-0.346,1.18c-0.23,0.321-0.555,0.581-0.98,0.767
			c-0.432,0.172-0.945,0.259-1.545,0.261c-0.596-0.001-1.115-0.098-1.555-0.277c-0.438-0.183-0.781-0.457-1.025-0.812
			c-0.25-0.368-0.371-0.805-0.385-1.341l1.512,0.01c0.014,0.24,0.082,0.446,0.207,0.614c0.129,0.163,0.299,0.288,0.508,0.371
			c0.219,0.089,0.453,0.122,0.727,0.132c0.264-0.002,0.492-0.041,0.686-0.12c0.201-0.07,0.35-0.183,0.461-0.317
			c0.109-0.136,0.162-0.295,0.166-0.469c-0.002-0.169-0.053-0.31-0.146-0.419c-0.094-0.108-0.242-0.217-0.43-0.295
			c-0.178-0.071-0.41-0.153-0.676-0.216l-0.807-0.205c-0.621-0.153-1.113-0.395-1.467-0.709c-0.361-0.325-0.539-0.757-0.535-1.305
			c-0.004-0.449,0.115-0.842,0.357-1.173c0.246-0.331,0.576-0.594,1.002-0.779c0.426-0.185,0.904-0.277,1.443-0.273
			c0.547,0,1.025,0.096,1.432,0.283c0.416,0.194,0.732,0.455,0.961,0.792c0.227,0.333,0.338,0.714,0.35,1.158L906.08,603.716z
			 M912.234,606.631l0.012-3.175l1.531-0.003l-0.016,5.536l-1.475-0.003l0.006-1.003l-0.061-0.007
			c-0.125,0.33-0.33,0.591-0.625,0.784c-0.285,0.202-0.641,0.295-1.053,0.299c-0.373-0.007-0.697-0.091-0.98-0.264
			c-0.275-0.161-0.498-0.406-0.652-0.711c-0.16-0.317-0.238-0.689-0.234-1.112l0.006-3.531l1.539,0.008l-0.01,3.251
			c0,0.327,0.088,0.584,0.258,0.771c0.176,0.194,0.408,0.293,0.697,0.292c0.186,0.002,0.355-0.046,0.521-0.123
			c0.158-0.088,0.285-0.219,0.391-0.381C912.188,607.086,912.238,606.88,912.234,606.631z M914.992,608.995l0.016-5.534l1.49,0.008
			v0.969l0.053-0.004c0.102-0.346,0.273-0.6,0.514-0.773c0.234-0.184,0.508-0.271,0.818-0.271c0.076-0.002,0.16,0.004,0.252,0.021
			c0.088,0.006,0.164,0.019,0.232,0.037l-0.004,1.36c-0.07-0.017-0.174-0.043-0.297-0.057c-0.133-0.022-0.246-0.024-0.355-0.033
			c-0.223,0.007-0.42,0.059-0.605,0.148c-0.174,0.098-0.311,0.234-0.414,0.409c-0.105,0.164-0.156,0.368-0.158,0.589l-0.006,3.141
			L914.992,608.995z M922.414,603.483l-0.002,1.156l-3.418-0.01l0.004-1.157L922.414,603.483z M919.764,609.011l0.021-5.931
			c-0.002-0.404,0.078-0.737,0.236-0.997c0.154-0.273,0.375-0.463,0.648-0.597c0.273-0.131,0.586-0.195,0.938-0.19
			c0.229-0.01,0.449,0.018,0.639,0.05c0.201,0.039,0.344,0.07,0.443,0.1l-0.279,1.15c-0.063-0.021-0.135-0.036-0.225-0.057
			c-0.082-0.007-0.176-0.025-0.268-0.027c-0.223,0.005-0.379,0.061-0.467,0.165c-0.096,0.095-0.137,0.245-0.137,0.435l-0.016,5.908
			L919.764,609.011z M923.34,609.028l0.016-5.538h1.529l-0.016,5.534L923.34,609.028z M924.123,602.771
			c-0.225,0.005-0.42-0.069-0.586-0.225c-0.156-0.149-0.242-0.342-0.236-0.55c-0.004-0.216,0.08-0.396,0.24-0.549
			c0.164-0.152,0.365-0.222,0.588-0.227c0.23,0.007,0.424,0.08,0.582,0.229c0.164,0.156,0.246,0.338,0.25,0.555
			c-0.008,0.205-0.084,0.399-0.248,0.552C924.545,602.698,924.354,602.776,924.123,602.771z M927.645,605.835l-0.006,3.204
			l-1.537-0.008l0.014-5.538l1.469,0.009l-0.006,0.973l0.064,0.002c0.119-0.327,0.332-0.573,0.619-0.763
			c0.287-0.188,0.641-0.28,1.049-0.28c0.383-0.001,0.721,0.089,1.002,0.249c0.287,0.171,0.51,0.414,0.67,0.731
			c0.154,0.305,0.232,0.677,0.234,1.111l-0.014,3.521l-1.537-0.008l0.01-3.253c0.006-0.331-0.082-0.602-0.254-0.787
			c-0.176-0.194-0.416-0.288-0.723-0.292c-0.209-0.002-0.393,0.04-0.553,0.129c-0.156,0.087-0.273,0.225-0.363,0.396
			C927.695,605.396,927.65,605.598,927.645,605.835z M934.9,611.248c-0.498-0.004-0.922-0.067-1.277-0.208
			c-0.35-0.132-0.635-0.32-0.846-0.558c-0.201-0.226-0.34-0.492-0.4-0.783l1.416-0.192c0.043,0.113,0.115,0.221,0.207,0.316
			c0.094,0.096,0.217,0.172,0.369,0.229c0.16,0.066,0.35,0.097,0.57,0.094c0.334-0.001,0.605-0.084,0.826-0.243
			c0.219-0.161,0.328-0.434,0.33-0.81l0.002-1.017l-0.061,0.009c-0.066,0.153-0.17,0.298-0.305,0.434
			c-0.135,0.135-0.309,0.249-0.525,0.329c-0.207,0.088-0.461,0.129-0.752,0.131c-0.418-0.006-0.797-0.102-1.141-0.298
			c-0.332-0.189-0.605-0.494-0.807-0.894c-0.199-0.401-0.291-0.9-0.289-1.512c-0.006-0.637,0.102-1.158,0.309-1.575
			c0.207-0.416,0.479-0.735,0.818-0.941c0.34-0.208,0.715-0.312,1.119-0.312c0.311,0,0.568,0.051,0.779,0.162
			c0.205,0.098,0.379,0.236,0.502,0.388c0.129,0.151,0.229,0.305,0.301,0.46l0.053-0.005l0.008-0.925l1.521,0.002l-0.02,5.587
			c0,0.469-0.113,0.869-0.35,1.182c-0.229,0.32-0.545,0.56-0.955,0.717C935.896,611.173,935.428,611.246,934.9,611.248z
			 M934.939,607.819c0.252,0.008,0.463-0.051,0.631-0.179c0.17-0.127,0.309-0.294,0.4-0.526c0.094-0.233,0.141-0.514,0.139-0.842
			c0-0.328-0.039-0.597-0.129-0.836c-0.098-0.248-0.225-0.431-0.398-0.565c-0.174-0.138-0.383-0.2-0.629-0.198
			c-0.256-0.004-0.463,0.07-0.641,0.201c-0.176,0.131-0.303,0.323-0.391,0.566c-0.094,0.235-0.139,0.513-0.139,0.827
			c0.004,0.325,0.043,0.596,0.133,0.833c0.086,0.224,0.217,0.404,0.393,0.539C934.48,607.761,934.693,607.826,934.939,607.819z"/>
	</g>
</g>
</svg>
