<?xml version="1.0" encoding="UTF-8"?>
<svg xmlns="http://www.w3.org/2000/svg" width="200mm" height="200mm" viewBox="0 0 566.93 566.93">
  <defs>
    <style>
      .cls-1 {
        fill: #fac80e;
      }

      .cls-2 {
        fill: #fff;
      }

      .cls-3 {
        <!-- fill: #a5729b; -->
        fill: #fff;
      }
    </style>
  </defs>
  <g id="Color">
    <path class="cls-3" d="m474.45,343.87l-21.26-38.2c-1.26-2.26-3.64-3.66-6.23-3.66H114.01c-2.58,0-4.96,1.4-6.23,3.65l-21.36,38.2c-1.24,2.21-1.21,4.91.07,7.09,1.28,2.18,3.62,3.52,6.15,3.52h47.13c-3.12,4.83-4.93,10.58-4.93,16.75,0,17.1,13.91,31.01,31.01,31.01s31.01-13.91,31.01-31.01c0-6.17-1.82-11.91-4.93-16.75h24.22c-3.12,4.83-4.93,10.58-4.93,16.75,0,17.1,13.91,31.01,31.01,31.01s31.01-13.91,31.01-31.01c0-6.17-1.82-11.91-4.93-16.75h24.21c-3.12,4.83-4.93,10.58-4.93,16.75,0,17.1,13.91,31.01,31.01,31.01s31.01-13.91,31.01-31.01c0-6.17-1.82-11.91-4.93-16.75h24.21c-3.12,4.83-4.93,10.58-4.93,16.75,0,17.1,13.91,31.01,31.01,31.01s31.01-13.91,31.01-31.01c0-6.17-1.82-11.91-4.93-16.75h47.13c2.53,0,4.87-1.34,6.15-3.52,1.28-2.18,1.31-4.88.08-7.08Zm-291.84,27.35c0,9.23-7.51,16.75-16.75,16.75s-16.75-7.51-16.75-16.75,7.51-16.75,16.75-16.75,16.75,7.51,16.75,16.75Zm76.38,0c0,9.23-7.51,16.75-16.75,16.75s-16.75-7.51-16.75-16.75,7.51-16.75,16.75-16.75,16.75,7.51,16.75,16.75Zm76.38,0c0,9.23-7.51,16.75-16.75,16.75s-16.75-7.51-16.75-16.75,7.51-16.75,16.75-16.75,16.75,7.51,16.75,16.75Zm76.38,0c0,9.23-7.51,16.75-16.75,16.75s-16.75-7.51-16.75-16.75,7.51-16.75,16.75-16.75,16.75,7.51,16.75,16.75Zm-306.93-31.01l13.38-23.93h324.57l13.32,23.93H104.81Z"/>
  </g>
  <g id="Yellow">
    <g>
      <circle class="cls-1" cx="306.09" cy="152" r="22.3"/>
      <path class="cls-1" d="m255.77,177.56c13.77,11.08,13.03,21.71,10.58,37.99-2.44,16.28-4.61,39.62-19.81,59.16-15.2,19.54-28.22,47.49-17.91,53.73,10.31,6.24,21.17,1.63,25.51-8.68s25.28-49.01,27.68-58.61c4.88-19.54,18.45,15.74,17.91,28.22s-15.2,33.92,0,39.62c15.2,5.7,19.54-15.74,23.88-32.02,4.34-16.28-11.94-45.05-13.03-55.9s-4.83-41.45,11.45-42.54c16.28-1.09,53.13-5.22,52.59-23.68s-34.19,2.71-46.13,4.34c-11.94,1.63-27.14,3.8-41.79-4.34s-43.96-47.22-54.27-38.53c-10.31,8.68,4.83,26.36,23.34,41.25Z"/>
    </g>
  </g>
</svg>