<?xml version="1.0" encoding="UTF-8"?>
<svg xmlns="http://www.w3.org/2000/svg" width="200mm" height="200mm" viewBox="0 0 566.93 566.93">
  <defs>
    <style>
      .cls-1 {
        fill: #fac80e;
      }

      .cls-2 {
        fill: #fff;
      }

      .cls-3 {
        fill: #18b369;
      }
    </style>
  </defs>
  <g id="Cirkel">
    <rect class="cls-2" x="0" y="0" width="566.93" height="566.93" rx="283.46" ry="283.46"/>
  </g>
  <g id="Color">
    <path class="cls-3" d="m421.98,124.46H148.88c-19.79,0-35.89,16.1-35.89,35.89v262.07c0,3.63,2.95,6.58,6.58,6.58s6.58-2.95,6.58-6.58v-100.69h25.52v63.06c0,3.63,2.95,6.58,6.58,6.58s6.58-2.95,6.58-6.58v-200.85c0-7.02,5.71-12.73,12.73-12.73h215.73c7.02,0,12.73,5.71,12.73,12.73v200.85c0,3.63,2.95,6.58,6.58,6.58s6.58-2.95,6.58-6.58v-63.06h25.52v100.69c0,3.63,2.95,6.58,6.58,6.58s6.58-2.95,6.58-6.58V160.35c0-19.79-16.1-35.89-35.89-35.89Zm17.4,21.29c3.32,3.95,5.33,9.05,5.33,14.6v59.13l-25.52,10v-45.54c0-5.88-1.97-11.3-5.28-15.65l25.47-22.54Zm-160.9,12.29h-48.67l-10.11-20.42h58.78v20.42Zm13.53-20.42h58.78l-10.11,20.42h-48.67v-20.42Zm-140.34,92l-25.52-10v-59.27c0-5.46,1.94-10.48,5.16-14.41l25.48,22.54c-3.22,4.32-5.13,9.67-5.13,15.45v45.69Zm-25.52,78.94v-74.8l25.52,10v64.8h-25.52Zm41.13-148.39l-24.54-21.7c1.96-.55,4.01-.85,6.14-.85h56.13l10.11,20.42h-37.56c-3.65,0-7.13.76-10.29,2.14Zm188.09-2.14l10.11-20.42h56.5c2.02,0,3.98.27,5.85.77l-24.49,21.68c-3.09-1.3-6.48-2.03-10.04-2.03h-37.92Zm63.82,150.52v-64.95l25.52-10v74.95h-25.52Z"/>
  </g>
  <g id="Yellow">
    <g>
      <path class="cls-1" d="m335.31,148.74c-8.46,3.72-19.43,23.13-25.4,33.89-5.96,10.76-12.9,26.01-31.62,24.26s-30.26-28.75-49.49-28.59c-19.24.15-10.58,13.5-2.33,19.93,8.25,6.43,27.74,21.56,28.45,39.35s-1.68,37.03,4.08,56.68c5.76,19.65,19.55,43.42,27.17,48.05,7.62,4.63,11.47,6.13,17.67,3.01,6.21-3.12,6.53-12.2,2.15-20.87-7.39-14.63-23.93-18.82-25.46-45.61-.5-8.72,7.25-20.28,15.27-11.28,8.02,9,21.18,19.26,41.24,20.42,20.05,1.16,34.04,1.96,34.05-10.57,0-12.52-21.68-11.22-35.54-13.18-13.87-1.97-26.9-12.5-29.12-26.53-2.29-14.43,13.95-38.33,20.48-47.98,6.53-9.65,17.66-21.19,20.02-28.36,2.35-7.18-.23-17.61-11.6-12.61Z"/>
      <circle class="cls-1" cx="280.43" cy="182.81" r="19.09"/>
    </g>
  </g>
</svg>