<svg xmlns="http://www.w3.org/2000/svg" width="200mm" height="200mm" viewBox="0 0 566.93 566.93">
  <defs>
    <style>
      .cls-1 {
        fill: #fac80e;
      }

      .cls-2 {
        fill: #fff;
      }

      .cls-3 {
        fill: #18b369;
      }
    </style>
  </defs>
  <g id="Cirkel">
    <rect class="cls-2" x="0" y="0" width="566.93" height="566.93" rx="283.46" ry="283.46"/>
  </g>
  <g id="Color">
    <path class="cls-3" d="m479.35,392.11c.08-.16.16-.33.22-.49.03-.08.07-.16.1-.24.08-.21.15-.42.2-.64,0-.03.02-.07.03-.1.06-.26.11-.52.15-.79,0-.05,0-.1.01-.15.02-.21.04-.43.04-.64,0-.07,0-.15,0-.22,0-.19-.01-.39-.03-.58,0-.08-.01-.16-.02-.24-.02-.19-.06-.39-.1-.58-.02-.07-.03-.15-.04-.22-.06-.26-.14-.52-.23-.78l-73.44-199.15c-.15-.87-.46-1.69-.89-2.42l-23.7-64.28c-.12-.32-.26-.61-.41-.9-.03-.06-.07-.13-.11-.19-.16-.29-.34-.56-.54-.81,0,0-.01-.01-.02-.02-.2-.25-.41-.48-.64-.71-.04-.04-.09-.09-.13-.13-.23-.22-.48-.42-.74-.6-.04-.02-.07-.05-.11-.07-.24-.16-.48-.3-.73-.43-.06-.03-.11-.06-.17-.09-.28-.14-.57-.25-.87-.35-.06-.02-.12-.04-.18-.05-.29-.09-.58-.16-.88-.21-.03,0-.05-.01-.08-.02-.33-.05-.67-.07-1-.08-.03,0-.05,0-.08,0h-178.33s-.05,0-.07,0c-.34,0-.68.03-1.01.08-.02,0-.04,0-.06.01-.31.05-.61.12-.91.21-.06.02-.11.03-.17.05-.3.1-.59.22-.88.35-.05.03-.11.06-.16.08-.26.13-.51.28-.74.44-.03.02-.07.04-.1.07-.26.18-.51.39-.74.61-.04.04-.09.08-.13.12-.23.22-.44.45-.64.71,0,0,0,.01-.01.02-.2.26-.38.53-.54.81-.04.06-.07.13-.11.19-.15.29-.3.59-.41.9l-98.04,265.85c-.09.26-.17.52-.23.78-.02.07-.03.14-.04.22-.04.19-.08.39-.1.58-.01.08-.02.16-.02.24-.02.19-.03.39-.03.58,0,.07,0,.15,0,.22,0,.22.02.43.04.64,0,.05,0,.1.01.15.04.27.08.53.15.79,0,.03.02.07.03.1.06.22.13.43.2.64.03.08.06.16.1.24.07.17.14.33.22.49.04.08.08.16.12.24.1.18.21.35.32.52.03.04.05.08.07.12,0,.01.02.02.03.03.15.22.32.43.5.63.02.03.05.05.07.07.16.17.32.33.49.49.05.05.11.09.16.14.15.13.3.25.46.36.07.05.13.09.2.14.16.1.32.2.48.29.07.04.14.08.22.12.18.09.36.17.55.25.06.02.12.05.18.08.01,0,.02,0,.03.01.23.09.47.16.7.22.06.01.11.02.17.04.21.05.42.09.63.12.06,0,.12.02.17.02.26.03.53.05.79.05,0,0,.02,0,.02,0h116.86s0,0,.01,0c0,0,.01,0,.02,0h140.58s.01,0,.02,0c0,0,0,0,.01,0h116.86s.01,0,.02,0c.26,0,.53-.02.79-.05.06,0,.12-.01.17-.02.21-.03.42-.07.63-.11.06-.01.11-.02.17-.04.24-.06.47-.13.7-.22.01,0,.02,0,.03-.01.06-.02.12-.05.18-.08.19-.08.37-.16.55-.25.07-.04.14-.08.22-.12.17-.09.33-.19.48-.29.07-.04.13-.09.2-.14.16-.11.31-.23.46-.36.06-.05.11-.09.17-.14.17-.16.34-.32.49-.49.02-.03.05-.05.07-.07.18-.2.35-.41.5-.63,0-.01.02-.02.03-.03.03-.04.05-.08.07-.12.11-.17.22-.34.32-.52.04-.08.08-.16.12-.24Zm-236.62-124.9l11.78-71.57h62.55l11.78,71.57h-86.11Zm88.46,14.27l16.51,100.3h-123.83l16.51-100.3h90.81Zm-24.9-151.29l8.43,51.18h-57.85l8.43-51.18h41Zm63.7,0l18.87,51.18h-59.69l-8.43-51.18h49.24Zm-127.58,51.18h-59.69l18.87-51.18h49.24l-8.43,51.18Zm-64.95,14.27h62.6l-11.78,71.57h-77.21l26.39-71.57Zm154.06,0h62.6l26.39,71.57h-77.21l-11.78-71.57Zm-196.81,115.92l11.18-30.33c.59.16,1.2.25,1.84.25h78.19l-16.51,100.3h-100.6l25.89-70.22Zm227.45,70.22l-16.51-100.3h78.32c.59,0,1.17-.08,1.72-.22l5.13,13.91,31.94,86.6h-100.6Z"/>
  </g>
  <g id="Yellow">
    <path class="cls-1" d="m452.17,182.5c-26.26,6-98.83,22.6-116.15,26.56-1.48.34-2.68-1.21-1.98-2.56,3.04-5.88,9.39-18.15,14.1-27.25.77-1.49-.75-3.13-2.29-2.46-8.81,3.79-27.77,11.95-33.9,14.59-1.02.44-2.18-.15-2.44-1.23-2.14-9.13-10.79-45.99-14.44-61.36-.43-1.8-2.97-1.85-3.46-.06-5.71,20.85-14.53,51.8-17.07,60.66-.34,1.19-1.76,1.68-2.77.95l-89.81-65.3c-1.52-1.1-3.49.58-2.64,2.25l39.03,76.95c.53,1.05-.07,2.32-1.23,2.56-11.87,2.46-66.76,13.87-87.17,18.13-1.86.39-1.91,3.03-.06,3.48,27.24,6.69,69.14,16.97,79.48,19.51,1.17.29,1.72,1.63,1.09,2.66l-40.14,65.74c-.99,1.62.89,3.46,2.49,2.44,17.72-11.35,66.17-42.38,77.94-49.91,1.16-.74,2.68.05,2.75,1.43,1.3,27.67,2.59,55.07,3.88,82.45.09,1.9,2.69,2.36,3.43.61l32.38-76.78c.47-1.12,1.91-1.46,2.82-.65,9.97,8.77,57.74,50.78,86.77,76.31,1.4,1.23,3.51-.24,2.85-1.98-7.96-20.92-32.17-84.2-35.99-94.19-.3-.78-.02-1.66.68-2.12,9.94-6.56,79.24-52.31,103.23-68.19,1.66-1.1.55-3.67-1.39-3.23Z"/>
  </g>
</svg>