<?xml version="1.0" encoding="UTF-8"?>
<svg xmlns="http://www.w3.org/2000/svg" width="200mm" height="200mm" viewBox="0 0 566.93 566.93">
  <defs>
    <style>
      .cls-1 {
        fill: #fac80e;
      }

      .cls-2 {
        fill: #fff;
      }

      .cls-3 {
        fill: #18b369;
      }
    </style>
  </defs>
  <g id="Cirkel">
    <rect class="cls-2" x="0" y="0" width="566.93" height="566.93" rx="283.46" ry="283.46" fill="#fff"/>
  </g>
  <g id="Color">
    <path class="cls-3" d="m482.96,276.87l-124.92-124.92c-1.82-1.82-4.21-2.73-6.59-2.73s-4.77.91-6.59,2.73l-61.39,61.39,10.8,10.8,57.19-57.19,116.51,116.51-66.12,66.12c-13.17-2.42-27.73-6.28-42.72-11.31l10.52-4.04c3.94-1.51,5.9-5.93,4.39-9.86-1.51-3.94-5.93-5.9-9.86-4.39l-26.98,10.36c-3.67,1.41-5.67,5.36-4.63,9.15l8.29,30.19c.93,3.39,4,5.61,7.36,5.61.67,0,1.35-.09,2.03-.27,4.07-1.12,6.46-5.32,5.34-9.38l-3.77-13.71c12.21,4.18,24.82,7.84,37.11,10.59l-37.47,37.47-57.19-57.19-10.8,10.8,61.39,61.39c1.82,1.82,4.21,2.73,6.59,2.73s4.77-.91,6.59-2.73l49.08-49.08c8.04,1.18,15.77,1.85,22.92,1.85,16.65,0,30.24-3.54,37.79-12.23,9.06-10.44,8.3-25.58-2.26-45.01-.36-.66-.81-1.24-1.31-1.75l18.7-18.7c3.64-3.64,3.64-9.55,0-13.19Zm-26.66,68.64c-4.9,5.64-17.71,8.02-35.43,6.64l32.35-32.35c4.52,8.83,8.23,19.77,3.08,25.71Z" fill="#18b369"/>
  </g>
  <g id="Yellow">
    <path class="cls-1" d="m347,276.87l-52.73-52.73-10.8-10.8-61.39-61.39c-3.64-3.64-9.55-3.64-13.19,0l-49.07,49.07c17.69,2.59,36.96,7.7,55.3,13.98l-3.77-13.71c-1.12-4.07,1.27-8.27,5.34-9.38,4.07-1.12,8.27,1.27,9.38,5.34l8.29,30.19c1.04,3.79-.96,7.74-4.63,9.15l-26.98,10.36c-.9.34-1.82.51-2.73.51-3.07,0-5.96-1.86-7.13-4.9-1.51-3.94.45-8.35,4.39-9.86l10.52-4.04c-21.08-7.08-41.34-11.83-58.03-13.55-1.26-.13-2.5-.24-3.71-.33l-32.35,32.35h0l-11.05,11.05h0l-18.7,18.7c-3.64,3.64-3.64,9.55,0,13.19l124.92,124.92c3.64,3.64,9.55,3.64,13.19,0l61.39-61.39,10.8-10.8,52.73-52.73c3.64-3.64,3.64-9.55,0-13.19Z" fill="#fac80e"/>
  </g>
  <g id="color_" data-name="color +">
    <path class="cls-3" d="m226.07,197.26c-1.12-4.07-5.32-6.46-9.38-5.34-4.07,1.12-6.46,5.32-5.34,9.38l3.77,13.71c-46.1-15.8-98.11-24.24-116.02-3.6-9.06,10.44-8.3,25.58,2.26,45.01.36.66.81,1.24,1.31,1.75l11.05-11.05c-4.52-8.83-8.23-19.77-3.08-25.71,5.23-6.03,19.5-8.33,39.14-6.31,16.69,1.72,36.95,6.47,58.03,13.55l-10.52,4.04c-3.94,1.51-5.9,5.93-4.39,9.86,1.17,3.04,4.06,4.9,7.13,4.9.91,0,1.84-.16,2.73-.51l26.98-10.36c3.67-1.41,5.67-5.36,4.63-9.15l-8.29-30.19Z" fill="#18b369"/>
  </g>
</svg>