<svg version="1.1" id="Layer_1" xmlns="http://www.w3.org/2000/svg" xmlns:xlink="http://www.w3.org/1999/xlink" x="0px" y="0px"
	 width="566.929px" height="566.929px" viewBox="0 0 566.929 566.929" enable-background="new 0 0 566.929 566.929"
	 xml:space="preserve">
<g>
	<defs>
		<rect id="SVGID_1_" width="566.929" height="566.929"/>
	</defs>
	<clipPath id="SVGID_2_">
		<use xlink:href="#SVGID_1_"  overflow="visible"/>
	</clipPath>
	<!-- <path clip-path="url(#SVGID_2_)" fill="#FFFFFF" d="M283.465,566.929L283.465,566.929C126.911,566.929,0,440.018,0,283.465v-0.001
		C0,126.911,126.911,0,283.464,0h0.001c156.553,0,283.464,126.911,283.464,283.464v0.001
		C566.929,440.018,440.018,566.929,283.465,566.929"/> -->
	<path clip-path="url(#SVGID_2_)" fill="#FAC80E" d="M402.808,393.912c-5.272-15.537-10.394-30.759-15.617-45.944
		c-1.512-4.397-2.521-8.679-0.688-13.271c0.864-2.165,1.238-4.537,1.734-6.837c1.308-6.068,2.599-12.141,3.826-18.227
		c1.31-6.492,3.039-12.953,3.669-19.516c0.712-7.429,0.541-14.956,0.513-22.44c-0.044-11.718-2.884-22.972-7.371-33.633
		c-3.6-8.557-7.831-17.022-13.024-24.686c-5.085-7.505-11.314-14.382-17.816-20.744c-8.043-7.869-17.509-13.983-27.585-19.118
		c-9.325-4.753-19.137-8.219-29.331-10.162c-7.956-1.516-16.157-2.197-24.264-2.34c-7.556-0.133-15.245,0.306-22.674,1.623
		c-10.343,1.833-20.362,5.094-29.869,9.765c-15.617,7.673-29.15,17.941-40.302,31.375c-8.727,10.513-15.574,22.105-20.399,34.835
		c-3.749,9.891-6.461,20.123-7.17,30.72c-0.425,6.355-0.642,12.797-0.093,19.124c0.675,7.777,1.752,15.592,3.541,23.181
		c3.087,13.094,8.809,25.138,16.217,36.389c5.638,8.562,12.197,16.351,19.88,23.079c8.964,7.85,18.768,14.509,29.682,19.49
		c11.786,5.379,23.985,9.238,36.905,10.454c10.326,0.971,20.622,0.978,30.962-0.638c10.905-1.704,21.397-4.468,31.45-9.039
		c4.073-1.853,8.071-4.065,12.972-3.101c5.463,1.076,11.019,1.688,16.53,2.52c2.259,0.34,4.515,0.709,6.768,1.09
		c6.251,1.055,12.5,2.126,18.75,3.185c4.21,0.714,8.406,1.532,12.638,2.087C395.916,393.561,399.237,393.652,402.808,393.912"/>
	<path clip-path="url(#SVGID_2_)" fill="#FAC80E" d="M402.808,393.912c-3.57-0.26-6.892-0.351-10.167-0.778
		c-4.231-0.555-8.428-1.373-12.638-2.087c-6.25-1.059-12.499-2.13-18.75-3.185c-2.253-0.381-4.509-0.75-6.768-1.09
		c-5.512-0.831-11.067-1.443-16.53-2.52c-4.9-0.965-8.898,1.248-12.972,3.101c-10.053,4.571-20.545,7.335-31.45,9.039
		c-10.34,1.615-20.636,1.608-30.962,0.638c-12.92-1.216-25.119-5.075-36.905-10.454c-10.914-4.981-20.718-11.641-29.682-19.49
		c-7.683-6.729-14.242-14.518-19.88-23.079c-7.408-11.251-13.13-23.295-16.217-36.389c-1.789-7.589-2.866-15.403-3.541-23.181
		c-0.549-6.327-0.332-12.769,0.093-19.124c0.709-10.597,3.421-20.829,7.17-30.72c4.825-12.73,11.672-24.322,20.399-34.835
		c11.152-13.434,24.685-23.702,40.302-31.375c9.507-4.671,19.526-7.932,29.869-9.765c7.429-1.317,15.118-1.756,22.674-1.623
		c8.106,0.143,16.308,0.824,24.264,2.34c10.194,1.943,20.006,5.409,29.331,10.162c10.076,5.135,19.542,11.249,27.585,19.118
		c6.502,6.362,12.731,13.239,17.816,20.744c5.193,7.664,9.425,16.129,13.024,24.686c4.487,10.661,7.327,21.915,7.371,33.633
		c0.028,7.484,0.199,15.011-0.513,22.44c-0.63,6.563-2.359,13.023-3.669,19.516c-1.228,6.086-2.519,12.158-3.826,18.227
		c-0.496,2.3-0.87,4.672-1.734,6.837c-1.834,4.592-0.824,8.873,0.688,13.271C392.414,363.153,397.535,378.375,402.808,393.912"/>
</g>
<g>
	<defs>
		<rect id="SVGID_3_" width="566.929" height="566.929"/>
	</defs>
	<clipPath id="SVGID_4_">
		<use xlink:href="#SVGID_3_"  overflow="visible"/>
	</clipPath><!--#E1614A-->
	<path clip-path="url(#SVGID_4_)" fill="#fff" d="M391.885,141.625c-23.051-15.078-57.503-22.101-108.42-22.101
		c-54.869,0-90.914,8.16-113.438,25.678c-20.909,16.262-30.648,41.08-30.648,78.102c0,8.57,0.384,17.383,0.79,26.712l0.056,1.293
		c0.082,1.872,0.933,3.628,2.353,4.851c1.419,1.223,3.278,1.807,5.145,1.61c14.32-1.508,38.926-2.482,62.687-2.482
		c16.334,0,31.762,0,41.271,0.413c2.028,0.086,3.995-0.739,5.353-2.253c1.357-1.514,1.964-3.556,1.655-5.566
		c-0.549-3.575-0.465-7.384-0.39-10.746c0.025-1.174,0.05-2.292,0.05-3.336c0-23.55,8.641-26.796,17.979-26.796
		c12.481,0,15.039,5.341,15.039,13.36c0,13.78-2.466,26.03-32.834,36.421c-20.205,7.13-33.041,15.637-41.62,27.58
		c-8.784,12.228-12.875,28.179-12.875,50.199c0,4.258,0,7.935,0.462,12.088c0.384,3.462,3.315,6.041,6.744,6.041
		c0.169,0,0.338-0.006,0.508-0.019c24.294-1.799,42.988-2.5,66.675-2.5c12.727,0,44.704,0.162,66.715,1.664
		c2.021,0.138,4.004-0.636,5.399-2.109c1.394-1.476,2.056-3.496,1.804-5.511c-0.368-2.938-0.368-4.29-0.368-7.555
		c0-6.615,2.172-16.716,20.911-28.096c39.845-21.117,54.663-45.838,54.663-91.143C427.55,182.117,415.884,157.324,391.885,141.625
		 M336.892,336.253c-21.549-1.049-47.94-1.164-58.465-1.164c-21.403,0-38.708,0.564-59.301,1.942
		c-0.004-0.791-0.004-1.61-0.004-2.467c0-35.793,11.196-51.825,44.355-63.53c17.211-5.888,28.842-13.452,35.557-23.124
		c6.575-9.471,7.419-19.697,7.419-27.547c0-18.078-10.98-28.446-30.125-28.446c-11.745,0-20.564,4.297-26.214,12.773
		c-4.61,6.916-6.851,16.437-6.851,29.11c0,0.931-0.022,1.929-0.047,3.036c-0.024,1.087-0.051,2.277-0.056,3.529
		c-8.973-0.164-20.042-0.164-32.75-0.164c-15.451,0-37.909,0.473-55.483,1.787c-0.247-6.089-0.462-12.501-0.462-18.685
		c0-32.287,7.108-51.832,23.765-65.354c19.618-15.924,53.057-23.341,105.235-23.341c47.194,0,79.958,6.425,100.161,19.641
		c19.675,12.869,28.838,32.943,28.838,63.175c0,39.74-11.811,59.397-46.807,77.901c-0.14,0.074-0.277,0.153-0.413,0.235
		C346.326,306.998,337.048,320.313,336.892,336.253"/>
	<path clip-path="url(#SVGID_4_)" fill="#fff" d="M326.372,371.402c-10.956-6.355-26.776-9.446-48.366-9.446
		c-21.589,0-37.409,3.091-48.364,9.446c-12.226,7.095-18.424,18.18-18.424,32.948c0,28.569,22.471,43.056,66.788,43.056
		c44.318,0,66.79-14.486,66.79-43.056C344.796,389.582,338.597,378.497,326.372,371.402 M329.71,404.35
		c0,7.649,0,27.97-51.704,27.97c-51.703,0-51.703-20.32-51.703-27.97c0-8.172,0-27.31,51.703-27.31
		C329.71,377.041,329.71,396.178,329.71,404.35"/>
</g>
</svg>
