<svg width="21" height="21" viewBox="0 0 21 21" fill="none" xmlns="http://www.w3.org/2000/svg">
<path fill-rule="evenodd" clip-rule="evenodd" d="M19.1953 8.20312H17.5547L16.5211 10.0111C16.3488 10.313 16.3488 10.6854 16.5211 10.9873L17.5547 12.7952H19.1953L18.0223 10.7428C17.9353 10.5919 17.9353 10.4065 18.0223 10.2539L19.1953 8.20148V8.20312ZM14.7656 8.20312C14.4933 8.20312 14.2734 8.42297 14.2734 8.69531V12.3047C14.2734 12.577 14.4933 12.7969 14.7656 12.7969H15.75V8.20312H14.7656ZM6.3 8.20312H4.65937L4.94977 8.70023C5.12531 9.00211 5.12859 9.37453 4.95797 9.67805L4.76766 10.016C4.59867 10.3162 4.59867 10.6821 4.76766 10.9807L4.95797 11.3187C5.12859 11.6238 5.12695 11.9962 4.94977 12.2965L4.65937 12.7936H6.3L6.59039 12.2965C6.76594 11.9946 6.76922 11.6222 6.59859 11.3187L6.27211 10.7395C6.18844 10.5902 6.18844 10.4065 6.27211 10.2572L6.59859 9.67805C6.76922 9.37289 6.76758 9.00047 6.59039 8.70023L6.3 8.20312ZM2.13281 8.69531C2.13281 8.42297 2.35266 8.20312 2.625 8.20312H3.60938V12.7969H2.625C2.35266 12.7969 2.13281 12.577 2.13281 12.3047V8.69531ZM10.5 14.4375C9.59437 14.4375 8.85938 13.7025 8.85938 12.7969C8.85938 12.5245 8.63953 12.3047 8.36719 12.3047H7.54688V12.7969C7.54688 14.4277 8.86922 15.75 10.5 15.75C12.1308 15.75 13.4531 14.4277 13.4531 12.7969V12.3047H12.6328C12.3605 12.3047 12.1406 12.5245 12.1406 12.7969C12.1406 13.7025 11.4056 14.4375 10.5 14.4375ZM10.5 21C16.2996 21 21 16.2996 21 10.5C21 4.70039 16.2996 0 10.5 0C4.70039 0 0 4.70039 0 10.5C0 16.2996 4.70039 21 10.5 21Z" fill="currentColor"/>
</svg> 
