<svg width="24" height="24" viewBox="0 0 512 512" fill="none" xmlns="http://www.w3.org/2000/svg">
<path d="M256 0C114.6 0 0 114.6 0 256C0 397.4 114.6 512 256 512C397.4 512 512 397.4 512 256C512 114.6 397.4 0 256 0ZM256 128C273.67 128 288 142.33 288 160C288 177.67 273.67 192 256 192C238.33 192 224 177.7 224 160C224 142.3 238.3 128 256 128ZM296 384H216C202.8 384 192 373.3 192 360C192 346.7 202.75 336 216 336H232V272H224C210.75 272 200 261.25 200 248C200 234.75 210.8 224 224 224H256C269.25 224 280 234.75 280 248V336H296C309.25 336 320 346.75 320 360C320 373.25 309.3 384 296 384Z" fill="black"/>
</svg>
