<?xml version="1.0" encoding="UTF-8"?>
<svg xmlns="http://www.w3.org/2000/svg" width="200mm" height="200mm" viewBox="0 0 566.93 566.93">
  <defs>
    <style>
      .cls-1 {
        fill: #fac80e;
      }

      .cls-2 {
        fill: #fff;
      }

      .cls-3 {
        fill: #18b369;
      }
    </style>
  </defs>
  <g id="Cirkel">
    <rect class="cls-2" x="0" y="0" width="566.93" height="566.93" rx="283.46" ry="283.46" fill="#FFF"/>
  </g>
  <g id="Color">
    <path class="cls-3" d="m474.15,378.17l-20.62-37.05c-1.26-2.26-3.64-3.66-6.23-3.66h-12.13c2.2-7.52,4.49-16.27,6.33-25.38,7.37-36.49,3.64-60.04-11.09-70-11.9-8.04-17.93-14.56-18.96-20.53-1.01-5.81,2.16-12.94,11.3-25.41,8.1-11.04,10.11-20.5,5.99-28.1-5.18-9.54-19.1-13.73-41.36-12.46-14.03.8-23.78,5.68-28.99,14.49-6.98,11.8-4.89,29,6.38,52.56,4.67,9.77,5.24,17.66,1.67,23.43-6.31,10.22-26.5,16.38-55.37,16.89-13.67.27-23.07-3.18-27.96-10.17-6.43-9.19-5.85-25.55,1.58-44.88,9.45-24.56,13.91-57.87,2.6-76.91-5.01-8.43-12.81-13.57-22.54-14.85-18.15-2.38-26.05,6.24-33.69,14.58-4.08,4.45-8.45,9.23-15.1,13.44-3.64,2.31-7.97,4.45-13.3,6.28-3.16,1.09-6.66,2.07-10.6,2.9-1.45.31-2.86.62-4.23.94-.91,1.92-1.44,4.15-1.44,6.54,0,3,.83,5.76,2.2,7.95,1.98-.49,4.11-.98,6.43-1.48,4.19-.89,8-1.94,11.47-3.1,5.63-1.88,10.39-4.07,14.48-6.42,9.77-5.6,15.72-12.1,20.6-17.42,7.01-7.65,10.53-11.49,21.31-10.07,5.46.72,9.32,3.26,12.14,7.99,8.43,14.18,4.55,43.18-3.65,64.49-5.39,14.01-12.55,40.2.04,58.19,7.78,11.12,21.24,16.6,39.9,16.25,43.99-.79,60.85-13.3,67.25-23.66,6.28-10.17,5.97-22.65-.93-37.09-8.68-18.16-11.16-32.06-6.97-39.15,2.64-4.47,8.54-6.99,17.52-7.51,19.36-1.11,26.71,2.64,28.01,5.02.92,1.69.1,5.96-4.95,12.85-9.78,13.34-15.88,24.61-13.85,36.28,1.77,10.18,9.49,19.41,25.03,29.91,9.22,6.23,11.04,25.83,5.12,55.19-2.08,10.33-4.82,20.29-7.28,28.37H156c-.25-2.78-.53-5.54-.81-8.26-2.11-20.33-3.78-36.38,11.48-49.79,24.46-21.49,12.95-52.28,6.07-70.68-1.69-4.51-3.14-8.41-3.84-11.34-.64-2.7-1.48-5.25-2.22-7.5-1.72-5.24-2.71-8.56-1.53-10.62.81-1.4,3.13-3.62,9.61-6.2-1.68-3.67-2.63-7.82-2.63-12.21,0-.7.03-1.39.08-2.08-10.19,3.67-16.29,7.95-19.42,13.38-4.42,7.68-1.89,15.38.34,22.18.68,2.09,1.39,4.24,1.9,6.36.9,3.8,2.5,8.08,4.36,13.04,8.17,21.87,13.66,41.1-2.13,54.97-20.79,18.27-18.48,40.49-16.25,61.98.23,2.25.47,4.51.68,6.79h-17.31c-2.58,0-4.96,1.4-6.23,3.65l-20.72,37.05c-1.24,2.21-1.21,4.91.07,7.09,1.28,2.18,3.62,3.52,6.15,3.52h364.27c2.53,0,4.87-1.34,6.15-3.52,1.28-2.18,1.31-4.88.08-7.08Zm-358.34-3.66l12.74-22.78h13.88c0,2.1-.07,4.19-.22,6.28-.29,3.93,2.65,7.35,6.58,7.65,3.93.3,7.35-2.65,7.65-6.58.19-2.47.26-4.92.27-7.34h258.87c-.94,2.65-1.53,4.19-1.55,4.25-1.41,3.68.42,7.8,4.1,9.22.84.32,1.71.48,2.56.48,2.86,0,5.57-1.74,6.66-4.57.14-.36,1.46-3.83,3.34-9.37h12.43l12.68,22.78H115.81Z" fill="#18b369"/>
  </g>
  <g id="Yellow">
    <path class="cls-1" d="m261.22,279.64l-24.11-62.6c-2.95-7.67-10.64-12.1-18.44-11.28l-8.37-22.41c6.53-4.88,10.83-13.15,10.83-22.51,0-1.03-.06-2.05-.16-3.05-4.09,2.35-8.85,4.54-14.48,6.42-1.18,5.46-5.15,9.5-9.87,9.5-3.26,0-6.16-1.93-8.04-4.92-1.37-2.19-2.2-4.95-2.2-7.95,0-2.39.53-4.62,1.44-6.54,1.79-3.78,5.06-6.33,8.8-6.33,2.25,0,4.33.93,6.02,2.49,5.33-1.83,9.66-3.97,13.3-6.28-4.49-6.37-11.48-10.47-19.32-10.47-12.88,0-23.46,11.06-24.43,25.05-.05.69-.08,1.38-.08,2.08,0,4.39.95,8.54,2.63,12.21,4.04,8.85,12.33,14.93,21.87,14.93.06,0,.11,0,.17,0l9.02,24.13c-4.34,4.82-5.89,11.83-3.4,18.29l24.11,62.6c3.53,9.16,13.82,13.73,22.98,10.2l1.51-.58c9.16-3.53,13.73-13.82,10.2-22.98Z" fill="#fac80e"/>
  </g>
</svg>