<svg width="17" height="20" viewBox="0 0 17 20" fill="none" xmlns="http://www.w3.org/2000/svg">
    <g clip-path="url(#clip0_122_4107)">
        <path d="M8.26087 10.5374C9.58542 10.5374 10.6592 9.4759 10.6592 8.16648C10.6592 6.85706 9.58542 5.79556 8.26087 5.79556C6.93631 5.79556 5.86255 6.85706 5.86255 8.16648C5.86255 9.4759 6.93631 10.5374 8.26087 10.5374Z" fill="currentColor" />
        <path d="M13.7504 2.06532C11.9916 0.516325 9.62525 -0.221293 7.25891 0.0526791C3.12314 0.5374 0 4.16227 0 8.47207C0 10.5058 0.746143 12.4657 2.09986 13.9937L6.85386 19.3677C7.20561 19.7682 7.71725 20 8.26087 20C8.80449 20 9.31613 19.7682 9.66788 19.3677L14.4219 13.9937C15.7756 12.4657 16.5217 10.5058 16.5217 8.47207V8.16648C16.5217 5.83772 15.5091 3.61432 13.7504 2.06532ZM8.26087 12.118C6.05442 12.118 4.26367 10.3477 4.26367 8.16648C4.26367 5.98524 6.05442 4.21496 8.26087 4.21496C10.4673 4.21496 12.2581 5.98524 12.2581 8.16648C12.2581 10.3477 10.4673 12.118 8.26087 12.118Z" fill="currentColor" />
    </g>
    <defs>
        <clipPath id="clip0_122_4107">
            <rect width="16.5217" height="20" fill="white" />
        </clipPath>
    </defs>
</svg>
