<?xml version="1.0" encoding="utf-8"?>
<svg version="1.1" id="Layer_1" xmlns="http://www.w3.org/2000/svg" xmlns:xlink="http://www.w3.org/1999/xlink" x="0px" y="0px"
	 viewBox="0 0 79.61 79.61" style="enable-background:new 0 0 79.61 79.61;" xml:space="preserve">
<style type="text/css">
	.st0{fill:none;stroke:#FACC18;stroke-width:2.4;stroke-linecap:round;stroke-linejoin:round;stroke-miterlimit:10;}
</style>
<g>
	<path class="st0" d="M38.35,44.47c-1.04,0.93-2.1,1.84-3.41,2.38"/>
	<path class="st0" d="M58.83,25.2c-1.47-1.32-3.23-1.89-5.18-1.78c-1.33,0.07-2.56,0.48-3.63,1.31"/>
	<path class="st0" d="M37.39,38.43c-0.86,0.75-0.73,1.75-0.71,2.74c0.03,1.38,0.84,2.49,1.75,3.13c0.94,0.66,2.25,1.4,3.61,0.61"/>
	<path class="st0" d="M42.13,44.84c1.14,0.35,1.93,1.27,2.96,1.82c2.2,1.18,4.49,1.97,6.99,2.21c3.33,0.32,6.47-0.25,9.42-1.75
		c3.82-1.95,6.67-4.88,8.24-8.92c2.46-6.3,1.56-12.13-2.58-17.49c-1.73-2.24-3.94-3.88-6.46-5.01c-1.84-0.82-3.83-1.32-5.88-1.42
		c-4.6-0.22-8.71,1.11-12.24,4.04c-2.92,2.43-4.84,5.52-5.71,9.25c-0.78,3.33-0.97,7.16,0.51,10.86"/>
	<path class="st0" d="M55.01,18.48c-1.84-0.09-3.67,0-5.42,0.63c-3.99,1.42-6.78,4.07-8.24,8.07c-1.33,3.63-1.03,7.21,0.72,10.59
		c1.64,3.16,4.27,5.36,7.67,6.42c3.44,1.07,6.86,0.8,10.1-0.9c3.07-1.61,5.25-4.07,6.34-7.32c1.48-4.43,0.81-8.64-2.04-12.41
		c-1.56-2.06-3.6-3.49-6.04-4.35c-0.98-0.34-1.98-0.57-3-0.71"/>
	<path class="st0" d="M36.71,42.07c-1.19,0.58-2.22,1.41-3.21,2.27c-0.19,0.17-0.4,0.3-0.56,0.28c-1.15-0.19-1.99,0.49-2.86,1.03
		c-3.14,1.94-6.26,3.91-9.38,5.88c-2.41,1.52-4.8,3.08-7.21,4.61c-1.35,0.85-2.76,1.62-4.02,2.61c-1.04,0.82-1.26,1.68-0.58,2.93
		c0.57,1.05,1.27,2,2.08,2.86c0.88,0.93,1.59,1.07,2.69,0.44c1.3-0.75,2.4-1.81,3.56-2.75c1.7-1.38,3.4-2.76,5.09-4.14
		c2.27-1.86,4.53-3.72,6.8-5.58c1.53-1.25,3.07-2.49,4.61-3.73c0.37-0.3,0.63-0.66,0.84-1.09c0.29-0.58,0.33-1.07-0.15-1.59
		c-0.41-0.44-0.72-0.98-1.07-1.47"/>
</g>
</svg>
