<?xml version="1.0" encoding="utf-8"?>
<!-- Generator: Adobe Illustrator 16.0.0, SVG Export Plug-In . SVG Version: 6.00 Build 0)  -->
<!DOCTYPE svg PUBLIC "-//W3C//DTD SVG 1.1//EN" "http://www.w3.org/Graphics/SVG/1.1/DTD/svg11.dtd">
<svg version="1.1" xmlns="http://www.w3.org/2000/svg" xmlns:xlink="http://www.w3.org/1999/xlink" x="0px" y="0px" width="2160px"
	 height="3840px" viewBox="0 0 2160 3840" enable-background="new 0 0 2160 3840" xml:space="preserve">
<g id="Layer_1">
	<g>
		<defs>
			<rect id="SVGID_1_" width="2160" height="3840"/>
		</defs>
		<clipPath id="SVGID_2_">
			<use xlink:href="#SVGID_1_"  overflow="visible"/>
		</clipPath>
		<path clip-path="url(#SVGID_2_)" fill="#FDEAB9" d="M1388.296,1802.513c-1.33,0.422-2.662,0.846-3.992,1.27l-16.578,16.577
			C1374.248,1813.838,1381.13,1807.898,1388.296,1802.513"/>
		<path clip-path="url(#SVGID_2_)" fill="#FDEAB9" d="M0,3817.592V3840h61.327c-8.394-19.635-13.36-40.385-14.903-61.34
			C31.115,3791.903,15.642,3804.889,0,3817.592"/>
		<path clip-path="url(#SVGID_2_)" fill="#FDEAB9" d="M1462.662,2272.381c18.988-13.294,39.847-22.743,61.495-28.363
			c-6.097-6.291-12.232-12.581-18.405-18.869l-44.902,44.901C1461.454,2270.826,1462.059,2271.603,1462.662,2272.381"/>
		<path clip-path="url(#SVGID_2_)" fill="#FDEAB9" d="M1761.455,2512.259c-3.367-4.187-6.748-8.374-10.146-12.562
			c-9.358,23.951-23.697,46.404-43.044,65.752L1761.455,2512.259z"/>
		<path clip-path="url(#SVGID_2_)" fill="#FDEAB9" d="M22.34,445.04c48.834,119.802,108.148,243.457,179.965,369.483l21.809-21.809
			l57.973-57.973c6.482-6.482,13.32-12.39,20.439-17.751C187.982,490.069,93.517,246.032,46.555,0H0v211.226
			C60.798,275.942,68.24,372.517,22.34,445.04"/>
		<path clip-path="url(#SVGID_2_)" fill="#FDEAB9" d="M1242.885,1402.065c-0.705,2.532-1.408,5.068-2.109,7.605
			c24.416-16.354,51.75-26.506,79.795-30.448C1485.576,982.093,1763.324,437.664,2160,63.121V0h-156.648
			c-268.556,288.91-534.259,691.091-712.913,1243.797C1298.965,1299.293,1283.117,1357.805,1242.885,1402.065"/>
		<path clip-path="url(#SVGID_2_)" fill="#FDEAB9" d="M882.873,851.164c20.832,9.296,40.35,22.477,57.441,39.57h0.001
			c74.946,74.947,74.947,196.459,0,271.406l24.755-24.754c14.47-14.47,30.681-26.133,47.951-35.016
			C984.686,768.724,982.024,371.819,1058.371,0H906.654C865.404,249.703,850.75,534.148,882.873,851.164"/>
		<path clip-path="url(#SVGID_2_)" fill="#FDEAB9" d="M1538.334,1549.669c169.774-130.748,383.525-280.48,621.666-413.681V986.497
			c-210.795,125.389-427.584,286.215-643.533,491.818C1528.526,1500.708,1535.816,1524.989,1538.334,1549.669"/>
		<path clip-path="url(#SVGID_2_)" fill="#FDEAB9" d="M1653.159,2076.117c153.353,63.886,328.324,144.476,506.841,242.136v-130.063
			c-144.745-64.877-302.26-123.742-473.549-174.315C1679.471,2036.039,1668.374,2057.185,1653.159,2076.117"/>
		<path clip-path="url(#SVGID_2_)" fill="#FDEAB9" d="M1616.825,1801.221c157.338-22.049,343.512-41.616,543.175-49.428v-113.798
			c-202.119,21.423-417.374,61.873-645.204,126.515C1550.83,1766.638,1586.379,1778.866,1616.825,1801.221"/>
		<path clip-path="url(#SVGID_2_)" fill="#A5709E" d="M1639.121,2091.778l-57.971,57.972c-0.001,0-0.001,0-0.002,0.002
			l-75.396,75.396c6.174,6.288,12.309,12.578,18.405,18.87c63.69-16.535,134.216,0.13,184.108,50.022
			c55.602,55.602,69.939,136.825,43.044,205.656c3.397,4.188,6.778,8.375,10.146,12.562l134.159-134.158
			c72.65-72.65,189.054-74.875,264.386-6.679v-53.17c-178.517-97.658-353.489-178.25-506.84-242.136
			C1648.813,2081.525,1644.141,2086.76,1639.121,2091.778"/>
		<path clip-path="url(#SVGID_2_)" fill="#E0BDDC" d="M1639.121,1820.371L1639.121,1820.371
			c52.36,52.36,68.129,127.444,47.33,193.503c171.288,50.574,328.803,109.438,473.549,174.315v-436.396
			c-199.664,7.812-385.836,27.379-543.174,49.428C1624.617,1806.942,1632.076,1813.325,1639.121,1820.371"/>
		<path clip-path="url(#SVGID_2_)" fill="#FBCD18" d="M1483.129,1704.957l-93.619,93.62c-0.004,0.002-0.006,0.005-0.008,0.007
			l-5.199,5.199c1.332-0.424,2.662-0.848,3.994-1.27c37.186-27.95,82.205-40.617,126.5-38.002
			c227.83-64.644,443.084-105.093,645.203-126.516v-502.006c-238.141,133.2-451.892,282.933-621.666,413.681
			C1543.985,1605.087,1525.59,1662.496,1483.129,1704.957"/>
		<path clip-path="url(#SVGID_2_)" fill="#A5709E" d="M1320.57,1379.223c57.631-8.1,118.237,10.004,162.56,54.326
			c13.576,13.576,24.68,28.687,33.337,44.765c215.949-205.602,432.738-366.429,643.533-491.818V63.121
			C1763.324,437.664,1485.576,982.093,1320.57,1379.223"/>
		<path clip-path="url(#SVGID_2_)" fill="#FBCD18" d="M1211.729,1433.543c9.056-9.055,18.796-17.005,29.047-23.872
			c0.702-2.538,1.404-5.074,2.109-7.606c-2.073,2.281-4.205,4.527-6.407,6.729L1211.729,1433.543z"/>
		<path clip-path="url(#SVGID_2_)" fill="#FBCD18" d="M1013.021,1102.371c72.186-37.125,162.979-25.461,223.456,35.016
			c30,30,47.979,67.462,53.961,106.411C1469.094,691.092,1734.795,288.911,2003.352,0H1058.37
			C982.024,371.819,984.687,768.725,1013.021,1102.371"/>
		<path clip-path="url(#SVGID_2_)" fill="#DF6050" d="M553.493,734.742L553.493,734.742c74.945,74.945,74.947,196.453,0.007,271.4
			l115.408-115.408c57.855-57.854,143.453-71.035,213.964-39.569C850.75,534.148,865.404,249.703,906.655,0h-860.1
			c46.961,246.031,141.427,490.068,255.97,716.989C377.712,660.369,485.028,666.276,553.493,734.742"/>
		<path clip-path="url(#SVGID_2_)" fill="#DF6050" d="M79.823,665.597c74.947,74.947,74.947,196.459,0.001,271.406l122.48-122.48
			C130.489,688.497,71.174,564.841,22.34,445.04C15.932,455.166,8.489,464.826,0,473.863v143.811
			C29.211,626.536,56.729,642.503,79.823,665.597z"/>
		<path clip-path="url(#SVGID_2_)" fill="#22C26A" d="M102.104,3628.795L0,3730.898v86.693
			c15.642-12.703,31.115-25.689,46.424-38.931C42.469,3724.939,61.025,3669.874,102.104,3628.795"/>
		<path clip-path="url(#SVGID_2_)" fill="#DF6050" d="M1436.86,2294.04c8.096-8.097,16.737-15.313,25.802-21.659
			c-0.604-0.777-1.208-1.555-1.812-2.331L1436.86,2294.04z"/>
		<path clip-path="url(#SVGID_2_)" fill="#A5709E" d="M1895.614,2378.1l-134.159,134.159l-53.189,53.19l-71.312,71.311l-0.003,0.003
			l-0.005,0.005l-135.858,135.858l299.245-299.245c74.947-74.947,196.46-74.947,271.407,0v0.001
			c74.947,74.947,74.947,196.46,0,271.406l-27.684,27.684L2160,2656.529v-285.107
			C2084.668,2303.225,1968.264,2305.45,1895.614,2378.1"/>
		<polygon clip-path="url(#SVGID_2_)" fill="#A5709E" points="433.713,3840 433.713,3840 444.822,3828.891 		"/>
		<path clip-path="url(#SVGID_2_)" fill="#FBCD18" d="M432.713,3840h1l11.109-11.109C440.91,3832.802,436.865,3836.497,432.713,3840
			"/>
		<path clip-path="url(#SVGID_2_)" fill="#FBCD18" d="M173.424,3828.881c-74.946-74.945-74.946-196.457-0.001-271.405
			l-71.319,71.319c-41.078,41.078-59.635,96.146-55.68,149.866c1.543,20.954,6.51,41.703,14.903,61.339h124.216
			C181.388,3836.494,177.339,3832.796,173.424,3828.881z"/>
		<path clip-path="url(#SVGID_2_)" fill="#FBCD18" d="M1636.946,2365.361c74.944,74.944,74.946,196.451,0.008,271.398l71.312-71.311
			c19.347-19.348,33.686-41.801,43.043-65.752c26.896-68.832,12.558-150.056-43.043-205.655
			c-49.893-49.894-120.418-66.559-184.108-50.024c-21.647,5.62-42.506,15.069-61.495,28.363
			c-9.064,6.347-17.706,13.563-25.802,21.659l-71.32,71.319C1440.487,2290.414,1561.999,2290.414,1636.946,2365.361"/>
		<polygon clip-path="url(#SVGID_2_)" fill="#22C26A" points="1309.742,1878.344 1318.34,1869.747 1203.586,1984.5 1203.584,1984.5 
					"/>
		<path clip-path="url(#SVGID_2_)" fill="#22C26A" d="M1118.095,1527.176c74.946-74.947,196.46-74.947,271.407,0v0.001
			c74.945,74.944,74.947,196.451,0.008,271.399l93.62-93.62c42.461-42.461,60.856-99.868,55.204-155.287
			c-2.518-24.68-9.807-48.961-21.866-71.354c-8.658-16.079-19.763-31.189-33.338-44.765
			c-44.322-44.322-104.929-62.426-162.56-54.326c-28.045,3.942-55.379,14.093-79.795,30.448
			c-10.251,6.866-19.992,14.817-29.047,23.871L1118.095,1527.176z"/>
		<path clip-path="url(#SVGID_2_)" fill="#DF6050" d="M1318.34,1869.747l-8.599,8.597c74.947-74.947,196.46-74.946,271.407,0.001
			h0.001c74.944,74.946,74.946,196.457,0.002,271.405l57.97-57.972c5.02-5.019,9.691-10.253,14.038-15.662
			c15.215-18.932,26.312-40.077,33.291-62.241c20.8-66.06,5.031-141.144-47.329-193.503c-7.046-7.047-14.504-13.429-22.296-19.151
			c-30.446-22.355-65.995-34.583-102.028-36.71c-44.295-2.615-89.314,10.052-126.5,38.002c-7.166,5.386-14.049,11.326-20.57,17.847
			L1318.34,1869.747z"/>
		<path clip-path="url(#SVGID_2_)" fill="#FB93B3" d="M1118.095,1527.177L1118.095,1527.177l93.634-93.634l24.749-24.749
			c2.202-2.202,4.334-4.448,6.407-6.728c40.232-44.26,56.08-102.772,47.554-158.268c-5.983-38.949-23.961-76.411-53.961-106.411
			c-60.478-60.478-151.271-72.141-223.456-35.016c-17.271,8.882-33.481,20.546-47.951,35.016l-24.755,24.754v0.001l-93.606,93.607
			c-0.008,0.007-0.015,0.014-0.021,0.021l-124.597,124.597c1.017,1.017,2.014,2.047,3.004,3.081
			c74.336-48.025,174.59-39.494,239.703,25.618v0.001c74.946,74.946,74.946,196.458,0.002,271.405L1118.095,1527.177z"/>
		<path clip-path="url(#SVGID_2_)" fill="#FBCD18" d="M446.962,1926.902c74.947-74.947,196.46-74.947,271.407,0l246.43-246.431
			c74.946-74.947,74.945-196.459-0.001-271.406h-0.001c-65.112-65.112-165.366-73.643-239.702-25.619
			c71.923,75.16,70.925,194.396-3.005,268.326L0,2373.863L446.962,1926.902z"/>
		<path clip-path="url(#SVGID_2_)" fill="#FCAA9B" d="M1318.34,1869.747l49.387-49.387l16.576-16.577l5.199-5.199
			c0.002-0.002,0.004-0.005,0.008-0.007c74.938-74.948,74.937-196.455-0.008-271.4l0,0c-74.947-74.947-196.459-74.947-271.408,0
			l-153.295,153.295l-246.431,246.43l0.001,0.001l213.805-213.805c74.946-74.947,196.459-74.947,271.406,0h0.001
			c74.945,74.946,74.946,196.455,0.005,271.402L1318.34,1869.747z"/>
		<path clip-path="url(#SVGID_2_)" fill="#DF6050" d="M72.187,3115.897L1203.585,1984.5l0,0
			c74.942-74.947,74.94-196.457-0.004-271.402c-74.947-74.947-196.46-74.947-271.407,0l-213.805,213.805
			c74.947,74.947,74.947,196.46,0,271.407L6.374,2910.304c-2.088,2.088-4.217,4.106-6.374,6.077v189.373h47.701
			C57.263,3105.754,65.92,3109.631,72.187,3115.897"/>
		<path clip-path="url(#SVGID_2_)" fill="#22C26A" d="M173.423,3557.476l-8.668,8.668C119.869,3611.029,58.284,3629.021,0,3620.143
			v110.756l102.104-102.104L173.423,3557.476z"/>
		<path clip-path="url(#SVGID_2_)" fill="#22C26A" d="M1460.851,2270.05l44.901-44.901l75.396-75.396
			c0.001-0.001,0.001-0.002,0.002-0.003c74.945-74.947,74.944-196.458-0.002-271.404v-0.001c-74.947-74.947-196.46-74.947-271.406,0
			l-106.158,106.157L72.187,3115.897l1030.615-1030.614c74.946-74.946,196.46-74.946,271.407,0
			c74.946,74.947,74.946,196.461,0,271.407l-8.668,8.669l71.319-71.319L1460.851,2270.05z"/>
		<path clip-path="url(#SVGID_2_)" fill="#FBCD18" d="M164.754,3566.145l8.669-8.669l0.001-0.001h0.001l57.507-57.508
			c-74.947-74.947-74.947-196.46,0-271.407l77.866-77.866c0.004-0.002,0.007-0.006,0.01-0.01l649.94-649.939
			c0.003-0.003,0.006-0.006,0.01-0.01l77.867-77.866c74.947-74.947,196.461-74.947,271.407,0l57.507-57.509h0.002l8.668-8.668
			c74.946-74.947,74.946-196.461,0-271.407c-74.947-74.947-196.459-74.947-271.408,0L72.188,3115.896
			c6.266,6.268,10.142,14.925,10.142,24.486v97.498c0,19.124-15.504,34.628-34.629,34.628H0v347.634
			C58.283,3629.021,119.869,3611.029,164.754,3566.145"/>
		<path clip-path="url(#SVGID_2_)" fill="#FB93B3" d="M1323.969,2949.746l-161.925,161.924L1323.969,2949.746z"/>
		<path clip-path="url(#SVGID_2_)" fill="#FB93B3" d="M444.822,3828.891l0.002-0.002l0.006-0.006l135.86-135.859l-55.31,55.309
			c-74.946,74.947-196.46,74.947-271.406,0l-0.001-0.001c-67.1-67.101-74.113-171.521-21.064-246.437
			c-0.66-0.641-1.324-1.274-1.978-1.928l-57.508,57.508h-0.001c-74.945,74.948-74.945,196.461,0.001,271.406v0.001
			c3.915,3.914,7.964,7.612,12.119,11.118h28.391h218.779C436.864,3836.497,440.91,3832.802,444.822,3828.891"/>
		<path clip-path="url(#SVGID_2_)" fill="#FB93B3" d="M1636.951,2636.763l0.002-0.002c74.939-74.948,74.938-196.455-0.006-271.4
			c-74.947-74.946-196.46-74.946-271.406-0.001c-0.002,0-0.002,0.001-0.002,0.001l-57.506,57.507
			c0.651,0.653,1.285,1.318,1.928,1.979c74.916-53.049,179.336-46.035,246.436,21.064c74.947,74.947,74.947,196.461,0,271.407
			l-55.309,55.31l135.859-135.859L1636.951,2636.763z"/>
		<path clip-path="url(#SVGID_2_)" fill="#22C26A" d="M1323.969,2949.746c0-0.002-0.002-0.002-0.002-0.003
			c-0.002-0.002-0.005-0.004-0.007-0.006s-0.004-0.004-0.006-0.007c-0.098-0.098-0.192-0.2-0.289-0.299
			c-48.603-48.936-48.506-128.001,0.302-176.809c48.909-48.91,128.209-48.91,177.118,0c0.001,0.002,0.002,0.002,0.002,0.004
			l55.31-55.31c74.947-74.946,74.947-196.46,0-271.407c-67.1-67.1-171.521-74.113-246.437-21.064
			c73,75.091,72.366,195.135-1.928,269.429l-77.875,77.875l-0.002,0.002l-52.646,52.644l-675.171,675.173
			c-74.295,74.294-194.339,74.927-269.43,1.928c-53.049,74.916-46.035,179.336,21.064,246.437h0.001
			c74.946,74.946,196.46,74.946,271.406,0l55.31-55.31l-0.002-0.002c-0.002-0.002-0.004-0.004-0.006-0.005
			c-0.003-0.002-0.004-0.005-0.007-0.007c-0.099-0.099-0.19-0.201-0.288-0.3c-48.604-48.935-48.506-128.002,0.301-176.809
			c48.91-48.91,128.208-48.91,177.119,0.001c0,0.001,0.001,0.001,0.002,0.002l161.925-161.924l-0.003-0.003
			c-0.003-0.003-0.007-0.005-0.01-0.009c-0.003-0.003-0.006-0.007-0.009-0.011c-0.133-0.132-0.258-0.27-0.39-0.403
			c-66.497-66.945-66.365-175.117,0.407-241.89c66.911-66.912,175.396-66.912,242.309,0c0.002,0.002,0.003,0.004,0.005,0.006
			L1323.969,2949.746z"/>
		<path clip-path="url(#SVGID_2_)" fill="#FCAA9B" d="M1772.65,2772.472c74.946-74.947,196.459-74.947,271.406,0l27.684-27.683
			c74.947-74.947,74.947-196.461,0-271.407l0,0c-74.946-74.947-196.461-74.948-271.406,0l-299.246,299.245
			c48.908,48.91,48.908,128.207-0.001,177.115c-48.82,48.821-127.916,48.906-176.849,0.265c-0.088-0.087-0.179-0.17-0.266-0.257
			l-0.004-0.004l-161.925,161.924c66.908,66.912,66.908,175.396-0.001,242.306c-66.79,66.791-175.002,66.906-241.943,0.356
			c-0.121-0.119-0.246-0.233-0.365-0.353L757.81,3515.903c48.907,48.911,48.907,128.208-0.001,177.117
			c-48.819,48.821-127.916,48.906-176.848,0.263c-0.089-0.088-0.182-0.172-0.27-0.261l-135.86,135.86l-0.006,0.006l-0.003,0.002
			L433.713,3840h271.408L1772.65,2772.472z"/>
		<path clip-path="url(#SVGID_2_)" fill="#DF6050" d="M2044.057,2772.473l79.906-79.906c11.091-11.092,23.208-20.527,36.037-28.336
			v-7.701L2044.057,2772.473z"/>
		<path clip-path="url(#SVGID_2_)" fill="#A5709E" d="M1770.325,3589.018L2160,3199.344v-66.811V2664.23
			c-12.829,7.809-24.945,17.245-36.037,28.336l-79.906,79.906c74.947,74.945,74.947,196.46,0,271.406l-80.545,80.545l-0.004,0.006
			L1247.936,3840h108.916h44.104c13.029-58.412,42.265-113.938,87.717-159.391
			C1565.381,3603.901,1670.778,3573.375,1770.325,3589.018"/>
		<path clip-path="url(#SVGID_2_)" fill="#A0E3BE" d="M1770.324,3589.018c22.604,3.552,44.908,9.478,66.505,17.792
			c82.485,31.752,175.997,11.097,238.504-51.392L2160,3470.75v-108.839c-8.928,1.171-18.281-1.666-25.135-8.52
			c-11.72-11.72-11.709-30.718,0-42.427c6.86-6.86,16.209-9.698,25.135-8.527v-103.094L1770.324,3589.018z M2028.693,3459.563
			c-11.721-11.72-11.721-30.706-0.011-42.416c11.72-11.72,30.717-11.729,42.438-0.01c11.709,11.71,11.709,30.716-0.011,42.437
			C2059.399,3471.284,2040.402,3471.273,2028.693,3459.563 M1946.672,3514.686c0.965,0.095,1.941,0.244,2.906,0.445
			c0.955,0.191,1.91,0.426,2.854,0.712c0.922,0.284,1.856,0.626,2.758,0.995c0.901,0.373,1.793,0.796,2.651,1.252
			c0.858,0.457,1.719,0.955,2.524,1.507c0.816,0.541,1.612,1.125,2.375,1.739c1.528,1.252,2.929,2.652,4.18,4.18
			c0.605,0.753,1.197,1.559,1.74,2.376c0.541,0.795,1.039,1.653,1.494,2.513c0.468,0.87,0.892,1.762,1.263,2.662
			c0.372,0.903,0.7,1.825,0.998,2.759c0.276,0.934,0.519,1.898,0.71,2.853c0.191,0.955,0.35,1.941,0.445,2.906
			c0.096,0.986,0.148,1.974,0.148,2.948c0,0.977-0.053,1.984-0.148,2.949c-0.105,0.976-0.244,1.962-0.435,2.917
			s-0.446,1.908-0.721,2.843c-0.287,0.943-0.616,1.866-0.987,2.769c-0.393,0.901-0.806,1.802-1.262,2.662
			c-0.456,0.858-0.967,1.707-1.508,2.523c-0.538,0.817-1.133,1.602-1.75,2.365c-0.625,0.754-1.281,1.497-1.972,2.186
			c-0.7,0.7-1.441,1.357-2.196,1.983c-0.763,0.616-1.547,1.21-2.365,1.75c-0.816,0.54-1.665,1.05-2.523,1.506
			c-0.859,0.456-1.761,0.87-2.652,1.252c-0.911,0.382-1.836,0.71-2.768,0.986c-0.945,0.286-1.898,0.542-2.853,0.731
			c-0.955,0.19-1.941,0.33-2.917,0.436c-0.967,0.095-1.963,0.138-2.949,0.147c-0.977,0-1.962-0.053-2.949-0.147
			c-0.965-0.096-1.951-0.255-2.906-0.446c-0.955-0.19-1.918-0.434-2.853-0.71c-0.933-0.297-1.856-0.626-2.758-0.997
			c-0.902-0.371-1.792-0.796-2.662-1.262c-0.859-0.457-1.718-0.955-2.513-1.496c-0.817-0.542-1.625-1.135-2.377-1.739
			c-0.765-0.637-1.506-1.295-2.195-1.984s-1.358-1.441-1.984-2.195c-0.615-0.764-1.197-1.559-1.738-2.375
			c-0.552-0.807-1.051-1.666-1.506-2.525c-0.457-0.858-0.881-1.749-1.253-2.65c-0.37-0.901-0.711-1.836-0.995-2.758
			c-0.287-0.944-0.521-1.899-0.713-2.854c-0.201-0.964-0.35-1.94-0.445-2.906c-0.094-0.985-0.148-1.973-0.148-2.948
			c0-0.996,0.055-1.982,0.139-2.959c0.106-0.976,0.254-1.951,0.445-2.905c0.191-0.955,0.436-1.92,0.721-2.865
			c0.286-0.922,0.615-1.846,0.997-2.757c0.371-0.902,0.796-1.792,1.253-2.651c0.455-0.86,0.965-1.709,1.504-2.524
			c0.543-0.817,1.125-1.612,1.75-2.365c0.616-0.766,1.285-1.496,1.985-2.196c0.688-0.688,1.42-1.358,2.185-1.973
			c0.754-0.625,1.549-1.209,2.365-1.75s1.665-1.05,2.524-1.505c0.858-0.457,1.75-0.883,2.662-1.264
			c0.901-0.371,1.823-0.699,2.758-0.996c0.935-0.276,1.897-0.521,2.854-0.711c0.953-0.191,1.93-0.34,2.904-0.447
			c0.977-0.084,1.973-0.147,2.959-0.137C1944.699,3514.537,1945.686,3514.59,1946.672,3514.686"/>
		<path clip-path="url(#SVGID_2_)" fill="#FDEAB9" d="M1937.858,3515.121c-0.955,0.189-1.92,0.435-2.854,0.71
			c-0.933,0.297-1.855,0.625-2.758,0.997c-0.912,0.382-1.803,0.806-2.66,1.263c-0.859,0.455-1.709,0.965-2.525,1.506
			s-1.612,1.125-2.365,1.75c-0.764,0.614-1.496,1.284-2.186,1.974c-0.699,0.699-1.368,1.431-1.983,2.194
			c-0.625,0.755-1.209,1.55-1.75,2.365c-0.541,0.817-1.05,1.665-1.505,2.525c-0.457,0.858-0.881,1.749-1.253,2.65
			c-0.382,0.912-0.71,1.837-0.997,2.759c-0.286,0.943-0.53,1.908-0.721,2.863c-0.191,0.954-0.34,1.932-0.445,2.905
			c-0.084,0.978-0.139,1.963-0.139,2.96c0,0.975,0.054,1.962,0.148,2.949c0.096,0.964,0.244,1.94,0.446,2.906
			c0.19,0.953,0.424,1.909,0.711,2.854c0.286,0.922,0.626,1.855,0.996,2.757c0.372,0.903,0.796,1.792,1.252,2.651
			s0.956,1.719,1.506,2.525c0.541,0.815,1.125,1.611,1.739,2.375c0.626,0.754,1.295,1.506,1.984,2.196
			c0.689,0.688,1.432,1.347,2.194,1.983c0.754,0.604,1.56,1.197,2.377,1.74c0.796,0.539,1.654,1.037,2.515,1.494
			c0.868,0.467,1.76,0.892,2.66,1.263c0.903,0.372,1.825,0.7,2.758,0.997c0.935,0.276,1.899,0.519,2.854,0.711
			c0.954,0.19,1.94,0.35,2.905,0.445c0.986,0.094,1.974,0.147,2.949,0.147c0.985-0.01,1.983-0.052,2.948-0.147
			c0.976-0.105,1.962-0.244,2.917-0.436c0.955-0.19,1.909-0.445,2.854-0.731c0.933-0.275,1.856-0.604,2.768-0.986
			c0.893-0.382,1.792-0.796,2.652-1.251c0.859-0.457,1.708-0.967,2.523-1.508c0.817-0.539,1.603-1.134,2.365-1.75
			c0.754-0.625,1.496-1.281,2.197-1.982c0.689-0.689,1.347-1.432,1.972-2.186c0.616-0.763,1.21-1.548,1.75-2.365
			c0.541-0.816,1.05-1.665,1.506-2.523c0.456-0.859,0.87-1.761,1.263-2.663c0.371-0.901,0.699-1.825,0.986-2.768
			c0.276-0.935,0.531-1.888,0.721-2.843c0.191-0.955,0.33-1.94,0.436-2.918c0.096-0.965,0.148-1.973,0.148-2.947
			c0-0.977-0.054-1.963-0.148-2.949c-0.095-0.965-0.254-1.952-0.445-2.906c-0.191-0.955-0.435-1.919-0.711-2.853
			c-0.297-0.933-0.626-1.856-0.996-2.759c-0.371-0.901-0.796-1.793-1.263-2.661c-0.456-0.859-0.955-1.718-1.495-2.513
			c-0.542-0.818-1.136-1.625-1.74-2.378c-1.25-1.525-2.651-2.927-4.18-4.179c-0.763-0.615-1.559-1.198-2.375-1.739
			c-0.806-0.551-1.666-1.051-2.525-1.507c-0.858-0.456-1.748-0.879-2.65-1.251c-0.901-0.371-1.835-0.711-2.758-0.996
			c-0.944-0.287-1.899-0.521-2.854-0.712c-0.965-0.201-1.941-0.35-2.906-0.445c-0.986-0.096-1.973-0.148-2.948-0.148
			c-0.986-0.012-1.983,0.054-2.96,0.138C1939.788,3514.782,1938.813,3514.93,1937.858,3515.121"/>
		<path clip-path="url(#SVGID_2_)" fill="#22C26A" d="M2071.119,3417.138c-11.72-11.72-30.717-11.71-42.437,0.01
			c-11.709,11.71-11.709,30.696,0.011,42.416c11.709,11.71,30.706,11.72,42.416,0.011
			C2082.828,3447.854,2082.828,3428.847,2071.119,3417.138"/>
		<path clip-path="url(#SVGID_2_)" fill="#FDEAB9" d="M2134.865,3310.965c-11.709,11.709-11.721,30.707,0,42.426
			c6.854,6.854,16.208,9.69,25.135,8.521v-59.473C2151.075,3301.266,2141.727,3304.104,2134.865,3310.965"/>
		<path clip-path="url(#SVGID_2_)" fill="#FDEAB9" d="M2075.332,3555.418c0.008-0.007,0.015-0.014,0.021-0.021l84.646-84.646v-0.001
			L2075.332,3555.418z"/>
		<path clip-path="url(#SVGID_2_)" fill="#FB93B3" d="M2160,3518.336L2160,3518.336v-47.586l-84.646,84.647
			c-0.007,0.006-0.015,0.013-0.021,0.021c-62.506,62.488-156.019,83.144-238.504,51.392c-21.597-8.314-43.9-14.24-66.504-17.792
			c-99.548-15.643-204.944,14.884-281.652,91.592c-45.452,45.453-74.688,100.979-87.716,159.391H2160V3518.336z"/>
		<path clip-path="url(#SVGID_2_)" fill="#A0E3BE" d="M718.369,2198.309c74.947-74.946,74.947-196.46,0-271.406
			c-74.947-74.947-196.46-74.947-271.407,0L0,2373.863v332.301v152.809v57.409c2.157-1.971,4.286-3.991,6.373-6.078
			L718.369,2198.309z"/>
		<path clip-path="url(#SVGID_2_)" fill="#DF6050" d="M502.339,3499.968l675.172-675.172l-597.296,597.296
			c-74.947,74.945-196.46,74.945-271.407,0v-0.001c-74.943-74.943-74.946-196.449-0.01-271.396l-77.866,77.865
			c-74.946,74.948-74.946,196.46,0,271.408c0.653,0.653,1.318,1.286,1.978,1.928
			C308.001,3574.895,428.045,3574.262,502.339,3499.968"/>
		<path clip-path="url(#SVGID_2_)" fill="#DF6050" d="M1230.156,2500.744L1230.156,2500.744
			c74.946,74.946,74.946,196.457,0.002,271.405l77.873-77.875c74.295-74.294,74.929-194.338,1.93-269.429
			c-0.643-0.66-1.276-1.325-1.93-1.977v-0.002c-74.946-74.946-196.459-74.946-271.406,0l-77.867,77.867
			C1033.706,2425.797,1155.212,2425.8,1230.156,2500.744"/>
		<path clip-path="url(#SVGID_2_)" fill="#FDEAB9" d="M308.808,3422.091L308.808,3422.091c74.947,74.946,196.46,74.946,271.407,0
			l597.296-597.295l52.645-52.645l0.002-0.002c74.945-74.948,74.945-196.459-0.002-271.405
			c-74.944-74.944-196.45-74.947-271.397-0.01c-0.003,0.004-0.006,0.006-0.01,0.01l-649.94,649.939
			c-0.003,0.004-0.006,0.007-0.01,0.012C233.86,3225.642,233.864,3347.147,308.808,3422.091"/>
		<path clip-path="url(#SVGID_2_)" fill="#FB93B3" d="M1692.1,2853.021c74.947-74.947,196.461-74.947,271.407,0
			c74.945,74.945,74.947,196.455,0.007,271.402l80.543-80.545c74.947-74.946,74.947-196.461,0-271.406v-0.001
			c-74.946-74.947-196.459-74.947-271.406,0L705.121,3840L1692.1,2853.021z"/>
		<path clip-path="url(#SVGID_2_)" fill="#FDEAB9" d="M1963.507,3124.429l0.006-0.006c74.94-74.946,74.938-196.456-0.005-271.401
			h-0.001c-74.947-74.946-196.46-74.946-271.407,0L705.121,3840h497.513h45.302L1963.507,3124.429z M1344.175,3472.354
			c-11.722-11.72-11.722-30.705-0.011-42.416c11.72-11.72,30.717-11.729,42.437-0.01c11.71,11.71,11.71,30.717-0.01,42.438
			C1374.881,3484.074,1355.884,3484.064,1344.175,3472.354 M1492.783,3323.745c11.709,11.71,11.709,30.717-0.011,42.437
			c-11.71,11.711-30.706,11.7-42.416-0.01c-11.72-11.72-11.72-30.706-0.01-42.416
			C1462.066,3312.036,1481.063,3312.025,1492.783,3323.745 M1598.966,3217.563c11.71,11.711,11.71,30.718-0.011,42.438
			c-11.709,11.709-30.707,11.699-42.416-0.011c-11.719-11.72-11.719-30.706-0.01-42.416
			C1568.248,3205.854,1587.246,3205.843,1598.966,3217.563 M1768.904,3047.624c-11.72-11.72-11.72-30.706-0.011-42.416
			c11.722-11.72,30.718-11.729,42.437-0.01c11.711,11.71,11.711,30.717-0.01,42.437
			C1799.611,3059.345,1780.615,3059.334,1768.904,3047.624 M1662.712,3111.391c11.72-11.72,30.717-11.729,42.437-0.011
			c11.709,11.71,11.709,30.717-0.011,42.437c-11.709,11.711-30.706,11.699-42.416-0.01
			C1651.002,3142.087,1651.002,3123.1,1662.712,3111.391 M1131.809,3684.719c-11.72-11.72-11.72-30.706-0.01-42.416
			c11.72-11.72,30.716-11.729,42.437-0.01c11.71,11.71,11.71,30.717-0.011,42.436
			C1162.515,3696.439,1143.519,3696.429,1131.809,3684.719 M1025.627,3790.902c-11.721-11.721-11.721-30.707-0.01-42.416
			c11.719-11.721,30.716-11.731,42.436-0.012c11.71,11.711,11.71,30.717-0.01,42.438
			C1056.333,3802.622,1037.336,3802.611,1025.627,3790.902 M1237.992,3578.537c-11.721-11.721-11.721-30.707-0.011-42.417
			c11.72-11.72,30.716-11.729,42.437-0.01c11.71,11.71,11.71,30.717-0.01,42.437
			C1268.697,3590.257,1249.701,3590.246,1237.992,3578.537"/>
		<path clip-path="url(#SVGID_2_)" fill="#FB93B3" d="M1811.331,3005.198c-11.72-11.72-30.717-11.71-42.437,0.01
			c-11.709,11.71-11.709,30.696,0.01,42.416c11.71,11.71,30.707,11.72,42.416,0.011
			C1823.04,3035.915,1823.04,3016.907,1811.331,3005.198"/>
		<path clip-path="url(#SVGID_2_)" fill="#A5709E" d="M1705.138,3153.817c11.72-11.72,11.72-30.728,0.011-42.437
			c-11.72-11.721-30.717-11.71-42.437,0.01c-11.71,11.71-11.71,30.696,0.01,42.417
			C1674.432,3165.517,1693.429,3165.526,1705.138,3153.817"/>
		<path clip-path="url(#SVGID_2_)" fill="#22C26A" d="M1556.539,3259.989c11.71,11.71,30.707,11.72,42.417,0.011
			c11.719-11.72,11.719-30.727,0.01-42.437c-11.72-11.721-30.717-11.71-42.437,0.01
			C1544.818,3229.283,1544.818,3248.27,1556.539,3259.989"/>
		<path clip-path="url(#SVGID_2_)" fill="#FBCD18" d="M1450.357,3366.172c11.709,11.71,30.705,11.72,42.416,0.01
			c11.72-11.719,11.72-30.727,0.01-42.436c-11.721-11.721-30.717-11.711-42.437,0.01
			C1438.637,3335.466,1438.637,3354.451,1450.357,3366.172"/>
		<path clip-path="url(#SVGID_2_)" fill="#FB93B3" d="M1386.601,3429.928c-11.72-11.721-30.717-11.709-42.437,0.011
			c-11.709,11.709-11.709,30.696,0.011,42.416c11.709,11.709,30.706,11.72,42.416,0.01
			C1398.311,3460.645,1398.311,3441.638,1386.601,3429.928"/>
		<path clip-path="url(#SVGID_2_)" fill="#22C26A" d="M1280.408,3578.547c11.72-11.72,11.72-30.727,0.01-42.437
			c-11.721-11.72-30.717-11.709-42.437,0.01c-11.71,11.71-11.71,30.697,0.011,42.417
			C1249.701,3590.246,1268.697,3590.256,1280.408,3578.547"/>
		<path clip-path="url(#SVGID_2_)" fill="#A5709E" d="M1174.235,3642.293c-11.72-11.721-30.717-11.71-42.437,0.01
			c-11.709,11.71-11.709,30.696,0.011,42.416c11.709,11.71,30.706,11.721,42.416,0.011
			C1185.945,3673.01,1185.945,3654.003,1174.235,3642.293"/>
		<path clip-path="url(#SVGID_2_)" fill="#FB93B3" d="M1068.053,3748.476c-11.72-11.72-30.717-11.71-42.438,0.01
			c-11.709,11.71-11.709,30.696,0.012,42.416c11.709,11.71,30.706,11.72,42.416,0.011
			C1079.763,3779.192,1079.763,3760.185,1068.053,3748.476"/>
		<path clip-path="url(#SVGID_2_)" fill="#FBCD18" d="M580.688,3515.9c-48.807,48.807-48.904,127.874-0.301,176.809
			c-33.272-33.744-20.833-100.412,27.931-149.177c48.909-48.909,115.834-61.282,149.481-27.635
			c33.646,33.647,21.273,100.573-27.636,149.481c-48.776,48.777-115.468,61.211-149.203,27.904
			c48.932,48.643,128.027,48.559,176.849-0.263c48.908-48.909,48.908-128.206,0-177.117c-0.001-0.001-0.002-0.001-0.002-0.002
			C708.896,3466.99,629.599,3466.99,580.688,3515.9"/>
		<path clip-path="url(#SVGID_2_)" fill="#DF6050" d="M730.164,3665.38c48.91-48.91,61.283-115.835,27.636-149.482
			c-33.646-33.647-100.572-21.274-149.481,27.636c-48.764,48.764-61.203,115.431-27.932,149.176
			c0.099,0.099,0.191,0.201,0.289,0.299c-12.876-12.901,16.321-62.993,65.223-111.895c48.91-48.909,99.01-78.107,111.901-65.215
			c12.893,12.893-16.307,62.992-65.217,111.901c-48.901,48.901-98.993,78.098-111.895,65.221l0.002,0.002
			c0.089,0.089,0.182,0.173,0.271,0.261C614.696,3726.59,681.388,3714.156,730.164,3665.38"/>
		<path clip-path="url(#SVGID_2_)" fill="#FBCD18" d="M692.584,3627.8c48.909-48.909,78.107-99.009,65.216-111.901
			c-12.892-12.892-62.991,16.305-111.901,65.215c-48.902,48.901-78.098,98.993-65.223,111.895c0.003,0.003,0.004,0.005,0.007,0.007
			c0.002,0.002,0.004,0.004,0.006,0.006C593.59,3705.897,643.682,3676.701,692.584,3627.8"/>
		<path clip-path="url(#SVGID_2_)" fill="#FB93B3" d="M1501.085,2772.624c-48.91-48.911-128.209-48.911-177.118-0.001
			c-48.807,48.807-48.904,127.874-0.301,176.809c-33.271-33.744-20.833-100.413,27.93-149.177
			c48.91-48.909,115.835-61.282,149.482-27.635c33.646,33.647,21.273,100.573-27.637,149.483
			c-48.775,48.775-115.467,61.209-149.203,27.902c48.932,48.643,128.028,48.559,176.849-0.263
			c48.909-48.909,48.909-128.206,0.001-177.117h-0.001C1501.087,2772.625,1501.086,2772.625,1501.085,2772.624"/>
		<polyline clip-path="url(#SVGID_2_)" fill="#A0E3BE" points="1323.969,2949.746 1323.967,2949.743 1323.969,2949.746 		"/>
		<path clip-path="url(#SVGID_2_)" fill="#A0E3BE" d="M1473.442,2922.103c48.91-48.91,61.282-115.835,27.636-149.482
			s-100.572-21.274-149.482,27.636c-48.762,48.764-61.202,115.431-27.931,149.176c0.097,0.099,0.191,0.201,0.289,0.299
			c-12.876-12.901,16.32-62.993,65.222-111.895c48.91-48.909,99.011-78.107,111.902-65.215
			c12.891,12.893-16.307,62.992-65.217,111.901c-48.895,48.894-98.977,78.088-111.888,65.228c0.087,0.086,0.178,0.17,0.265,0.256
			C1357.975,2983.313,1424.665,2970.879,1473.442,2922.103"/>
		<path clip-path="url(#SVGID_2_)" fill="#FB93B3" d="M1435.861,2884.522c48.91-48.909,78.108-99.009,65.217-111.901
			c-12.893-12.892-62.992,16.305-111.902,65.215c-48.9,48.901-78.098,98.993-65.223,111.895c0.003,0.003,0.005,0.005,0.007,0.007
			s0.005,0.004,0.006,0.006l0.002,0.002h0.001l0.004,0.005C1336.885,2962.61,1386.968,2933.416,1435.861,2884.522"/>
		<path clip-path="url(#SVGID_2_)" fill="#A5709E" d="M919.73,3111.664c-66.771,66.771-66.904,174.943-0.407,241.89
			c-45.524-46.163-28.508-137.373,38.206-204.087c66.911-66.912,158.469-83.839,204.5-37.807
			c46.031,46.031,29.104,137.59-37.807,204.502c-66.731,66.73-157.973,83.74-204.123,38.169
			c66.941,66.551,175.152,66.436,241.943-0.355c66.91-66.911,66.91-175.393,0-242.306c0-0.002-0.002-0.003-0.004-0.005
			C1095.127,3044.752,986.642,3044.752,919.73,3111.664"/>
		<path clip-path="url(#SVGID_2_)" fill="#22C26A" d="M1124.223,3316.162c66.911-66.912,83.838-158.471,37.807-204.502
			s-137.589-29.104-204.5,37.807c-66.714,66.714-83.73,157.924-38.206,204.087c0.132,0.134,0.257,0.271,0.39,0.403
			c-17.613-17.651,22.329-86.179,89.229-153.078c66.911-66.91,135.451-106.854,153.088-89.217
			c17.637,17.637-22.308,86.177-89.22,153.088c-66.9,66.899-135.427,106.841-153.078,89.227l0.003,0.003
			c0.119,0.12,0.244,0.233,0.365,0.353C966.251,3399.901,1057.491,3382.893,1124.223,3316.162"/>
		<path clip-path="url(#SVGID_2_)" fill="#A5709E" d="M1072.811,3264.75c66.912-66.912,106.855-135.451,89.22-153.089
			c-17.638-17.637-86.177,22.308-153.089,89.218c-66.899,66.899-106.842,135.427-89.229,153.078c0.003,0.004,0.006,0.008,0.009,0.01
			c0.003,0.005,0.007,0.007,0.01,0.01C937.383,3371.59,1005.91,3331.649,1072.811,3264.75"/>
		<path clip-path="url(#SVGID_2_)" fill="#22C26A" d="M82.329,3237.881v-97.498c0-9.563-3.875-18.219-10.142-24.485
			c-6.268-6.267-14.925-10.143-24.486-10.143H0v166.754h47.701C66.826,3272.509,82.329,3257.006,82.329,3237.881"/>
		<path clip-path="url(#SVGID_2_)" fill="#A5709E" d="M0,211.226v177.409v85.228c8.489-9.036,15.932-18.697,22.34-28.823
			C68.24,372.517,60.798,275.942,0,211.226"/>
		<path clip-path="url(#SVGID_2_)" fill="#FBCD18" d="M8.504,736.917c74.943,74.943,74.947,196.448,0.011,271.396l8.658-8.658
			l62.651-62.651c74.945-74.947,74.945-196.46-0.001-271.406C56.729,642.503,29.212,626.536,0,617.674v111.252
			C2.893,731.491,5.732,734.146,8.504,736.917z"/>
		<path clip-path="url(#SVGID_2_)" fill="#A0E3BE" d="M575.281,984.361c74.946-74.947,196.46-74.947,271.406,0l0.001,0.001
			c74.94,74.94,74.946,196.437,0.021,271.386l93.606-93.607c0,0,0,0,0-0.001c74.946-74.947,74.946-196.459,0-271.406h-0.001
			c-17.092-17.093-36.61-30.274-57.441-39.57c-70.512-31.466-156.11-18.285-213.965,39.57L553.5,1006.141
			c-0.002,0.003-0.004,0.005-0.007,0.007l-101.717,101.717c0.004-0.003,0.007-0.006,0.01-0.009L575.281,984.361z"/>
		<path clip-path="url(#SVGID_2_)" fill="#DF6050" d="M553.493,1006.148c0.002-0.002,0.005-0.005,0.007-0.007
			c74.94-74.948,74.938-196.455-0.007-271.4c-68.465-68.465-175.781-74.373-250.968-17.752
			c-7.119,5.361-13.957,11.269-20.439,17.752l-57.973,57.972c74.947-74.946,196.46-74.946,271.407,0.001
			c74.946,74.947,74.946,196.46,0,271.407l-43.744,43.744L553.493,1006.148z"/>
		<path clip-path="url(#SVGID_2_)" fill="#FCAA9B" d="M846.709,1255.748c74.926-74.948,74.92-196.446-0.021-271.386l-0.001-0.001
			c-74.947-74.947-196.46-74.947-271.407,0l-123.495,123.495c74.949-74.93,196.449-74.924,271.391,0.017
			c74.947,74.948,74.946,196.46,0,271.407l-1.085,1.086l124.597-124.597C846.694,1255.762,846.701,1255.755,846.709,1255.748"/>
		<path clip-path="url(#SVGID_2_)" fill="#DF6050" d="M450.684,1380.366c74.947-74.947,196.46-74.947,271.407,0l1.085-1.085
			c74.947-74.947,74.947-196.46,0-271.407c-74.941-74.942-196.441-74.947-271.391-0.018c-0.003,0.004-0.006,0.007-0.009,0.01
			l-0.003,0.002l-253.544,253.544c6.268,6.266,10.144,14.924,10.143,24.486v97.497c0,19.125-15.504,34.628-34.629,34.628H76.246
			c-9.563,0-18.22-3.875-24.485-10.142L0,1559.642v271.407L450.684,1380.366z"/>
		<path clip-path="url(#SVGID_2_)" fill="#22C26A" d="M495.521,792.715L495.521,792.715c-74.947-74.947-196.46-74.947-271.407-0.001
			v0.001l-21.809,21.809L79.824,937.002l-62.65,62.651c74.946-74.947,196.46-74.947,271.406,0v0.001
			c74.947,74.946,74.947,196.459,0,271.406l-90.351,90.351l253.544-253.544l0.003-0.002l43.744-43.744
			C570.468,989.175,570.468,867.662,495.521,792.715"/>
		<path clip-path="url(#SVGID_2_)" fill="#22C26A" d="M51.761,1507.881L0,1559.641L51.761,1507.881z"/>
		<path clip-path="url(#SVGID_2_)" fill="#FBCD18" d="M51.761,1507.881c-6.268-6.267-10.144-14.924-10.144-24.486v-97.497
			c0.001-19.125,15.504-34.629,34.629-34.629l97.497,0.001c9.563,0,18.22,3.875,24.486,10.143l90.351-90.352
			c74.947-74.947,74.947-196.46,0-271.407s-196.46-74.947-271.407,0l-8.658,8.658c-0.003,0.003-0.005,0.007-0.01,0.01l-0.001,0.001
			L0,1016.827v132.534c9.591,34.073,9.591,70.273,0,104.346v144.374v140.975v20.585L51.761,1507.881z"/>
		<path clip-path="url(#SVGID_2_)" fill="#FB93B3" d="M8.504,1008.323l0.001-0.001c0.004-0.003,0.007-0.007,0.01-0.01
			c74.937-74.948,74.933-196.452-0.011-271.396c-2.771-2.77-5.611-5.425-8.504-7.99v287.901L8.504,1008.323z"/>
		<path clip-path="url(#SVGID_2_)" fill="#22C26A" d="M722.09,1651.773c73.931-73.93,74.928-193.166,3.004-268.326
			c-0.988-1.034-1.985-2.064-3.004-3.081c-74.946-74.947-196.46-74.947-271.406,0L0,1831.049v201.032v120.896v220.886
			L722.09,1651.773z"/>
		<path clip-path="url(#SVGID_2_)" fill="#DF6050" d="M0,1149.361v104.346C9.591,1219.634,9.591,1183.434,0,1149.361"/>
		<path clip-path="url(#SVGID_2_)" fill="#22C26A" d="M76.247,1351.27c-19.125,0-34.629,15.504-34.63,34.628v97.497
			c0,9.563,3.876,18.22,10.144,24.487c6.266,6.266,14.923,10.142,24.486,10.142h97.496c19.125,0,34.629-15.504,34.629-34.629
			v-97.496c0.001-9.563-3.875-18.22-10.143-24.487c-6.267-6.266-14.923-10.142-24.486-10.142H76.247z"/>
	</g>
</g>
<g id="Layer_2">
</g>
</svg>
