<?xml version="1.0" encoding="utf-8"?>
<!-- Generator: Adobe Illustrator 16.0.0, SVG Export Plug-In . SVG Version: 6.00 Build 0)  -->
<!DOCTYPE svg PUBLIC "-//W3C//DTD SVG 1.1//EN" "http://www.w3.org/Graphics/SVG/1.1/DTD/svg11.dtd">
<svg version="1.1" xmlns="http://www.w3.org/2000/svg" xmlns:xlink="http://www.w3.org/1999/xlink" x="0px" y="0px"
	 width="1865.762px" height="1164.777px" viewBox="0 0 1865.762 1164.777" enable-background="new 0 0 1865.762 1164.777"
	 xml:space="preserve">
<g id="Layer_1">
</g>
<g id="Layer_2">
	<path fill="#DE6050" d="M841.548,260.7l410.32,79.758c0.813,0.158,1.345,0.945,1.187,1.759l-15.838,81.475
		c-0.158,0.813-0.945,1.345-1.758,1.187l-410.32-79.758c-0.813-0.158-1.345-0.946-1.187-1.759l15.837-81.475
		C839.947,261.073,840.734,260.542,841.548,260.7z"/>
	<path fill="#DE6050" d="M823.418,353.955l409.339,79.567c0.813,0.158,1.345,0.945,1.187,1.759l-15.838,81.475
		c-0.157,0.813-0.945,1.345-1.758,1.187l-409.339-79.567c-0.813-0.158-1.345-0.945-1.187-1.759l15.838-81.476
		C821.818,354.328,822.605,353.797,823.418,353.955z"/>
	<path fill="#DE6050" d="M233.538,304.405l84.525,16.503c0.398,0.078,0.659,0.465,0.581,0.863l-14.25,72.979
		c-0.077,0.399-0.464,0.659-0.862,0.581l-84.526-16.504c-0.398-0.078-0.658-0.464-0.58-0.863l14.249-72.979
		C232.753,304.587,233.139,304.327,233.538,304.405z"/>
	<path fill="#DE6050" d="M345.428,326.251l83.545,16.312c0.398,0.078,0.658,0.465,0.58,0.863l-14.249,72.979
		c-0.078,0.399-0.464,0.659-0.863,0.581l-83.544-16.313c-0.398-0.077-0.659-0.464-0.581-0.862l14.249-72.979
		C344.643,326.433,345.029,326.173,345.428,326.251z"/>
	<path fill="#DE6050" d="M261.02,261.55l26.766-137.081c0.074-0.378,0.44-0.625,0.819-0.552l37.95,7.41
		c0.379,0.074,0.626,0.441,0.553,0.819l-26.766,137.081c-0.074,0.378-0.441,0.625-0.82,0.551l-37.95-7.409
		C261.192,262.295,260.945,261.928,261.02,261.55z"/>
	<path fill="#DE6050" d="M414.1,289.885l26.574-136.099c0.074-0.379,0.44-0.626,0.819-0.552l37.95,7.41
		c0.379,0.074,0.626,0.44,0.552,0.819l-26.573,136.099c-0.074,0.379-0.441,0.626-0.82,0.552l-37.95-7.41
		C414.273,290.631,414.025,290.264,414.1,289.885z"/>
	<path fill="#DE6050" d="M307.02,270.897l26.766-137.08c0.074-0.379,0.44-0.626,0.819-0.552l37.95,7.41
		c0.379,0.073,0.626,0.44,0.553,0.819l-26.766,137.08c-0.074,0.379-0.441,0.626-0.82,0.552l-37.95-7.41
		C307.193,271.643,306.945,271.276,307.02,270.897z"/>
	<path fill="#DE6050" d="M460.08,298.425l26.573-136.099c0.074-0.379,0.44-0.626,0.819-0.552l37.951,7.41
		c0.379,0.074,0.625,0.44,0.552,0.819l-26.574,136.099c-0.073,0.379-0.44,0.626-0.819,0.552l-37.951-7.41
		C460.253,299.17,460.006,298.804,460.08,298.425z"/>
	<path fill="#DE6050" d="M643.187,292.955l13.476-73.235c0.051-0.273,0.313-0.453,0.586-0.403l35.689,6.567
		c0.273,0.05,0.453,0.313,0.403,0.585l-13.476,73.235c-0.051,0.273-0.313,0.453-0.586,0.403l-35.689-6.567
		C643.316,293.489,643.137,293.228,643.187,292.955z"/>
	<path fill="#DE6050" d="M628.187,374.955l13.476-73.235c0.051-0.273,0.313-0.453,0.586-0.403l35.689,6.567
		c0.273,0.05,0.453,0.313,0.403,0.585l-13.476,73.235c-0.051,0.272-0.313,0.453-0.585,0.403l-35.69-6.567
		C628.316,375.489,628.137,375.228,628.187,374.955z"/>
	<path fill="#DE6050" d="M498.185,445.004l13.197-73.285c0.05-0.273,0.311-0.455,0.584-0.406l35.715,6.432
		c0.272,0.05,0.454,0.311,0.405,0.584l-13.197,73.285c-0.049,0.273-0.311,0.455-0.584,0.406l-35.715-6.432
		C498.316,445.539,498.136,445.277,498.185,445.004z"/>
	<path fill="#DE6050" d="M542.305,453.571l13.197-73.286c0.049-0.273,0.311-0.454,0.584-0.405l35.715,6.432
		c0.273,0.05,0.454,0.311,0.405,0.583l-13.197,73.286c-0.05,0.273-0.311,0.455-0.584,0.405l-35.715-6.432
		C542.438,454.105,542.256,453.845,542.305,453.571z"/>
	<path fill="#DE6050" d="M794.7,875.799l98.242,17.557c0.273,0.049,0.455,0.309,0.406,0.582l-8.875,49.668
		c-0.049,0.271-0.31,0.455-0.583,0.406l-98.242-17.557c-0.273-0.049-0.455-0.309-0.406-0.582l8.875-49.668
		C794.166,875.932,794.427,875.75,794.7,875.799z"/>
	<path fill="#DE6050" d="M685.641,856.313l98.242,17.555c0.273,0.049,0.455,0.309,0.406,0.582l-8.875,49.668
		c-0.049,0.273-0.311,0.455-0.584,0.406l-98.241-17.557c-0.273-0.049-0.455-0.309-0.406-0.582l8.875-49.668
		C685.106,856.445,685.367,856.264,685.641,856.313z"/>
	<path fill="none" stroke="#DE6050" stroke-width="4" stroke-dasharray="12,12" d="M710.417,193.067L244.516,97.273
		c-4.32-0.888-8.55,1.889-9.45,6.206l-60.72,291.761c-0.91,4.362,1.92,8.625,6.3,9.481l469.71,91.912
		c4.33,0.847,8.529-1.972,9.391-6.301l56.91-287.877C717.507,198.144,714.726,193.953,710.417,193.067z"/>
	<path fill="#06371C" d="M833.327,922.91l0.019-17.08l6.838,0.014c1.241-0.02,2.294,0.176,3.135,0.553
		c0.843,0.377,1.476,0.9,1.884,1.545c0.428,0.666,0.632,1.414,0.645,2.291c-0.007,0.66-0.133,1.25-0.407,1.75
		c-0.27,0.498-0.637,0.906-1.101,1.232c-0.459,0.32-0.989,0.537-1.581,0.676l-0.005,0.164c0.64,0.014,1.252,0.205,1.818,0.545
		c0.57,0.334,1.037,0.816,1.39,1.426c0.354,0.6,0.53,1.326,0.536,2.172c-0.009,0.895-0.234,1.707-0.671,2.438
		c-0.451,0.699-1.121,1.24-1.989,1.654c-0.87,0.418-1.943,0.625-3.218,0.625L833.327,922.91z M836.938,919.963l2.938-0.002
		c1.001-0.006,1.73-0.207,2.202-0.572c0.454-0.398,0.69-0.908,0.687-1.561c0.003-0.467-0.113-0.889-0.328-1.238
		c-0.239-0.377-0.561-0.654-0.984-0.859c-0.418-0.211-0.904-0.297-1.49-0.309l-3.032-0.012L836.938,919.963z M836.939,912.977
		l2.688,0.012c0.478-0.021,0.92-0.102,1.311-0.26c0.384-0.186,0.687-0.436,0.916-0.754c0.234-0.316,0.346-0.703,0.342-1.162
		c-0.002-0.615-0.222-1.121-0.648-1.479c-0.44-0.389-1.057-0.576-1.864-0.592l-2.729,0.014L836.939,912.977z"/>
	<path fill="#06371C" d="M720.338,898.205l-3.529,0.012l5.386-15.596l4.242-0.002l5.37,15.584h-3.536l-3.899-12.021l-0.109,0.008
		L720.338,898.205z M720.119,892.086l8.336-0.01l0.004,2.576l-8.338,0.008L720.119,892.086z"/>
	<path fill="#06371C" d="M381.976,376.068l0.019-17.08l6.838,0.013c1.241-0.019,2.294,0.176,3.135,0.553
		c0.843,0.378,1.476,0.9,1.884,1.546c0.428,0.666,0.632,1.414,0.645,2.291c-0.007,0.659-0.133,1.25-0.407,1.75
		c-0.27,0.498-0.637,0.906-1.101,1.231c-0.459,0.321-0.989,0.538-1.581,0.677l-0.005,0.164c0.64,0.013,1.252,0.204,1.818,0.544
		c0.57,0.334,1.037,0.816,1.39,1.426c0.354,0.6,0.53,1.326,0.536,2.173c-0.009,0.895-0.234,1.707-0.671,2.437
		c-0.451,0.699-1.121,1.24-1.989,1.654c-0.87,0.418-1.943,0.625-3.218,0.625L381.976,376.068z M385.587,373.121l2.938-0.003
		c1.001-0.006,1.73-0.207,2.202-0.572c0.454-0.398,0.69-0.908,0.687-1.561c0.003-0.467-0.113-0.888-0.328-1.237
		c-0.239-0.377-0.561-0.655-0.984-0.859c-0.418-0.211-0.904-0.297-1.49-0.309l-3.032-0.013L385.587,373.121z M385.588,366.133
		l2.688,0.013c0.478-0.021,0.92-0.103,1.311-0.26c0.384-0.186,0.687-0.437,0.916-0.755c0.234-0.315,0.346-0.702,0.342-1.162
		c-0.002-0.615-0.222-1.12-0.648-1.479c-0.44-0.389-1.057-0.575-1.864-0.591l-2.729,0.013L385.588,366.133z"/>
	<path fill="#06371C" d="M268.986,351.363l-3.529,0.011l5.386-15.596l4.242-0.002l5.37,15.584h-3.536l-3.899-12.021l-0.109,0.007
		L268.986,351.363z M268.768,345.243l8.336-0.009l0.004,2.576l-8.338,0.008L268.768,345.243z"/>
	<path fill="#06371C" d="M288.126,214.984l-3.529,0.011l5.386-15.596l4.242-0.002l5.371,15.584h-3.537l-3.899-12.021l-0.109,0.007
		L288.126,214.984z M287.907,208.864l8.336-0.009l0.004,2.576l-8.338,0.008L287.907,208.864z"/>
	<path fill="#06371C" d="M331.622,225.664l-3.529,0.011l5.385-15.596l4.242-0.002l5.371,15.584h-3.537l-3.898-12.021l-0.109,0.007
		L331.622,225.664z M331.403,219.543l8.336-0.009l0.004,2.576l-8.338,0.008L331.403,219.543z"/>
	<path fill="#06371C" d="M440.463,248.175l0.019-17.08l6.838,0.013c1.241-0.019,2.294,0.176,3.135,0.553
		c0.843,0.378,1.476,0.9,1.884,1.546c0.428,0.666,0.632,1.414,0.645,2.291c-0.007,0.659-0.133,1.25-0.407,1.75
		c-0.27,0.498-0.637,0.906-1.101,1.231c-0.459,0.321-0.989,0.538-1.581,0.677l-0.005,0.164c0.64,0.013,1.252,0.204,1.818,0.544
		c0.57,0.334,1.037,0.816,1.39,1.426c0.354,0.6,0.53,1.326,0.536,2.173c-0.009,0.895-0.234,1.707-0.671,2.437
		c-0.451,0.699-1.121,1.24-1.989,1.654c-0.87,0.418-1.943,0.625-3.218,0.625L440.463,248.175z M444.074,245.228l2.938-0.003
		c1.001-0.006,1.73-0.207,2.202-0.572c0.454-0.398,0.69-0.908,0.687-1.561c0.003-0.467-0.113-0.888-0.328-1.237
		c-0.239-0.377-0.561-0.655-0.984-0.859c-0.418-0.211-0.904-0.297-1.49-0.309l-3.032-0.013L444.074,245.228z M444.075,238.241
		l2.688,0.013c0.478-0.021,0.92-0.103,1.311-0.26c0.384-0.186,0.687-0.437,0.916-0.755c0.234-0.315,0.346-0.702,0.342-1.162
		c-0.002-0.615-0.222-1.12-0.648-1.479c-0.44-0.389-1.057-0.575-1.864-0.591l-2.729,0.013L444.075,238.241z"/>
	<path fill="#06371C" d="M486.502,256.852l0.019-17.08l6.838,0.013c1.241-0.019,2.294,0.176,3.135,0.553
		c0.843,0.378,1.476,0.9,1.884,1.546c0.428,0.666,0.632,1.414,0.645,2.291c-0.007,0.659-0.133,1.25-0.407,1.75
		c-0.27,0.498-0.637,0.906-1.101,1.231c-0.459,0.321-0.989,0.538-1.581,0.677l-0.005,0.164c0.64,0.013,1.252,0.204,1.818,0.544
		c0.57,0.334,1.037,0.816,1.39,1.426c0.354,0.6,0.53,1.326,0.536,2.173c-0.009,0.895-0.234,1.707-0.671,2.437
		c-0.451,0.699-1.121,1.24-1.989,1.654c-0.87,0.418-1.943,0.625-3.218,0.625L486.502,256.852z M490.113,253.905l2.938-0.003
		c1.001-0.006,1.73-0.207,2.202-0.572c0.454-0.398,0.69-0.908,0.687-1.561c0.003-0.467-0.113-0.888-0.328-1.237
		c-0.239-0.377-0.561-0.655-0.984-0.859c-0.418-0.211-0.904-0.297-1.49-0.309l-3.032-0.013L490.113,253.905z M490.114,246.917
		l2.688,0.013c0.478-0.021,0.92-0.103,1.311-0.26c0.384-0.186,0.687-0.437,0.916-0.755c0.234-0.315,0.346-0.702,0.342-1.162
		c-0.002-0.615-0.222-1.12-0.648-1.479c-0.44-0.389-1.057-0.575-1.864-0.591l-2.729,0.013L490.114,246.917z"/>
	<path fill="#06371C" d="M665.681,266.002l-3.529,0.011l5.385-15.596l4.242-0.002L677.149,266h-3.537l-3.898-12.021l-0.109,0.007
		L665.681,266.002z M665.462,259.882l8.336-0.009l0.004,2.576l-8.338,0.008L665.462,259.882z"/>
	<path fill="#06371C" d="M515.28,429.269l0.019-17.08l6.838,0.013c1.241-0.019,2.294,0.176,3.135,0.553
		c0.843,0.378,1.476,0.9,1.884,1.546c0.428,0.666,0.632,1.414,0.645,2.291c-0.007,0.659-0.133,1.25-0.407,1.75
		c-0.27,0.498-0.637,0.906-1.101,1.231c-0.459,0.321-0.989,0.538-1.581,0.677l-0.005,0.164c0.64,0.013,1.252,0.204,1.818,0.544
		c0.57,0.334,1.037,0.816,1.39,1.426c0.354,0.6,0.53,1.326,0.536,2.173c-0.009,0.895-0.234,1.707-0.671,2.437
		c-0.451,0.699-1.121,1.24-1.989,1.654c-0.87,0.418-1.943,0.625-3.218,0.625L515.28,429.269z M518.892,426.322l2.938-0.003
		c1.001-0.006,1.73-0.207,2.202-0.572c0.454-0.398,0.69-0.908,0.687-1.561c0.003-0.467-0.113-0.888-0.328-1.237
		c-0.239-0.377-0.561-0.655-0.984-0.859c-0.418-0.211-0.904-0.297-1.49-0.309l-3.032-0.013L518.892,426.322z M518.893,419.334
		l2.688,0.013c0.478-0.021,0.92-0.103,1.311-0.26c0.384-0.186,0.687-0.437,0.916-0.755c0.234-0.315,0.346-0.702,0.342-1.162
		c-0.002-0.615-0.222-1.12-0.648-1.479c-0.44-0.389-1.057-0.575-1.864-0.591l-2.729,0.013L518.893,419.334z"/>
	<path fill="#06371C" d="M558.39,437.313l0.019-17.08l6.838,0.013c1.241-0.019,2.294,0.176,3.135,0.553
		c0.843,0.378,1.476,0.9,1.884,1.546c0.428,0.666,0.632,1.414,0.645,2.291c-0.007,0.659-0.133,1.25-0.407,1.75
		c-0.27,0.498-0.637,0.906-1.101,1.231c-0.459,0.321-0.989,0.538-1.581,0.677l-0.005,0.164c0.64,0.013,1.252,0.204,1.818,0.544
		c0.57,0.334,1.037,0.816,1.39,1.426c0.354,0.6,0.53,1.326,0.536,2.173c-0.009,0.895-0.234,1.707-0.671,2.437
		c-0.451,0.699-1.121,1.24-1.989,1.654c-0.87,0.418-1.943,0.625-3.218,0.625L558.39,437.313z M562.001,434.366l2.938-0.003
		c1.001-0.006,1.73-0.207,2.202-0.572c0.454-0.398,0.69-0.908,0.687-1.561c0.003-0.467-0.113-0.888-0.328-1.237
		c-0.239-0.377-0.561-0.655-0.984-0.859c-0.418-0.211-0.904-0.297-1.49-0.309l-3.032-0.013L562.001,434.366z M562.002,427.378
		l2.688,0.013c0.478-0.021,0.92-0.103,1.311-0.26c0.384-0.186,0.687-0.437,0.916-0.755c0.234-0.315,0.346-0.702,0.342-1.162
		c-0.002-0.615-0.222-1.12-0.648-1.479c-0.44-0.389-1.057-0.575-1.864-0.591l-2.729,0.013L562.002,427.378z"/>
	<path fill="#06371C" d="M652.793,333.916l-3.529,0.011l5.385-15.596l4.242-0.002l5.371,15.584h-3.537l-3.898-12.021l-0.109,0.007
		L652.793,333.916z M652.574,327.795l8.336-0.009l0.004,2.576l-8.338,0.008L652.574,327.795z"/>
	<path fill="#06371C" d="M951.085,439.063l0.027-25.127l10.06,0.019c1.826-0.027,3.375,0.259,4.611,0.813
		c1.24,0.556,2.171,1.325,2.771,2.274c0.63,0.98,0.93,2.081,0.948,3.371c-0.01,0.97-0.195,1.839-0.599,2.575
		c-0.396,0.732-0.937,1.333-1.619,1.812c-0.676,0.473-1.456,0.792-2.326,0.996l-0.007,0.241c0.94,0.019,1.842,0.3,2.675,0.8
		c0.839,0.491,1.525,1.201,2.044,2.098c0.521,0.882,0.78,1.951,0.789,3.197c-0.013,1.316-0.345,2.511-0.987,3.584
		c-0.663,1.028-1.649,1.824-2.926,2.434c-1.28,0.615-2.859,0.919-4.734,0.919L951.085,439.063z M956.397,434.727l4.323-0.004
		c1.473-0.008,2.546-0.304,3.24-0.842c0.668-0.586,1.016-1.336,1.01-2.296c0.004-0.687-0.167-1.306-0.483-1.82
		c-0.352-0.555-0.824-0.964-1.447-1.265c-0.615-0.31-1.331-0.437-2.192-0.454l-4.461-0.019L956.397,434.727z M956.399,424.447
		l3.953,0.019c0.703-0.031,1.354-0.151,1.929-0.382c0.564-0.273,1.01-0.643,1.348-1.111c0.345-0.464,0.508-1.033,0.503-1.709
		c-0.003-0.905-0.326-1.648-0.954-2.175c-0.648-0.572-1.555-0.846-2.743-0.869l-4.014,0.019L956.399,424.447z"/>
	<path fill="#06371C" d="M974.929,343.192l-5.778,0.018l8.817-25.533l6.945-0.003l8.792,25.514h-5.789l-6.385-19.68l-0.179,0.011
		L974.929,343.192z M974.57,333.172l13.647-0.014l0.007,4.218l-13.651,0.013L974.57,333.172z"/>
	<path fill="none" stroke="#DE6050" stroke-width="4" stroke-dasharray="12,12" d="M1258.936,332.115l-419.31-83.862
		c-4.36-0.873-8.601,1.986-9.431,6.361l-35.02,185.688c-0.82,4.343,2.04,8.526,6.391,9.344l420.27,79.043
		c4.34,0.816,8.52-2.041,9.34-6.382l34.061-180.866C1266.046,337.132,1263.236,332.974,1258.936,332.115z"/>
	<g>
		<g id="Cirkel_10_">
			<path fill="#FFFFFF" d="M802.269,796.187h0.002c30.759,0,55.693,24.933,55.693,55.69v0.004c0,30.758-24.935,55.691-55.693,55.691
				h-0.002c-30.758,0-55.691-24.934-55.691-55.691v-0.004C746.577,821.119,771.511,796.187,802.269,796.187z"/>
		</g>
		<g id="Color_10_">
			<path fill="#DE6050" d="M839.734,863.574l-4.051-7.279c-0.248-0.443-0.715-0.721-1.224-0.721h-2.384
				c0.432-1.475,0.882-3.195,1.243-4.986c1.448-7.168,0.716-11.795-2.179-13.752c-2.338-1.58-3.523-2.861-3.725-4.035
				c-0.198-1.141,0.424-2.541,2.22-4.99c1.591-2.17,1.987-4.027,1.177-5.521c-1.017-1.875-3.753-2.697-8.125-2.447
				c-2.757,0.156-4.673,1.115-5.697,2.846c-1.371,2.318-0.96,5.697,1.255,10.326c0.917,1.92,1.028,3.471,0.327,4.604
				c-1.239,2.008-5.205,3.219-10.878,3.318c-2.688,0.055-4.532-0.623-5.494-1.998c-1.264-1.805-1.148-5.02,0.311-8.816
				c1.857-4.826,2.732-11.371,0.511-15.111c-0.984-1.656-2.517-2.666-4.428-2.918c-3.566-0.468-5.119,1.226-6.62,2.865
				c-0.801,0.873-1.66,1.813-2.967,2.641c-0.714,0.454-1.564,0.875-2.613,1.234c-0.62,0.213-1.308,0.406-2.081,0.57
				c-0.286,0.059-0.563,0.119-0.832,0.184c-0.179,0.377-0.283,0.814-0.283,1.285c0,0.59,0.163,1.131,0.433,1.563
				c0.39-0.098,0.809-0.193,1.263-0.293c0.823-0.174,1.573-0.379,2.255-0.607c1.105-0.371,2.041-0.801,2.844-1.262
				c1.92-1.1,3.089-2.379,4.048-3.422c1.377-1.505,2.068-2.259,4.188-1.979c1.072,0.141,1.83,0.641,2.384,1.57
				c1.657,2.785,0.896,8.482-0.717,12.67c-1.059,2.75-2.465,7.896,0.008,11.432c1.528,2.186,4.174,3.262,7.84,3.193
				c8.644-0.154,11.955-2.613,13.213-4.648c1.233-1.998,1.173-4.451-0.182-7.289c-1.707-3.566-2.194-6.297-1.371-7.689
				c0.52-0.879,1.678-1.373,3.443-1.477c3.803-0.219,5.247,0.52,5.502,0.986c0.182,0.332,0.02,1.17-0.973,2.523
				c-1.921,2.623-3.12,4.836-2.72,7.129c0.346,2,1.863,3.814,4.917,5.877c1.812,1.223,2.168,5.076,1.005,10.842
				c-0.407,2.031-0.946,3.986-1.429,5.574h-51.92c-0.05-0.545-0.104-1.088-0.159-1.621c-0.416-3.994-0.743-7.148,2.255-9.783
				c4.806-4.223,2.545-10.271,1.192-13.887c-0.332-0.887-0.616-1.652-0.755-2.229c-0.125-0.529-0.29-1.031-0.436-1.473
				c-0.337-1.029-0.533-1.682-0.301-2.086c0.159-0.275,0.616-0.711,1.889-1.219c-0.331-0.721-0.517-1.537-0.517-2.4
				c0-0.135,0.006-0.271,0.016-0.408c-2.002,0.721-3.202,1.563-3.816,2.629c-0.868,1.51-0.371,3.023,0.068,4.357
				c0.132,0.412,0.271,0.834,0.373,1.25c0.177,0.748,0.49,1.588,0.856,2.563c1.604,4.297,2.684,8.074-0.42,10.801
				c-4.084,3.59-3.63,7.955-3.192,12.176c0.046,0.443,0.094,0.887,0.135,1.334h-3.401c-0.508,0-0.976,0.277-1.225,0.717l-4.07,7.281
				c-0.244,0.434-0.238,0.965,0.014,1.393c0.251,0.428,0.711,0.691,1.208,0.691h71.569c0.497,0,0.957-0.264,1.208-0.691
				c0.252-0.428,0.258-0.959,0.016-1.391V863.574z M769.33,862.855l2.504-4.477h2.727c0,0.414-0.014,0.824-0.044,1.234
				c-0.056,0.771,0.521,1.443,1.294,1.502s1.443-0.52,1.503-1.291c0.036-0.486,0.051-0.967,0.052-1.443h50.862
				c-0.185,0.521-0.301,0.824-0.304,0.834c-0.277,0.725,0.08,1.533,0.805,1.814c0.165,0.061,0.336,0.092,0.502,0.092
				c0.563,0,1.095-0.342,1.31-0.896c0.027-0.072,0.287-0.754,0.655-1.842h2.442l2.492,4.475h-66.8V862.855z"/>
		</g>
		<g id="Yellow_10_">
			<path fill="#FAC80E" d="M797.9,844.217l-4.737-12.301c-0.579-1.506-2.092-2.377-3.624-2.217l-1.644-4.402
				c1.282-0.959,2.128-2.584,2.128-4.424c0-0.201-0.012-0.4-0.032-0.598c-0.803,0.461-1.738,0.893-2.844,1.26
				c-0.231,1.074-1.013,1.867-1.939,1.867c-0.642,0-1.211-0.379-1.58-0.967c-0.269-0.43-0.432-0.973-0.432-1.563
				c0-0.467,0.104-0.906,0.282-1.283c0.352-0.744,0.994-1.244,1.729-1.244c0.441,0,0.851,0.184,1.183,0.49
				c1.047-0.359,1.897-0.781,2.613-1.234c-0.882-1.252-2.256-2.058-3.796-2.058c-2.53,0-4.61,2.173-4.8,4.921
				c-0.011,0.137-0.016,0.271-0.016,0.408c0,0.865,0.187,1.68,0.516,2.4c0.794,1.738,2.423,2.934,4.297,2.934
				c0.012,0,0.022,0,0.034,0l1.771,4.74c-0.853,0.947-1.157,2.324-0.667,3.594l4.735,12.299c0.694,1.801,2.717,2.697,4.517,2.004
				l0.296-0.113c1.8-0.693,2.698-2.715,2.005-4.514H797.9z"/>
		</g>
		<path fill="#06371C" d="M773.131,873.398l-0.005,9.32h-1.698l-4.051-5.861l-0.065-0.004v5.863l-1.972,0.004l0.005-9.32
			l1.723,0.006l4.024,5.852l0.084-0.002l-0.012-5.85L773.131,873.398z M777.901,882.852c-0.716-0.002-1.324-0.154-1.855-0.436
			c-0.519-0.293-0.91-0.709-1.183-1.254c-0.282-0.535-0.428-1.166-0.417-1.912c-0.012-0.713,0.138-1.348,0.414-1.891
			c0.277-0.543,0.676-0.969,1.18-1.27c0.504-0.303,1.096-0.449,1.787-0.453c0.46-0.002,0.89,0.07,1.287,0.221
			c0.396,0.148,0.754,0.361,1.044,0.66c0.306,0.291,0.539,0.66,0.702,1.107c0.162,0.449,0.245,0.965,0.254,1.553l-0.007,0.539
			l-5.896,0.002l0.008-1.207h4.07c-0.003-0.275-0.067-0.52-0.178-0.742c-0.126-0.213-0.302-0.377-0.514-0.502
			c-0.213-0.123-0.463-0.182-0.738-0.188c-0.293,0-0.559,0.074-0.781,0.209c-0.224,0.131-0.395,0.307-0.528,0.541
			c-0.121,0.219-0.196,0.475-0.194,0.75l-0.007,1.145c0.006,0.342,0.065,0.641,0.195,0.891c0.133,0.252,0.311,0.449,0.551,0.584
			c0.239,0.135,0.519,0.203,0.851,0.197c0.211,0.004,0.401-0.023,0.588-0.09c0.174-0.053,0.322-0.143,0.462-0.273
			c0.126-0.121,0.216-0.264,0.283-0.441l1.798,0.113c-0.098,0.434-0.279,0.809-0.562,1.129c-0.282,0.322-0.638,0.566-1.079,0.746
			C778.99,882.76,778.484,882.848,777.901,882.852z M782.378,882.709l-0.001-6.988l1.872,0.004l0.002,1.217l0.081-0.004
			c0.122-0.43,0.336-0.758,0.627-0.973c0.304-0.23,0.648-0.34,1.045-0.346c0.102,0,0.196,0.012,0.309,0.023
			c0.112,0.014,0.209,0.029,0.304,0.045l-0.007,1.723c-0.083-0.033-0.208-0.057-0.369-0.08c-0.162-0.018-0.312-0.025-0.44-0.027
			c-0.293,0.002-0.544,0.063-0.77,0.189c-0.216,0.117-0.391,0.287-0.529,0.51c-0.124,0.217-0.183,0.465-0.191,0.754l0.001,3.957
			L782.378,882.709z M794.34,875.717l-2.436,6.986h-2.184l-2.451-6.98l2.054-0.006l1.442,5.004l0.081-0.004l1.438-4.996
			L794.34,875.717z M798.295,882.836c-0.717-0.004-1.339-0.146-1.856-0.438c-0.517-0.293-0.911-0.709-1.193-1.246
			c-0.287-0.531-0.418-1.178-0.421-1.91c0.005-0.723,0.138-1.348,0.415-1.893c0.276-0.541,0.675-0.967,1.179-1.271
			c0.507-0.299,1.11-0.457,1.786-0.451c0.462,0,0.89,0.074,1.288,0.223c0.411,0.139,0.754,0.361,1.044,0.658
			c0.306,0.293,0.54,0.662,0.702,1.109c0.176,0.439,0.261,0.953,0.254,1.555l0.007,0.527l-5.896,0.002l-0.009-1.195l4.073-0.002
			c-0.003-0.275-0.055-0.531-0.179-0.744c-0.126-0.211-0.289-0.387-0.513-0.498c-0.211-0.125-0.447-0.193-0.739-0.189
			c-0.294,0.002-0.544,0.064-0.78,0.203c-0.225,0.135-0.396,0.313-0.529,0.545c-0.12,0.219-0.183,0.467-0.194,0.75l0.008,1.137
			c-0.011,0.35,0.066,0.641,0.184,0.902c0.129,0.248,0.322,0.438,0.549,0.58c0.239,0.139,0.518,0.205,0.851,0.199
			c0.211,0.002,0.402-0.023,0.588-0.088c0.186-0.066,0.335-0.156,0.462-0.277c0.125-0.119,0.215-0.264,0.282-0.439l1.8,0.111
			c-0.099,0.436-0.282,0.811-0.562,1.133c-0.283,0.32-0.639,0.564-1.082,0.746C799.369,882.75,798.863,882.838,798.295,882.836z
			 M810.807,876.061c-0.027-0.373-0.198-0.648-0.467-0.857c-0.269-0.207-0.65-0.303-1.132-0.299
			c-0.314-0.002-0.58,0.039-0.809,0.135c-0.215,0.084-0.382,0.207-0.503,0.365c-0.12,0.16-0.169,0.334-0.176,0.537
			c-0.008,0.168,0.028,0.313,0.11,0.432c0.07,0.131,0.185,0.236,0.312,0.332c0.144,0.084,0.303,0.162,0.477,0.23
			c0.188,0.057,0.372,0.115,0.573,0.162l0.833,0.201c0.414,0.086,0.792,0.207,1.128,0.359c0.337,0.15,0.634,0.336,0.872,0.564
			c0.257,0.217,0.455,0.473,0.583,0.779c0.142,0.299,0.212,0.643,0.209,1.033c0.012,0.563-0.146,1.064-0.426,1.479
			c-0.282,0.412-0.703,0.744-1.24,0.971c-0.534,0.229-1.189,0.348-1.944,0.346c-0.74-0.008-1.402-0.117-1.961-0.348
			c-0.557-0.229-0.983-0.574-1.296-1.025c-0.313-0.453-0.473-1.018-0.493-1.684l1.908-0.004c0.025,0.311,0.105,0.578,0.268,0.781
			c0.162,0.207,0.375,0.363,0.641,0.473c0.276,0.096,0.57,0.156,0.922,0.148c0.319,0.008,0.617-0.047,0.866-0.145
			c0.248-0.096,0.431-0.225,0.579-0.406c0.133-0.172,0.203-0.373,0.2-0.592c0-0.211-0.06-0.389-0.194-0.523
			c-0.122-0.145-0.291-0.271-0.528-0.371c-0.234-0.098-0.528-0.186-0.86-0.271l-1.015-0.254c-0.783-0.193-1.407-0.486-1.857-0.896
			c-0.465-0.398-0.68-0.953-0.688-1.633c0.004-0.572,0.148-1.059,0.445-1.48c0.315-0.426,0.738-0.754,1.267-0.99
			c0.531-0.236,1.141-0.357,1.816-0.355c0.691,0,1.297,0.117,1.815,0.352c0.521,0.236,0.917,0.568,1.208,0.99
			c0.29,0.418,0.438,0.906,0.444,1.463L810.807,876.061z M814.114,885.313l-0.005-9.605h1.91l0.009,1.168h0.086
			c0.081-0.186,0.2-0.375,0.361-0.568s0.379-0.365,0.644-0.498c0.251-0.125,0.579-0.193,0.976-0.195
			c0.507,0.004,0.977,0.137,1.41,0.398c0.434,0.264,0.774,0.664,1.035,1.193c0.261,0.527,0.388,1.199,0.39,1.996
			c-0.003,0.781-0.133,1.443-0.376,1.973c-0.257,0.539-0.591,0.939-1.026,1.219c-0.422,0.273-0.896,0.406-1.437,0.412
			c-0.377,0.002-0.695-0.063-0.951-0.189c-0.271-0.121-0.483-0.275-0.653-0.459c-0.158-0.199-0.289-0.391-0.379-0.582h-0.062
			l0.016,3.73L814.114,885.313z M816.014,879.193c-0.003,0.42,0.058,0.779,0.169,1.092c0.109,0.313,0.276,0.553,0.499,0.725
			c0.222,0.166,0.488,0.25,0.803,0.248c0.314,0.002,0.573-0.082,0.79-0.252c0.229-0.186,0.384-0.418,0.502-0.734
			c0.117-0.313,0.169-0.666,0.176-1.08c-0.003-0.398-0.059-0.754-0.168-1.061c-0.123-0.303-0.287-0.541-0.497-0.721
			c-0.222-0.172-0.489-0.256-0.807-0.256c-0.313,0-0.588,0.088-0.809,0.256c-0.205,0.16-0.375,0.398-0.496,0.709
			C816.069,878.422,816.006,878.783,816.014,879.193z M822.226,882.682l-0.016-6.977l1.947-0.008l0.002,6.986L822.226,882.682z
			 M823.182,874.803c-0.29,0.004-0.527-0.1-0.741-0.285c-0.199-0.195-0.298-0.43-0.296-0.703c-0.011-0.258,0.1-0.492,0.302-0.686
			c0.205-0.189,0.452-0.287,0.745-0.291c0.276,0.006,0.528,0.098,0.729,0.297c0.214,0.184,0.31,0.418,0.307,0.686
			c-0.003,0.273-0.096,0.498-0.3,0.691C823.723,874.703,823.476,874.801,823.182,874.803z M825.71,882.682l-0.013-6.975l1.884-0.008
			l0.003,1.215l0.066,0.006c0.136-0.438,0.352-0.768,0.641-0.982c0.305-0.229,0.648-0.338,1.046-0.342
			c0.087,0.006,0.195,0.01,0.308,0.023c0.112,0.01,0.211,0.027,0.305,0.043l-0.006,1.723c-0.086-0.031-0.222-0.049-0.384-0.07
			c-0.162-0.02-0.299-0.035-0.441-0.029c-0.278-0.008-0.528,0.055-0.756,0.182c-0.229,0.123-0.405,0.295-0.529,0.512
			c-0.123,0.215-0.196,0.473-0.19,0.754l0.002,3.953L825.71,882.682z M832.732,882.816c-0.442-0.002-0.834-0.08-1.19-0.23
			c-0.343-0.162-0.626-0.389-0.819-0.701c-0.209-0.303-0.309-0.689-0.311-1.148c0.002-0.391,0.072-0.715,0.223-0.984
			c0.135-0.26,0.34-0.479,0.571-0.631c0.245-0.162,0.535-0.291,0.84-0.365c0.319-0.084,0.654-0.148,0.992-0.174
			c0.408-0.047,0.738-0.086,0.985-0.123c0.245-0.037,0.435-0.1,0.536-0.17c0.114-0.074,0.178-0.193,0.18-0.344l-0.014-0.018
			c0.009-0.295-0.081-0.518-0.273-0.668c-0.172-0.162-0.418-0.248-0.754-0.244c-0.354,0.004-0.634,0.084-0.843,0.242
			c-0.194,0.143-0.333,0.334-0.404,0.568l-1.782-0.152c0.085-0.42,0.256-0.783,0.524-1.092c0.267-0.314,0.622-0.559,1.036-0.719
			c0.424-0.174,0.912-0.258,1.479-0.26c0.381,0.002,0.747,0.051,1.103,0.141c0.358,0.09,0.683,0.227,0.961,0.416
			s0.492,0.441,0.656,0.736c0.165,0.297,0.242,0.652,0.237,1.072l0.002,4.713l-1.828-0.002v-0.973l-0.061,0.004
			c-0.117,0.223-0.261,0.412-0.443,0.572c-0.197,0.17-0.423,0.301-0.677,0.389C833.389,882.766,833.085,882.811,832.732,882.816z
			 M833.295,881.475c0.276,0.006,0.529-0.053,0.747-0.164c0.23-0.125,0.396-0.273,0.518-0.467c0.119-0.191,0.193-0.418,0.192-0.662
			l-0.008-0.738c-0.057,0.037-0.139,0.07-0.241,0.104c-0.104,0.033-0.229,0.064-0.357,0.09c-0.13,0.027-0.261,0.049-0.393,0.072
			c-0.132,0.02-0.249,0.035-0.347,0.043c-0.229,0.033-0.439,0.096-0.6,0.164c-0.165,0.068-0.304,0.17-0.403,0.301
			c-0.085,0.117-0.132,0.266-0.13,0.445c-0.006,0.27,0.09,0.469,0.29,0.605C832.745,881.41,832.999,881.475,833.295,881.475z
			 M840.114,873.357l-0.006,9.322l-1.933-0.004l-0.009-9.311L840.114,873.357z"/>
	</g>
	<g>
		<g id="Cirkel_7_">
			<path fill="#FFFFFF" d="M320.207,353.857L320.207,353.857c31.627,0,57.266,25.639,57.266,57.264v0.001
				c0,31.626-25.639,57.264-57.265,57.264h-0.001c-31.627,0-57.264-25.638-57.264-57.264v-0.001
				C262.943,379.496,288.58,353.857,320.207,353.857z"/>
		</g>
		<g id="Color_7_">
			<path fill="#DE6050" d="M360.509,400.331l-25.235-25.236c-0.367-0.367-0.851-0.551-1.332-0.551c-0.48,0-0.964,0.184-1.33,0.551
				l-12.403,12.401l2.184,2.183l11.552-11.554l23.538,23.537l-13.357,13.357c-2.662-0.489-5.603-1.269-8.631-2.285l2.125-0.816
				c0.796-0.304,1.193-1.198,0.887-1.991c-0.305-0.796-1.197-1.192-1.991-0.888l-5.451,2.094c-0.74,0.285-1.146,1.082-0.936,1.847
				l1.676,6.1c0.187,0.685,0.809,1.132,1.487,1.132c0.134,0,0.272-0.019,0.408-0.054c0.823-0.227,1.306-1.075,1.08-1.895
				l-0.761-2.771c2.466,0.846,5.013,1.584,7.495,2.141l-7.569,7.568l-11.552-11.553l-2.184,2.181l12.403,12.403
				c0.366,0.367,0.85,0.551,1.33,0.551c0.481,0,0.965-0.184,1.332-0.551l9.913-9.916c1.626,0.238,3.188,0.375,4.632,0.375
				c3.363,0,6.109-0.716,7.633-2.471c1.831-2.108,1.678-5.167-0.455-9.093c-0.073-0.133-0.164-0.249-0.266-0.354l3.778-3.776
				C361.244,402.261,361.244,401.067,360.509,400.331L360.509,400.331z M355.124,414.196c-0.991,1.14-3.578,1.621-7.158,1.342
				l6.535-6.537C355.413,410.787,356.163,412.997,355.124,414.196z"/>
		</g>
		<g id="Yellow_7_">
			<path fill="#FAC80E" d="M333.043,400.331l-10.651-10.652l-2.184-2.183l-12.4-12.401c-0.735-0.734-1.93-0.734-2.665,0
				l-9.914,9.913c3.575,0.523,7.469,1.556,11.173,2.824l-0.763-2.77c-0.227-0.822,0.258-1.67,1.08-1.895
				c0.822-0.226,1.671,0.256,1.895,1.079l1.674,6.1c0.212,0.766-0.193,1.563-0.935,1.848l-5.45,2.092
				c-0.183,0.069-0.367,0.104-0.552,0.104c-0.62,0-1.203-0.377-1.44-0.991c-0.306-0.795,0.092-1.687,0.887-1.99l2.126-0.816
				c-4.258-1.431-8.353-2.39-11.723-2.737c-0.255-0.025-0.506-0.049-0.751-0.067l-6.535,6.535l0,0l-2.231,2.233l0,0l-3.778,3.776
				c-0.734,0.735-0.734,1.93,0,2.665l25.235,25.236c0.736,0.734,1.931,0.734,2.665,0l12.402-12.403l2.181-2.181l10.652-10.652
				c0.735-0.735,0.735-1.93,0-2.665L333.043,400.331z"/>
		</g>
		<g id="color__2_">
			<path fill="#DE6050" d="M308.613,384.249c-0.227-0.823-1.075-1.307-1.895-1.08c-0.822,0.225-1.307,1.074-1.08,1.895l0.763,2.769
				c-9.313-3.191-19.82-4.896-23.437-0.728c-1.832,2.111-1.678,5.169,0.454,9.094c0.074,0.133,0.164,0.25,0.266,0.353l2.233-2.232
				c-0.914-1.783-1.664-3.993-0.623-5.194c1.058-1.218,3.939-1.683,7.906-1.275c3.373,0.349,7.465,1.308,11.723,2.738l-2.125,0.815
				c-0.796,0.307-1.191,1.199-0.887,1.993c0.237,0.614,0.82,0.989,1.44,0.989c0.184,0,0.372-0.032,0.552-0.103l5.45-2.092
				c0.741-0.287,1.146-1.083,0.936-1.85l-1.675-6.099L308.613,384.249z"/>
		</g>
		<path fill="#06371C" d="M280.485,436.873l-0.002-1.667l7.853-0.005l0.002,1.668l-2.921,0.01l0.009,7.898l-2.002-0.006
			l-0.008-7.896L280.485,436.873z M289.604,444.769l-0.011-7.179l1.994,0.008l0.003,7.164L289.604,444.769z M290.593,436.672
			c-0.299-0.009-0.546-0.096-0.759-0.293c-0.207-0.199-0.308-0.431-0.312-0.711c-0.003-0.28,0.106-0.506,0.308-0.713
			c0.215-0.195,0.473-0.291,0.762-0.296c0.3,0.004,0.544,0.095,0.755,0.293c0.213,0.2,0.323,0.444,0.319,0.708
			c0.002,0.28-0.099,0.522-0.314,0.717C291.139,436.568,290.895,436.674,290.593,436.672z M296.426,444.9
			c-0.735-0.003-1.363-0.148-1.896-0.465c-0.531-0.321-0.934-0.754-1.22-1.311c-0.271-0.548-0.422-1.201-0.415-1.918
			c-0.004-0.734,0.141-1.376,0.416-1.938c0.293-0.553,0.699-0.987,1.226-1.293c0.52-0.322,1.147-0.479,1.866-0.487
			c0.634,0.01,1.182,0.125,1.646,0.343c0.472,0.229,0.847,0.551,1.122,0.964c0.266,0.401,0.426,0.891,0.451,1.438h-1.881
			c-0.051-0.355-0.191-0.646-0.417-0.855c-0.219-0.215-0.516-0.33-0.883-0.335c-0.31,0-0.58,0.083-0.802,0.261
			c-0.23,0.161-0.413,0.395-0.537,0.721c-0.13,0.31-0.19,0.699-0.19,1.149c0.002,0.457,0.062,0.845,0.188,1.169
			c0.131,0.322,0.309,0.563,0.534,0.729c0.231,0.165,0.504,0.254,0.813,0.253c0.224-0.004,0.433-0.044,0.605-0.142
			c0.188-0.089,0.335-0.232,0.455-0.406c0.125-0.175,0.199-0.398,0.24-0.645l1.88,0.001c-0.033,0.544-0.188,1.022-0.45,1.442
			c-0.27,0.408-0.627,0.745-1.102,0.968C297.614,444.781,297.065,444.905,296.426,444.9z M302.698,442.691l0.003-2.383l0.285-0.009
			l2.299-2.715l2.284,0.001l-3.09,3.596l-0.469,0.002L302.698,442.691z M300.898,444.753l-0.013-9.563l1.996,0.009v9.548
			L300.898,444.753z M305.378,444.751l-2.106-3.114l1.314-1.419l3.12,4.526L305.378,444.751z M311.519,444.884
			c-0.738-0.002-1.37-0.145-1.902-0.442c-0.527-0.298-0.937-0.73-1.227-1.283c-0.287-0.557-0.433-1.213-0.423-1.956
			c-0.012-0.748,0.136-1.392,0.424-1.941c0.282-0.567,0.685-1,1.211-1.303c0.518-0.318,1.133-0.472,1.829-0.481
			c0.48,0.009,0.924,0.088,1.327,0.235c0.41,0.148,0.77,0.372,1.076,0.677c0.309,0.301,0.544,0.679,0.722,1.141
			c0.163,0.446,0.256,0.987,0.254,1.594l-0.001,0.542l-6.055,0.004l-0.002-1.233l4.18-0.009c0.002-0.284-0.054-0.526-0.185-0.76
			c-0.122-0.216-0.301-0.392-0.511-0.503c-0.22-0.129-0.474-0.19-0.769-0.2c-0.303-0.005-0.567,0.073-0.801,0.212
			c-0.229,0.14-0.414,0.316-0.542,0.557c-0.136,0.223-0.2,0.484-0.2,0.769v1.167c0.006,0.364,0.068,0.665,0.196,0.922
			c0.132,0.256,0.329,0.465,0.568,0.599c0.238,0.138,0.533,0.213,0.865,0.215c0.221-0.002,0.422-0.034,0.604-0.098
			c0.184-0.061,0.344-0.152,0.471-0.285c0.135-0.119,0.234-0.272,0.303-0.452l1.838,0.121c-0.098,0.435-0.286,0.827-0.572,1.157
			c-0.284,0.329-0.665,0.575-1.114,0.761C312.633,444.794,312.108,444.879,311.519,444.884z M319.915,437.568l0.003,1.493
			l-4.323-0.001l-0.001-1.493L319.915,437.568z M316.581,435.858l1.985-0.009l0.008,6.688c-0.008,0.179,0.026,0.325,0.087,0.437
			c0.049,0.095,0.133,0.165,0.23,0.205c0.1,0.037,0.221,0.063,0.353,0.056c0.091,0.001,0.19-0.005,0.278-0.024
			c0.092-0.02,0.167-0.028,0.217-0.04l0.318,1.487c-0.103,0.026-0.243,0.062-0.425,0.1c-0.183,0.042-0.401,0.067-0.663,0.076
			c-0.47,0.027-0.896-0.043-1.251-0.181c-0.367-0.155-0.639-0.376-0.842-0.688c-0.194-0.298-0.302-0.699-0.291-1.16L316.581,435.858
			z M323.922,436.836l-0.001-1.665l7.853-0.006l0.003,1.664l-2.923,0.014v7.883l-1.99,0.01l-0.01-7.897L323.922,436.836z
			 M333.634,444.727l-1.963-7.174l2.021,0.012l1.108,4.808l0.066-0.003l1.155-4.815l1.974-0.001l1.179,4.785l0.061,0.002
			l1.086-4.793h2.009l-1.944,7.166l-2.104,0.003l-1.231-4.505l-0.092-0.003l-1.224,4.519H333.634z M343.4,444.722l-0.013-7.181
			l1.995,0.008l0.003,7.167L343.4,444.722z M344.392,436.623c-0.299-0.006-0.546-0.094-0.76-0.288
			c-0.21-0.2-0.321-0.449-0.312-0.716c-0.005-0.277,0.104-0.504,0.306-0.711c0.215-0.193,0.462-0.302,0.762-0.298
			c0.301,0.008,0.547,0.097,0.756,0.298c0.211,0.193,0.315,0.424,0.318,0.705c0.002,0.281-0.097,0.524-0.314,0.718
			C344.938,436.522,344.69,436.629,344.392,436.623z M352.945,439.59l-1.823,0.106c-0.03-0.151-0.1-0.298-0.201-0.419
			c-0.104-0.122-0.236-0.225-0.406-0.301c-0.167-0.077-0.362-0.112-0.599-0.123c-0.31,0.003-0.564,0.073-0.778,0.199
			c-0.212,0.125-0.309,0.309-0.312,0.522c0.003,0.175,0.063,0.303,0.2,0.423c0.139,0.119,0.373,0.215,0.706,0.285l1.298,0.258
			c0.706,0.155,1.219,0.38,1.564,0.702c0.335,0.308,0.51,0.724,0.511,1.241c0.002,0.475-0.141,0.881-0.411,1.245
			c-0.279,0.347-0.65,0.628-1.127,0.833c-0.485,0.187-1.028,0.289-1.651,0.291c-0.953-0.004-1.701-0.192-2.272-0.596
			c-0.554-0.388-0.887-0.935-0.985-1.621l1.96-0.098c0.054,0.285,0.2,0.508,0.425,0.653c0.234,0.161,0.518,0.224,0.877,0.23
			c0.347-0.003,0.627-0.071,0.842-0.2c0.205-0.146,0.323-0.314,0.325-0.532c-0.002-0.172-0.083-0.33-0.233-0.443
			c-0.146-0.111-0.38-0.208-0.69-0.271l-1.236-0.241c-0.698-0.133-1.23-0.393-1.571-0.734c-0.33-0.334-0.501-0.773-0.506-1.313
			c0.002-0.458,0.121-0.866,0.372-1.191c0.254-0.327,0.603-0.595,1.064-0.769c0.45-0.187,0.983-0.278,1.601-0.278
			c0.902-0.002,1.613,0.189,2.141,0.579C352.547,438.398,352.849,438.92,352.945,439.59z M358.165,437.533v1.493l-4.312,0.013
			v-1.494L358.165,437.533z M354.83,435.823l1.984-0.008l0.007,6.686c0.006,0.189,0.027,0.327,0.09,0.437
			c0.051,0.091,0.132,0.168,0.23,0.206s0.221,0.06,0.352,0.055c0.094-0.001,0.19-0.001,0.279-0.023
			c0.095-0.022,0.167-0.032,0.214-0.043l0.32,1.489c-0.101,0.025-0.242,0.061-0.424,0.1c-0.182,0.042-0.401,0.067-0.652,0.09
			c-0.481,0.015-0.907-0.057-1.264-0.196c-0.354-0.14-0.638-0.375-0.841-0.687c-0.191-0.298-0.29-0.685-0.289-1.161L354.83,435.823z
			"/>
	</g>
	<g>
		<g id="Cirkel_5_">
			<path fill="#FFFFFF" d="M400.175,113.437h0.003c32.412,0,58.687,26.275,58.687,58.687v0.001
				c0,32.412-26.274,58.687-58.687,58.687h-0.003c-32.411,0-58.686-26.274-58.686-58.687v-0.001
				C341.489,139.712,367.764,113.437,400.175,113.437z"/>
		</g>
		<g id="Color_5_">
			<path fill="#DE6050" d="M427.519,130.861h-52.945c-3.836,0-6.958,3.122-6.958,6.958v50.806c0,0.705,0.572,1.277,1.275,1.277
				c0.704,0,1.276-0.573,1.276-1.277v-19.519h4.947v12.224c0,0.705,0.571,1.276,1.275,1.276s1.275-0.571,1.275-1.276v-38.938
				c0-1.361,1.107-2.468,2.469-2.468h41.823c1.36,0,2.467,1.107,2.467,2.468v38.938c0,0.705,0.572,1.276,1.276,1.276
				c0.703,0,1.275-0.571,1.275-1.276v-12.224h4.948v19.519c0,0.705,0.572,1.277,1.274,1.277c0.704,0,1.276-0.573,1.276-1.277
				v-50.806c0-3.836-3.121-6.958-6.958-6.958H427.519z M430.893,134.989c0.644,0.765,1.033,1.754,1.033,2.83v11.463l-4.947,1.939
				v-8.829c0-1.14-0.383-2.191-1.024-3.034L430.893,134.989z M399.698,137.371h-9.436l-1.96-3.958h11.396V137.371z M402.321,133.413
				h11.396l-1.961,3.958h-9.436V133.413z M375.114,151.248l-4.947-1.938v-11.49c0-1.058,0.375-2.032,1-2.793l4.938,4.37
				c-0.622,0.837-0.993,1.874-0.993,2.995v8.857H375.114z M370.167,166.552V152.05l4.947,1.939v12.563H370.167z M378.14,137.783
				l-4.758-4.208c0.381-0.105,0.778-0.163,1.191-0.163h10.882l1.96,3.958h-7.281c-0.708,0-1.383,0.147-1.996,0.415L378.14,137.783z
				 M414.605,137.369l1.96-3.959h10.953c0.392,0,0.772,0.053,1.134,0.149l-4.746,4.204c-0.601-0.252-1.257-0.394-1.948-0.394
				H414.605L414.605,137.369z M426.979,166.549v-12.592l4.947-1.938v14.529H426.979z"/>
		</g>
		<g id="Yellow_5_">
			<g>
				<path fill="#FAC80E" d="M410.716,135.568c-1.64,0.72-3.768,4.484-4.924,6.57c-1.155,2.086-2.501,5.042-6.13,4.703
					c-3.63-0.338-5.867-5.574-9.596-5.542c-3.729,0.03-2.05,2.617-0.451,3.865c1.6,1.245,5.378,4.178,5.515,7.627
					c0.139,3.451-0.323,7.18,0.793,10.989c1.116,3.811,3.788,8.417,5.267,9.315c1.478,0.898,2.224,1.188,3.426,0.583
					c1.204-0.603,1.267-2.364,0.416-4.045c-1.433-2.836-4.639-3.648-4.936-8.842c-0.097-1.691,1.406-3.932,2.96-2.188
					c1.557,1.747,4.107,3.734,7.996,3.959c3.886,0.225,6.599,0.381,6.602-2.049c0-2.428-4.203-2.175-6.891-2.555
					c-2.689-0.382-5.216-2.423-5.646-5.142c-0.443-2.798,2.704-7.432,3.97-9.302c1.267-1.872,3.424-4.108,3.882-5.499
					c0.455-1.392-0.045-3.414-2.248-2.444L410.716,135.568z"/>
				<circle fill="#FAC80E" cx="400.075" cy="142.172" r="3.701"/>
			</g>
		</g>
		<g>
			<path fill="#06371C" d="M357.921,194.11l2.742-0.002l2.881,7.061l0.114,0.006l2.914-7.067l2.719,0.007l0.001,10.505l-2.15-0.002
				l0.015-6.841l-0.088-0.002l-2.723,6.788l-1.469,0.002l-2.718-6.813h-0.086l-0.003,6.861l-2.15,0.003L357.921,194.11z
				 M374.646,204.773c-0.793-0.003-1.489-0.166-2.063-0.509c-0.578-0.347-1.013-0.824-1.342-1.43
				c-0.326-0.603-0.472-1.316-0.463-2.125c0.002-0.818,0.143-1.524,0.466-2.136c0.32-0.615,0.763-1.088,1.346-1.427
				c0.583-0.342,1.27-0.511,2.064-0.511c0.792,0.003,1.487,0.169,2.064,0.511c0.575,0.342,1.013,0.823,1.34,1.427
				c0.301,0.614,0.475,1.321,0.47,2.136c-0.007,0.812-0.148,1.513-0.471,2.127c-0.321,0.61-0.764,1.083-1.346,1.427
				C376.127,204.605,375.438,204.775,374.646,204.773z M374.657,203.078c0.366,0,0.663-0.097,0.909-0.305
				c0.246-0.21,0.434-0.497,0.556-0.856c0.122-0.358,0.171-0.758,0.19-1.225c-0.005-0.457-0.072-0.864-0.202-1.221
				c-0.106-0.366-0.29-0.649-0.549-0.852c-0.236-0.213-0.538-0.319-0.903-0.316c-0.369-0.003-0.664,0.099-0.935,0.316
				c-0.245,0.212-0.433,0.496-0.555,0.854c-0.121,0.357-0.17,0.759-0.166,1.216c-0.021,0.467,0.046,0.872,0.179,1.23
				c0.126,0.354,0.312,0.641,0.546,0.854C373.989,202.974,374.29,203.081,374.657,203.078z M382.142,200.062l-0.015,4.559
				l-2.178-0.002l0.007-7.886l2.069,0.009l-0.007,1.396l0.112-0.008c0.164-0.458,0.457-0.816,0.871-1.085
				c0.397-0.263,0.899-0.404,1.492-0.404c0.538,0.002,1.018,0.124,1.434,0.358c0.392,0.246,0.713,0.586,0.938,1.03
				c0.224,0.442,0.344,0.965,0.333,1.581l0.02,5.01l-2.203,0.005l0.007-4.63c0.011-0.483-0.124-0.856-0.359-1.133
				c-0.261-0.269-0.604-0.404-1.031-0.407c-0.309,0.008-0.563,0.065-0.792,0.192c-0.224,0.126-0.397,0.313-0.516,0.551
				C382.203,199.432,382.134,199.728,382.142,200.062z M390.907,202.355l-0.002-2.617l0.336-0.009l2.519-2.989l2.516-0.002
				l-3.387,3.959l-0.536,0.007L390.907,202.355z M388.94,204.616l0.003-10.506l2.176,0.002l0.002,10.506L388.94,204.616z
				 M393.862,204.62l-2.315-3.437l1.44-1.538l3.425,4.977L393.862,204.62z M400.607,204.773c-0.818,0.002-1.515-0.157-2.086-0.495
				c-0.598-0.325-1.033-0.797-1.357-1.4c-0.303-0.614-0.477-1.326-0.478-2.158c0.005-0.813,0.17-1.524,0.491-2.141
				c0.299-0.603,0.737-1.077,1.319-1.426c0.58-0.345,1.243-0.511,2.03-0.519c0.511,0.005,1,0.089,1.442,0.256
				c0.442,0.169,0.838,0.416,1.178,0.747c0.347,0.328,0.592,0.752,0.783,1.251c0.195,0.497,0.286,1.083,0.297,1.75l-0.013,0.605
				l-6.648-0.006l-0.005-1.348l4.604-0.005c0.005-0.318-0.062-0.591-0.199-0.839c-0.135-0.243-0.333-0.429-0.591-0.559
				c-0.231-0.146-0.514-0.211-0.825-0.211c-0.338,0-0.622,0.07-0.891,0.229c-0.244,0.146-0.436,0.348-0.579,0.605
				c-0.142,0.251-0.213,0.53-0.219,0.844l-0.018,1.297c0.004,0.384,0.092,0.713,0.221,1.004c0.154,0.283,0.362,0.499,0.63,0.653
				c0.267,0.154,0.583,0.234,0.95,0.234c0.228,0.005,0.466-0.036,0.662-0.102c0.196-0.066,0.376-0.176,0.516-0.309
				c0.138-0.13,0.259-0.305,0.341-0.507l2.009,0.136c-0.095,0.483-0.304,0.909-0.623,1.273c-0.319,0.359-0.729,0.642-1.236,0.843
				C401.834,204.669,401.256,204.773,400.607,204.773z M406.772,207.583c-0.258-0.011-0.521-0.03-0.768-0.073
				c-0.242-0.038-0.436-0.094-0.604-0.154l0.492-1.633c0.262,0.078,0.503,0.116,0.706,0.122c0.2,0.015,0.38-0.037,0.532-0.14
				c0.151-0.101,0.271-0.272,0.387-0.527l0.109-0.323l-2.81-8.115l2.291,0.007l1.635,5.784l0.086-0.002l1.644-5.786l2.294,0.011
				l-3.052,8.726c-0.155,0.424-0.354,0.795-0.61,1.11c-0.23,0.309-0.544,0.556-0.947,0.734
				C407.781,207.495,407.311,207.583,406.772,207.583z M413.942,204.623l0.002-10.508l2.181,0.008v3.947l0.057,0.005
				c0.104-0.215,0.235-0.428,0.419-0.651c0.186-0.223,0.442-0.412,0.717-0.553c0.301-0.148,0.665-0.221,1.117-0.225
				c0.566,0.004,1.11,0.144,1.582,0.45c0.5,0.292,0.872,0.75,1.166,1.35c0.296,0.595,0.432,1.351,0.435,2.252
				c-0.005,0.883-0.132,1.615-0.426,2.228c-0.271,0.596-0.66,1.058-1.143,1.366c-0.489,0.308-1.014,0.46-1.635,0.465
				c-0.424,0.002-0.768-0.073-1.08-0.207c-0.291-0.145-0.537-0.317-0.72-0.536c-0.18-0.215-0.333-0.43-0.432-0.647l-0.084-0.005
				l-0.004,1.264L413.942,204.623z M416.073,200.689c0.007,0.461,0.074,0.872,0.201,1.221c0.127,0.352,0.306,0.627,0.561,0.816
				c0.254,0.188,0.551,0.284,0.893,0.29c0.365-0.006,0.663-0.098,0.914-0.295c0.248-0.202,0.416-0.464,0.541-0.818
				c0.151-0.358,0.204-0.759,0.199-1.213c0.02-0.463-0.048-0.865-0.169-1.208c-0.15-0.336-0.329-0.61-0.581-0.797
				c-0.234-0.205-0.531-0.303-0.898-0.301c-0.366,0.002-0.665,0.096-0.893,0.277c-0.256,0.192-0.447,0.462-0.575,0.809
				C416.135,199.813,416.089,200.213,416.073,200.689z M425.321,204.777c-0.507,0-0.943-0.092-1.332-0.266
				c-0.391-0.182-0.704-0.441-0.941-0.783c-0.236-0.343-0.347-0.783-0.349-1.297c0.003-0.438,0.091-0.813,0.245-1.104
				c0.174-0.304,0.383-0.538,0.67-0.724c0.261-0.176,0.591-0.319,0.947-0.414c0.354-0.092,0.721-0.15,1.104-0.186
				c0.46-0.047,0.833-0.096,1.101-0.132c0.291-0.048,0.489-0.11,0.618-0.201c0.133-0.087,0.19-0.209,0.197-0.379l-0.012-0.026
				c-0.001-0.324-0.089-0.583-0.304-0.754c-0.193-0.184-0.486-0.269-0.857-0.269c-0.393,0.002-0.697,0.083-0.93,0.26
				c-0.233,0.175-0.394,0.386-0.475,0.648l-2.024-0.161c0.099-0.478,0.309-0.896,0.606-1.245c0.298-0.348,0.687-0.618,1.169-0.81
				c0.479-0.193,1.03-0.288,1.653-0.282c0.451-0.009,0.87,0.042,1.256,0.15c0.414,0.102,0.768,0.263,1.088,0.472
				c0.32,0.214,0.559,0.492,0.738,0.835c0.175,0.337,0.27,0.734,0.279,1.203l-0.013,5.315h-2.066l-0.006-1.091l-0.056-0.002
				c-0.119,0.24-0.303,0.466-0.505,0.648c-0.224,0.193-0.472,0.333-0.768,0.44C426.064,204.722,425.718,204.773,425.321,204.777z
				 M425.954,203.265c0.313,0.004,0.596-0.06,0.852-0.187c0.251-0.132,0.428-0.303,0.584-0.525c0.13-0.218,0.193-0.463,0.208-0.745
				l-0.003-0.836c-0.064,0.043-0.162,0.086-0.284,0.126c-0.126,0.036-0.252,0.068-0.383,0.091c-0.157,0.033-0.313,0.064-0.446,0.078
				c-0.159,0.027-0.291,0.048-0.399,0.059c-0.263,0.039-0.492,0.101-0.682,0.181c-0.188,0.081-0.338,0.194-0.446,0.334
				c-0.109,0.137-0.149,0.304-0.167,0.517c0.017,0.29,0.118,0.521,0.332,0.678C425.326,203.193,425.616,203.27,425.954,203.265z
				 M431.451,204.629l0.008-7.879h2.121l-0.011,1.377h0.086c0.148-0.494,0.383-0.858,0.724-1.112
				c0.338-0.254,0.733-0.383,1.161-0.376c0.113-0.002,0.229,0.01,0.374,0.017c0.12,0.016,0.239,0.03,0.334,0.05l-0.013,1.949
				c-0.099-0.033-0.252-0.057-0.431-0.082c-0.18-0.022-0.331-0.039-0.498-0.034c-0.313-0.005-0.592,0.059-0.843,0.2
				c-0.251,0.136-0.447,0.33-0.615,0.584c-0.121,0.236-0.195,0.52-0.22,0.854l0.002,4.458L431.451,204.629z"/>
			<path fill="#06371C" d="M443.524,198.943l-2.001,0.117c-0.033-0.167-0.109-0.327-0.223-0.461
				c-0.112-0.133-0.258-0.247-0.444-0.33c-0.182-0.087-0.398-0.123-0.656-0.135c-0.341,0.002-0.621,0.081-0.854,0.218
				c-0.233,0.138-0.341,0.34-0.344,0.575c0.003,0.191,0.07,0.332,0.221,0.463c0.151,0.13,0.409,0.237,0.775,0.313l1.425,0.283
				c0.774,0.171,1.338,0.417,1.719,0.772c0.366,0.337,0.558,0.794,0.561,1.362c0.002,0.521-0.155,0.967-0.452,1.366
				c-0.308,0.38-0.714,0.689-1.238,0.914c-0.53,0.205-1.129,0.317-1.813,0.319c-1.046-0.005-1.868-0.209-2.494-0.652
				c-0.607-0.427-0.975-1.028-1.083-1.781l2.153-0.107c0.059,0.313,0.219,0.558,0.466,0.718c0.258,0.175,0.567,0.246,0.963,0.252
				c0.381-0.004,0.688-0.078,0.923-0.22c0.227-0.161,0.354-0.346,0.358-0.583c-0.002-0.19-0.092-0.364-0.255-0.487
				c-0.161-0.123-0.419-0.229-0.761-0.298l-1.356-0.267c-0.766-0.146-1.352-0.43-1.727-0.805c-0.36-0.367-0.549-0.85-0.555-1.441
				c0.003-0.502,0.134-0.951,0.408-1.309c0.279-0.358,0.662-0.651,1.169-0.845c0.496-0.204,1.08-0.305,1.757-0.305
				c0.991-0.002,1.773,0.208,2.351,0.636C443.087,197.634,443.42,198.208,443.524,198.943z"/>
		</g>
	</g>
	<g>
		<g id="Cirkel_3_">
			<path fill="#FFFFFF" d="M599.434,313.146h0.002c29.736,0,53.841,24.104,53.841,53.84v0.003c0,29.735-24.104,53.841-53.841,53.841
				h-0.002c-29.735,0-53.84-24.106-53.84-53.841v-0.003C545.594,337.25,569.698,313.146,599.434,313.146z"/>
		</g>
		<g id="Color_3_">
			<path fill="#DE6050" d="M636.641,379.847c0.017-0.029,0.031-0.062,0.043-0.092c0.005-0.015,0.014-0.029,0.019-0.045
				c0.014-0.04,0.029-0.081,0.039-0.123c0-0.005,0.003-0.013,0.003-0.018c0.013-0.05,0.022-0.099,0.03-0.151
				c0-0.008,0-0.018,0.003-0.028c0.002-0.039,0.007-0.08,0.007-0.12c0-0.013,0-0.029,0-0.043c0-0.037-0.002-0.073-0.007-0.109
				c0-0.016,0-0.031-0.003-0.046c-0.004-0.036-0.011-0.074-0.019-0.109c-0.004-0.014-0.007-0.028-0.01-0.042
				c-0.01-0.051-0.024-0.1-0.041-0.148l-13.95-37.826c-0.029-0.167-0.087-0.323-0.169-0.46l-4.503-12.209
				c-0.021-0.06-0.048-0.117-0.077-0.172c-0.004-0.012-0.014-0.023-0.021-0.035c-0.029-0.055-0.063-0.106-0.102-0.153
				c0,0-0.001-0.002-0.003-0.004c-0.04-0.047-0.078-0.091-0.122-0.135c-0.008-0.008-0.018-0.018-0.025-0.025
				c-0.044-0.041-0.092-0.079-0.141-0.112c-0.007-0.003-0.012-0.01-0.021-0.015c-0.045-0.028-0.091-0.058-0.138-0.081
				c-0.012-0.004-0.022-0.012-0.033-0.017c-0.053-0.026-0.108-0.047-0.165-0.067c-0.012-0.003-0.021-0.008-0.034-0.009
				c-0.054-0.017-0.11-0.031-0.168-0.04c-0.004,0-0.01-0.002-0.015-0.003c-0.063-0.01-0.128-0.014-0.19-0.016
				c-0.004,0-0.01,0-0.015,0h-33.871c0,0-0.011,0-0.014,0c-0.064,0-0.13,0.006-0.193,0.016c-0.003,0-0.006,0-0.01,0.001
				c-0.061,0.009-0.116,0.023-0.175,0.039c-0.011,0.004-0.019,0.008-0.03,0.011c-0.059,0.018-0.112,0.042-0.168,0.065
				c-0.009,0.006-0.021,0.012-0.031,0.016c-0.048,0.025-0.096,0.053-0.139,0.083c-0.007,0.003-0.015,0.008-0.021,0.013
				c-0.049,0.035-0.097,0.074-0.14,0.115c-0.007,0.008-0.017,0.017-0.025,0.023c-0.043,0.042-0.084,0.085-0.121,0.134
				c0,0,0,0.003-0.001,0.006c-0.039,0.049-0.072,0.101-0.104,0.153c-0.007,0.013-0.013,0.025-0.02,0.036
				c-0.029,0.056-0.057,0.113-0.078,0.169l-18.622,50.498c-0.018,0.05-0.032,0.099-0.044,0.148
				c-0.003,0.015-0.005,0.027-0.008,0.042c-0.008,0.036-0.014,0.074-0.02,0.11c-0.002,0.015-0.003,0.031-0.003,0.046
				c-0.004,0.036-0.007,0.073-0.007,0.109c0,0.014,0,0.028,0,0.043c0,0.042,0.005,0.081,0.008,0.121c0,0.011,0,0.019,0.002,0.028
				c0.008,0.051,0.017,0.1,0.029,0.15c0,0.007,0.004,0.015,0.005,0.02c0.013,0.042,0.026,0.081,0.039,0.12
				c0.006,0.017,0.011,0.032,0.02,0.047c0.014,0.032,0.026,0.062,0.042,0.092c0.007,0.017,0.015,0.032,0.022,0.045
				c0.02,0.037,0.038,0.067,0.059,0.099c0.008,0.009,0.011,0.017,0.016,0.024c0,0.002,0.004,0.004,0.005,0.005
				c0.028,0.043,0.061,0.082,0.095,0.12c0.004,0.006,0.01,0.009,0.013,0.013c0.031,0.032,0.062,0.064,0.095,0.093
				c0.009,0.011,0.021,0.02,0.03,0.026c0.028,0.025,0.056,0.048,0.087,0.07c0.012,0.009,0.024,0.018,0.037,0.026
				c0.031,0.019,0.062,0.038,0.092,0.054c0.013,0.008,0.026,0.016,0.042,0.024c0.034,0.017,0.068,0.031,0.104,0.048
				c0.011,0.004,0.022,0.009,0.035,0.016c0.001,0,0.003,0,0.004,0c0.045,0.018,0.09,0.032,0.133,0.043
				c0.013,0.001,0.021,0.004,0.034,0.006c0.038,0.01,0.079,0.018,0.119,0.022c0.012,0,0.021,0.004,0.031,0.004
				c0.05,0.007,0.102,0.011,0.15,0.011h0.004h22.196c0,0,0,0,0.003,0c0,0,0.001,0,0.002,0h26.703c0,0,0.001,0,0.005,0
				c0,0,0,0,0.001,0h22.196c0,0,0.002,0,0.003,0c0.05,0,0.102-0.004,0.15-0.011c0.012,0,0.023-0.002,0.032-0.004
				c0.04-0.004,0.082-0.013,0.12-0.021c0.011-0.002,0.021-0.004,0.031-0.007c0.048-0.012,0.091-0.025,0.135-0.042
				c0,0,0.003,0,0.006-0.002c0.011-0.003,0.021-0.008,0.034-0.013c0.035-0.016,0.07-0.032,0.104-0.048
				c0.013-0.009,0.026-0.016,0.042-0.023c0.032-0.017,0.063-0.036,0.091-0.057c0.013-0.007,0.025-0.016,0.038-0.025
				c0.03-0.022,0.059-0.044,0.089-0.068c0.011-0.01,0.019-0.018,0.031-0.028c0.032-0.03,0.064-0.06,0.091-0.091
				c0.006-0.008,0.012-0.011,0.016-0.016c0.033-0.037,0.065-0.077,0.096-0.117c0-0.003,0.002-0.004,0.004-0.006
				c0.007-0.009,0.01-0.016,0.014-0.023c0.021-0.032,0.042-0.064,0.061-0.099c0.009-0.015,0.015-0.031,0.023-0.046H636.641z
				 M591.697,356.124l2.238-13.594h11.881l2.237,13.594H591.697L591.697,356.124z M608.5,358.833l3.136,19.051h-23.52l3.136-19.051
				H608.5z M603.771,330.098l1.602,9.721h-10.989l1.603-9.721h7.787H603.771z M615.869,330.098l3.585,9.721h-11.337l-1.602-9.721
				H615.869L615.869,330.098z M591.637,339.819h-11.338l3.585-9.721h9.354L591.637,339.819L591.637,339.819z M579.301,342.53h11.89
				l-2.238,13.594h-14.664L579.301,342.53L579.301,342.53z M608.563,342.53h11.889l5.013,13.594H610.8L608.563,342.53z
				 M571.18,364.548l2.124-5.761c0.112,0.031,0.229,0.046,0.35,0.046h14.853l-3.137,19.051h-19.107l4.916-13.336H571.18z
				 M614.383,377.884l-3.136-19.051h14.875c0.113,0,0.223-0.014,0.327-0.04l0.975,2.641l6.066,16.449L614.383,377.884
				L614.383,377.884z"/>
		</g>
		<g id="Yellow_3_">
			<path fill="#FAC80E" d="M631.479,340.035c-4.987,1.14-18.771,4.292-22.062,5.044c-0.281,0.063-0.509-0.229-0.376-0.486
				c0.576-1.117,1.784-3.448,2.679-5.175c0.146-0.283-0.143-0.595-0.435-0.468c-1.674,0.719-5.275,2.271-6.44,2.771
				c-0.193,0.084-0.413-0.028-0.463-0.233c-0.407-1.733-2.05-8.735-2.743-11.654c-0.081-0.342-0.563-0.351-0.656-0.011
				c-1.084,3.961-2.762,9.838-3.243,11.521c-0.064,0.228-0.335,0.32-0.525,0.18l-17.06-12.402c-0.287-0.209-0.661,0.108-0.5,0.427
				l7.412,14.616c0.102,0.199-0.013,0.44-0.232,0.486c-2.254,0.468-12.681,2.635-16.559,3.443c-0.353,0.074-0.362,0.575-0.012,0.662
				c5.174,1.27,13.134,3.223,15.097,3.705c0.224,0.055,0.327,0.309,0.206,0.504l-7.622,12.487c-0.188,0.308,0.169,0.657,0.474,0.464
				c3.365-2.156,12.567-8.049,14.802-9.479c0.222-0.142,0.511,0.008,0.524,0.271c0.246,5.256,0.492,10.46,0.735,15.659
				c0.019,0.362,0.512,0.449,0.651,0.116l6.15-14.583c0.09-0.214,0.364-0.278,0.537-0.125c1.894,1.667,10.967,9.646,16.479,14.495
				c0.267,0.236,0.669-0.044,0.542-0.375c-1.512-3.973-6.11-15.993-6.836-17.891c-0.057-0.147-0.004-0.315,0.128-0.402
				c1.889-1.247,15.053-9.937,19.609-12.953c0.315-0.208,0.104-0.697-0.265-0.614L631.479,340.035z"/>
		</g>
		<path fill="#06371C" d="M566.707,388.911l2.588,0.019l2.708,6.648l0.123,0.01l2.738-6.646l2.572-0.005l-0.017,9.895l-2.03-0.005
			l0.014-6.436l-0.087-0.007l-2.565,6.396l-1.38,0.002l-2.556-6.429l-0.084-0.006l-0.012,6.466l-2.015,0.019L566.707,388.911z
			 M579.109,398.838l0.018-7.412l2.052-0.01l-0.019,7.417L579.109,398.838z M580.152,390.458c-0.296,0.009-0.565-0.1-0.784-0.304
			c-0.221-0.21-0.326-0.462-0.315-0.732c-0.006-0.294,0.107-0.528,0.315-0.738c0.232-0.192,0.488-0.305,0.786-0.315
			c0.314,0.016,0.579,0.126,0.783,0.312c0.219,0.208,0.334,0.457,0.337,0.746c-0.011,0.271-0.11,0.536-0.342,0.725
			C580.725,390.365,580.469,390.475,580.152,390.458z M584.875,394.551l0.002,4.306l-2.064-0.019l0.017-7.417l1.952-0.005
			l0.014,1.328l0.071-0.015c0.179-0.418,0.449-0.767,0.829-1.026c0.398-0.239,0.865-0.369,1.407-0.378
			c0.518,0,0.966,0.117,1.349,0.343c0.383,0.224,0.691,0.565,0.9,0.977c0.208,0.412,0.308,0.899,0.314,1.483l-0.007,4.732
			l-2.065-0.014l0.018-4.346c-0.002-0.458-0.113-0.808-0.35-1.068c-0.235-0.259-0.566-0.396-0.971-0.377
			c-0.274-0.006-0.528,0.042-0.729,0.178c-0.213,0.111-0.376,0.286-0.502,0.507C584.951,393.976,584.893,394.246,584.875,394.551z
			 M594.66,399.007c-0.764,0.006-1.423-0.158-1.973-0.464c-0.544-0.316-0.961-0.746-1.256-1.326
			c-0.299-0.575-0.448-1.257-0.448-2.036c0.008-0.759,0.146-1.441,0.448-2.006c0.307-0.575,0.726-1.021,1.255-1.352
			c0.546-0.309,1.178-0.482,1.913-0.466c0.483-0.011,0.937,0.07,1.362,0.233c0.43,0.163,0.801,0.396,1.111,0.706
			c0.313,0.304,0.555,0.693,0.746,1.182c0.172,0.467,0.249,1.002,0.257,1.649l-0.003,0.557l-6.261,0.002l0.002-1.275l4.323-0.006
			c0.002-0.294-0.057-0.549-0.191-0.782c-0.13-0.233-0.308-0.409-0.539-0.546c-0.229-0.137-0.479-0.188-0.79-0.205
			c-0.302,0.017-0.586,0.074-0.818,0.237c-0.24,0.133-0.428,0.328-0.571,0.559c-0.128,0.25-0.209,0.5-0.21,0.795l-0.005,1.212
			c0.013,0.381,0.075,0.698,0.212,0.965c0.134,0.261,0.321,0.457,0.576,0.612c0.256,0.15,0.545,0.209,0.903,0.226
			c0.227,0.005,0.431-0.037,0.625-0.104c0.188-0.063,0.356-0.146,0.496-0.275c0.12-0.148,0.232-0.293,0.307-0.472l1.904,0.125
			c-0.096,0.459-0.3,0.856-0.602,1.192c-0.299,0.338-0.681,0.601-1.149,0.792C595.822,398.928,595.272,399.013,594.66,399.007z
			 M602.593,398.874l0.017-9.897l6.559,0.021l0.002,1.729l-4.471-0.023l0.012,2.375l4.02,0.008v1.727l-4.037-0.03l0.004,4.107
			L602.593,398.874z M610.522,398.899l0.017-7.417l2.054-0.008l-0.021,7.414L610.522,398.899z M611.568,390.512
			c-0.299,0.013-0.567-0.098-0.787-0.305c-0.222-0.21-0.328-0.459-0.318-0.73c-0.003-0.29,0.107-0.529,0.318-0.737
			c0.229-0.194,0.486-0.305,0.788-0.318c0.312,0.019,0.578,0.126,0.778,0.314c0.221,0.208,0.334,0.457,0.338,0.749
			c-0.011,0.264-0.111,0.533-0.339,0.722C612.139,390.417,611.881,390.531,611.568,390.512z M617.605,399.049
			c-0.76,0.002-1.42-0.166-1.97-0.471c-0.546-0.312-0.961-0.744-1.258-1.319c-0.299-0.578-0.447-1.258-0.447-2.043
			c0.005-0.754,0.162-1.418,0.452-2.004c0.301-0.57,0.72-1.019,1.25-1.348c0.548-0.316,1.173-0.486,1.913-0.47
			c0.48-0.005,0.938,0.071,1.364,0.236c0.43,0.163,0.798,0.397,1.11,0.704c0.313,0.304,0.558,0.692,0.745,1.186
			c0.171,0.464,0.265,1.021,0.259,1.646l-0.005,0.558h-6.262l0.006-1.277l4.317-0.002c0.005-0.294-0.054-0.549-0.186-0.781
			c-0.132-0.235-0.307-0.412-0.538-0.545c-0.229-0.134-0.484-0.189-0.774-0.182c-0.321-0.01-0.605,0.055-0.837,0.21
			c-0.241,0.139-0.428,0.331-0.572,0.559c-0.128,0.25-0.207,0.501-0.209,0.797l0.008,1.232c0,0.362,0.061,0.674,0.198,0.942
			c0.134,0.266,0.337,0.484,0.581,0.612c0.251,0.154,0.559,0.235,0.896,0.233c0.232,0,0.434-0.037,0.623-0.103
			c0.188-0.071,0.361-0.152,0.5-0.281c0.12-0.146,0.235-0.289,0.31-0.475l1.899,0.129c-0.092,0.456-0.294,0.857-0.597,1.194
			c-0.299,0.336-0.682,0.6-1.149,0.79C618.767,398.968,618.221,399.051,617.605,399.049z M624.44,389.035l-0.017,9.894l-2.066-0.015
			l0.018-9.895L624.44,389.035z M628.804,399.046c-0.569,0-1.073-0.142-1.538-0.446c-0.445-0.277-0.807-0.714-1.071-1.281
			c-0.266-0.569-0.391-1.265-0.4-2.105c0-0.847,0.15-1.543,0.419-2.117c0.269-0.572,0.635-0.99,1.092-1.274
			c0.456-0.281,0.952-0.425,1.506-0.414c0.417,0.003,0.759,0.068,1.033,0.205c0.291,0.154,0.513,0.328,0.685,0.536
			c0.174,0.209,0.304,0.415,0.396,0.611l0.061-0.007l0.002-3.719l2.063,0.01l-0.02,9.899l-2.031-0.005l-0.008-1.203l-0.089-0.004
			c-0.083,0.226-0.227,0.419-0.396,0.629c-0.18,0.192-0.412,0.354-0.695,0.48C629.546,398.997,629.193,399.037,628.804,399.046z
			 M629.464,397.419c0.329,0,0.609-0.095,0.831-0.278c0.229-0.194,0.41-0.443,0.537-0.762c0.119-0.344,0.189-0.716,0.181-1.17
			c0.011-0.431-0.048-0.814-0.177-1.146c-0.114-0.313-0.3-0.581-0.525-0.75c-0.229-0.17-0.516-0.265-0.847-0.265
			c-0.335,0.002-0.617,0.097-0.862,0.265c-0.225,0.188-0.404,0.443-0.516,0.779c-0.126,0.314-0.188,0.683-0.196,1.11
			c0.014,0.451,0.077,0.832,0.183,1.152c0.127,0.336,0.307,0.604,0.527,0.777C628.84,397.325,629.109,397.398,629.464,397.419z"/>
	</g>
	<g>
		<g id="Cirkel_2_">
			<path fill="#FFFFFF" d="M1116.742,331.414h0.002c34.173,0,61.878,27.704,61.878,61.877v0.003
				c0,34.174-27.705,61.877-61.878,61.877h-0.002c-34.175,0-61.878-27.704-61.878-61.877v-0.003
				C1054.864,359.118,1082.567,331.414,1116.742,331.414z"/>
		</g>
		<g id="Color_2_">
			<path fill="#DE6050" d="M1158.435,393.554l-4.643-8.339c-0.274-0.492-0.793-0.799-1.358-0.799h-72.682
				c-0.563,0-1.083,0.307-1.36,0.798l-4.662,8.339c-0.271,0.482-0.264,1.071,0.015,1.547c0.28,0.476,0.79,0.769,1.343,0.769h10.289
				c-0.682,1.054-1.076,2.31-1.076,3.657c0,3.733,3.035,6.769,6.769,6.769s6.77-3.036,6.77-6.769c0-1.347-0.397-2.6-1.076-3.657
				h5.286c-0.681,1.054-1.075,2.31-1.075,3.657c0,3.733,3.036,6.769,6.77,6.769c3.731,0,6.769-3.036,6.769-6.769
				c0-1.347-0.396-2.6-1.075-3.657h5.284c-0.681,1.054-1.076,2.31-1.076,3.657c0,3.733,3.036,6.769,6.77,6.769
				s6.769-3.036,6.769-6.769c0-1.347-0.397-2.6-1.076-3.657h5.285c-0.682,1.054-1.076,2.31-1.076,3.657
				c0,3.733,3.036,6.769,6.77,6.769c3.732,0,6.769-3.036,6.769-6.769c0-1.347-0.397-2.6-1.075-3.657h10.288
				c0.551,0,1.063-0.292,1.342-0.769c0.279-0.476,0.286-1.065,0.018-1.546H1158.435z M1094.727,399.525
				c0,2.014-1.64,3.656-3.656,3.656s-3.656-1.639-3.656-3.656s1.64-3.657,3.656-3.657S1094.727,397.508,1094.727,399.525z
				 M1111.4,399.525c0,2.014-1.64,3.656-3.657,3.656c-2.017,0-3.655-1.639-3.655-3.656s1.639-3.657,3.655-3.657
				C1109.761,395.869,1111.4,397.508,1111.4,399.525z M1128.073,399.525c0,2.014-1.639,3.656-3.656,3.656
				c-2.017,0-3.656-1.639-3.656-3.656s1.64-3.657,3.656-3.657C1126.435,395.869,1128.073,397.508,1128.073,399.525z
				 M1144.747,399.525c0,2.014-1.64,3.656-3.656,3.656c-2.018,0-3.656-1.639-3.656-3.656s1.639-3.657,3.656-3.657
				C1143.107,395.869,1144.747,397.508,1144.747,399.525z M1077.745,392.755l2.922-5.223h70.852l2.907,5.223H1077.745
				L1077.745,392.755z"/>
		</g>
		<g id="Yellow_2_">
			<g>
				<circle fill="#FAC80E" cx="1121.682" cy="351.671" r="4.868"/>
				<path fill="#FAC80E" d="M1110.697,357.25c3.006,2.418,2.844,4.739,2.31,8.292c-0.533,3.554-1.007,8.649-4.325,12.915
					c-3.317,4.265-6.159,10.366-3.909,11.729c2.251,1.362,4.621,0.356,5.569-1.895c0.948-2.251,5.518-10.699,6.042-12.795
					c1.064-4.265,4.028,3.437,3.91,6.16c-0.119,2.725-3.318,7.405,0,8.649c3.317,1.244,4.266-3.437,5.212-6.99
					c0.948-3.554-2.606-9.834-2.845-12.204c-0.237-2.368-1.053-9.048,2.5-9.285c3.555-0.238,11.598-1.14,11.48-5.17
					c-0.117-4.03-7.463,0.592-10.07,0.948c-2.606,0.354-5.925,0.829-9.123-0.948c-3.197-1.777-9.596-10.308-11.846-8.41
					c-2.252,1.894,1.055,5.754,5.095,9.004V357.25z"/>
			</g>
		</g>
		<path fill="#06371C" d="M1079.784,419.034l-2.043-0.013c-0.034-0.261-0.109-0.493-0.224-0.7c-0.113-0.207-0.265-0.393-0.444-0.538
			c-0.179-0.145-0.386-0.252-0.623-0.338c-0.229-0.071-0.479-0.107-0.755-0.112c-0.492,0.002-0.923,0.122-1.291,0.363
			c-0.368,0.242-0.655,0.591-0.854,1.064c-0.207,0.455-0.303,1.023-0.314,1.675c0.002,0.687,0.098,1.249,0.302,1.721
			c0.199,0.455,0.487,0.81,0.858,1.051c0.355,0.231,0.785,0.354,1.269,0.361c0.264-0.012,0.519-0.037,0.749-0.107
			c0.234-0.072,0.434-0.185,0.623-0.307c0.172-0.153,0.325-0.314,0.444-0.514c0.121-0.2,0.209-0.419,0.257-0.673l2.031,0.004
			c-0.053,0.438-0.184,0.864-0.397,1.267c-0.211,0.4-0.489,0.766-0.848,1.079c-0.344,0.328-0.772,0.565-1.253,0.76
			c-0.488,0.178-1.032,0.274-1.645,0.271c-0.854-0.005-1.611-0.196-2.28-0.585c-0.669-0.389-1.198-0.952-1.578-1.674
			c-0.385-0.733-0.573-1.617-0.57-2.65c0-1.048,0.202-1.928,0.588-2.666c0.396-0.723,0.932-1.273,1.604-1.653
			s1.428-0.571,2.263-0.574c0.553,0.001,1.068,0.089,1.54,0.242c0.472,0.154,0.894,0.385,1.252,0.674
			c0.368,0.303,0.672,0.67,0.894,1.089C1079.57,417.985,1079.718,418.473,1079.784,419.034z M1081.171,425.231l0.02-7.155
			l1.926,0.009v1.251l0.07-0.005c0.13-0.447,0.354-0.776,0.662-0.999c0.303-0.24,0.659-0.35,1.058-0.348
			c0.108,0.009,0.208,0.004,0.328,0.026c0.111,0.009,0.211,0.025,0.298,0.047l-0.005,1.758c-0.089-0.022-0.222-0.054-0.384-0.069
			c-0.159-0.018-0.318-0.038-0.449-0.029c-0.297-0.01-0.553,0.059-0.782,0.188c-0.233,0.112-0.412,0.29-0.543,0.518
			c-0.129,0.226-0.199,0.475-0.197,0.774l-0.015,4.045L1081.171,425.231z M1089.439,425.405c-0.724-0.01-1.351-0.165-1.872-0.468
			c-0.528-0.322-0.927-0.745-1.215-1.304c-0.285-0.56-0.422-1.197-0.427-1.94c0.008-0.73,0.146-1.384,0.432-1.937
			c0.292-0.552,0.699-0.981,1.225-1.286c0.53-0.305,1.159-0.456,1.876-0.46c0.729,0.007,1.353,0.164,1.87,0.469
			c0.532,0.317,0.934,0.744,1.219,1.302c0.285,0.557,0.422,1.197,0.426,1.941c-0.007,0.729-0.153,1.368-0.44,1.922
			c-0.289,0.553-0.688,0.996-1.218,1.303C1090.786,425.249,1090.16,425.399,1089.439,425.405z M1089.455,423.863
			c0.331,0.004,0.604-0.091,0.823-0.278c0.225-0.186,0.383-0.453,0.502-0.771c0.111-0.334,0.172-0.698,0.168-1.12
			c0.009-0.409-0.047-0.777-0.16-1.104c-0.114-0.33-0.278-0.586-0.503-0.781c-0.214-0.184-0.492-0.284-0.822-0.291
			c-0.333-0.001-0.608,0.097-0.839,0.287c-0.225,0.188-0.396,0.441-0.507,0.774c-0.116,0.322-0.169,0.698-0.176,1.104
			c0.002,0.424,0.055,0.792,0.168,1.121c0.116,0.328,0.283,0.582,0.508,0.777C1088.839,423.762,1089.122,423.86,1089.455,423.863z
			 M1095.485,425.281l-1.931-7.167l2.012,0.015l1.096,4.809h0.063l1.171-4.802l1.97,0.002l1.153,4.773h0.058l1.106-4.777
			l2.009,0.018l-1.972,7.138h-2.095l-1.22-4.507l-0.089-0.001l-1.238,4.501L1095.485,425.281z M1107.683,425.426
			c-0.547-0.004-1.04-0.145-1.477-0.424c-0.436-0.28-0.783-0.698-1.036-1.238c-0.257-0.561-0.378-1.226-0.38-2.032
			c0.007-0.81,0.136-1.499,0.403-2.038c0.261-0.557,0.62-0.952,1.06-1.217c0.435-0.285,0.917-0.42,1.451-0.407
			c0.4,0,0.73,0.068,0.993,0.199c0.272,0.142,0.489,0.303,0.648,0.501c0.175,0.211,0.302,0.409,0.387,0.596l0.061,0.001l0.014-3.582
			l1.976,0.001l-0.028,9.538l-1.959-0.006v-1.152l-0.077,0.012c-0.092,0.199-0.228,0.389-0.399,0.585
			c-0.171,0.189-0.387,0.353-0.661,0.473C1108.395,425.367,1108.072,425.434,1107.683,425.426z M1108.313,423.845
			c0.324,0.009,0.592-0.083,0.816-0.25c0.22-0.183,0.396-0.422,0.513-0.742c0.121-0.319,0.184-0.686,0.187-1.107
			c0.003-0.429-0.056-0.794-0.177-1.117c-0.113-0.31-0.289-0.557-0.505-0.719c-0.228-0.174-0.495-0.26-0.823-0.27
			c-0.317,0.007-0.598,0.091-0.816,0.275c-0.229,0.168-0.395,0.42-0.519,0.721c-0.113,0.315-0.172,0.679-0.168,1.099
			c-0.006,0.406,0.05,0.776,0.165,1.101c0.114,0.311,0.283,0.563,0.503,0.742C1107.712,423.755,1107.99,423.854,1108.313,423.845z
			 M1121.654,418.563c-0.035-0.38-0.2-0.677-0.478-0.877c-0.287-0.216-0.664-0.313-1.15-0.318c-0.331-0.004-0.611,0.038-0.831,0.142
			c-0.228,0.087-0.406,0.204-0.53,0.367c-0.119,0.159-0.179,0.342-0.171,0.556c-0.008,0.169,0.02,0.31,0.098,0.44
			c0.081,0.128,0.192,0.237,0.331,0.328c0.137,0.092,0.308,0.182,0.487,0.247c0.181,0.063,0.375,0.117,0.582,0.163l0.856,0.207
			c0.422,0.105,0.798,0.222,1.145,0.38c0.348,0.154,0.646,0.344,0.905,0.579c0.25,0.217,0.449,0.492,0.588,0.803
			c0.145,0.309,0.22,0.664,0.215,1.05c-0.005,0.588-0.156,1.093-0.448,1.525c-0.299,0.415-0.718,0.751-1.269,0.991
			c-0.555,0.222-1.219,0.334-1.994,0.337c-0.77-0.001-1.442-0.126-2.01-0.358c-0.565-0.236-1.012-0.591-1.327-1.049
			c-0.32-0.476-0.477-1.04-0.496-1.733l1.955,0.013c0.017,0.31,0.106,0.577,0.268,0.793c0.166,0.211,0.384,0.373,0.654,0.48
			c0.282,0.115,0.587,0.158,0.941,0.17c0.341-0.003,0.634-0.053,0.886-0.155c0.259-0.091,0.452-0.236,0.593-0.41
			c0.145-0.176,0.213-0.381,0.215-0.606c-0.002-0.218-0.065-0.4-0.189-0.542c-0.121-0.14-0.313-0.28-0.555-0.381
			c-0.23-0.092-0.53-0.198-0.874-0.279l-1.04-0.265c-0.805-0.198-1.439-0.51-1.897-0.917c-0.468-0.42-0.694-0.978-0.689-1.686
			c-0.008-0.581,0.149-1.088,0.462-1.516c0.316-0.428,0.745-0.768,1.293-1.008c0.55-0.238,1.17-0.358,1.867-0.353
			c0.707,0,1.323,0.124,1.848,0.366c0.538,0.251,0.949,0.588,1.243,1.024c0.292,0.43,0.436,0.922,0.451,1.497L1121.654,418.563z
			 M1129.61,422.331l0.016-4.104l1.977-0.003l-0.02,7.155l-1.904-0.004l0.008-1.296l-0.081-0.009
			c-0.159,0.427-0.426,0.764-0.807,1.013c-0.37,0.261-0.828,0.381-1.36,0.386c-0.482-0.009-0.902-0.117-1.266-0.341
			c-0.359-0.208-0.646-0.525-0.846-0.919c-0.207-0.41-0.307-0.891-0.303-1.438l0.01-4.563l1.989,0.01l-0.016,4.202
			c0.003,0.422,0.114,0.754,0.333,0.995c0.229,0.251,0.527,0.379,0.902,0.378c0.24,0.002,0.461-0.06,0.673-0.159
			c0.205-0.114,0.371-0.283,0.505-0.492C1129.548,422.918,1129.613,422.652,1129.61,422.331z M1133.172,425.385l0.021-7.152
			l1.928,0.01l-0.003,1.252l0.07-0.005c0.129-0.447,0.354-0.775,0.663-1c0.302-0.237,0.657-0.351,1.059-0.35
			c0.097-0.002,0.205,0.005,0.323,0.028c0.113,0.007,0.212,0.024,0.301,0.048l-0.005,1.758c-0.089-0.021-0.223-0.056-0.384-0.073
			c-0.171-0.029-0.317-0.031-0.458-0.043c-0.287,0.009-0.544,0.076-0.784,0.192c-0.225,0.126-0.401,0.303-0.534,0.529
			c-0.138,0.212-0.202,0.476-0.205,0.761l-0.007,4.06L1133.172,425.385z M1142.765,418.261v1.495l-4.418-0.013l0.003-1.496
			L1142.765,418.261z M1139.339,425.406l0.027-7.665c0-0.522,0.102-0.953,0.307-1.289c0.198-0.354,0.485-0.598,0.84-0.771
			c0.351-0.169,0.757-0.252,1.209-0.246c0.295-0.013,0.58,0.023,0.825,0.064c0.261,0.05,0.447,0.091,0.573,0.128l-0.361,1.487
			c-0.078-0.028-0.174-0.047-0.29-0.073c-0.106-0.009-0.225-0.033-0.346-0.036c-0.288,0.006-0.487,0.079-0.604,0.213
			c-0.124,0.122-0.177,0.316-0.177,0.562l-0.02,7.636L1139.339,425.406z M1143.961,425.428l0.021-7.158h1.977l-0.02,7.152
			L1143.961,425.428z M1144.973,417.341c-0.29,0.006-0.54-0.09-0.756-0.29c-0.2-0.193-0.313-0.442-0.307-0.711
			c-0.004-0.279,0.104-0.511,0.311-0.709c0.212-0.197,0.472-0.287,0.763-0.293c0.298,0.009,0.545,0.104,0.749,0.295
			c0.212,0.202,0.321,0.437,0.323,0.717c-0.009,0.265-0.108,0.516-0.318,0.713C1145.52,417.247,1145.271,417.348,1144.973,417.341z
			 M1149.524,421.302l-0.008,4.141l-1.986-0.01l0.02-7.157l1.896,0.011l-0.008,1.257l0.086,0.003
			c0.153-0.423,0.426-0.741,0.797-0.986c0.374-0.244,0.83-0.362,1.357-0.362c0.496-0.001,0.933,0.115,1.295,0.322
			c0.369,0.221,0.66,0.535,0.867,0.945c0.196,0.394,0.299,0.875,0.3,1.437l-0.015,4.55l-1.986-0.01l0.01-4.204
			c0.009-0.428-0.106-0.778-0.328-1.018c-0.228-0.251-0.537-0.372-0.935-0.377c-0.27-0.002-0.507,0.052-0.712,0.167
			c-0.201,0.112-0.353,0.291-0.472,0.511C1149.59,420.734,1149.531,420.995,1149.524,421.302z M1158.901,428.296
			c-0.641-0.005-1.189-0.087-1.65-0.269c-0.452-0.171-0.818-0.414-1.094-0.721c-0.26-0.292-0.438-0.636-0.517-1.013l1.831-0.248
			c0.056,0.146,0.147,0.285,0.269,0.409c0.119,0.124,0.278,0.222,0.475,0.295c0.207,0.086,0.454,0.125,0.737,0.121
			c0.432-0.001,0.785-0.108,1.068-0.314c0.284-0.208,0.424-0.561,0.426-1.046l0.003-1.314l-0.079,0.012
			c-0.085,0.198-0.217,0.385-0.392,0.561c-0.176,0.174-0.399,0.321-0.678,0.425c-0.271,0.114-0.599,0.167-0.974,0.169
			c-0.541-0.007-1.028-0.131-1.473-0.385c-0.43-0.245-0.785-0.638-1.045-1.154c-0.255-0.519-0.376-1.164-0.374-1.954
			c-0.005-0.823,0.132-1.497,0.401-2.036c0.268-0.538,0.616-0.951,1.056-1.216c0.438-0.27,0.924-0.403,1.446-0.403
			c0.401,0,0.734,0.066,1.01,0.21c0.265,0.126,0.487,0.306,0.646,0.501c0.167,0.195,0.296,0.394,0.391,0.595l0.069-0.007
			l0.009-1.195l1.968,0.003l-0.025,7.221c-0.003,0.605-0.147,1.123-0.452,1.527c-0.295,0.414-0.706,0.723-1.234,0.926
			C1160.188,428.201,1159.583,428.294,1158.901,428.296z M1158.954,423.865c0.323,0.01,0.596-0.066,0.813-0.231
			c0.222-0.164,0.401-0.38,0.518-0.681c0.121-0.301,0.182-0.664,0.182-1.088c-0.001-0.424-0.051-0.771-0.167-1.08
			c-0.126-0.32-0.293-0.557-0.518-0.73c-0.225-0.178-0.494-0.259-0.81-0.257c-0.334-0.005-0.6,0.091-0.831,0.26
			c-0.226,0.169-0.389,0.417-0.502,0.732c-0.123,0.304-0.18,0.663-0.182,1.069c0.005,0.42,0.055,0.77,0.174,1.076
			c0.111,0.289,0.279,0.522,0.508,0.697C1158.358,423.791,1158.634,423.874,1158.954,423.865z"/>
	</g>
</g>
</svg>
