<?xml version="1.0" encoding="UTF-8" standalone="no"?>
<!DOCTYPE svg PUBLIC "-//W3C//DTD SVG 1.1//EN" "http://www.w3.org/Graphics/SVG/1.1/DTD/svg11.dtd">
<svg xmlns="http://www.w3.org/2000/svg" version="1.1" viewBox="0 0 433 433">
<path fill="#a5719c" d="
  M 134.09 0.91
  Q 140.62 28.41 148.75 55.21
  Q 110.86 62.02 74.54 74.75
  Q 51.10 45.11 29.00 14.46
  Q 45.99 1.86 65.27 0.99
  Q 81.79 0.23 134.09 0.91
  Z"
/>
<path fill="#98dfbc" d="
  M 163.25 0.79
  L 165.21 17.75
  C 162.71 14.65 157.88 15.38 158.04 19.44
  C 158.25 24.65 165.66 23.90 165.29 18.50
  L 170.25 52.21
  L 148.75 55.21
  Q 140.62 28.41 134.09 0.91
  L 163.25 0.79
  Z"
/>
<path fill="#00bd6a" d="
  M 163.25 0.79
  L 249.50 0.79
  L 245.79 15.75
  Q 242.33 18.19 244.29 22.00
  L 237.00 50.21
  Q 203.55 48.71 170.25 52.21
  L 165.29 18.50
  L 165.21 17.75
  L 163.25 0.79
  Z"
/>
<path fill="#98dfbc" d="
  M 249.50 0.79
  L 278.19 1.08
  L 258.25 51.71
  L 237.00 50.21
  L 244.29 22.00
  C 251.48 26.39 253.68 14.56 245.79 15.75
  L 249.50 0.79
  Z"
/>
<path fill="#dfbbda" d="
  M 278.19 1.08
  Q 344.43 0.86 364.50 1.00
  Q 377.54 1.09 391.00 7.16
  Q 360.58 35.63 332.04 66.03
  Q 296.03 55.97 258.25 51.71
  L 278.19 1.08
  Z"
/>
<path fill="#98dfbc" d="
  M 391.00 7.16
  Q 407.65 14.16 418.75 29.21
  Q 387.90 50.99 358.50 74.71
  L 332.04 66.03
  Q 360.58 35.63 391.00 7.16
  Z"
/>
<path fill="#98dfbc" d="
  M 29.00 14.46
  Q 51.10 45.11 74.54 74.75
  C 71.47 76.17 63.60 78.36 61.69 80.69
  C 60.07 82.68 59.84 86.32 62.54 87.74
  Q 67.19 90.18 81.22 97.01
  C 83.63 98.19 84.96 99.81 84.22 102.47
  Q 82.54 108.44 80.00 114.04
  Q 42.49 80.18 8.31 42.96
  Q 7.97 42.59 7.51 42.38
  L 6.71 42.00
  Q 14.22 25.26 29.00 14.46
  Z"
/>
<circle fill="#ffffff" cx="75.97" cy="19.36" r="3.62"/>
<circle fill="#ffffff" cx="104.52" cy="19.35" r="3.61"/>
<circle fill="#ffffff" cx="133.07" cy="19.37" r="3.61"/>
<path fill="#ffffff" d="
  M 165.21 17.75
  L 165.29 18.50
  C 165.66 23.90 158.25 24.65 158.04 19.44
  C 157.88 15.38 162.71 14.65 165.21 17.75
  Z"
/>
<circle fill="#ffffff" cx="190.15" cy="19.37" r="3.61"/>
<circle fill="#ffffff" cx="218.68" cy="19.37" r="3.61"/>
<path fill="#ffffff" d="
  M 245.79 15.75
  C 253.68 14.56 251.48 26.39 244.29 22.00
  Q 242.33 18.19 245.79 15.75
  Z"
/>
<circle fill="#ffffff" cx="275.80" cy="19.36" r="3.61"/>
<circle fill="#ffffff" cx="304.31" cy="19.35" r="3.61"/>
<circle fill="#ffffff" cx="332.87" cy="19.35" r="3.61"/>
<circle fill="#ffffff" cx="361.41" cy="19.45" r="3.62"/>
<circle fill="#ffffff" cx="48.53" cy="25.97" r="3.61"/>
<circle fill="#ffffff" cx="388.18" cy="28.33" r="3.61"/>
<path fill="#e2604a" d="
  M 418.75 29.21
  Q 431.80 47.20 432.19 68.81
  Q 432.54 88.65 432.09 134.28
  Q 409.02 139.76 386.54 146.25
  C 389.84 137.28 395.31 128.95 398.10 120.00
  Q 398.24 119.52 397.92 119.14
  L 385.47 104.34
  Q 384.86 102.47 383.23 102.58
  Q 376.60 103.05 354.99 105.99
  Q 353.23 106.22 351.29 108.50
  Q 349.49 105.21 348.80 101.52
  Q 348.72 101.04 348.88 100.58
  C 349.34 99.26 349.87 98.16 351.22 97.49
  C 354.94 95.65 371.18 88.71 372.39 85.56
  C 374.90 79.06 362.83 76.61 358.50 74.71
  Q 387.90 50.99 418.75 29.21
  Z"
/>
<circle fill="#ffffff" cx="27.85" cy="45.18" r="3.61"/>
<path fill="#e2604a" d="
  M 6.71 42.00
  L 7.51 42.38
  Q 7.97 42.59 8.31 42.96
  Q 42.49 80.18 80.00 114.04
  C 79.03 118.10 74.03 126.70 80.41 128.64
  C 83.32 129.53 89.77 126.46 92.75 125.46
  L 100.71 132.50
  Q 99.51 132.91 98.25 133.01
  C 81.80 134.37 65.43 136.93 49.06 139.14
  Q 46.07 139.54 45.99 142.49
  Q 45.72 151.77 45.46 172.25
  L 0.68 154.44
  Q 0.43 124.97 0.56 71.51
  Q 0.59 55.76 6.71 42.00
  Z"
/>
<circle fill="#ffffff" cx="407.22" cy="49.17" r="3.61"/>
<path fill="#fcc900" d="
  M 237.00 50.21
  L 258.25 51.71
  Q 296.03 55.97 332.04 66.03
  L 358.50 74.71
  C 362.83 76.61 374.90 79.06 372.39 85.56
  C 371.18 88.71 354.94 95.65 351.22 97.49
  C 349.87 98.16 349.34 99.26 348.88 100.58
  Q 348.72 101.04 348.80 101.52
  Q 349.49 105.21 351.29 108.50
  L 343.25 126.29
  L 320.96 118.67
  Q 320.06 118.36 320.67 119.10
  L 327.08 126.86
  Q 327.42 127.27 327.42 127.80
  L 327.03 158.53
  L 313.76 187.66
  A 0.85 0.85 0.0 0 1 312.14 187.28
  Q 313.45 153.72 314.69 121.94
  C 314.85 117.88 316.40 109.78 310.78 110.71
  Q 303.39 111.93 296.12 112.22
  Q 269.25 105.94 241.75 104.04
  L 227.25 103.29
  Q 204.43 102.59 181.75 105.04
  Q 174.19 105.40 166.75 106.79
  Q 139.11 110.47 112.50 118.79
  Q 102.43 121.53 92.75 125.46
  C 89.77 126.46 83.32 129.53 80.41 128.64
  C 74.03 126.70 79.03 118.10 80.00 114.04
  Q 82.54 108.44 84.22 102.47
  C 84.96 99.81 83.63 98.19 81.22 97.01
  Q 67.19 90.18 62.54 87.74
  C 59.84 86.32 60.07 82.68 61.69 80.69
  C 63.60 78.36 71.47 76.17 74.54 74.75
  Q 110.86 62.02 148.75 55.21
  L 170.25 52.21
  Q 203.55 48.71 237.00 50.21
  Z"
/>
<path fill="#ffffff" d="
  M 214.52 74.46
  C 216.56 75.42 217.78 72.45 218.62 71.09
  Q 218.87 70.67 219.35 70.55
  C 220.62 70.22 221.10 70.94 220.99 72.11
  C 220.83 73.83 221.12 81.30 220.37 81.99
  Q 218.97 83.29 218.44 81.45
  Q 217.74 79.00 215.52 77.95
  Q 215.01 77.71 214.60 78.09
  C 210.59 81.80 220.24 88.34 224.52 78.04
  A 1.07 1.07 0.0 0 1 226.55 78.18
  Q 227.52 81.84 226.62 85.50
  A 2.30 2.28 9.2 0 1 224.19 87.24
  Q 213.96 86.34 203.71 87.09
  A 0.92 0.92 0.0 0 1 203.19 85.37
  C 209.06 82.04 209.07 70.59 202.59 67.91
  A 0.99 0.99 0.0 0 1 203.02 66.00
  Q 213.77 66.55 224.24 65.70
  C 228.58 65.34 227.36 71.95 226.71 74.49
  Q 226.59 74.96 226.13 75.11
  Q 224.52 75.67 224.05 73.94
  C 222.23 67.11 212.31 67.44 213.97 73.79
  Q 214.09 74.25 214.52 74.46
  Z"
/>
<path fill="#ffffff" d="
  M 253.29 85.41
  C 255.04 85.91 254.50 81.68 254.50 80.70
  Q 254.51 80.18 254.85 79.78
  Q 255.45 79.09 256.70 79.91
  Q 257.14 80.20 257.43 80.64
  Q 259.08 83.16 257.89 85.69
  Q 256.88 87.85 254.07 88.40
  C 243.44 90.49 246.79 80.80 242.63 79.33
  Q 242.18 79.17 241.79 79.45
  C 237.68 82.38 244.82 85.48 243.48 87.28
  Q 243.22 87.62 242.79 87.60
  L 229.57 86.79
  Q 229.05 86.75 229.03 86.23
  Q 229.00 85.47 229.84 85.11
  C 233.65 83.47 234.27 78.65 234.32 75.01
  Q 234.39 70.08 229.98 68.00
  A 0.90 0.90 0.0 0 1 230.41 66.28
  C 237.53 66.61 247.35 65.95 253.78 69.19
  Q 254.24 69.43 254.48 69.90
  Q 256.57 74.09 253.40 77.27
  Q 253.00 77.67 252.43 77.78
  L 251.02 78.05
  Q 250.31 78.19 250.79 78.74
  Q 252.99 81.29 252.83 84.76
  Q 252.80 85.27 253.29 85.41
  Z"
/>
<path fill="#ffffff" d="
  M 171.57 70.29
  L 169.21 72.19
  Q 168.78 72.53 168.64 73.06
  Q 166.81 79.72 170.01 85.23
  C 170.86 86.70 173.51 86.99 173.94 88.14
  A 0.82 0.81 -14.2 0 1 173.28 89.23
  L 159.64 91.05
  A 0.96 0.96 0.0 0 1 158.91 89.34
  C 163.95 85.33 162.58 74.45 156.38 72.60
  Q 155.70 72.40 155.77 71.69
  L 155.82 71.27
  Q 155.87 70.72 156.42 70.64
  L 170.35 68.75
  Q 170.86 68.68 171.31 68.94
  Q 172.01 69.35 172.67 68.78
  Q 173.08 68.42 173.62 68.37
  L 186.57 67.15
  Q 187.08 67.11 187.58 67.24
  Q 188.79 67.57 190.03 67.24
  C 192.00 66.71 200.19 65.97 201.81 67.04
  A 0.53 0.53 0.0 0 1 201.77 67.95
  C 194.86 71.58 194.01 79.97 192.84 86.88
  Q 192.76 87.34 192.29 87.38
  L 184.72 88.04
  A 1.30 1.30 0.0 0 1 183.36 87.11
  C 181.47 80.83 179.24 72.63 172.33 70.16
  Q 171.91 70.01 171.57 70.29
  Z"
/>
<circle fill="#ffffff" cx="19.26" cy="72.09" r="3.62"/>
<path fill="#fcc900" d="
  M 189.13 68.62
  C 193.95 70.68 191.45 76.96 190.33 80.62
  A 0.61 0.60 39.2 0 1 189.22 80.73
  C 187.59 77.75 184.29 71.18 188.28 68.68
  Q 188.69 68.43 189.13 68.62
  Z"
/>
<path fill="#ffffff" d="
  M 272.35 87.14
  A 1.28 1.27 -40.3 0 0 272.54 84.87
  C 268.69 82.52 260.66 80.12 261.55 74.20
  C 262.60 67.29 273.79 69.71 278.23 71.48
  Q 278.71 71.68 279.23 71.61
  L 281.64 71.27
  Q 282.31 71.18 282.42 71.85
  Q 282.94 75.13 281.60 78.09
  A 0.88 0.88 0.0 0 1 280.12 78.29
  C 277.80 75.47 275.21 72.30 270.91 73.05
  A 1.07 1.07 0.0 0 0 270.06 74.33
  C 271.11 79.06 282.86 78.18 281.48 86.24
  C 280.24 93.49 268.58 90.63 263.76 88.94
  Q 263.30 88.78 262.83 88.88
  L 260.87 89.29
  Q 260.37 89.40 260.22 88.92
  Q 259.05 85.20 260.98 81.90
  A 0.76 0.75 40.7 0 1 262.22 81.81
  C 264.71 84.90 267.65 89.04 272.35 87.14
  Z"
/>
<ellipse fill="#fcc900" cx="0.00" cy="0.00" transform="translate(243.89,73.40) rotate(91.6)" rx="3.25" ry="2.89"/>
<path fill="#ffffff" d="
  M 148.57 81.61
  Q 149.02 76.75 144.27 74.74
  Q 143.40 74.37 143.58 73.42
  A 1.14 1.14 0.0 0 1 144.59 72.50
  C 146.83 72.30 153.27 70.58 154.96 71.25
  A 0.61 0.60 -53.5 0 1 155.11 72.29
  C 149.94 76.34 153.12 84.95 154.35 90.43
  A 1.33 1.32 -11.8 0 1 153.30 92.02
  L 147.08 93.19
  A 1.04 1.03 -19.7 0 1 145.98 92.68
  Q 143.03 87.41 137.96 84.22
  A 0.81 0.81 0.0 0 0 136.71 84.93
  Q 136.88 90.69 142.09 92.56
  A 0.89 0.89 0.0 0 1 141.98 94.27
  L 131.61 96.47
  A 0.92 0.92 0.0 0 1 130.75 94.94
  L 132.71 92.87
  Q 133.00 92.56 133.10 92.14
  C 134.24 87.10 132.60 79.09 126.47 77.92
  A 0.59 0.59 0.0 0 1 126.10 77.01
  C 126.89 75.89 135.99 74.32 137.84 73.75
  A 1.94 1.93 65.9 0 1 140.06 74.60
  Q 142.97 79.38 147.90 81.98
  Q 148.51 82.30 148.57 81.61
  Z"
/>
<circle fill="#ffffff" cx="413.62" cy="76.67" r="3.61"/>
<path fill="#ffffff" d="
  M 292.90 74.42
  A 1.12 1.11 -72.5 0 1 294.14 73.77
  L 301.81 75.35
  A 1.16 1.16 0.0 0 1 302.73 76.46
  C 302.79 81.84 302.61 88.16 305.02 92.99
  C 305.63 94.22 306.99 95.04 307.50 96.57
  A 0.99 0.98 -0.4 0 1 306.26 97.82
  Q 300.16 95.81 293.81 94.92
  Q 293.34 94.85 292.95 94.58
  C 290.41 92.81 281.80 93.75 279.88 91.47
  A 0.72 0.72 0.0 0 1 280.25 90.31
  C 286.71 88.61 290.48 80.15 292.90 74.42
  Z"
/>
<path fill="#ffffff" d="
  M 97.66 85.85
  Q 97.09 85.77 97.21 85.21
  Q 97.34 84.58 98.00 84.37
  Q 110.79 80.40 123.77 77.07
  Q 124.55 76.86 125.30 77.13
  A 0.64 0.64 0.0 0 1 125.45 78.26
  C 119.85 82.12 123.90 89.11 124.07 93.74
  C 124.30 100.15 112.06 102.32 108.17 99.67
  C 102.86 96.06 106.19 87.00 97.66 85.85
  Z"
/>
<path fill="#ffffff" d="
  M 312.24 94.74
  C 314.69 91.33 316.39 86.18 315.05 82.03
  Q 314.88 81.51 314.43 81.22
  Q 312.91 80.24 312.53 78.51
  Q 312.35 77.68 313.17 77.90
  L 328.01 81.97
  Q 328.49 82.10 328.52 82.60
  C 328.55 83.38 323.98 84.90 322.86 86.93
  C 321.22 89.88 318.90 96.99 323.03 98.97
  C 326.54 100.65 328.96 95.93 330.81 93.74
  A 0.99 0.99 0.0 0 1 332.55 94.48
  Q 332.09 98.83 330.29 102.78
  A 1.93 1.91 20.5 0 1 327.99 103.82
  L 308.45 97.90
  Q 307.98 97.76 307.97 97.26
  C 307.96 96.12 310.60 95.61 311.46 95.32
  Q 311.94 95.15 312.24 94.74
  Z"
/>
<path fill="#fcc900" d="
  M 294.30 79.98
  A 0.48 0.48 0.0 0 1 295.17 80.02
  Q 296.17 82.35 295.54 84.88
  Q 295.37 85.53 294.73 85.33
  L 292.69 84.69
  Q 291.87 84.44 292.28 83.68
  L 294.30 79.98
  Z"
/>
<path fill="#fcc900" d="
  M 114.53 81.34
  C 118.53 83.88 118.97 87.05 119.94 91.26
  C 120.73 94.72 118.65 97.26 115.05 96.43
  C 112.48 95.84 110.46 87.37 110.97 84.92
  Q 111.45 82.60 113.48 81.33
  Q 114.01 81.00 114.53 81.34
  Z"
/>
<path fill="#fcc900" d="
  M 289.97 89.88
  A 1.67 1.67 0.0 0 1 291.62 87.96
  Q 293.90 87.96 295.39 89.50
  Q 295.81 89.93 295.55 90.46
  Q 294.69 92.22 292.75 92.75
  Q 292.27 92.88 291.85 92.62
  Q 290.24 91.62 289.97 89.88
  Z"
/>
<circle fill="#ffffff" cx="19.18" cy="100.62" r="3.61"/>
<circle fill="#ffffff" cx="413.60" cy="105.21" r="3.62"/>
<path fill="#1d1d1b" d="
  M 385.47 104.34
  C 383.03 111.26 379.30 117.66 376.23 124.31
  C 371.19 135.22 364.92 146.04 359.59 157.12
  C 352.49 171.86 345.48 185.60 339.23 200.24
  C 338.86 201.10 338.88 202.53 339.32 203.47
  Q 345.13 215.93 352.21 236.55
  Q 358.13 253.82 371.38 283.08
  Q 374.51 290.00 381.75 293.71
  L 390.00 296.80
  Q 380.25 305.09 368.07 306.19
  C 359.34 306.98 350.70 303.57 343.18 299.10
  C 342.19 297.60 340.59 296.32 339.83 294.76
  Q 336.77 288.51 333.22 282.53
  C 329.36 276.02 327.57 268.14 324.25 261.21
  L 316.60 241.61
  A 0.93 0.92 -32.4 0 0 315.10 241.28
  C 311.66 244.54 309.28 247.98 309.04 252.99
  C 308.27 268.68 308.46 284.19 308.54 299.97
  C 308.56 303.45 309.55 306.30 304.69 306.91
  Q 291.62 308.56 278.09 309.93
  Q 276.53 309.62 276.56 308.19
  Q 277.01 289.59 277.46 271.00
  L 277.71 258.50
  L 278.21 228.75
  L 278.54 221.50
  C 279.51 212.41 279.00 204.20 279.71 195.50
  L 280.46 186.25
  L 280.71 145.75
  L 281.46 125.50
  C 281.54 121.04 279.64 113.89 286.40 113.69
  Q 291.23 113.55 296.12 112.22
  Q 303.39 111.93 310.78 110.71
  C 316.40 109.78 314.85 117.88 314.69 121.94
  Q 313.45 153.72 312.14 187.28
  A 0.85 0.85 0.0 0 0 313.76 187.66
  L 327.03 158.53
  Q 335.69 142.64 343.25 126.29
  L 351.29 108.50
  Q 353.23 106.22 354.99 105.99
  Q 376.60 103.05 383.23 102.58
  Q 384.86 102.47 385.47 104.34
  Z"
/>
<path fill="#00bd6a" d="
  M 227.25 103.29
  L 224.79 119.96
  Q 222.71 127.53 223.46 135.50
  C 223.30 136.07 222.95 136.58 222.89 137.12
  Q 219.12 172.48 217.29 208.00
  L 216.75 215.46
  L 216.48 215.73
  Q 216.26 215.96 216.09 215.69
  L 215.79 215.25
  L 215.46 214.50
  L 213.71 210.00
  L 206.29 188.00
  Q 205.95 175.06 207.45 162.21
  C 208.28 155.12 207.39 147.95 208.36 140.64
  Q 208.42 140.18 208.15 139.79
  Q 202.60 132.04 195.69 125.26
  Q 195.46 124.18 194.63 123.32
  Q 194.24 122.92 193.69 122.96
  L 186.25 123.46
  L 181.75 105.04
  Q 204.43 102.59 227.25 103.29
  Z"
/>
<path fill="#98dfbc" d="
  M 227.25 103.29
  L 241.75 104.04
  L 238.00 117.71
  L 224.79 119.96
  L 227.25 103.29
  Z"
/>
<path fill="#dfbbda" d="
  M 241.75 104.04
  Q 269.25 105.94 296.12 112.22
  Q 291.23 113.55 286.40 113.69
  C 279.64 113.89 281.54 121.04 281.46 125.50
  Q 280.33 126.21 280.06 126.56
  Q 274.53 133.87 268.79 141.00
  L 268.75 133.57
  Q 268.74 133.07 268.42 132.68
  Q 262.76 125.85 257.11 119.05
  C 256.76 118.63 256.42 118.64 256.04 119.00
  C 256.44 117.76 255.84 117.00 254.54 116.99
  Q 246.25 116.91 238.00 117.71
  L 241.75 104.04
  Z"
/>
<path fill="#fcc900" d="
  M 385.47 104.34
  L 397.92 119.14
  Q 398.24 119.52 398.10 120.00
  C 395.31 128.95 389.84 137.28 386.54 146.25
  Q 378.94 158.56 372.96 171.75
  Q 362.00 193.29 352.07 215.32
  C 350.88 217.95 356.69 229.28 358.04 232.25
  L 365.54 253.25
  L 381.75 293.71
  Q 374.51 290.00 371.38 283.08
  Q 358.13 253.82 352.21 236.55
  Q 345.13 215.93 339.32 203.47
  C 338.88 202.53 338.86 201.10 339.23 200.24
  C 345.48 185.60 352.49 171.86 359.59 157.12
  C 364.92 146.04 371.19 135.22 376.23 124.31
  C 379.30 117.66 383.03 111.26 385.47 104.34
  Z"
/>
<path fill="#98dfbc" d="
  M 181.75 105.04
  L 186.25 123.46
  L 174.00 125.46
  L 166.75 106.79
  Q 174.19 105.40 181.75 105.04
  Z"
/>
<path fill="#a5719c" d="
  M 166.75 106.79
  L 174.00 125.46
  L 163.60 126.87
  A 2.52 2.51 -89.2 0 0 161.46 128.96
  Q 160.45 135.20 160.58 141.47
  C 160.75 149.73 159.28 157.70 159.46 166.00
  Q 135.09 143.27 112.50 118.79
  Q 139.11 110.47 166.75 106.79
  Z"
/>
<path fill="#ffffff" d="
  M 321.27 208.14
  Q 316.83 213.26 312.02 218.05
  C 308.05 222.01 303.30 225.19 298.54 228.53
  Q 298.11 228.83 298.10 229.36
  Q 297.33 260.91 295.82 292.36
  C 295.74 293.96 295.15 294.85 293.41 294.45
  A 1.48 1.48 0.0 0 1 292.27 292.95
  Q 294.88 238.77 294.55 184.31
  C 294.42 163.03 294.77 141.75 295.57 120.51
  A 1.24 1.23 83.6 0 1 296.47 119.37
  C 298.34 118.83 299.17 119.72 299.12 121.55
  Q 297.68 171.42 298.40 221.49
  A 1.37 1.37 0.0 0 0 300.58 222.57
  C 307.00 217.88 315.16 211.22 319.10 204.20
  C 324.04 195.43 329.08 184.38 332.72 177.35
  C 339.39 164.46 346.49 151.82 352.21 138.55
  Q 357.42 126.48 362.64 114.42
  Q 363.39 112.70 364.93 113.18
  A 1.60 1.59 19.6 0 1 365.93 115.28
  C 359.45 131.58 352.64 146.84 344.30 162.79
  Q 333.81 182.87 323.98 203.02
  Q 323.53 203.95 323.96 204.88
  C 330.22 218.61 336.65 231.83 341.80 246.36
  Q 346.83 260.56 353.58 274.06
  C 358.01 282.92 360.32 288.05 366.74 293.33
  A 1.34 1.33 -65.3 0 1 367.21 294.62
  C 365.79 302.40 355.35 286.24 354.55 284.76
  Q 345.50 267.89 339.55 251.35
  C 334.07 236.13 327.76 222.50 321.50 208.17
  A 0.14 0.13 -35.9 0 0 321.27 208.14
  Z"
/>
<path fill="#1d1d1b" d="
  M 256.04 119.00
  Q 256.01 121.92 255.99 124.85
  C 255.97 128.55 256.85 132.99 256.18 137.35
  C 254.15 150.38 255.34 164.44 255.23 175.33
  Q 255.07 190.28 254.74 205.24
  C 254.68 208.22 255.13 211.74 255.06 214.25
  Q 254.46 236.91 253.93 259.57
  C 253.55 276.34 248.49 293.02 236.84 305.47
  C 231.32 311.37 225.92 313.81 218.24 315.98
  C 203.56 320.14 185.14 323.39 171.84 314.89
  Q 164.03 307.32 160.25 296.96
  Q 158.17 289.76 157.96 282.25
  C 158.18 275.42 157.46 268.05 157.61 261.92
  Q 157.83 253.21 158.21 244.50
  L 158.21 236.00
  L 159.04 212.25
  L 159.21 205.25
  L 159.46 177.25
  L 159.46 166.00
  C 159.28 157.70 160.75 149.73 160.58 141.47
  Q 160.45 135.20 161.46 128.96
  A 2.52 2.51 -89.2 0 1 163.60 126.87
  L 174.00 125.46
  L 186.25 123.46
  L 193.69 122.96
  Q 194.24 122.92 194.63 123.32
  Q 195.46 124.18 195.69 125.26
  Q 194.90 131.97 194.86 138.43
  C 194.81 148.69 193.45 158.50 193.43 168.63
  C 193.42 176.47 192.95 183.08 192.64 192.24
  C 192.46 197.72 193.04 203.71 193.00 208.58
  C 192.82 230.00 193.20 251.33 192.45 272.73
  C 192.12 281.86 194.56 288.84 205.25 287.71
  Q 208.62 287.29 211.29 285.59
  Q 219.40 279.57 219.56 269.49
  Q 219.90 247.64 221.21 229.00
  L 221.96 220.50
  L 222.21 217.00
  L 222.21 213.25
  L 222.04 210.25
  L 221.71 192.75
  Q 221.78 167.97 223.29 143.24
  Q 223.53 139.37 223.46 135.50
  Q 222.71 127.53 224.79 119.96
  L 238.00 117.71
  Q 246.25 116.91 254.54 116.99
  C 255.84 117.00 256.44 117.76 256.04 119.00
  Z"
/>
<path fill="#e2604a" d="
  M 343.25 126.29
  Q 335.69 142.64 327.03 158.53
  L 327.42 127.80
  Q 327.42 127.27 327.08 126.86
  L 320.67 119.10
  Q 320.06 118.36 320.96 118.67
  L 343.25 126.29
  Z"
/>
<path fill="#98dfbc" d="
  M 112.50 118.79
  Q 135.09 143.27 159.46 166.00
  L 159.46 177.25
  L 151.29 171.75
  Q 149.11 165.79 147.72 163.79
  Q 144.72 159.46 136.26 150.29
  Q 129.73 140.97 119.91 135.41
  C 114.48 132.33 106.80 132.46 100.71 132.50
  L 92.75 125.46
  Q 102.43 121.53 112.50 118.79
  Z"
/>
<path fill="#fcc900" d="
  M 268.79 141.00
  Q 269.73 149.65 268.29 158.25
  C 266.97 169.36 267.93 180.37 268.29 191.50
  L 268.04 199.00
  L 267.75 220.21
  Q 267.19 223.35 267.79 226.50
  L 267.29 251.00
  L 267.33 262.14
  C 266.73 269.62 267.00 278.03 266.04 284.50
  Q 264.14 297.27 258.54 309.00
  Q 254.45 315.57 249.46 321.50
  Q 241.74 329.15 231.43 331.22
  A 0.33 0.33 0.0 0 0 231.50 331.87
  Q 241.80 331.50 251.50 329.71
  Q 258.99 329.10 266.25 327.21
  Q 276.78 325.26 286.87 321.98
  A 0.46 0.46 0.0 0 0 287.06 321.23
  Q 282.06 315.90 278.09 309.93
  Q 291.62 308.56 304.69 306.91
  C 309.55 306.30 308.56 303.45 308.54 299.97
  C 308.46 284.19 308.27 268.68 309.04 252.99
  C 309.28 247.98 311.66 244.54 315.10 241.28
  A 0.93 0.92 -32.4 0 1 316.60 241.61
  L 324.25 261.21
  C 320.21 266.10 321.09 283.85 321.29 292.00
  Q 320.99 292.77 321.00 293.00
  Q 321.34 304.81 321.82 316.00
  L 321.05 320.81
  Q 320.93 321.58 320.16 321.73
  L 312.39 323.25
  A 0.94 0.91 -85.3 0 0 311.70 323.85
  Q 308.67 332.30 305.34 340.73
  C 304.40 343.12 304.52 345.40 306.83 346.69
  Q 314.16 350.78 325.64 355.91
  C 331.99 358.75 329.24 363.81 324.20 365.74
  Q 304.65 373.25 284.25 378.21
  L 262.75 382.29
  Q 229.17 387.37 195.25 385.29
  L 173.75 382.79
  Q 144.06 378.42 111.75 366.75
  Q 106.85 364.98 104.75 363.21
  C 101.34 356.69 110.93 354.42 115.04 352.25
  Q 120.41 350.16 125.45 347.12
  Q 131.58 343.42 126.16 338.72
  C 119.57 342.33 114.48 341.82 107.85 343.80
  C 102.20 345.49 96.12 344.91 90.25 345.54
  C 85.46 346.15 80.90 347.33 76.11 347.51
  Q 67.03 347.85 58.04 349.13
  C 54.88 349.57 46.27 337.35 43.78 333.91
  Q 52.74 332.62 61.42 332.12
  C 69.58 331.64 77.69 329.77 86.12 329.57
  C 91.37 329.44 95.89 327.94 101.02 327.16
  C 119.80 324.29 135.51 307.17 137.99 288.49
  Q 138.80 282.40 139.34 273.51
  C 139.58 269.57 138.42 265.10 138.73 261.47
  C 139.89 247.99 134.57 227.19 119.73 222.78
  A 1.22 1.22 0.0 0 1 119.29 220.68
  C 125.95 215.07 131.99 207.66 134.48 198.99
  C 138.74 184.20 141.81 164.64 136.26 150.29
  Q 144.72 159.46 147.72 163.79
  Q 149.11 165.79 151.29 171.75
  C 152.70 183.54 151.32 192.51 150.29 203.25
  L 148.29 211.25
  C 145.65 220.08 141.41 227.91 134.48 234.11
  Q 134.05 234.49 134.42 234.93
  L 140.50 242.04
  L 146.00 250.04
  C 147.32 253.42 149.32 256.63 150.18 259.87
  C 152.60 269.00 151.09 277.19 152.29 287.50
  Q 151.84 299.12 149.54 310.50
  L 144.82 321.02
  A 0.48 0.47 20.6 0 0 145.12 321.67
  Q 164.32 327.52 184.21 330.22
  Q 184.71 330.29 184.35 329.95
  Q 177.23 323.13 171.84 314.89
  C 185.14 323.39 203.56 320.14 218.24 315.98
  C 225.92 313.81 231.32 311.37 236.84 305.47
  C 248.49 293.02 253.55 276.34 253.93 259.57
  Q 254.46 236.91 255.06 214.25
  C 255.13 211.74 254.68 208.22 254.74 205.24
  Q 255.07 190.28 255.23 175.33
  C 255.34 164.44 254.15 150.38 256.18 137.35
  C 256.85 132.99 255.97 128.55 255.99 124.85
  Q 256.01 121.92 256.04 119.00
  C 256.42 118.64 256.76 118.63 257.11 119.05
  Q 262.76 125.85 268.42 132.68
  Q 268.74 133.07 268.75 133.57
  L 268.79 141.00
  Z"
/>
<path fill="#fcc900" d="
  M 206.29 188.00
  Q 205.59 192.00 206.29 196.00
  L 205.54 207.25
  L 205.54 209.00
  L 205.54 214.75
  L 206.04 220.25
  L 206.29 221.25
  L 205.79 228.25
  L 206.04 231.50
  Q 205.38 251.12 205.96 270.75
  L 205.25 287.71
  C 194.56 288.84 192.12 281.86 192.45 272.73
  C 193.20 251.33 192.82 230.00 193.00 208.58
  C 193.04 203.71 192.46 197.72 192.64 192.24
  C 192.95 183.08 193.42 176.47 193.43 168.63
  C 193.45 158.50 194.81 148.69 194.86 138.43
  Q 194.90 131.97 195.69 125.26
  Q 202.60 132.04 208.15 139.79
  Q 208.42 140.18 208.36 140.64
  C 207.39 147.95 208.28 155.12 207.45 162.21
  Q 205.95 175.06 206.29 188.00
  Z"
/>
<circle fill="#ffffff" cx="19.20" cy="129.16" r="3.63"/>
<path fill="#98dfbc" d="
  M 281.46 125.50
  L 280.71 145.75
  L 268.29 158.25
  Q 269.73 149.65 268.79 141.00
  Q 274.53 133.87 280.06 126.56
  Q 280.33 126.21 281.46 125.50
  Z"
/>
<path fill="#ffffff" d="
  M 177.08 134.40
  A 1.72 1.71 -80.8 0 1 178.29 136.08
  C 177.88 154.67 176.84 169.92 177.46 191.76
  Q 177.73 201.28 177.58 211.74
  Q 177.10 244.01 178.80 276.24
  C 179.19 283.58 180.39 295.24 185.91 299.32
  C 198.99 309.00 213.72 305.56 225.69 296.12
  C 232.86 290.46 235.89 282.43 236.74 273.42
  C 241.09 227.07 239.44 178.46 239.17 131.06
  A 2.11 2.08 -19.5 0 1 239.98 129.39
  C 241.65 128.10 242.98 129.59 242.98 131.31
  C 242.99 177.13 244.58 224.02 241.17 268.93
  C 239.84 286.41 233.67 298.08 217.28 305.54
  Q 199.54 313.61 183.56 302.63
  C 174.72 296.54 174.82 275.73 174.55 266.18
  C 173.77 239.34 174.17 212.58 173.67 185.76
  Q 173.20 160.93 174.83 136.13
  C 174.93 134.62 175.48 133.90 177.08 134.40
  Z"
/>
<circle fill="#ffffff" cx="413.61" cy="133.78" r="3.61"/>
<path fill="#1d1d1b" d="
  M 100.71 132.50
  C 106.80 132.46 114.48 132.33 119.91 135.41
  Q 129.73 140.97 136.26 150.29
  C 141.81 164.64 138.74 184.20 134.48 198.99
  C 131.99 207.66 125.95 215.07 119.29 220.68
  A 1.22 1.22 0.0 0 0 119.73 222.78
  C 134.57 227.19 139.89 247.99 138.73 261.47
  C 138.42 265.10 139.58 269.57 139.34 273.51
  Q 138.80 282.40 137.99 288.49
  C 135.51 307.17 119.80 324.29 101.02 327.16
  C 95.89 327.94 91.37 329.44 86.12 329.57
  C 77.69 329.77 69.58 331.64 61.42 332.12
  Q 52.74 332.62 43.78 333.91
  C 41.02 332.27 41.98 322.16 41.98 316.42
  C 41.99 307.92 43.40 297.46 42.71 287.75
  Q 43.18 277.24 44.05 266.75
  Q 44.17 265.20 43.71 263.75
  L 44.21 194.25
  L 45.46 172.25
  Q 45.72 151.77 45.99 142.49
  Q 46.07 139.54 49.06 139.14
  C 65.43 136.93 81.80 134.37 98.25 133.01
  Q 99.51 132.91 100.71 132.50
  Z"
/>
<path fill="#98dfbc" d="
  M 432.09 134.28
  L 432.13 163.73
  L 416.00 165.46
  C 420.38 156.74 408.65 156.97 410.22 163.45
  C 410.42 164.31 411.14 164.85 411.50 165.71
  L 372.96 171.75
  Q 378.94 158.56 386.54 146.25
  Q 409.02 139.76 432.09 134.28
  Z"
/>
<path fill="#98dfbc" d="
  M 223.46 135.50
  Q 223.53 139.37 223.29 143.24
  Q 221.78 167.97 221.71 192.75
  L 220.85 193.54
  Q 220.48 193.88 220.39 194.36
  C 219.80 197.50 219.00 205.76 217.29 208.00
  Q 219.12 172.48 222.89 137.12
  C 222.95 136.58 223.30 136.07 223.46 135.50
  Z"
/>
<path fill="#ffffff" d="
  M 97.33 224.84
  C 102.63 225.92 109.87 227.41 113.50 231.00
  Q 121.53 238.92 123.49 242.80
  C 125.50 246.76 125.35 252.66 125.48 259.35
  Q 125.82 277.12 124.54 286.51
  C 121.63 307.84 105.49 314.07 86.43 315.86
  Q 72.98 317.13 58.75 318.34
  Q 57.66 318.44 57.69 317.35
  C 58.24 297.04 59.85 276.24 59.66 255.74
  C 59.38 223.75 59.83 191.73 59.73 159.74
  C 59.72 156.99 58.09 147.87 62.50 147.50
  Q 79.51 146.09 96.51 144.60
  C 105.18 143.83 118.76 148.70 121.88 157.74
  C 124.10 164.17 123.17 169.52 123.19 175.74
  C 123.23 186.41 121.09 200.27 114.11 208.76
  Q 106.72 217.74 97.26 224.50
  Q 96.90 224.75 97.33 224.84
  Z"
/>
<path fill="#e2604a" d="
  M 280.71 145.75
  L 280.46 186.25
  L 268.29 191.50
  C 267.93 180.37 266.97 169.36 268.29 158.25
  L 280.71 145.75
  Z"
/>
<path fill="#1d1d1b" d="
  M 114.56 154.19
  C 121.63 159.73 120.02 175.48 118.75 184.75
  C 117.63 192.90 116.51 200.58 111.04 206.43
  C 103.99 213.96 96.79 222.22 85.70 223.72
  Q 74.69 225.21 64.26 226.13
  Q 63.42 226.20 63.42 225.35
  L 63.44 152.65
  A 1.66 1.65 88.1 0 1 64.97 151.01
  Q 77.76 150.08 90.28 148.91
  C 100.85 147.93 106.75 148.06 114.56 154.19
  Z"
/>
<g stroke-width="2.00" fill="none" stroke-linecap="butt">
<path stroke="#ef9525" vector-effect="non-scaling-stroke" d="
  M 105.71 179.50
  Q 100.95 179.76 96.18 180.16
  C 91.45 180.56 92.00 184.81 92.54 188.25"
/>
<path stroke="#cad45e" vector-effect="non-scaling-stroke" d="
  M 92.54 188.25
  Q 93.13 196.37 92.54 204.50"
/>
<path stroke="#fdae58" vector-effect="non-scaling-stroke" d="
  M 92.54 204.50
  Q 92.09 206.08 92.50 207.71"
/>
<path stroke="#cbb9b6" vector-effect="non-scaling-stroke" d="
  M 98.51 205.44
  Q 95.35 203.99 92.54 204.50"
/>
<path stroke="#bda083" vector-effect="non-scaling-stroke" d="
  M 105.25 191.79
  L 92.54 188.25"
/>
</g>
<circle fill="#ffffff" cx="19.19" cy="157.73" r="3.61"/>
<path fill="#98dfbc" d="
  M 0.68 154.44
  L 45.46 172.25
  L 44.21 194.25
  Q 32.80 192.39 21.75 188.96
  C 26.53 183.31 15.17 179.13 15.50 187.21
  C 12.24 186.31 3.70 183.15 0.79 183.75
  L 0.68 154.44
  Z"
/>
<path fill="#ffffff" d="
  M 416.00 165.46
  Q 413.79 166.31 411.50 165.71
  C 411.14 164.85 410.42 164.31 410.22 163.45
  C 408.65 156.97 420.38 156.74 416.00 165.46
  Z"
/>
<path fill="#a5719c" d="
  M 432.13 163.73
  L 432.19 249.50
  C 427.51 249.50 421.73 247.02 417.04 246.00
  Q 414.87 243.58 411.75 244.54
  Q 385.23 236.93 358.04 232.25
  C 356.69 229.28 350.88 217.95 352.07 215.32
  Q 362.00 193.29 372.96 171.75
  L 411.50 165.71
  Q 413.79 166.31 416.00 165.46
  L 432.13 163.73
  Z"
/>
<path fill="#fcc900" d="
  M 105.71 179.50
  Q 100.95 179.76 96.18 180.16
  C 91.45 180.56 92.00 184.81 92.54 188.25
  Q 93.13 196.37 92.54 204.50
  Q 92.09 206.08 92.50 207.71
  Q 87.54 208.76 82.50 209.28
  C 80.39 209.50 79.78 208.37 79.70 206.42
  Q 79.12 192.70 79.52 189.00
  C 80.32 181.42 79.26 174.17 79.84 166.70
  Q 79.88 166.18 80.31 165.87
  C 82.63 164.18 84.82 164.87 86.99 164.55
  C 92.76 163.70 97.02 163.49 101.30 167.96
  Q 106.24 173.12 105.71 179.50
  Z"
/>
<path fill="#e2604a" d="
  M 151.29 171.75
  L 159.46 177.25
  L 159.21 205.25
  L 150.29 203.25
  C 151.32 192.51 152.70 183.54 151.29 171.75
  Z"
/>
<path fill="#e2604a" d="
  M 105.71 179.50
  Q 106.10 185.68 105.25 191.79
  L 92.54 188.25
  C 92.00 184.81 91.45 180.56 96.18 180.16
  Q 100.95 179.76 105.71 179.50
  Z"
/>
<path fill="#ffffff" d="
  M 21.75 188.96
  Q 17.51 191.41 15.50 187.21
  C 15.17 179.13 26.53 183.31 21.75 188.96
  Z"
/>
<path fill="#fe92af" d="
  M 15.50 187.21
  Q 17.51 191.41 21.75 188.96
  Q 32.80 192.39 44.21 194.25
  L 43.71 263.75
  L 43.43 263.93
  Q 43.17 264.11 42.85 264.16
  Q 21.93 267.51 0.78 269.32
  L 0.79 183.75
  C 3.70 183.15 12.24 186.31 15.50 187.21
  Z"
/>
<path fill="#98dfbc" d="
  M 280.46 186.25
  L 279.71 195.50
  L 268.04 199.00
  L 268.29 191.50
  L 280.46 186.25
  Z"
/>
<circle fill="#ffffff" cx="413.59" cy="190.84" r="3.61"/>
<path fill="#98dfbc" d="
  M 206.29 188.00
  L 213.71 210.00
  L 206.29 196.00
  Q 205.59 192.00 206.29 188.00
  Z"
/>
<path fill="#98dfbc" d="
  M 92.54 188.25
  L 105.25 191.79
  Q 103.99 199.69 98.51 205.44
  Q 95.35 203.99 92.54 204.50
  Q 93.13 196.37 92.54 188.25
  Z"
/>
<path fill="#dfbbda" d="
  M 221.71 192.75
  L 222.04 210.25
  L 217.25 215.29
  L 216.75 215.46
  L 217.29 208.00
  C 219.00 205.76 219.80 197.50 220.39 194.36
  Q 220.48 193.88 220.85 193.54
  L 221.71 192.75
  Z"
/>
<path fill="#a5719c" d="
  M 279.71 195.50
  C 279.00 204.20 279.51 212.41 278.54 221.50
  L 267.75 220.21
  L 268.04 199.00
  L 279.71 195.50
  Z"
/>
<path fill="#a5719c" d="
  M 206.29 196.00
  L 213.71 210.00
  L 215.46 214.50
  Q 213.50 215.06 212.21 213.50
  L 205.54 207.25
  L 206.29 196.00
  Z"
/>
<path fill="#98dfbc" d="
  M 150.29 203.25
  L 159.21 205.25
  L 159.04 212.25
  L 148.29 211.25
  L 150.29 203.25
  Z"
/>
<path fill="#fe92af" d="
  M 98.51 205.44
  L 92.50 207.71
  Q 92.09 206.08 92.54 204.50
  Q 95.35 203.99 98.51 205.44
  Z"
/>
<path fill="#98dfbc" d="
  M 205.54 207.25
  L 212.21 213.50
  L 205.54 209.00
  L 205.54 207.25
  Z"
/>
<path fill="#e2604a" d="
  M 205.54 209.00
  L 212.21 213.50
  Q 213.50 215.06 215.46 214.50
  L 215.79 215.25
  Q 215.84 215.52 215.73 215.75
  Q 215.54 216.17 215.09 216.11
  L 205.54 214.75
  L 205.54 209.00
  Z"
/>
<path fill="#e2604a" d="
  M 222.04 210.25
  L 222.21 213.25
  L 218.07 216.22
  Q 217.31 216.76 217.27 215.83
  L 217.25 215.29
  L 222.04 210.25
  Z"
/>
<circle fill="#ffffff" cx="19.20" cy="214.80" r="3.61"/>
<path fill="#fe92af" d="
  M 148.29 211.25
  L 159.04 212.25
  L 158.21 236.00
  C 155.59 236.95 141.46 240.84 140.50 242.04
  L 134.42 234.93
  Q 134.05 234.49 134.48 234.11
  C 141.41 227.91 145.65 220.08 148.29 211.25
  Z"
/>
<path fill="#fe92af" d="
  M 222.21 213.25
  L 222.21 217.00
  C 221.12 217.03 217.21 216.31 216.96 217.50
  Q 216.85 217.52 216.75 217.54
  L 215.75 218.00
  Q 215.63 217.77 215.70 217.42
  Q 215.85 216.64 215.13 216.98
  L 209.25 219.79
  L 206.04 220.25
  L 205.54 214.75
  L 215.09 216.11
  Q 215.54 216.17 215.73 215.75
  Q 215.84 215.52 215.79 215.25
  L 216.09 215.69
  Q 216.26 215.96 216.48 215.73
  L 216.75 215.46
  L 217.25 215.29
  L 217.27 215.83
  Q 217.31 216.76 218.07 216.22
  L 222.21 213.25
  Z"
/>
<circle fill="#ffffff" cx="413.62" cy="219.41" r="3.60"/>
<path fill="#00bd6a" d="
  M 222.21 217.00
  L 221.96 220.50
  L 216.96 217.50
  C 217.21 216.31 221.12 217.03 222.21 217.00
  Z"
/>
<path fill="#00bd6a" d="
  M 215.75 218.00
  Q 213.49 219.77 211.96 222.25
  L 206.35 228.32
  Q 206.22 228.45 206.06 228.38
  L 205.79 228.25
  L 206.29 221.25
  L 209.25 219.79
  L 215.13 216.98
  Q 215.85 216.64 215.70 217.42
  Q 215.63 217.77 215.75 218.00
  Z"
/>
<path fill="#e2604a" d="
  M 216.75 217.54
  L 221.21 229.00
  Q 219.90 247.64 219.56 269.49
  Q 219.40 279.57 211.29 285.59
  L 215.79 222.25
  L 215.75 218.00
  L 216.75 217.54
  Z"
/>
<path fill="#fea896" d="
  M 216.75 217.54
  Q 216.85 217.52 216.96 217.50
  L 221.96 220.50
  L 221.21 229.00
  L 216.75 217.54
  Z"
/>
<path fill="#a5719c" d="
  M 215.75 218.00
  L 215.79 222.25
  L 215.60 222.09
  Q 215.57 222.07 215.57 222.10
  L 205.96 270.75
  Q 205.38 251.12 206.04 231.50
  Q 209.53 227.21 211.96 222.25
  Q 213.49 219.77 215.75 218.00
  Z"
/>
<path fill="#98dfbc" d="
  M 209.25 219.79
  L 206.29 221.25
  L 206.04 220.25
  L 209.25 219.79
  Z"
/>
<path fill="#98dfbc" d="
  M 267.75 220.21
  L 278.54 221.50
  L 278.21 228.75
  L 267.79 226.50
  Q 267.19 223.35 267.75 220.21
  Z"
/>
<path fill="#98dfbc" d="
  M 215.79 222.25
  L 211.29 285.59
  Q 208.62 287.29 205.25 287.71
  L 205.96 270.75
  L 215.57 222.10
  Q 215.57 222.07 215.60 222.09
  L 215.79 222.25
  Z"
/>
<path fill="#98dfbc" d="
  M 211.96 222.25
  Q 209.53 227.21 206.04 231.50
  L 205.79 228.25
  L 206.06 228.38
  Q 206.22 228.45 206.35 228.32
  L 211.96 222.25
  Z"
/>
<path fill="#00bd6a" d="
  M 267.79 226.50
  L 278.21 228.75
  L 277.71 258.50
  Q 272.11 255.29 267.29 251.00
  L 267.79 226.50
  Z"
/>
<path fill="#1d1d1b" d="
  M 110.63 234.11
  C 114.08 237.34 120.83 244.18 121.20 249.08
  Q 122.24 262.67 121.47 276.25
  C 120.78 288.36 120.36 297.02 111.61 304.13
  C 105.21 309.33 94.81 311.26 86.33 312.08
  Q 74.19 313.25 62.06 314.24
  Q 61.52 314.28 61.53 313.74
  Q 61.92 296.30 62.71 278.94
  C 63.44 262.85 63.20 246.90 63.40 230.86
  Q 63.41 230.37 63.89 230.29
  C 76.56 228.15 101.35 225.43 110.63 234.11
  Z"
/>
<g stroke-width="2.00" fill="none" stroke-linecap="butt">
<path stroke="#cad45e" vector-effect="non-scaling-stroke" d="
  M 105.71 258.00
  Q 98.31 258.38 91.29 260.77
  A 1.14 1.14 0.0 0 0 90.51 261.89
  L 90.79 272.00"
/>
<path stroke="#7ec335" vector-effect="non-scaling-stroke" d="
  M 90.79 272.00
  L 89.79 298.75"
/>
<path stroke="#4cce93" vector-effect="non-scaling-stroke" d="
  M 105.71 266.75
  L 90.79 272.00"
/>
</g>
<path fill="#98dfbc" d="
  M 358.04 232.25
  Q 385.23 236.93 411.75 244.54
  C 405.51 250.47 418.00 256.15 417.04 246.00
  C 421.73 247.02 427.51 249.50 432.19 249.50
  L 432.21 279.00
  Q 399.53 264.43 365.54 253.25
  L 358.04 232.25
  Z"
/>
<path fill="#98dfbc" d="
  M 158.21 236.00
  L 158.21 244.50
  L 146.00 250.04
  L 140.50 242.04
  C 141.46 240.84 155.59 236.95 158.21 236.00
  Z"
/>
<circle fill="#ffffff" cx="19.19" cy="243.33" r="3.60"/>
<path fill="#fcc900" d="
  M 105.71 258.00
  Q 98.31 258.38 91.29 260.77
  A 1.14 1.14 0.0 0 0 90.51 261.89
  L 90.79 272.00
  L 89.79 298.75
  Q 83.87 300.18 77.64 300.23
  A 0.77 0.76 86.7 0 1 76.87 299.54
  Q 76.10 291.92 76.64 284.30
  Q 77.98 265.38 77.90 246.41
  Q 77.89 245.86 78.36 245.58
  C 82.08 243.29 89.22 242.63 93.50 242.73
  C 101.40 242.90 105.77 250.99 105.71 258.00
  Z"
/>
<path fill="#ffffff" d="
  M 417.04 246.00
  C 418.00 256.15 405.51 250.47 411.75 244.54
  Q 414.87 243.58 417.04 246.00
  Z"
/>
<path fill="#00bd6a" d="
  M 158.21 244.50
  Q 157.83 253.21 157.61 261.92
  C 157.46 268.05 158.18 275.42 157.96 282.25
  L 152.29 287.50
  C 151.09 277.19 152.60 269.00 150.18 259.87
  C 149.32 256.63 147.32 253.42 146.00 250.04
  L 158.21 244.50
  Z"
/>
<path fill="#98dfbc" d="
  M 267.29 251.00
  Q 272.11 255.29 277.71 258.50
  L 277.46 271.00
  Q 272.85 266.11 267.33 262.14
  L 267.29 251.00
  Z"
/>
<path fill="#00bd6a" d="
  M 365.54 253.25
  Q 399.53 264.43 432.21 279.00
  Q 432.28 321.50 432.25 364.00
  Q 432.24 378.43 425.88 391.55
  Q 377.05 338.15 321.29 292.00
  C 321.09 283.85 320.21 266.10 324.25 261.21
  C 327.57 268.14 329.36 276.02 333.22 282.53
  Q 336.77 288.51 339.83 294.76
  C 340.59 296.32 342.19 297.60 343.18 299.10
  Q 347.99 305.03 352.89 310.90
  C 358.88 318.07 370.80 322.28 379.92 321.54
  C 387.56 320.93 395.91 318.56 401.74 313.11
  Q 402.77 312.14 401.87 311.06
  L 390.00 296.80
  L 381.75 293.71
  L 365.54 253.25
  Z"
/>
<path fill="#98dfbc" d="
  M 105.71 258.00
  L 105.71 266.75
  L 90.79 272.00
  L 90.51 261.89
  A 1.14 1.14 0.0 0 1 91.29 260.77
  Q 98.31 258.38 105.71 258.00
  Z"
/>
<path fill="#fea896" d="
  M 267.33 262.14
  Q 272.85 266.11 277.46 271.00
  Q 277.01 289.59 276.56 308.19
  Q 276.53 309.62 278.09 309.93
  Q 282.06 315.90 287.06 321.23
  A 0.46 0.46 0.0 0 1 286.87 321.98
  Q 276.78 325.26 266.25 327.21
  Q 263.39 318.35 259.55 309.87
  Q 259.37 309.49 259.01 309.28
  L 258.54 309.00
  Q 264.14 297.27 266.04 284.50
  C 267.00 278.03 266.73 269.62 267.33 262.14
  Z"
/>
<path fill="#98dfbc" d="
  M 43.71 263.75
  Q 44.17 265.20 44.05 266.75
  Q 43.18 277.24 42.71 287.75
  Q 22.05 294.01 0.66 298.72
  L 0.78 269.32
  Q 21.93 267.51 42.85 264.16
  Q 43.17 264.11 43.43 263.93
  L 43.71 263.75
  Z"
/>
<path fill="#00bd6a" d="
  M 105.71 266.75
  C 105.89 277.24 107.17 286.77 98.92 294.60
  C 96.52 296.88 92.97 297.83 89.79 298.75
  L 90.79 272.00
  L 105.71 266.75
  Z"
/>
<circle fill="#ffffff" cx="19.19" cy="271.94" r="3.59"/>
<circle fill="#ffffff" cx="413.61" cy="276.45" r="3.62"/>
<path fill="#98dfbc" d="
  M 157.96 282.25
  Q 158.17 289.76 160.25 296.96
  L 149.54 310.50
  Q 151.84 299.12 152.29 287.50
  L 157.96 282.25
  Z"
/>
<path fill="#00bd6a" d="
  M 42.71 287.75
  C 43.40 297.46 41.99 307.92 41.98 316.42
  C 41.98 322.16 41.02 332.27 43.78 333.91
  C 46.27 337.35 54.88 349.57 58.04 349.13
  Q 67.03 347.85 76.11 347.51
  C 80.90 347.33 85.46 346.15 90.25 345.54
  Q 53.79 375.76 15.22 403.23
  Q 14.98 403.40 14.15 404.21
  Q 1.04 386.53 0.54 365.69
  Q 0.18 351.06 0.66 298.72
  Q 22.05 294.01 42.71 287.75
  Z"
/>
<path fill="#98dfbc" d="
  M 321.29 292.00
  Q 377.05 338.15 425.88 391.55
  Q 418.74 407.43 404.15 418.64
  Q 403.86 417.84 403.22 417.66
  Q 402.73 417.52 402.43 417.10
  Q 365.21 364.09 321.82 316.00
  Q 321.34 304.81 321.00 293.00
  Q 320.99 292.77 321.29 292.00
  Z"
/>
<circle fill="#ffffff" cx="19.19" cy="300.44" r="3.61"/>
<path fill="#fcc900" d="
  M 390.00 296.80
  L 401.87 311.06
  Q 402.77 312.14 401.74 313.11
  C 395.91 318.56 387.56 320.93 379.92 321.54
  C 370.80 322.28 358.88 318.07 352.89 310.90
  Q 347.99 305.03 343.18 299.10
  C 350.70 303.57 359.34 306.98 368.07 306.19
  Q 380.25 305.09 390.00 296.80
  Z"
/>
<path fill="#a5719c" d="
  M 160.25 296.96
  Q 164.03 307.32 171.84 314.89
  Q 177.23 323.13 184.35 329.95
  Q 184.71 330.29 184.21 330.22
  Q 164.32 327.52 145.12 321.67
  A 0.48 0.47 20.6 0 1 144.82 321.02
  L 149.54 310.50
  L 160.25 296.96
  Z"
/>
<circle fill="#ffffff" cx="413.61" cy="305.05" r="3.61"/>
<path fill="#98dfbc" d="
  M 258.54 309.00
  L 259.01 309.28
  Q 259.37 309.49 259.55 309.87
  Q 263.39 318.35 266.25 327.21
  Q 258.99 329.10 251.50 329.71
  L 249.46 321.50
  Q 254.45 315.57 258.54 309.00
  Z"
/>
<path fill="#fea896" d="
  M 321.82 316.00
  Q 365.21 364.09 402.43 417.10
  Q 402.73 417.52 403.22 417.66
  Q 403.86 417.84 404.15 418.64
  Q 385.36 432.05 361.50 432.16
  Q 320.33 432.36 298.50 431.96
  Q 292.33 404.83 284.25 378.21
  Q 304.65 373.25 324.20 365.74
  C 329.24 363.81 331.99 358.75 325.64 355.91
  Q 314.16 350.78 306.83 346.69
  C 304.52 345.40 304.40 343.12 305.34 340.73
  Q 308.67 332.30 311.70 323.85
  A 0.94 0.91 -85.3 0 1 312.39 323.25
  L 320.16 321.73
  Q 320.93 321.58 321.05 320.81
  L 321.82 316.00
  Z"
/>
<path fill="#e2604a" d="
  M 249.46 321.50
  L 251.50 329.71
  Q 241.80 331.50 231.50 331.87
  A 0.33 0.33 0.0 0 1 231.43 331.22
  Q 241.74 329.15 249.46 321.50
  Z"
/>
<circle fill="#ffffff" cx="19.20" cy="328.98" r="3.61"/>
<circle fill="#ffffff" cx="413.62" cy="333.57" r="3.62"/>
<path fill="#a5719c" d="
  M 115.04 352.25
  L 126.16 338.72
  Q 131.58 343.42 125.45 347.12
  Q 120.41 350.16 115.04 352.25
  Z"
/>
<path fill="#98dfbc" d="
  M 126.16 338.72
  L 115.04 352.25
  C 110.93 354.42 101.34 356.69 104.75 363.21
  Q 74.22 395.51 41.73 425.99
  C 33.61 422.87 28.53 418.11 21.58 412.86
  C 20.05 411.70 19.56 410.08 18.31 408.89
  Q 16.03 406.72 14.15 404.21
  Q 14.98 403.40 15.22 403.23
  Q 53.79 375.76 90.25 345.54
  C 96.12 344.91 102.20 345.49 107.85 343.80
  C 114.48 341.82 119.57 342.33 126.16 338.72
  Z"
/>
<path fill="#ffffff" d="
  M 282.18 355.85
  C 277.92 354.83 268.43 355.67 267.56 349.69
  C 266.64 343.29 277.03 341.20 281.76 341.13
  Q 283.48 341.10 284.17 340.22
  A 1.36 1.35 48.0 0 1 286.40 340.34
  Q 287.88 342.74 287.78 345.65
  A 1.07 1.07 0.0 0 1 286.20 346.55
  C 283.50 345.07 277.67 342.50 275.81 346.07
  A 1.36 1.36 0.0 0 0 276.87 348.05
  Q 281.42 348.54 285.86 348.89
  C 289.84 349.20 292.68 353.10 290.87 356.73
  C 288.43 361.63 279.31 362.98 274.51 362.68
  Q 273.95 362.65 273.48 362.96
  L 271.80 364.09
  Q 271.15 364.52 270.75 363.86
  Q 268.85 360.80 269.36 357.16
  A 0.84 0.84 0.0 0 1 270.61 356.54
  C 274.71 358.87 277.42 361.05 282.50 358.41
  A 1.38 1.38 0.0 0 0 282.18 355.85
  Z"
/>
<path fill="#ffffff" d="
  M 163.06 346.87
  C 156.26 343.32 152.78 352.91 154.77 357.69
  C 155.53 359.54 159.70 361.42 160.84 358.79
  C 161.78 356.63 158.54 355.39 157.32 354.21
  Q 156.93 353.83 157.16 353.33
  Q 157.61 352.36 158.77 352.69
  Q 165.77 354.70 173.09 355.46
  A 0.76 0.76 0.0 0 1 173.76 356.35
  C 173.60 357.27 170.66 358.05 169.81 358.85
  C 168.34 360.22 168.14 362.67 167.62 364.65
  A 1.04 1.04 0.0 0 1 166.01 365.23
  L 163.05 363.11
  Q 162.66 362.82 162.18 362.92
  C 138.04 367.87 141.36 331.60 166.50 344.97
  Q 166.96 345.21 167.40 344.95
  C 172.66 341.81 170.09 350.56 169.46 351.93
  A 1.33 1.33 0.0 0 1 167.09 352.05
  C 166.04 350.26 164.83 347.80 163.06 346.87
  Z"
/>
<path fill="#ffffff" d="
  M 252.10 358.57
  A 1.55 1.55 0.0 0 0 251.39 360.24
  Q 252.35 364.44 256.71 363.72
  C 260.64 363.07 261.41 360.31 262.30 357.16
  Q 262.46 356.62 262.98 356.40
  C 265.37 355.40 265.86 360.73 266.18 362.58
  C 266.70 365.53 264.30 365.93 261.94 366.17
  Q 252.82 367.06 241.85 368.60
  A 1.15 1.14 -21.0 0 1 240.74 368.11
  Q 240.06 367.10 241.51 366.26
  C 246.83 363.20 245.14 351.77 239.49 349.75
  Q 238.96 349.56 238.99 349.00
  L 239.03 348.20
  Q 239.05 347.66 239.60 347.64
  Q 250.37 347.31 260.81 344.67
  A 1.67 1.65 -18.4 0 1 262.75 345.63
  Q 264.39 349.48 263.79 353.68
  Q 263.68 354.47 262.95 354.14
  Q 261.07 353.30 260.15 351.41
  Q 259.93 350.95 259.55 350.62
  C 255.90 347.48 248.18 349.62 251.19 354.66
  Q 251.42 355.05 251.86 355.13
  C 253.93 355.53 255.04 351.93 255.55 350.70
  Q 255.80 350.12 256.42 350.21
  C 258.03 350.45 258.80 358.78 259.29 360.65
  Q 259.42 361.16 259.06 361.54
  C 256.76 364.00 255.10 356.76 252.10 358.57
  Z"
/>
<path fill="#ffffff" d="
  M 171.44 365.88
  A 1.08 1.08 0.0 0 1 170.61 365.27
  Q 170.16 364.30 171.15 364.02
  C 177.86 362.10 181.03 353.42 183.17 347.46
  Q 183.37 346.91 183.95 346.97
  L 191.96 347.76
  Q 192.67 347.83 192.76 348.54
  C 193.69 355.89 194.57 363.74 200.80 367.38
  A 0.75 0.74 17.0 0 1 201.16 368.05
  Q 201.10 369.16 199.77 369.05
  Q 196.06 368.76 185.26 368.00
  Q 183.91 367.90 184.03 366.45
  Q 184.07 366.00 184.51 365.89
  Q 186.68 365.34 187.13 363.28
  Q 187.25 362.72 186.78 362.39
  Q 184.87 361.06 182.43 361.57
  Q 179.47 362.19 181.61 364.34
  C 182.13 364.87 183.51 365.75 183.47 366.52
  C 183.37 368.33 172.95 366.10 171.44 365.88
  Z"
/>
<path fill="#ffffff" d="
  M 221.02 357.77
  Q 223.11 354.00 224.02 349.79
  A 1.57 1.57 0.0 0 1 225.70 348.55
  Q 231.01 349.02 236.23 347.96
  Q 236.73 347.86 237.10 348.21
  C 237.86 348.92 237.49 349.75 236.69 350.23
  C 231.96 353.06 233.16 360.90 235.16 364.85
  Q 235.40 365.32 235.87 365.56
  L 238.68 367.00
  A 0.97 0.97 0.0 0 1 238.28 368.83
  L 223.22 369.51
  A 1.01 1.01 0.0 0 1 222.71 367.60
  Q 228.22 364.79 226.45 358.28
  A 0.44 0.43 76.3 0 0 225.95 357.97
  C 224.15 358.34 221.41 366.83 220.88 368.61
  Q 220.74 369.08 220.31 369.32
  C 217.81 370.76 216.76 369.26 216.10 367.01
  C 215.66 365.53 212.97 358.50 211.43 358.25
  A 0.61 0.61 0.0 0 0 210.75 358.71
  Q 209.24 365.20 214.97 367.84
  A 0.80 0.80 0.0 0 1 215.26 369.07
  C 214.43 370.10 204.24 369.21 202.24 369.26
  A 0.63 0.63 0.0 0 1 201.62 368.45
  Q 202.11 366.86 203.72 366.55
  Q 204.20 366.46 204.52 366.10
  C 207.65 362.73 208.35 352.90 203.49 350.66
  Q 202.97 350.42 202.69 349.93
  Q 202.17 349.02 203.15 348.57
  Q 203.57 348.38 204.03 348.44
  Q 209.37 349.12 214.78 348.70
  A 1.79 1.79 0.0 0 1 216.57 349.79
  L 219.87 357.70
  Q 220.38 358.93 221.02 357.77
  Z"
/>
<path fill="#fcc900" d="
  M 183.19 357.15
  Q 183.57 354.85 185.13 353.15
  Q 185.86 352.35 186.08 353.41
  L 186.87 357.32
  Q 187.06 358.28 186.09 358.26
  L 184.09 358.23
  Q 183.02 358.21 183.19 357.15
  Z"
/>
<circle fill="#ffffff" cx="19.18" cy="357.53" r="3.61"/>
<circle fill="#ffffff" cx="413.46" cy="362.10" r="3.60"/>
<path fill="#a5719c" d="
  M 104.75 363.21
  Q 106.85 364.98 111.75 366.75
  Q 144.06 378.42 173.75 382.79
  Q 168.66 398.19 161.96 412.93
  Q 159.35 408.47 155.54 411.08
  Q 155.13 411.37 154.97 411.85
  Q 152.77 418.38 160.44 416.88
  L 154.04 432.00
  Q 154.01 432.05 153.98 432.12
  Q 153.94 432.23 153.82 432.23
  Q 92.16 432.30 68.26 432.22
  Q 54.84 432.18 41.73 425.99
  Q 74.22 395.51 104.75 363.21
  Z"
/>
<path fill="#98dfbc" d="
  M 284.25 378.21
  Q 292.33 404.83 298.50 431.96
  L 269.31 432.18
  Q 266.78 407.16 262.75 382.29
  L 284.25 378.21
  Z"
/>
<circle fill="#ffffff" cx="26.08" cy="384.88" r="3.63"/>
<path fill="#e2604a" d="
  M 262.75 382.29
  Q 266.78 407.16 269.31 432.18
  L 183.17 432.21
  Q 183.08 432.21 183.01 432.09
  Q 182.98 432.05 182.96 432.00
  L 187.00 417.54
  C 191.49 416.38 190.22 413.55 188.94 410.53
  L 195.25 385.29
  Q 229.17 387.37 262.75 382.29
  Z"
/>
<path fill="#98dfbc" d="
  M 173.75 382.79
  L 195.25 385.29
  L 188.94 410.53
  Q 180.78 409.66 183.80 416.17
  Q 184.03 416.66 184.54 416.81
  L 187.00 417.54
  L 182.96 432.00
  L 154.04 432.00
  L 160.44 416.88
  L 161.96 412.93
  Q 168.66 398.19 173.75 382.79
  Z"
/>
<circle fill="#ffffff" cx="404.34" cy="388.81" r="3.62"/>
<circle fill="#ffffff" cx="45.46" cy="405.35" r="3.62"/>
<circle fill="#ffffff" cx="383.32" cy="407.62" r="3.62"/>
<circle fill="#ffffff" cx="72.43" cy="413.71" r="3.59"/>
<circle fill="#ffffff" cx="100.97" cy="413.77" r="3.61"/>
<circle fill="#ffffff" cx="129.53" cy="413.79" r="3.62"/>
<path fill="#ffffff" d="
  M 161.96 412.93
  L 160.44 416.88
  Q 152.77 418.38 154.97 411.85
  Q 155.13 411.37 155.54 411.08
  Q 159.35 408.47 161.96 412.93
  Z"
/>
<path fill="#ffffff" d="
  M 188.94 410.53
  C 190.22 413.55 191.49 416.38 187.00 417.54
  L 184.54 416.81
  Q 184.03 416.66 183.80 416.17
  Q 180.78 409.66 188.94 410.53
  Z"
/>
<circle fill="#ffffff" cx="215.16" cy="413.80" r="3.62"/>
<circle fill="#ffffff" cx="243.70" cy="413.80" r="3.61"/>
<circle fill="#ffffff" cx="272.24" cy="413.76" r="3.60"/>
<circle fill="#ffffff" cx="300.78" cy="413.80" r="3.62"/>
<circle fill="#ffffff" cx="329.32" cy="413.79" r="3.62"/>
<circle fill="#ffffff" cx="357.88" cy="413.77" r="3.62"/>
</svg>
