<?xml version="1.0" encoding="UTF-8" standalone="no"?>
<svg
   version="1.1"
   viewBox="0 0 433 433"
   id="svg334"
   sodipodi:docname="ubg-logo-mono-mask.svg"
   inkscape:version="1.2.2 (b0a8486541, 2022-12-01)"
   xmlns:inkscape="http://www.inkscape.org/namespaces/inkscape"
   xmlns:sodipodi="http://sodipodi.sourceforge.net/DTD/sodipodi-0.dtd"
   xmlns="http://www.w3.org/2000/svg"
   xmlns:svg="http://www.w3.org/2000/svg">
  <defs
     id="defs338" />
  <sodipodi:namedview
     id="namedview336"
     pagecolor="#ffffff"
     bordercolor="#111111"
     borderopacity="1"
     inkscape:showpageshadow="0"
     inkscape:pageopacity="0"
     inkscape:pagecheckerboard="1"
     inkscape:deskcolor="#d1d1d1"
     showgrid="false"
     inkscape:zoom="0.54503464"
     inkscape:cx="-829.30509"
     inkscape:cy="1271.4788"
     inkscape:window-width="3840"
     inkscape:window-height="2123"
     inkscape:window-x="0"
     inkscape:window-y="0"
     inkscape:window-maximized="1"
     inkscape:current-layer="svg334" />
  <path
     fill="#a5719c"
     d="m 160.7584,83.84211 c -20.77379,3.733691 -41.1172,9.090249 -61.030217,16.069674 L 17.128831,0 H 141.92458 Z"
     id="path2"
     style="fill:#ffffff;fill-opacity:1;stroke-width:0.822399"
     sodipodi:nodetypes="ccccc" />
  <path
     fill="#00bd6a"
     d="m 165.19149,0 h 89.78882 l -22.33665,80.131216 c -18.3395,-0.822399 -36.63787,-0.274132 -54.89513,1.644798 z"
     id="path6"
     sodipodi:nodetypes="ccccc"
     style="fill:#ffffff;fill-opacity:1;stroke-width:0.822399" />
  <path
     fill="#dfbbda"
     d="M 283.25144,0 H 407.98356 L 311.49588,92.740468 C 291.75283,87.224913 271.52456,83.299329 250.81107,80.963716 Z"
     id="path10"
     style="fill:#ffffff;fill-opacity:1;stroke-width:0.822399"
     sodipodi:nodetypes="ccccc" />
  <path
     fill="#e2604a"
     d="m 433,141.10911 -76.68334,17.60419 c 2.71391,-7.37692 7.21244,-14.2275 9.50693,-21.58797 0.0768,-0.26317 0.0274,-0.49892 -0.14803,-0.70726 l -10.23887,-12.17151 c -0.33444,-1.02525 -0.9485,-1.50773 -1.84217,-1.44742 -3.63501,0.25769 -11.37652,1.19248 -23.22455,2.80438 -0.96495,0.1261 -1.97924,0.81417 -3.04287,2.06422 -0.98688,-1.80379 -1.66947,-3.71724 -2.04777,-5.74034 -0.0439,-0.26317 -0.0219,-0.52085 0.0658,-0.77305 0.3783,-1.08557 0.81417,-1.99021 1.92441,-2.54122 3.05932,-1.51321 16.41508,-7.22066 17.41018,-9.81122 2.06423,-5.34559 -7.86213,-7.36046 -11.42312,-8.923022 L 433,15.628508 Z"
     id="path42"
     style="fill:#ffffff;fill-opacity:1;stroke-width:0.822399"
     sodipodi:nodetypes="ccccccccccccccc" />
  <path
     fill="#e2604a"
     d="m 104.21848,132.22383 c -0.79773,3.33894 -4.909721,10.41157 0.33718,12.00703 2.39318,0.73193 7.69766,-1.79283 10.14841,-2.61523 l 6.54629,5.78969 c -0.65792,0.22479 -1.33229,0.36459 -2.0231,0.41942 -13.52846,1.11846 -26.991131,3.2238 -40.453799,5.0413 -1.639315,0.21931 -2.480904,1.13765 -2.524765,2.75504 -0.148031,5.08791 -0.293322,13.2461 -0.435871,24.47459 L 0,156.01631 V 28.51345 Z"
     id="path46"
     style="fill:#ffffff;fill-opacity:1;stroke-width:0.822399"
     sodipodi:nodetypes="cccccccccsc" />
  <path
     fill="#fcc900"
     d="m 233.3351,79.730116 17.47597,1.233598 q 31.07023,3.50342 60.68481,11.776752 l 21.76067,7.138422 c 3.56099,1.562562 13.48735,3.577432 11.42312,8.923022 -0.9951,2.59056 -14.35086,8.29801 -17.41018,9.81122 -1.11024,0.55101 -1.54611,1.45565 -1.92441,2.54122 q -0.13159,0.3783 -0.0658,0.77305 0.56745,3.03465 2.04777,5.74034 l -6.61209,14.63048 -18.33127,-6.26668 q -0.74016,-0.25494 -0.23849,0.35363 l 5.27157,6.38182 q 0.27962,0.33718 0.27962,0.77305 l -0.32074,25.27232 -10.91323,23.95648 a 0.69903901,0.69903901 0 0 1 -1.33229,-0.31252 q 1.07735,-27.5997 2.09712,-53.73554 c 0.13159,-3.33893 1.4063,-10.00037 -3.21558,-9.23553 q -6.07752,1.00332 -12.05636,1.24182 -22.09786,-5.16467 -44.71383,-6.72722 l -11.92478,-0.6168 q -18.76714,-0.57568 -37.41915,1.43919 -6.21733,0.29607 -12.33598,1.4392 -22.7311,3.02643 -44.61514,9.86879 -8.28155,2.25337 -16.24237,5.4854 c -2.45075,0.8224 -7.75523,3.34716 -10.14841,2.61523 -5.246901,-1.59546 -1.13491,-8.66809 -0.33718,-12.00703 q 2.08889,-4.60543 3.47052,-9.51515 c 0.60858,-2.18758 -0.48521,-3.51987 -2.46719,-4.4903 Q 93.683551,112.6014 89.859397,110.59474 c -2.220477,-1.1678 -2.031325,-4.16133 -0.699039,-5.79791 1.570782,-1.91619 8.04306,-3.71724 10.567825,-4.885046 Q 129.59771,89.442646 160.7584,83.84211 l 17.68157,-2.467196 q 27.38589,-2.878396 54.89513,-1.644798 z"
     id="path50"
     style="fill:#818181;fill-opacity:1;stroke:none;stroke-width:0.822399;stroke-opacity:1" />
  <path
     fill="#ffffff"
     d="m 214.84757,99.673288 c 1.67769,0.789502 2.68102,-1.653022 3.37184,-2.771484 q 0.2056,-0.345408 0.60035,-0.444096 c 1.04444,-0.271391 1.4392,0.320736 1.34873,1.282943 -0.13158,1.414526 0.10691,7.557849 -0.50989,8.125299 q -1.15135,1.06912 -1.58723,-0.44409 -0.57567,-2.01488 -2.4014,-2.8784 -0.41942,-0.19738 -0.75661,0.11514 c -3.29782,3.0511 4.63833,8.42958 8.1582,-0.0411 a 0.87996675,0.87996675 0 0 1 1.66947,0.11513 q 0.79773,3.00998 0.0576,6.01996 a 1.8915173,1.8750693 9.2 0 1 -1.99843,1.43097 q -8.41314,-0.74015 -16.84273,-0.12335 a 0.75660692,0.75660692 0 0 1 -0.42765,-1.41453 c 4.82748,-2.73859 4.83571,-12.155056 -0.49344,-14.359084 a 0.81417484,0.81417484 0 0 1 0.35363,-1.570782 q 8.84079,0.452319 17.45131,-0.24672 c 3.56921,-0.296063 2.56588,5.139993 2.03132,7.228886 q -0.0987,0.38653 -0.47699,0.50989 -1.32406,0.46054 -1.71059,-0.96221 c -1.49676,-5.616984 -9.65496,-5.345592 -8.28978,-0.123359 q 0.0987,0.378303 0.45232,0.551007 z"
     id="path52"
     style="fill:#ffffff;stroke-width:0.822399" />
  <path
     fill="#ffffff"
     d="m 246.73197,108.67856 c 1.4392,0.41119 0.99511,-3.06755 0.99511,-3.8735 q 0.008,-0.42765 0.28784,-0.75661 0.49344,-0.56746 1.52143,0.10691 0.36186,0.2385 0.60035,0.60035 1.35696,2.07245 0.37831,4.15312 -0.83062,1.77638 -3.14157,2.2287 c -8.74209,1.71881 -5.98706,-6.25023 -9.40824,-7.45916 q -0.37008,-0.13158 -0.69081,0.0987 c -3.38006,2.40963 2.49187,4.95906 1.38985,6.43938 q -0.21382,0.27962 -0.56745,0.26317 l -10.87212,-0.66614 q -0.42764,-0.0329 -0.44409,-0.46055 -0.0247,-0.62502 0.66614,-0.92108 c 3.13334,-1.34874 3.64323,-5.3127 3.68435,-8.30623 q 0.0576,-4.054429 -3.56921,-5.765019 a 0.74015895,0.74015895 0 0 1 0.35363,-1.414526 c 5.85548,0.271392 13.93143,-0.271391 19.21946,2.393181 q 0.3783,0.197376 0.57568,0.583903 1.71881,3.445851 -0.88819,6.061081 -0.32896,0.32896 -0.79773,0.41942 l -1.15958,0.22205 q -0.5839,0.11514 -0.18915,0.56745 1.80927,2.09712 1.67769,4.95085 -0.0247,0.41942 0.3783,0.53456 z"
     id="path54"
     style="stroke-width:0.822399" />
  <path
     fill="#ffffff"
     d="m 179.52554,96.243885 -1.94086,1.562558 q -0.35363,0.279615 -0.46877,0.715487 -1.50499,5.47718 1.12669,10.00859 c 0.69904,1.20893 2.87839,1.44743 3.23203,2.39318 a 0.66614305,0.67436704 75.8 0 1 -0.54279,0.89642 l -11.21752,1.49676 a 0.78950288,0.78950288 0 0 1 -0.60035,-1.4063 c 4.14489,-3.29782 3.01821,-12.245516 -2.08067,-13.766954 q -0.55923,-0.16448 -0.50166,-0.748383 l 0.0411,-0.345407 q 0.0411,-0.45232 0.49344,-0.518112 l 11.45601,-1.554333 q 0.41943,-0.05757 0.78951,0.156255 0.57568,0.337184 1.11846,-0.131583 0.33718,-0.296064 0.78128,-0.337184 l 10.65006,-1.003327 q 0.41943,-0.0329 0.83063,0.07402 0.9951,0.271392 2.01487,0 c 1.62013,-0.435871 8.35558,-1.044446 9.68786,-0.164479 a 0.43587138,0.43587138 0 0 1 -0.0329,0.748382 c -5.68278,2.985308 -6.38182,9.885235 -7.34403,15.568005 q -0.0658,0.3783 -0.45231,0.4112 l -6.22556,0.54278 a 1.0691185,1.0691185 0 0 1 -1.11847,-0.76483 c -1.55433,-5.16466 -3.38828,-11.908328 -9.07106,-13.939653 q -0.3454,-0.12336 -0.62502,0.106912 z"
     id="path56"
     style="stroke-width:0.822399" />
  <path
     fill="#fcc900"
     d="m 193.96686,94.870479 c 3.96397,1.694141 1.90797,6.858801 0.98688,9.868781 a 0.50166329,0.4934393 39.2 0 1 -0.91286,0.0905 c -1.34051,-2.45075 -4.05443,-7.85391 -0.77305,-9.909907 q 0.33718,-0.2056 0.69903,-0.04934 z"
     id="path60"
     style="fill:#7f7f7f;fill-opacity:1;stroke-width:0.822399" />
  <path
     fill="#ffffff"
     d="m 262.4069,110.10131 a 1.0444465,1.0526705 49.7 0 0 0.15625,-1.86685 c -3.16623,-1.93264 -9.7701,-3.90639 -9.03816,-8.774996 0.86352,-5.682776 10.06616,-3.692571 13.71761,-2.236925 q 0.39475,0.16448 0.8224,0.106912 l 1.98198,-0.279615 q 0.55101,-0.07402 0.64147,0.476991 0.42765,2.697473 -0.67437,5.131773 a 0.72371097,0.72371097 0 0 1 -1.21715,0.16448 c -1.90796,-2.31917 -4.03797,-4.926174 -7.57429,-4.309374 a 0.87996675,0.87996675 0 0 0 -0.69904,1.05267 c 0.86352,3.889944 10.52671,3.166234 9.3918,9.794774 -1.01978,5.96239 -10.60895,3.61033 -14.57291,2.22047 q -0.3783,-0.13158 -0.76483,-0.0493 l -1.6119,0.33718 q -0.4112,0.0905 -0.53456,-0.30429 -0.96221,-3.05932 0.62502,-5.77323 a 0.62502311,0.61679912 40.7 0 1 1.01978,-0.074 c 2.04777,2.54121 4.46562,5.94594 8.3309,4.38339 z"
     id="path62"
     style="stroke-width:0.822399" />
  <ellipse
     fill="#fcc900"
     cx="92.089714"
     cy="-241.66693"
     transform="rotate(91.6)"
     rx="2.6727962"
     ry="2.3767328"
     id="ellipse64"
     style="fill:#7f7f7f;fill-opacity:1;stroke-width:0.822399" />
  <path
     fill="#ffffff"
     d="m 160.61037,105.55344 q 0.37008,-3.99686 -3.53632,-5.64988 -0.71548,-0.304288 -0.56745,-1.085567 a 0.93753467,0.93753467 0 0 1 0.83062,-0.756607 c 1.84217,-0.16448 7.13842,-1.579006 8.52828,-1.027998 a 0.4934393,0.50166329 36.5 0 1 0.12336,0.855294 c -4.25181,3.330718 -1.63658,10.411568 -0.62503,14.918318 a 1.0855665,1.0937904 78.2 0 1 -0.86352,1.30761 l -5.11532,0.96221 a 0.84707079,0.85529478 70.3 0 1 -0.90463,-0.41943 q -2.42608,-4.33404 -6.59564,-6.95749 a 0.66614305,0.66614305 0 0 0 -1.028,0.5839 q 0.13981,4.73702 4.4245,6.27491 a 0.73193496,0.73193496 0 0 1 -0.0905,1.4063 l -8.52828,1.80928 a 0.75660692,0.75660692 0 0 1 -0.70726,-1.25827 l 1.6119,-1.70237 q 0.2385,-0.25494 0.32074,-0.60035 c 0.93753,-4.14489 -0.4112,-10.73231 -5.45251,-11.69451 a 0.48521531,0.48521531 0 0 1 -0.30428,-0.74839 c 0.64969,-0.92108 8.13352,-2.212248 9.65496,-2.681015 a 1.5954537,1.5872297 65.9 0 1 1.82572,0.699039 q 2.39318,3.931066 6.44761,6.069306 0.50166,0.26316 0.55101,-0.30429 z"
     id="path66"
     style="stroke-width:0.822399" />
  <path
     fill="#ffffff"
     d="m 279.30719,99.640392 a 0.9128627,0.92108669 17.5 0 1 1.01978,-0.534559 l 6.30779,1.299387 a 0.95398264,0.95398264 0 0 1 0.75661,0.91287 c 0.0494,4.4245 -0.0987,9.62206 1.8833,13.59425 0.50166,1.01155 1.62012,1.68592 2.03954,2.94419 a 0.80595085,0.81417484 89.6 0 1 -1.01977,1.02799 q -5.01663,-1.65302 -10.23887,-2.38495 -0.38652,-0.0576 -0.70726,-0.27962 c -2.08889,-1.45564 -9.16975,-0.68259 -10.74875,-2.55766 a 0.59212716,0.59212716 0 0 1 0.30429,-0.95398 c 5.31269,-1.39808 8.41314,-8.35557 10.40334,-13.067918 z"
     id="path70"
     style="stroke-width:0.822399" />
  <path
     fill="#ffffff"
     d="m 118.74204,109.04041 q -0.46876,-0.0658 -0.37008,-0.52633 0.10692,-0.51812 0.6497,-0.69082 10.51848,-3.26492 21.19322,-6.00351 0.64147,-0.1727 1.25827,0.0493 a 0.52633525,0.52633525 0 0 1 0.12336,0.92931 c -4.60544,3.17446 -1.27472,8.92303 -1.13491,12.73074 0.18915,5.27157 -9.87701,7.05618 -13.07614,4.87682 -4.36694,-2.96886 -1.62835,-10.41979 -8.64342,-11.36555 z"
     id="path72"
     style="stroke-width:0.822399" />
  <path
     fill="#ffffff"
     d="m 295.21238,116.35154 c 2.01488,-2.80438 3.41296,-7.03974 2.31095,-10.45269 q -0.13981,-0.42765 -0.50989,-0.66615 -1.25005,-0.80595 -1.56256,-2.2287 -0.14803,-0.68259 0.52634,-0.50166 l 12.20439,3.34716 q 0.39476,0.10691 0.41943,0.51811 c 0.0247,0.64148 -3.73369,1.89152 -4.65478,3.56099 -1.34873,2.42608 -3.2567,8.27333 0.13981,9.90168 2.88662,1.38163 4.87682,-2.50009 6.39826,-4.30114 a 0.81417484,0.81417484 0 0 1 1.43097,0.60857 q -0.3783,3.57744 -1.85862,6.82591 a 1.5872297,1.5707818 20.5 0 1 -1.89151,0.8553 l -16.06968,-4.8686 q -0.38652,-0.11514 -0.39475,-0.52634 c -0.008,-0.93753 2.16291,-1.35696 2.87017,-1.59545 q 0.39476,-0.13981 0.64147,-0.47699 z"
     id="path74"
     style="stroke-width:0.822399" />
  <path
     fill="#fcc900"
     d="m 280.45855,104.21293 a 0.39475144,0.39475144 0 0 1 0.71549,0.0329 q 0.8224,1.91618 0.30428,3.99685 -0.1398,0.53456 -0.66614,0.37008 l -1.67769,-0.52633 q -0.67437,-0.2056 -0.33719,-0.83062 z"
     id="path76"
     style="fill:#7f7f7f;fill-opacity:1;stroke-width:0.822399" />
  <path
     fill="#fcc900"
     d="m 132.61591,105.33139 c 3.2896,2.08889 3.65145,4.6959 4.44918,8.1582 0.64969,2.8455 -1.06089,4.93439 -4.02153,4.2518 -2.11357,-0.48522 -3.77481,-7.45093 -3.35539,-9.46581 q 0.39475,-1.90797 2.06422,-2.95241 0.43587,-0.27139 0.86352,0.008 z"
     id="path78"
     style="fill:#7f7f7f;fill-opacity:1;stroke-width:0.822399" />
  <path
     fill="#fcc900"
     d="m 276.89756,112.35468 a 1.373406,1.373406 0 0 1 1.35696,-1.57901 q 1.87507,0 3.10044,1.2665 0.34541,0.35363 0.13159,0.7895 -0.70726,1.44742 -2.30272,1.88329 -0.39475,0.10691 -0.74016,-0.10691 -1.32406,-0.8224 -1.54611,-2.25337 z"
     id="path80"
     style="fill:#7f7f7f;fill-opacity:1;stroke-width:0.822399" />
  <path
     fill="#1d1d1b"
     d="m 355.43665,124.24656 c -2.00665,5.691 -5.0742,10.95436 -7.59896,16.42331 -4.14489,8.97237 -9.30133,17.87073 -13.68472,26.98291 -5.83903,12.12215 -11.60405,23.42191 -16.74404,35.46183 -0.30429,0.70727 -0.28784,1.8833 0.074,2.65635 q 4.77814,10.24709 10.60073,27.20495 4.8686,14.20283 15.76538,38.26622 2.57411,5.691 8.52828,8.7421 l 6.78479,2.54121 q -8.01839,6.81769 -18.03521,7.72233 c -7.17954,0.64969 -14.28507,-2.15469 -20.46951,-5.83081 -0.81417,-1.2336 -2.13001,-2.28627 -2.75503,-3.56921 q -2.51654,-5.13999 -5.43606,-10.05794 c -3.17446,-5.35381 -4.64655,-11.83432 -7.37692,-17.53354 l -6.29135,-16.11902 a 0.75660692,0.76483091 57.6 0 0 -1.23359,-0.27139 c -2.82906,2.68102 -4.78637,5.51007 -4.98374,9.63029 -0.63325,12.90344 -0.47699,25.65884 -0.4112,38.6363 0.0165,2.86195 0.83062,5.20578 -3.16624,5.70745 q -10.74875,1.35695 -21.87581,2.48364 -1.28294,-0.25494 -1.25827,-1.43097 0.37008,-15.29662 0.74016,-30.58502 l 0.2056,-10.27998 0.4112,-24.46637 0.27139,-5.96239 c 0.79773,-7.4756 0.37831,-14.2275 0.96221,-21.38237 l 0.6168,-7.60719 0.2056,-33.30715 0.6168,-16.65358 c 0.0658,-3.66789 -1.49677,-9.54805 4.06265,-9.71253 q 3.97219,-0.11513 7.99372,-1.20892 5.97884,-0.2385 12.05636,-1.24182 c 4.62188,-0.76484 3.34717,5.8966 3.21558,9.23553 q -1.01977,26.13584 -2.09712,53.73554 a 0.69903901,0.69903901 0 0 0 1.33229,0.31252 l 10.91323,-23.95648 q 7.12198,-13.06792 13.33931,-26.51414 l 6.61209,-14.63048 q 1.59545,-1.87507 3.04287,-2.06422 17.77204,-2.41785 23.22455,-2.80438 1.34051,-0.0905 1.84217,1.44742 z"
     id="path86"
     style="fill:#000000;fill-opacity:1;stroke-width:0.822399" />
  <path
     fill="#00bd6a"
     d="m 225.31671,123.38305 -2.0231,13.70938 q -1.71059,6.22556 -1.09379,12.78008 c -0.13159,0.46877 -0.41943,0.88819 -0.46877,1.33229 q -3.10044,29.08002 -4.60543,58.29163 l -0.4441,6.13509 -0.22205,0.22205 q -0.18093,0.18915 -0.32073,-0.0329 l -0.24672,-0.36185 -0.27139,-0.6168 -1.4392,-3.70079 -6.1022,-18.09278 q -0.27962,-10.64184 0.95398,-21.20966 c 0.68259,-5.83081 -0.0493,-11.72741 0.74838,-17.73915 q 0.0494,-0.3783 -0.1727,-0.69904 -4.56431,-6.37359 -10.24709,-11.94945 -0.18915,-0.88819 -0.87174,-1.59546 -0.32074,-0.32895 -0.77306,-0.29606 l -6.11864,0.4112 -3.7008,-15.14859 q 18.65201,-2.01487 37.41915,-1.43919 z"
     id="path88"
     style="fill:#ffffff;fill-opacity:1;stroke-width:0.822399" />
  <path
     fill="#dfbbda"
     d="m 237.24149,123.99985 q 22.61597,1.56255 44.71383,6.72722 -4.02153,1.09379 -7.99372,1.20892 c -5.55942,0.16448 -3.99686,6.04464 -4.06265,9.71253 q -0.92931,0.58391 -1.15136,0.87175 -4.54787,6.01173 -9.26843,11.87544 l -0.0329,-6.11043 q -0.008,-0.4112 -0.27139,-0.73193 -4.65478,-5.61699 -9.30133,-11.2093 c -0.28784,-0.34541 -0.56746,-0.33718 -0.87997,-0.0411 0.32896,-1.01977 -0.16448,-1.6448 -1.2336,-1.65302 q -6.81768,-0.0658 -13.60247,0.59213 z"
     id="path92"
     style="fill:#ffffff;fill-opacity:1;stroke-width:0.822399" />
  <path
     fill="#fcc900"
     d="m 355.43665,124.24656 10.23887,12.17151 q 0.26316,0.31251 0.14803,0.70726 c -2.29449,7.36047 -6.79302,14.21105 -9.50693,21.58797 q -6.25023,10.12373 -11.16818,20.97117 -9.01349,17.71447 -17.17991,35.83192 c -0.97865,2.16291 3.79948,11.48068 4.90972,13.92321 l 6.16799,17.27037 13.33109,33.27426 q -5.95417,-3.0511 -8.52828,-8.7421 -10.89678,-24.06339 -15.76538,-38.26622 -5.82259,-16.95786 -10.60073,-27.20495 c -0.36185,-0.77305 -0.3783,-1.94908 -0.074,-2.65635 5.13999,-12.03992 10.90501,-23.33968 16.74404,-35.46183 4.38339,-9.11218 9.53983,-18.01054 13.68472,-26.98291 2.52476,-5.46895 5.59231,-10.73231 7.59896,-16.42331 z"
     id="path94"
     style="fill:#818181;fill-opacity:1;stroke:none;stroke-width:0.822399;stroke-opacity:1" />
  <path
     fill="#a5719c"
     d="m 175.56158,126.26144 5.96239,15.35419 -8.55295,1.15958 a 2.0642211,2.0724451 0.8 0 0 -1.75993,1.71881 q -0.83062,5.13177 -0.72371,10.28821 c 0.13981,6.79302 -1.06912,13.34754 -0.92109,20.17345 q -20.04186,-18.69313 -38.61985,-38.82545 21.88404,-6.84236 44.61514,-9.86879 z"
     id="path98"
     style="fill:#ffffff;fill-opacity:1;stroke-width:0.822399" />
  <path
     fill="#ffffff"
     d="m 302.63865,209.61156 q -3.65145,4.21069 -7.60719,8.14998 c -3.26493,3.2567 -7.17132,5.87192 -11.08594,8.61874 q -0.35363,0.24672 -0.36185,0.68259 -0.63325,25.94668 -1.87507,51.81112 c -0.0658,1.31584 -0.55101,2.04778 -1.98199,1.71882 a 1.2171503,1.2171503 0 0 1 -0.93753,-1.2336 q 2.14646,-44.55757 1.87507,-89.34541 c -0.10691,-17.50065 0.18093,-35.00129 0.83885,-52.46905 a 1.0197745,1.0115506 83.6 0 1 0.74016,-0.93753 c 1.53788,-0.4441 2.22047,0.28784 2.17935,1.79283 q -1.18425,41.01303 -0.59213,82.19054 a 1.1266864,1.1266864 0 0 0 1.79283,0.88819 c 5.2798,-3.85705 11.99058,-9.33423 15.23083,-15.10747 4.06265,-7.21244 8.20754,-16.29994 11.20107,-22.08141 5.4854,-10.60072 11.32443,-20.99584 16.02856,-31.90907 q 4.28469,-9.92635 8.57762,-19.84448 0.61679,-1.41453 1.88329,-1.01978 a 1.3158381,1.3076141 19.6 0 1 0.8224,1.72704 c -5.32915,13.4051 -10.92968,25.95491 -17.78849,39.07217 q -8.62696,16.51377 -16.71114,33.0851 -0.37008,0.76483 -0.0164,1.52966 c 5.14822,11.29154 10.43624,22.16365 14.67159,34.11311 q 4.13667,11.67806 9.68786,22.78044 c 3.64323,7.28646 5.54297,11.50536 10.82277,15.84763 a 1.0937904,1.1020144 24.7 0 1 0.38653,1.06089 c -1.16781,6.39827 -9.75365,-6.8917 -10.41157,-8.10885 q -7.44271,-13.87387 -12.33598,-27.47634 c -4.50675,-12.51691 -9.69609,-23.72621 -14.8443,-35.51118 a 0.10691185,0.11513584 54.1 0 0 -0.18915,-0.0247 z"
     id="path100"
     style="stroke-width:0.822399" />
  <path
     fill="#1d1d1b"
     d="m 248.99357,136.30293 q -0.0247,2.40141 -0.0411,4.81103 c -0.0164,3.04288 0.70726,6.69433 0.15626,10.27999 -1.66947,10.71586 -0.69082,22.27878 -0.78128,31.23471 q -0.13159,12.29486 -0.40298,24.59795 c -0.0493,2.45075 0.32074,5.34559 0.26317,7.40981 q -0.49344,18.63556 -0.92931,37.27112 c -0.31251,13.79162 -4.47385,27.50924 -14.0548,37.7481 -4.53964,4.85215 -8.98059,6.85881 -15.29662,8.64341 -12.07281,3.42118 -27.2214,6.09398 -38.1593,-0.89641 q -6.42294,-6.22556 -9.5316,-14.74561 -1.71059,-5.92127 -1.8833,-12.09749 c 0.18093,-5.61698 -0.4112,-11.67806 -0.28784,-16.71937 q 0.18093,-7.16309 0.49344,-14.32619 v -6.99039 l 0.68259,-19.53197 0.13981,-5.75679 0.2056,-23.02717 v -9.25198 c -0.14803,-6.82591 1.0609,-13.38043 0.92109,-20.17345 q -0.10691,-5.15644 0.72371,-10.28821 a 2.0642211,2.0724451 0.8 0 1 1.75993,-1.71881 l 8.55295,-1.15958 10.07439,-1.6448 6.11864,-0.4112 q 0.45232,-0.0329 0.77306,0.29606 0.68259,0.70727 0.87174,1.59546 -0.64969,5.51829 -0.68259,10.83099 c -0.0411,8.43781 -1.15958,16.50555 -1.17603,24.83645 -0.008,6.4476 -0.39475,11.88366 -0.6497,19.41683 -0.14803,4.50675 0.32896,9.43292 0.29607,13.438 -0.14803,17.61578 0.16448,35.15755 -0.45232,52.75688 -0.27139,7.50851 1.73526,13.24885 10.5267,12.31954 q 2.77149,-0.34541 4.96729,-1.74349 6.66966,-4.95084 6.80124,-13.24062 0.27962,-17.96941 1.35696,-33.29893 l 0.6168,-6.99039 0.2056,-2.87839 v -3.084 l -0.13981,-2.46719 -0.27139,-14.39198 q 0.0576,-20.37905 1.29939,-40.71697 0.19737,-3.18268 0.13981,-6.36537 -0.6168,-6.55452 1.09379,-12.78008 l 10.86389,-1.85039 q 6.78479,-0.65792 13.60247,-0.59213 c 1.06912,0.008 1.56256,0.63325 1.2336,1.65302 z"
     id="path102"
     style="fill:#000000;fill-opacity:1;stroke-width:0.822399" />
  <path
     fill="#e2604a"
     d="m 320.71497,142.29822 q -6.21733,13.44622 -13.33931,26.51414 l 0.32074,-25.27232 q 0,-0.43587 -0.27962,-0.77305 l -5.27157,-6.38182 q -0.50167,-0.60857 0.23849,-0.35363 z"
     id="path104"
     style="fill:#ffffff;fill-opacity:1;stroke-width:0.822399" />
  <path
     fill="#fcc900"
     d="m 259.47916,154.39571 q 0.77305,7.11375 -0.4112,14.18638 c -1.08557,9.13685 -0.29607,18.19146 0,27.34476 l -0.2056,6.16799 -0.2385,17.44308 q -0.46054,2.58233 0.0329,5.17289 l -0.4112,20.14877 0.0329,9.16152 c -0.49344,6.15154 -0.27139,13.06792 -1.06089,18.38884 q -1.56256,10.50203 -6.16799,20.14877 -3.36361,5.40316 -7.46738,10.27998 -6.34892,6.29136 -14.82785,7.99372 a 0.27139161,0.27139161 0 0 0 0.0576,0.53456 q 8.47071,-0.30429 16.44798,-1.77638 6.15977,-0.50166 12.13038,-2.056 8.65986,-1.60368 16.95787,-4.30114 a 0.37830346,0.37830346 0 0 0 0.15625,-0.6168 q -4.11199,-4.38339 -7.37692,-9.29311 11.12706,-1.12669 21.87581,-2.48364 c 3.99686,-0.50167 3.18269,-2.8455 3.16624,-5.70745 -0.0658,-12.97746 -0.22205,-25.73286 0.4112,-38.6363 0.19737,-4.12022 2.15468,-6.94927 4.98374,-9.63029 a 0.75660692,0.76483091 57.6 0 1 1.23359,0.27139 l 6.29135,16.11902 c -3.32249,4.02153 -2.59878,18.61911 -2.4343,25.32166 q -0.24672,0.63325 -0.23849,0.8224 0.27961,9.71253 0.67437,18.91517 l -0.63325,3.95574 q -0.0987,0.63325 -0.73194,0.75661 l -6.39004,1.25004 a 0.74838294,0.7730549 4.7 0 0 -0.56745,0.49344 q -2.49187,6.94927 -5.23046,13.88209 c -0.77305,1.96554 -0.67436,3.84061 1.22538,4.9015 q 6.02818,3.36361 15.46932,7.58252 c 5.22223,2.33561 2.96063,6.49695 -1.18426,8.08418 q -16.07789,6.17621 -32.85483,10.25531 l -17.68157,3.35539 Q 226.89576,357.01011 199,355.29952 l -17.68158,-2.056 q -24.41702,-3.59388 -50.98873,-13.19128 -4.02975,-1.45564 -5.75679,-2.91129 c -2.80438,-5.36204 5.08243,-7.22889 8.46249,-9.01349 q 4.41628,-1.71881 8.56117,-4.21891 5.0413,-3.04287 0.5839,-6.90815 c -5.41961,2.96886 -9.60562,2.54944 -15.05812,4.17779 -4.64656,1.38985 -9.64674,0.91286 -14.47422,1.43097 -3.93929,0.50167 -7.68943,1.4721 -11.62872,1.62013 q -7.467382,0.27961 -14.860748,1.33228 c -2.59878,0.36186 -9.679634,-9.68785 -11.727407,-12.51691 q 7.368693,-1.06089 14.507115,-1.47209 c 6.710775,-0.39475 13.38043,-1.93264 20.31325,-2.09712 4.3176,-0.10691 8.03484,-1.34051 12.25374,-1.98198 15.44465,-2.36028 28.36454,-16.43975 30.40409,-31.80216 q 0.66614,-5.00841 1.11024,-12.31954 c 0.19737,-3.24025 -0.75661,-6.91637 -0.50167,-9.90168 0.95399,-11.08593 -3.42118,-28.19183 -15.62557,-31.81861 a 1.0033266,1.0033266 0 0 1 -0.36186,-1.72704 c 5.47718,-4.61365 10.44447,-10.70763 12.49224,-17.83783 3.50342,-12.16327 6.02818,-28.2494 1.46387,-40.05082 q 6.95749,7.5414 9.42469,11.10239 1.14313,1.64479 2.93596,6.54629 c 1.15959,9.69608 0.0247,17.073 -0.8224,25.90556 l -1.64479,6.57919 c -2.17114,7.26179 -5.65811,13.70117 -11.35733,18.80004 q -0.35363,0.31251 -0.0494,0.67437 l 5.00019,5.84725 4.52319,6.57919 c 1.08557,2.77971 2.73037,5.41961 3.43763,8.08418 1.99021,7.50851 0.74838,14.24395 1.73526,22.72288 q -0.37008,9.55628 -2.26159,18.91518 l -3.88173,8.65163 a 0.39475144,0.38652745 20.6 0 0 0.24672,0.53456 q 15.79006,4.81104 32.14757,7.03151 0.4112,0.0576 0.11514,-0.22205 -5.85548,-5.60876 -10.28821,-12.38532 c 10.9379,6.99039 26.08649,4.31759 38.1593,0.89641 6.31603,-1.7846 10.75698,-3.79126 15.29662,-8.64341 9.58095,-10.23886 13.74229,-23.95648 14.0548,-37.7481 q 0.43587,-18.63556 0.92931,-37.27112 c 0.0576,-2.06422 -0.31251,-4.95906 -0.26317,-7.40981 q 0.27139,-12.30309 0.40298,-24.59795 c 0.0905,-8.95593 -0.88819,-20.51885 0.78128,-31.23471 0.551,-3.58566 -0.17271,-7.23711 -0.15626,-10.27999 q 0.0164,-2.40962 0.0411,-4.81103 c 0.31251,-0.29606 0.59213,-0.30429 0.87997,0.0411 q 4.64655,5.59231 9.30133,11.2093 0.26317,0.32073 0.27139,0.73193 z"
     id="path108"
     style="fill:#818181;fill-opacity:1;stroke:none;stroke-width:0.822399;stroke-opacity:1" />
  <path
     fill="#fcc900"
     d="m 208.07923,193.04845 q -0.57568,3.2896 0,6.57919 l -0.6168,9.25199 v 1.4392 4.72879 l 0.4112,4.52319 0.2056,0.8224 -0.4112,5.75679 0.2056,2.6728 q -0.54278,16.13547 -0.0658,32.27915 l -0.58391,13.94789 c -8.79144,0.92931 -10.79809,-4.81103 -10.5267,-12.31954 0.6168,-17.59933 0.30429,-35.1411 0.45232,-52.75688 0.0329,-4.00508 -0.4441,-8.93125 -0.29607,-13.438 0.25495,-7.53317 0.64148,-12.96923 0.6497,-19.41683 0.0165,-8.3309 1.13491,-16.39864 1.17603,-24.83645 q 0.0329,-5.3127 0.68259,-10.83099 5.68278,5.57586 10.24709,11.94945 0.22205,0.32074 0.1727,0.69904 c -0.79772,6.01174 -0.0658,11.90834 -0.74838,17.73915 q -1.2336,10.56782 -0.95398,21.20966 z"
     id="path110"
     style="fill:#818181;fill-opacity:1;stroke:none;stroke-width:0.822399;stroke-opacity:1" />
  <path
     fill="#ffffff"
     d="m 184.05696,148.96787 a 1.406302,1.414526 9.2 0 1 0.9951,1.38163 c -0.33718,15.2884 -1.19248,27.82998 -0.68259,45.79117 q 0.22205,7.82924 0.0987,16.43153 -0.39475,26.53881 1.00332,53.04472 c 0.32074,6.03641 1.30762,15.62558 5.84726,18.98097 10.75698,7.96082 22.87091,5.13177 32.71503,-2.63168 5.8966,-4.65477 8.38846,-11.25864 9.0875,-18.66845 3.57744,-38.11819 2.22048,-78.09499 1.99843,-117.0767 a 1.7105896,1.7352615 70.5 0 1 0.66615,-1.3734 c 1.3734,-1.0609 2.46719,0.16448 2.46719,1.579 0.008,37.68232 1.31584,76.2446 -1.48854,113.17853 -1.09379,14.37553 -6.16799,23.97292 -19.64711,30.10802 q -14.58935,6.63676 -27.73129,-2.39318 c -7.27,-5.00841 -7.18776,-22.12253 -7.40981,-29.97644 -0.64147,-22.07318 -0.31251,-44.08058 -0.72371,-66.13731 q -0.38653,-20.42017 0.95398,-40.81566 c 0.0822,-1.24182 0.53456,-1.83395 1.8504,-1.42275 z"
     id="path116"
     style="stroke-width:0.822399" />
  <path
     id="path120"
     style="fill:#000000;fill-opacity:1;stroke-width:0.822399"
     d="m 121.25113,147.40532 c -0.65793,0.22478 -1.33306,0.3644 -2.02387,0.41923 -13.52838,1.11841 -26.99076,3.22455 -40.45335,5.042 -1.639304,0.21931 -2.48116,1.13738 -2.525021,2.75472 -0.148027,5.0879 -0.292748,13.24597 -0.435293,24.4744 l -1.027998,18.09277 -0.4112,57.15672 c 0.252198,0.79499 0.345279,1.61739 0.279487,2.4672 -0.476987,5.75126 -0.844205,11.50815 -1.101886,17.27037 0.567451,7.98545 -0.592512,16.58777 -0.600736,23.57811 0,4.72057 -0.790452,13.03522 1.479354,14.38396 4.912432,-0.70727 9.74871,-1.19881 14.507629,-1.47294 6.710735,-0.39475 13.379824,-1.93167 20.312604,-2.09615 4.31757,-0.10691 8.03519,-1.34064 12.25407,-1.98211 15.44455,-2.36028 28.36516,-16.43974 30.40466,-31.8021 0.44409,-3.33889 0.81385,-7.44588 1.10992,-12.31991 0.19737,-3.24026 -0.75609,-6.91561 -0.50115,-9.90092 0.95398,-11.08584 -3.42128,-28.19303 -15.62558,-31.81976 a 1.0033266,1.0033266 0 0 1 -0.36301,-1.72672 c 5.47717,-4.61366 10.44562,-10.70719 12.4934,-17.83739 3.50336,-12.16318 6.02755,-28.25041 1.46329,-40.05178 -3.58017,-5.10979 -8.06198,-9.18808 -13.4459,-12.23639 -4.46563,-2.53299 -10.78106,-2.42621 -15.78942,-2.39331 z m -7.16065,25.95856 c 2.81323,-0.0313 5.22583,0.67714 7.64574,3.20447 2.70843,2.82905 3.91749,5.99178 3.62691,9.48971 0.21382,3.38828 0.087,6.75663 -0.37908,10.10651 -0.69081,4.33129 -2.53866,8.07358 -5.54316,11.22606 l -4.94242,1.86808 c -2.7194,0.57567 -5.46073,1.00471 -8.22399,1.28981 -1.73526,0.18093 -2.23757,-0.74787 -2.30336,-2.35155 -0.318,-7.5222 -0.36708,-12.29754 -0.14778,-14.32612 0.65792,-6.23378 -0.21356,-12.19682 0.26343,-18.34014 0.0219,-0.2851 0.15135,-0.51269 0.3871,-0.68265 1.90797,-1.38986 3.70877,-0.82105 5.49337,-1.08422 1.48289,-0.21845 2.8445,-0.3857 4.12324,-0.39996 z m 0.40799,35.89483 c -0.1124,-0.44685 -0.16592,-0.88981 -0.16063,-1.32998 -0.005,0.43946 0.0484,0.88368 0.16063,1.32998 z m 10.86466,-23.20065 c -2.60975,0.14255 -5.22327,0.32361 -7.83849,0.54292 2.61521,-0.21931 5.22874,-0.40037 7.83849,-0.54292 z m -7.83849,0.54292 c -0.72937,0.0617 -1.30612,0.23407 -1.75884,0.49311 0.45275,-0.25903 1.02947,-0.43143 1.75884,-0.49311 z m -1.75884,0.49311 c -0.15091,0.0864 -0.28839,0.18299 -0.41281,0.28752 0.12443,-0.10453 0.26189,-0.20117 0.41281,-0.28752 z m -0.41281,0.28752 c -0.24884,0.20907 -0.44671,0.45222 -0.60234,0.72281 0.15566,-0.27058 0.35348,-0.51374 0.60234,-0.72281 z m -0.60234,0.72281 c -0.15563,0.27059 -0.26915,0.56791 -0.34856,0.88504 0.0794,-0.31712 0.1929,-0.61446 0.34856,-0.88504 z m -0.34856,0.88504 c -0.0794,0.31714 -0.12437,0.65359 -0.14456,1.0023 0.0202,-0.34871 0.0651,-0.68517 0.14456,-1.0023 z m -0.14456,1.0023 c -0.0202,0.34872 -0.0156,0.71086 0.006,1.07619 -0.022,-0.36532 -0.0266,-0.72748 -0.006,-1.07619 z m 0.006,1.07619 c 0.0441,0.73064 0.15562,1.47884 0.26664,2.1861 -0.11102,-0.70726 -0.22261,-1.45546 -0.26664,-2.1861 z m 0.26665,15.55008 c -0.12336,0.43313 -0.18727,0.86911 -0.19275,1.3091 0.005,-0.43965 0.0695,-0.87649 0.19275,-1.3091 z m 10.83254,43.99834 v 7.19599 c 0.14803,8.62695 1.19984,16.46412 -5.58493,22.90349 -1.97375,1.87506 -4.89398,2.65666 -7.50921,3.41327 l 0.8224,-21.99917 -0.22969,-8.31394 a 0.93753467,0.93753467 0 0 1 0.64089,-0.92198 c 3.84881,-1.31036 7.80337,-2.06932 11.86054,-2.27766 z" />
  <path
     id="path126"
     style="fill:#ffffff;fill-opacity:1;stroke-width:0.822399"
     d="m 119.17747,157.29177 c -0.4741,0.003 -0.93575,0.0247 -1.38138,0.0642 -9.32045,0.81693 -18.64365,1.61224 -27.969589,2.3853 -3.626756,0.30429 -2.285883,7.80481 -2.277659,10.06635 0.08224,26.30837 -0.288091,52.64198 -0.05782,78.95029 0.156256,16.85906 -1.168385,33.96467 -1.620704,50.66748 -0.01645,0.59761 0.274588,0.86919 0.872193,0.81436 7.801771,-0.66339 15.389609,-1.34368 22.763739,-2.03992 15.67481,-1.4721 28.94798,-6.5955 31.3411,-24.13709 0.70178,-5.14822 0.96063,-12.59386 0.77422,-22.33648 -0.10692,-5.50179 0.0163,-10.35304 -1.63678,-13.60974 -1.07454,-2.12727 -3.81343,-5.36274 -8.21595,-9.70495 -2.98531,-2.95241 -8.93947,-4.17792 -13.29812,-5.06611 -0.23576,-0.0493 -0.2552,-0.14241 -0.0578,-0.27948 5.18654,-3.70627 9.80542,-8.02138 13.8571,-12.94475 5.74029,-6.98216 7.50034,-18.38029 7.46744,-27.15523 -0.0164,-5.11526 0.74954,-9.51515 -1.07618,-14.80318 -2.40552,-6.96977 -12.37237,-10.92562 -19.48379,-10.87108 z m -5.08699,16.07211 c 2.81323,-0.0313 5.22583,0.67714 7.64574,3.20447 2.70843,2.82904 3.91749,5.99178 3.62691,9.48971 0.21382,3.38828 0.087,6.75664 -0.37908,10.10651 -0.69081,4.33129 -2.53866,8.07359 -5.54316,11.22606 l -4.94242,1.86808 c -2.7194,0.57567 -5.46074,1.00471 -8.22399,1.28981 -1.73526,0.18093 -2.23757,-0.74787 -2.30336,-2.35155 -0.318,-7.52219 -0.36708,-12.29754 -0.14778,-14.32612 0.65792,-6.23377 -0.21356,-12.19683 0.26343,-18.34014 0.0219,-0.2851 0.15135,-0.51269 0.3871,-0.68265 1.90797,-1.38986 3.70877,-0.82105 5.49337,-1.08422 1.48289,-0.21845 2.8445,-0.3857 4.12324,-0.39996 z m 0.29555,33.95287 c -0.028,0.20289 -0.0456,0.406 -0.0482,0.61038 0.003,-0.204 0.0203,-0.40788 0.0482,-0.61038 z m -0.0482,0.61358 c -0.002,0.20514 0.0105,0.41179 0.0337,0.61841 -0.0233,-0.20716 -0.0361,-0.41272 -0.0337,-0.61841 z m -0.4369,30.1284 c 0.5034,-0.0106 0.97994,-0.0103 1.41993,0 6.49694,0.1398 10.0916,6.79263 10.04226,12.55764 v 7.19599 c 0.14803,8.62694 1.19984,16.46413 -5.58493,22.90349 -1.97375,1.87506 -4.89398,2.65666 -7.5092,3.41327 -3.24573,0.78402 -6.57517,1.19013 -9.99086,1.21754 a 0.6332471,0.62502311 86.7 0 1 -0.63447,-0.56862 c -0.42217,-4.17777 -0.484,-8.35415 -0.18793,-12.53194 0.73467,-10.37318 1.07989,-20.76061 1.03603,-31.1612 -0.006,-0.30155 0.11978,-0.52915 0.37746,-0.68266 2.67691,-1.64788 7.50793,-2.26897 11.03171,-2.34351 z m 11.46219,12.55764 c -1.01376,0.0521 -2.02222,0.13935 -3.02296,0.26021 1.00141,-0.12092 2.00867,-0.20813 3.02296,-0.26021 z m -3.02457,0.26021 c -1.00127,0.12096 -1.99616,0.27598 -2.98441,0.46581 0.98793,-0.18969 1.98352,-0.34491 2.98441,-0.46581 z m -2.98441,0.46581 c -0.98175,0.18859 -1.95607,0.41164 -2.92497,0.6682 0.96854,-0.25636 1.94354,-0.47975 2.92497,-0.6682 z m -2.96995,0.67944 c -0.9666,0.25705 -1.92781,0.54747 -2.88161,0.8722 0.9543,-0.3249 1.91435,-0.61508 2.88161,-0.8722 z" />
  <path
     fill="#e2604a"
     d="m 269.28215,158.3021 -0.2056,33.30715 -10.00859,4.3176 c -0.29607,-9.1533 -1.08557,-18.20791 0,-27.34476 z"
     id="path128"
     style="fill:#ffffff;fill-opacity:1;stroke-width:0.822399" />
  <path
     id="path130"
     d="m 119.05378,160.52676 c -0.16399,1.3e-4 -0.32967,8.2e-4 -0.49633,0.003 -1.77766,0.0246 -3.71211,0.16957 -5.88529,0.37105 -6.86426,0.64148 -13.801462,1.21683 -20.813756,1.72672 a 1.3651821,1.3569581 88.1 0 0 -1.259298,1.34925 l -0.01606,59.78775 c 0,0.46603 0.230144,0.68088 0.690687,0.6425 5.71839,-0.5044 11.595397,-1.16519 17.631777,-1.98211 9.12037,-1.2336 15.04158,-8.02748 20.83946,-14.22011 4.49852,-4.81103 5.42038,-11.12684 6.34147,-17.82935 1.04444,-7.62361 2.36892,-20.57687 -3.4454,-25.13296 -4.66666,-3.6628 -8.50352,-4.72033 -13.58726,-4.71594 z m -4.9633,12.83712 c 2.81323,-0.0313 5.22583,0.67714 7.64574,3.20447 2.70843,2.82905 3.91749,5.99178 3.62691,9.48971 0.21382,3.38828 0.087,6.75662 -0.37908,10.10651 -0.69081,4.33129 -2.53866,8.07356 -5.54316,11.22606 l -4.94242,1.86808 c -2.7194,0.57567 -5.46073,1.00471 -8.22399,1.28981 -1.73526,0.18093 -2.23757,-0.74787 -2.30336,-2.35155 -0.318,-7.5222 -0.36708,-12.29754 -0.14778,-14.32612 0.65792,-6.23378 -0.21356,-12.19682 0.26343,-18.34014 0.0219,-0.2851 0.15135,-0.51269 0.3871,-0.68265 1.90797,-1.38986 3.70877,-0.82105 5.49337,-1.08422 1.48289,-0.21845 2.8445,-0.3857 4.12324,-0.39996 z m 2.75471,13.33508 c -0.42052,0.0887 -0.77758,0.22244 -1.07939,0.39513 0.30183,-0.17269 0.65887,-0.30641 1.07939,-0.39513 z m -1.07939,0.39513 c -0.15091,0.0864 -0.28839,0.18299 -0.41281,0.28752 0.12443,-0.10453 0.26189,-0.20117 0.41281,-0.28752 z m -1.50827,2.89767 c -0.0202,0.34872 -0.0156,0.71086 0.006,1.07619 -0.022,-0.36532 -0.0266,-0.72748 -0.006,-1.07619 z m 0.1285,17.32499 c -0.028,0.20289 -0.0456,0.406 -0.0482,0.61038 0.003,-0.204 0.0203,-0.40788 0.0482,-0.61038 z m -0.0482,0.61358 c -0.002,0.20514 0.0105,0.41179 0.0337,0.61841 -0.0233,-0.20716 -0.0361,-0.41272 -0.0337,-0.61841 z"
     style="stroke-width:0.822399" />
  <path
     fill="#a5719c"
     d="m 433,168.28755 v 92.63619 L 332.87821,229.4396 c -1.11024,-2.44253 -5.88837,-11.7603 -4.90972,-13.92321 5.44428,-12.0783 11.17091,-24.02227 17.17991,-35.83192 z"
     id="path150"
     sodipodi:nodetypes="cccccc"
     style="fill:#ffffff;fill-opacity:1;stroke-width:0.822399" />
  <path
     fill="#fcc900"
     d="m 125.36235,186.05806 q -3.91461,0.21382 -7.83746,0.54278 c -3.88994,0.32896 -3.43762,3.82416 -2.99353,6.65321 q 0.48522,6.67788 0,13.36398 -0.37008,1.29939 -0.0329,2.6399 -4.0791,0.86352 -8.22399,1.29117 c -1.73526,0.18093 -2.23693,-0.74838 -2.30272,-2.35206 q -0.47699,-11.28331 -0.14803,-14.32619 c 0.65792,-6.23378 -0.21382,-12.19617 0.26317,-18.33949 q 0.0329,-0.42765 0.38652,-0.6826 c 1.90797,-1.38985 3.70902,-0.82239 5.49363,-1.08556 4.74524,-0.69904 8.24866,-0.87174 11.76853,2.80438 q 4.06265,4.24358 3.62677,9.49048 z"
     id="path152"
     style="fill:#818181;fill-opacity:1;stroke:none;stroke-width:0.822399;stroke-opacity:1" />
  <path
     fill="#e2604a"
     d="m 162.84729,179.68447 6.719,4.52319 -0.2056,23.02717 -7.3358,-1.6448 c 0.84707,-8.83256 1.98199,-16.20948 0.8224,-25.90556 z"
     id="path154"
     style="fill:#ffffff;fill-opacity:1;stroke-width:0.822399" />
  <path
     fill="#e2604a"
     d="m 125.36235,186.05806 q 0.32074,5.08243 -0.3783,10.10728 l -10.45269,-2.91129 c -0.44409,-2.82905 -0.89641,-6.32425 2.99353,-6.65321 q 3.92285,-0.32896 7.83746,-0.54278 z"
     id="path156"
     style="fill:#ffffff;fill-opacity:1;stroke-width:0.822399" />
  <path
     fill="#fe92af"
     d="m 74.784826,198.18844 -0.411199,57.15672 -0.230272,0.14803 c -0.142549,0.0987 -0.301546,0.16175 -0.476991,0.18916 L 0,267.94948 v -84.48653 l 74.784802,14.72549 z"
     id="path160"
     sodipodi:nodetypes="cccccccc"
     style="fill:#ffffff;fill-opacity:1;stroke-width:0.822399" />
  <path
     fill="#dfbbda"
     d="m 220.76062,196.95485 0.27139,14.39198 -3.93929,4.14489 -0.4112,0.1398 0.4441,-6.13509 c 1.4063,-1.84218 2.06422,-8.63519 2.54943,-11.21752 q 0.074,-0.39475 0.37831,-0.67437 z"
     id="path170"
     style="fill:#ffffff;fill-opacity:1;stroke-width:0.822399" />
  <path
     fill="#a5719c"
     d="m 268.45975,199.21644 c -0.5839,7.15487 -0.16448,13.90677 -0.96221,21.38237 l -8.87368,-1.06089 0.2385,-17.44308 z"
     id="path172"
     style="fill:#ffffff;fill-opacity:1;stroke-width:0.822399" />
  <path
     fill="#a5719c"
     d="m 208.07923,199.62764 6.1022,11.51359 1.4392,3.70079 q -1.61191,0.46054 -2.6728,-0.8224 l -5.4854,-5.13999 z"
     id="path174"
     style="fill:#ffffff;fill-opacity:1;stroke-width:0.822399" />
  <path
     fill="#fe92af"
     d="m 119.44108,207.39109 -4.94261,1.86684 q -0.33719,-1.34051 0.0329,-2.6399 2.31094,-0.41942 4.90972,0.77306 z"
     id="path178"
     style="fill:#fefefe;fill-opacity:1;stroke-width:0.822399" />
  <path
     fill="#e2604a"
     d="m 207.46243,210.31883 5.4854,3.70079 q 1.06089,1.28294 2.6728,0.8224 l 0.27139,0.6168 q 0.0411,0.22205 -0.0494,0.4112 -0.15625,0.34541 -0.52633,0.29606 l -7.85391,-1.11846 z"
     id="path182"
     style="fill:#ffffff;fill-opacity:1;stroke-width:0.822399" />
  <path
     fill="#e2604a"
     d="m 221.03201,211.34683 0.13981,2.46719 -3.40473,2.44253 q -0.62503,0.44409 -0.65792,-0.32074 l -0.0164,-0.44409 z"
     id="path184"
     style="fill:#ffffff;fill-opacity:1;stroke-width:0.822399" />
  <path
     fill="#fe92af"
     d="m 160.3801,212.16922 8.84078,0.8224 -0.68259,19.53197 c -2.15468,0.78128 -13.77518,3.98042 -14.56468,4.96729 l -5.00019,-5.84725 q -0.30428,-0.36186 0.0494,-0.67437 c 5.69922,-5.09887 9.18619,-11.53825 11.35733,-18.80004 z"
     id="path188"
     style="fill:#ffffff;fill-opacity:1;stroke-width:0.822399" />
  <path
     fill="#fe92af"
     d="m 221.17182,213.81402 v 3.084 c -0.89642,0.0247 -4.112,-0.56746 -4.3176,0.4112 q -0.0905,0.0164 -0.1727,0.0329 l -0.8224,0.37831 q -0.0987,-0.18916 -0.0411,-0.477 0.12336,-0.64147 -0.46877,-0.36185 l -4.8357,2.31094 -2.6399,0.3783 -0.4112,-4.52319 7.85391,1.11846 q 0.37008,0.0494 0.52633,-0.29606 0.0905,-0.18915 0.0494,-0.4112 l 0.24672,0.36185 q 0.1398,0.22205 0.32073,0.0329 l 0.22205,-0.22205 0.4112,-0.1398 0.0164,0.44409 q 0.0329,0.76483 0.65792,0.32074 z"
     id="path190"
     style="fill:#ffffff;fill-opacity:1;stroke-width:0.822399" />
  <path
     fill="#00bd6a"
     d="m 221.17182,216.89802 -0.2056,2.87839 -4.112,-2.46719 c 0.2056,-0.97866 3.42118,-0.38653 4.3176,-0.4112 z"
     id="path194"
     style="fill:#ffffff;fill-opacity:1;stroke-width:0.822399" />
  <path
     fill="#00bd6a"
     d="m 215.85912,217.72042 q -1.85862,1.45564 -3.11689,3.49519 l -4.61366,4.99196 q -0.10691,0.10691 -0.23849,0.0494 l -0.22205,-0.10692 0.4112,-5.75679 2.4343,-1.2007 4.8357,-2.31094 q 0.59213,-0.27962 0.46877,0.36185 -0.0576,0.28784 0.0411,0.477 z"
     id="path196"
     style="fill:#ffffff;fill-opacity:1;stroke-width:0.822399" />
  <path
     fill="#e2604a"
     d="m 216.68152,217.34211 3.6679,9.42469 q -1.07734,15.32952 -1.35696,33.29893 -0.13158,8.28978 -6.80124,13.24062 l 3.7008,-52.09074 -0.0329,-3.49519 z"
     id="path198"
     style="fill:#ffffff;fill-opacity:1;stroke-width:0.822399" />
  <path
     fill="#fea896"
     d="m 216.68152,217.34211 q 0.0822,-0.0164 0.1727,-0.0329 l 4.112,2.46719 -0.6168,6.99039 z"
     id="path200"
     style="fill:#ffffff;fill-opacity:1;stroke-width:0.822399" />
  <path
     fill="#a5719c"
     d="m 215.85912,217.72042 0.0329,3.49519 -0.15626,-0.13158 q -0.0247,-0.0165 -0.0247,0.008 l -7.90325,40.0097 q -0.47699,-16.14368 0.0658,-32.27915 2.87017,-3.52809 4.8686,-7.60719 1.25827,-2.03955 3.11689,-3.49519 z"
     id="path202"
     style="fill:#ffffff;fill-opacity:1;stroke-width:0.822399" />
  <path
     fill="#00bd6a"
     d="m 258.65676,224.71081 8.56939,1.85039 -0.4112,24.46637 q -4.60543,-2.6399 -8.56939,-6.16799 z"
     id="path212"
     style="fill:#ffffff;fill-opacity:1;stroke-width:0.822399" />
  <path
     id="path214"
     style="fill:#000000;fill-opacity:1;stroke-width:0.822399"
     d="m 111.23457,226.06166 c -7.35325,-0.11308 -15.054539,0.8853 -20.264421,1.76526 -0.263167,0.0438 -0.397686,0.20038 -0.403168,0.46904 -0.164479,13.19122 0.03334,26.30864 -0.567005,39.54099 -0.43313,9.51787 -0.757956,19.05841 -0.97178,28.62012 -0.0055,0.29606 0.140836,0.43313 0.436899,0.4112 6.650445,-0.54276 13.303305,-1.13504 19.959235,-1.77651 6.97392,-0.67436 15.52632,-2.26098 20.78967,-6.53743 7.19596,-5.84723 7.54248,-12.96996 8.10994,-22.92918 0.42217,-7.44543 0.34692,-14.8936 -0.22327,-22.34451 -0.30429,-4.02976 -5.85413,-9.65557 -8.69141,-12.31189 -3.81593,-3.56921 -10.82144,-4.79401 -18.17469,-4.90709 z m 2.66637,11.99707 c 0.5034,-0.0106 0.97994,-0.0103 1.41992,0 6.49695,0.1398 10.09161,6.79263 10.04227,12.55764 v 7.19599 c 0.14803,8.62695 1.19984,16.46412 -5.58493,22.90349 -1.97375,1.87506 -4.89398,2.65666 -7.50921,3.41327 -3.24573,0.78402 -6.57516,1.19013 -9.99086,1.21754 a 0.6332471,0.62502311 86.7 0 1 -0.63446,-0.56862 c -0.42217,-4.17777 -0.484,-8.35415 -0.18794,-12.53194 0.73468,-10.37318 1.0799,-20.76061 1.03603,-31.1612 -0.006,-0.30155 0.11979,-0.52915 0.37747,-0.68266 2.67691,-1.64788 7.50793,-2.26897 11.03171,-2.34351 z" />
  <path
     fill="#fcc900"
     d="m 125.36235,250.61637 q -6.08575,0.31251 -11.85899,2.27804 a 0.93753467,0.93753467 0 0 0 -0.64147,0.92109 l 0.23027,8.31445 -0.8224,21.99917 q -4.8686,1.17603 -9.99214,1.21715 a 0.6332471,0.62502311 86.7 0 1 -0.63325,-0.56745 q -0.63325,-6.26668 -0.18915,-12.53336 1.10201,-15.55979 1.03622,-31.16069 -0.008,-0.45232 0.37831,-0.68259 c 3.05932,-1.8833 8.93125,-2.42608 12.45111,-2.34384 6.49696,0.13981 10.09084,6.79301 10.04149,12.55803 z"
     id="path230"
     style="fill:#818181;fill-opacity:1;stroke:none;stroke-width:0.822399;stroke-opacity:1" />
  <path
     fill="#00bd6a"
     d="m 168.53829,239.51398 q -0.31251,7.1631 -0.49344,14.32619 c -0.12336,5.04131 0.46877,11.10239 0.28784,16.71937 l -4.663,4.31759 c -0.98688,-8.47893 0.25495,-15.21437 -1.73526,-22.72288 -0.70726,-2.66457 -2.35206,-5.30447 -3.43763,-8.08418 z"
     id="path234"
     style="fill:#ffffff;fill-opacity:1;stroke-width:0.822399" />
  <path
     fill="#00bd6a"
     d="M 339.04624,246.70997 433,289.3088 V 412.20776 L 302.65509,278.57793 c -0.16448,-6.70255 -0.88819,-21.30013 2.4343,-25.32166 2.73037,5.69922 4.20246,12.17973 7.37692,17.53354 1.94635,3.27863 3.75837,6.63128 5.43606,10.05794 0.62502,1.28294 1.94086,2.33561 2.75503,3.56921 2.63716,3.25122 5.29899,6.48599 7.9855,9.70431 4.92617,5.8966 14.72916,9.3589 22.22944,8.75032 6.28312,-0.50166 13.15015,-2.45075 17.94474,-6.93282 0.56471,-0.53182 0.60035,-1.09379 0.10691,-1.68592 l -9.76187,-11.72741 -6.78479,-2.54121 z"
     id="path238"
     style="fill:#ffffff;fill-opacity:1;stroke-width:0.822399"
     sodipodi:nodetypes="ccccccccccccccc" />
  <path
     fill="#fea896"
     d="m 258.27845,254.0211 q 4.53964,3.26492 8.3309,7.28645 -0.37008,15.2884 -0.74016,30.58502 -0.0247,1.17603 1.25827,1.43097 3.26493,4.90972 7.37692,9.29311 a 0.37830346,0.37830346 0 0 1 -0.15625,0.6168 q -8.29801,2.69746 -16.95787,4.30114 -2.35206,-7.28645 -5.51007,-14.26039 -0.14803,-0.31252 -0.4441,-0.48522 l -0.38652,-0.23027 q 4.60543,-9.64674 6.16799,-20.14877 c 0.7895,-5.32092 0.56745,-12.2373 1.06089,-18.38884 z"
     id="path242"
     style="fill:#ffffff;fill-opacity:1;stroke-width:0.822399" />
  <path
     fill="#00bd6a"
     d="m 125.36235,257.81236 c 0.14804,8.62696 1.20071,16.46442 -5.58408,22.90381 -1.97376,1.87507 -4.89328,2.65634 -7.50851,3.41295 l 0.8224,-21.99917 z"
     id="path246"
     style="fill:#ffffff;fill-opacity:1;stroke-width:0.822399" />
  <path
     fill="#00bd6a"
     d="m 73.551228,275.08273 c 0.567455,7.9855 -0.592127,16.58779 -0.600351,23.57818 0,4.72057 -0.789503,13.03502 1.480318,14.38375 2.047773,2.82906 9.128627,12.87877 11.727407,12.51691 4.928911,-0.70178 9.882493,-1.14587 14.860748,-1.33228 3.93929,-0.14803 7.68943,-1.11846 11.62872,-1.62013 L 0,412.19665 V 297.57501 l 73.55123,-22.49228 z"
     id="path254"
     style="fill:#ffffff;fill-opacity:1;stroke-width:0.822399"
     sodipodi:nodetypes="sccccccccs" />
  <path
     fill="#fcc900"
     d="m 359.16212,282.52544 9.76187,11.72741 q 0.74016,0.88819 -0.10691,1.68592 c -4.79459,4.48207 -11.66162,6.43116 -17.94474,6.93282 -7.50028,0.60858 -17.30327,-2.85372 -22.22944,-8.75032 q -4.02976,-4.82748 -7.9855,-9.70431 c 6.18444,3.67612 13.28997,6.4805 20.46951,5.83081 q 10.01682,-0.90464 18.03521,-7.72233 z"
     id="path260"
     style="fill:#818181;fill-opacity:1;stroke:none;stroke-width:0.822399;stroke-opacity:1" />
  <path
     fill="#a5719c"
     d="m 170.21599,282.65703 q 3.10866,8.52005 9.5316,14.74561 4.43273,6.77656 10.28821,12.38532 0.29606,0.27962 -0.11514,0.22205 -16.35751,-2.22047 -32.14757,-7.03151 a 0.39475144,0.38652745 20.6 0 1 -0.24672,-0.53456 l 3.88173,-8.65163 z"
     id="path262"
     style="fill:#ffffff;fill-opacity:1;stroke-width:0.822399" />
  <path
     fill="#fea896"
     d="M 303.09097,298.3155 407.77416,433 h -114.7433 l -20.83742,-83.52307 c 11.18463,-2.7194 22.13624,-6.13784 32.85483,-10.25531 4.14489,-1.58723 6.40649,-5.74857 1.18426,-8.08418 -6.29409,-2.81261 -11.45053,-5.34011 -15.46932,-7.58252 -1.89974,-1.06089 -1.99843,-2.93596 -1.22538,-4.9015 1.82573,-4.62188 3.56921,-9.24924 5.23046,-13.88209 0.0922,-0.2558 0.30781,-0.44328 0.56745,-0.49344 l 6.39004,-1.25004 c 0.42217,-0.0822 0.66615,-0.33444 0.73194,-0.75661 z"
     id="path268"
     style="fill:#ffffff;fill-opacity:1;stroke-width:0.822399"
     sodipodi:nodetypes="ccccccccccccc" />
  <path
     fill="#e2604a"
     d="m 243.58219,302.83869 1.67769,6.7519 q -7.97727,1.47209 -16.44798,1.77638 a 0.27139161,0.27139161 0 0 1 -0.0576,-0.53456 q 8.47893,-1.70236 14.82785,-7.99372 z"
     id="path270"
     style="fill:#ffffff;fill-opacity:1;stroke-width:0.822399" />
  <path
     fill="#a5719c"
     d="m 133.03534,328.12746 9.14507,-11.12706 q 4.4574,3.86528 -0.5839,6.90815 -4.14489,2.5001 -8.56117,4.21891 z"
     id="path276"
     style="fill:#f4f4f4;fill-opacity:1;stroke-width:0.822399" />
  <path
     fill="#ffffff"
     d="m 270.49108,331.08809 c -3.50342,-0.83884 -11.30799,-0.14803 -12.02348,-5.06597 -0.7566,-5.26335 7.78812,-6.98217 11.67807,-7.03974 q 1.41452,-0.0247 1.98198,-0.74838 a 1.1184624,1.1102384 48 0 1 1.83395,0.0987 q 1.21715,1.97376 1.13491,4.36694 a 0.87996675,0.87996675 0 0 1 -1.29939,0.74016 c -2.22048,-1.21715 -7.01506,-3.33072 -8.54472,-0.39476 a 1.1184624,1.1184624 0 0 0 0.87174,1.62835 q 3.74191,0.40298 7.39336,0.69082 c 3.27315,0.25494 5.60876,3.4623 4.12022,6.44761 -2.00665,4.02975 -9.50693,5.13999 -13.45444,4.89327 q -0.46055,-0.0247 -0.84707,0.23027 l -1.38163,0.92931 q -0.53456,0.35363 -0.86352,-0.18915 -1.56256,-2.51654 -1.14314,-5.51007 a 0.69081502,0.69081502 0 0 1 1.028,-0.50989 c 3.37184,1.91619 5.60054,3.70902 9.77832,1.53789 a 1.1349104,1.1349104 0 0 0 -0.26316,-2.10535 z"
     id="path280"
     style="stroke-width:0.822399" />
  <path
     fill="#ffffff"
     d="m 172.52693,323.70295 c -5.59231,-2.91951 -8.45426,4.96729 -6.81769,8.89836 0.62502,1.52144 4.05443,3.06755 4.99196,0.90464 0.77306,-1.77638 -1.89152,-2.79616 -2.89484,-3.76659 q -0.32074,-0.31251 -0.13159,-0.72371 0.37008,-0.79773 1.32407,-0.52634 5.75679,1.65303 11.77675,2.27805 a 0.62502311,0.62502311 0 0 1 0.551,0.73193 c -0.13158,0.75661 -2.54943,1.39808 -3.24847,2.056 -1.20893,1.12669 -1.37341,3.14156 -1.80105,4.76991 a 0.85529478,0.85529478 0 0 1 -1.32407,0.477 l -2.4343,-1.74349 q -0.32073,-0.2385 -0.71548,-0.15626 c -19.85271,4.07088 -17.12235,-25.75753 3.55276,-14.76205 q 0.3783,0.19737 0.74016,-0.0165 c 4.32582,-2.58233 2.21225,4.61365 1.69414,5.74034 a 1.0937904,1.0937904 0 0 1 -1.94909,0.0987 c -0.86351,-1.47209 -1.85862,-3.4952 -3.31426,-4.26003 z"
     id="path282"
     style="stroke-width:0.822399" />
  <path
     fill="#ffffff"
     d="m 245.75332,333.32502 a 1.2747182,1.2747182 0 0 0 -0.5839,1.37341 q 0.7895,3.45407 4.37516,2.86194 c 3.23203,-0.53456 3.86527,-2.80438 4.59721,-5.39493 q 0.13158,-0.4441 0.55923,-0.62503 c 1.96553,-0.82239 2.36851,3.56099 2.63167,5.08243 0.42765,2.42608 -1.54611,2.75503 -3.48697,2.95241 q -7.50027,0.73194 -16.52199,1.99843 a 0.93753467,0.94575865 69 0 1 -0.91286,-0.40298 q -0.55923,-0.83062 0.63325,-1.52143 c 4.37516,-2.51654 2.9853,-11.91656 -1.66125,-13.57781 q -0.43587,-0.15625 -0.4112,-0.6168 l 0.0329,-0.65792 q 0.0164,-0.44409 0.46876,-0.46054 8.85724,-0.27139 17.44308,-2.44252 a 1.3569581,1.373406 71.6 0 1 1.59546,0.7895 q 1.34873,3.16623 0.85529,6.62031 -0.0905,0.64969 -0.69081,0.3783 -1.54611,-0.69081 -2.30272,-2.24515 -0.18093,-0.3783 -0.49344,-0.64969 c -3.00176,-2.58233 -9.35067,-0.8224 -6.87525,3.32249 q 0.18915,0.32074 0.551,0.38653 c 1.70237,0.32896 2.61523,-2.63168 3.03466,-3.64323 q 0.20559,-0.47699 0.71548,-0.40297 c 1.32406,0.19737 1.95731,7.04795 2.36029,8.58584 q 0.10691,0.41942 -0.18916,0.73193 c -1.89151,2.02311 -3.25669,-3.93106 -5.72389,-2.44252 z"
     id="path284"
     style="stroke-width:0.822399" />
  <path
     fill="#ffffff"
     d="m 179.41863,339.33675 a 0.88819074,0.88819074 0 0 1 -0.68259,-0.50166 q -0.37008,-0.79773 0.44409,-1.028 c 5.5183,-1.579 8.1253,-8.71742 9.88524,-13.61892 q 0.16448,-0.45232 0.64147,-0.40298 l 6.58741,0.6497 q 0.58391,0.0576 0.65792,0.64147 c 0.76483,6.04463 1.48854,12.50046 6.61209,15.49399 a 0.61679912,0.60857513 17 0 1 0.29606,0.55101 q -0.0493,0.91286 -1.14313,0.8224 -3.0511,-0.2385 -11.93301,-0.86352 -1.11024,-0.0822 -1.01155,-1.27472 0.0329,-0.37008 0.39475,-0.46054 1.78461,-0.45232 2.15469,-2.14646 0.0987,-0.46055 -0.28784,-0.73194 -1.57078,-1.09379 -3.57744,-0.67436 -2.4343,0.50988 -0.67436,2.27804 c 0.42764,0.43587 1.56255,1.15958 1.52966,1.79283 -0.0822,1.48854 -8.65164,-0.34541 -9.89346,-0.52634 z"
     id="path286"
     style="stroke-width:0.822399" />
  <path
     fill="#ffffff"
     d="m 220.19316,332.6671 q 1.71882,-3.10044 2.4672,-6.56274 a 1.2911662,1.2911662 0 0 1 1.38163,-1.01978 q 4.36694,0.38653 8.65986,-0.48521 0.4112,-0.0822 0.71549,0.2056 c 0.62502,0.5839 0.32073,1.26649 -0.33719,1.66124 -3.88994,2.32739 -2.90306,8.775 -1.25827,12.02347 q 0.19738,0.38653 0.58391,0.58391 l 2.31094,1.18425 a 0.79772687,0.79772687 0 0 1 -0.32896,1.50499 l -12.38533,0.55923 a 0.83062282,0.83062282 0 0 1 -0.41942,-1.57078 q 4.53141,-2.31094 3.07577,-7.66476 a 0.36185549,0.3536315 76.3 0 0 -0.4112,-0.25494 c -1.48032,0.30429 -3.73369,7.28645 -4.16956,8.75032 q -0.11514,0.38653 -0.46877,0.58391 c -2.056,1.18425 -2.91952,-0.0494 -3.4623,-1.89974 -0.36185,-1.21715 -2.57411,-6.99862 -3.8406,-7.20422 a 0.50166329,0.50166329 0 0 0 -0.55923,0.37831 q -1.24182,5.33736 3.47052,7.5085 a 0.65791906,0.65791906 0 0 1 0.2385,1.01155 c -0.68259,0.84707 -9.06284,0.11513 -10.70764,0.15625 a 0.51811126,0.51811126 0 0 1 -0.50988,-0.66614 q 0.40297,-1.30761 1.72703,-1.56256 0.39476,-0.074 0.65792,-0.37008 c 2.57411,-2.77148 3.14979,-10.85566 -0.84707,-12.69784 q -0.42765,-0.19737 -0.65792,-0.60035 -0.42764,-0.74838 0.37831,-1.11846 0.3454,-0.15625 0.72371,-0.10691 4.39161,0.55923 8.84078,0.21382 a 1.4720939,1.4720939 0 0 1 1.4721,0.89642 l 2.71391,6.50517 q 0.41943,1.01155 0.94576,0.0576 z"
     id="path288"
     style="stroke-width:0.822399" />
  <path
     fill="#fcc900"
     d="m 189.08182,332.15721 q 0.31251,-1.89151 1.59545,-3.28959 0.60035,-0.65792 0.78128,0.21382 l 0.64969,3.21558 q 0.15626,0.7895 -0.64147,0.77306 l -1.6448,-0.0247 q -0.87996,-0.0164 -0.74015,-0.88819 z"
     id="path290"
     style="fill:#7f7f7f;fill-opacity:1;stroke-width:0.822399" />
  <path
     fill="#a5719c"
     d="m 124.57285,337.14095 c 1.15136,0.97043 3.07029,1.94086 5.75679,2.91129 17.71447,6.39826 34.71072,10.79536 50.98873,13.19128 L 143.90847,433 H 22.885 l 101.68789,-95.85877 z"
     id="path296"
     sodipodi:nodetypes="ccccccc"
     style="fill:#ffffff;fill-opacity:1;stroke-width:0.822399" />
  <path
     fill="#e2604a"
     d="M 254.51187,352.83232 266.0321,433 h -96.32566 l 29.29348,-77.70044 c 18.59717,1.14039 37.10115,0.31799 55.51192,-2.4672 z"
     id="path302"
     sodipodi:nodetypes="cccccc"
     style="fill:#ffffff;fill-opacity:1;stroke-width:0.822399" />
</svg>
