<?xml version="1.0" encoding="utf-8"?>
<!-- Generator: Adobe Illustrator 16.0.0, SVG Export Plug-In . SVG Version: 6.00 Build 0)  -->
<!DOCTYPE svg PUBLIC "-//W3C//DTD SVG 1.1//EN" "http://www.w3.org/Graphics/SVG/1.1/DTD/svg11.dtd">
<svg version="1.1" xmlns="http://www.w3.org/2000/svg" xmlns:xlink="http://www.w3.org/1999/xlink" x="0px" y="0px"
	 width="1865.762px" height="1164.777px" viewBox="0 0 1865.762 1164.777" enable-background="new 0 0 1865.762 1164.777"
	 xml:space="preserve">
<g id="Layer_1">
</g>
<g id="Layer_2">
	<path fill="#A4709D" d="M801.424,465.705l410.32,79.758c0.814,0.158,1.346,0.945,1.188,1.759l-15.838,81.474
		c-0.158,0.814-0.945,1.346-1.758,1.188l-410.321-79.758c-0.813-0.158-1.345-0.946-1.187-1.759l15.837-81.475
		C799.824,466.078,800.611,465.546,801.424,465.705z"/>
	<path fill="#A4709D" d="M783.294,558.959l409.338,79.568c0.814,0.158,1.346,0.945,1.188,1.758l-15.838,81.475
		c-0.158,0.814-0.945,1.346-1.758,1.188l-409.339-79.568c-0.813-0.158-1.345-0.945-1.187-1.758l15.838-81.476
		C781.695,559.333,782.482,558.801,783.294,558.959z"/>
	<path fill="#A4709D" d="M164.525,656.197l84.525,16.503c0.398,0.078,0.659,0.465,0.581,0.863l-14.25,72.979
		c-0.077,0.399-0.464,0.659-0.862,0.581l-84.526-16.504c-0.398-0.078-0.658-0.464-0.58-0.863l14.249-72.979
		C163.74,656.379,164.126,656.119,164.525,656.197z"/>
	<path fill="#A4709D" d="M276.415,678.043l83.545,16.312c0.398,0.078,0.658,0.465,0.58,0.863l-14.249,72.979
		c-0.078,0.399-0.464,0.659-0.863,0.581l-83.544-16.313c-0.398-0.077-0.659-0.464-0.581-0.862l14.249-72.979
		C275.63,678.225,276.017,677.965,276.415,678.043z"/>
	<path fill="#A4709D" d="M184.007,612.342l26.766-137.081c0.074-0.378,0.44-0.625,0.819-0.552l37.95,7.41
		c0.379,0.074,0.626,0.441,0.553,0.819L223.329,620.02c-0.074,0.378-0.441,0.625-0.82,0.551l-37.95-7.409
		C184.18,613.087,183.933,612.72,184.007,612.342z"/>
	<path fill="#A4709D" d="M352.087,640.677l26.574-136.099c0.074-0.379,0.44-0.626,0.819-0.552l37.95,7.41
		c0.379,0.074,0.626,0.44,0.552,0.819l-26.573,136.099c-0.074,0.379-0.441,0.626-0.82,0.552l-37.95-7.41
		C352.261,641.423,352.013,641.056,352.087,640.677z"/>
	<path fill="#A4709D" d="M231.007,621.689l26.766-137.08c0.074-0.379,0.44-0.626,0.819-0.552l37.95,7.41
		c0.379,0.073,0.626,0.44,0.553,0.819l-26.766,137.08c-0.074,0.379-0.441,0.626-0.82,0.552l-37.95-7.41
		C231.181,622.435,230.933,622.068,231.007,621.689z"/>
	<path fill="#A4709D" d="M399.067,650.217l26.573-136.099c0.074-0.379,0.44-0.626,0.819-0.552l37.951,7.41
		c0.379,0.074,0.625,0.44,0.552,0.819l-26.574,136.099c-0.073,0.379-0.44,0.626-0.819,0.552l-37.951-7.41
		C399.24,650.962,398.993,650.596,399.067,650.217z"/>
	<path fill="#A4709D" d="M576.174,633.747l13.476-73.235c0.051-0.273,0.313-0.453,0.586-0.403l35.689,6.567
		c0.273,0.05,0.453,0.313,0.403,0.585l-13.476,73.235c-0.051,0.273-0.313,0.453-0.586,0.403l-35.689-6.567
		C576.304,634.281,576.124,634.02,576.174,633.747z"/>
	<path fill="#A4709D" d="M561.174,715.747l13.476-73.235c0.051-0.273,0.313-0.453,0.586-0.403l35.689,6.567
		c0.273,0.05,0.453,0.313,0.403,0.585l-13.476,73.235c-0.051,0.272-0.313,0.453-0.585,0.403l-35.69-6.567
		C561.304,716.281,561.124,716.02,561.174,715.747z"/>
	<path fill="#A4709D" d="M436.172,788.796l13.197-73.285c0.05-0.273,0.311-0.455,0.584-0.406l35.715,6.432
		c0.272,0.05,0.454,0.311,0.405,0.584l-13.197,73.285c-0.049,0.273-0.311,0.455-0.584,0.406l-35.715-6.432
		C436.304,789.331,436.123,789.069,436.172,788.796z"/>
	<path fill="#A4709D" d="M481.292,797.363l13.197-73.286c0.049-0.273,0.311-0.454,0.584-0.405l35.715,6.432
		c0.273,0.05,0.454,0.311,0.405,0.583l-13.197,73.286c-0.05,0.273-0.311,0.455-0.584,0.405l-35.715-6.432
		C481.425,797.897,481.243,797.637,481.292,797.363z"/>
	<path fill="#A4709D" d="M1051.406,922.465l98.242,17.557c0.273,0.049,0.455,0.309,0.406,0.582l-8.875,49.668
		c-0.049,0.271-0.311,0.455-0.584,0.406l-98.242-17.557c-0.273-0.049-0.455-0.309-0.406-0.582l8.875-49.668
		C1050.871,922.598,1051.133,922.416,1051.406,922.465z"/>
	<path fill="#A4709D" d="M942.346,902.979l98.242,17.555c0.273,0.049,0.455,0.309,0.406,0.582l-8.875,49.668
		c-0.049,0.273-0.311,0.455-0.584,0.406l-98.24-17.557c-0.273-0.049-0.456-0.309-0.407-0.582l8.875-49.668
		C941.813,903.111,942.072,902.93,942.346,902.979z"/>
	<path fill="none" stroke="#A4709D" stroke-width="4" stroke-dasharray="12,12" d="M641.404,540.859l-465.901-95.794
		c-4.32-0.888-8.55,1.889-9.45,6.206l-60.72,291.76c-0.91,4.363,1.92,8.625,6.3,9.482l469.71,91.912
		c4.33,0.846,8.529-1.973,9.391-6.301l56.91-287.877C648.494,545.936,645.713,541.745,641.404,540.859z"/>
	<path fill="#06371C" d="M1090.033,969.576l0.018-17.08l6.838,0.014c1.242-0.02,2.295,0.176,3.135,0.553
		c0.844,0.377,1.477,0.9,1.885,1.545c0.428,0.666,0.631,1.414,0.645,2.291c-0.008,0.66-0.133,1.25-0.408,1.75
		c-0.27,0.498-0.637,0.906-1.1,1.232c-0.459,0.32-0.99,0.537-1.582,0.676l-0.004,0.164c0.639,0.014,1.252,0.205,1.818,0.545
		c0.57,0.334,1.037,0.816,1.389,1.426c0.354,0.6,0.531,1.326,0.537,2.172c-0.01,0.895-0.234,1.707-0.672,2.438
		c-0.451,0.699-1.121,1.24-1.988,1.654c-0.871,0.418-1.943,0.625-3.219,0.625L1090.033,969.576z M1093.645,966.629l2.938-0.002
		c1.002-0.006,1.73-0.207,2.203-0.572c0.453-0.398,0.689-0.908,0.686-1.561c0.004-0.467-0.113-0.889-0.328-1.238
		c-0.238-0.377-0.561-0.654-0.984-0.859c-0.418-0.211-0.904-0.297-1.49-0.309l-3.031-0.012L1093.645,966.629z M1093.645,959.643
		l2.688,0.012c0.479-0.021,0.92-0.102,1.311-0.26c0.385-0.186,0.688-0.436,0.916-0.754c0.234-0.316,0.346-0.703,0.342-1.162
		c-0.002-0.615-0.221-1.121-0.648-1.479c-0.439-0.389-1.057-0.576-1.863-0.592l-2.729,0.014L1093.645,959.643z"/>
	<path fill="#06371C" d="M977.043,944.871l-3.529,0.012l5.387-15.596l4.242-0.002l5.369,15.584h-3.535l-3.9-12.021l-0.109,0.008
		L977.043,944.871z M976.824,938.752l8.336-0.01l0.004,2.576l-8.338,0.008L976.824,938.752z"/>
	<path fill="#06371C" d="M312.963,727.859l0.019-17.08l6.838,0.014c1.241-0.02,2.294,0.176,3.135,0.553
		c0.843,0.377,1.476,0.9,1.884,1.545c0.428,0.666,0.632,1.414,0.645,2.291c-0.007,0.66-0.133,1.25-0.407,1.75
		c-0.27,0.498-0.637,0.906-1.101,1.232c-0.459,0.32-0.989,0.537-1.581,0.676l-0.005,0.164c0.64,0.014,1.252,0.205,1.818,0.545
		c0.57,0.334,1.037,0.816,1.39,1.426c0.354,0.6,0.53,1.326,0.536,2.172c-0.009,0.895-0.234,1.707-0.671,2.438
		c-0.451,0.699-1.121,1.24-1.989,1.654c-0.87,0.418-1.943,0.625-3.218,0.625L312.963,727.859z M316.574,724.912l2.938-0.002
		c1.001-0.006,1.73-0.207,2.202-0.572c0.454-0.398,0.69-0.908,0.687-1.561c0.003-0.467-0.113-0.889-0.328-1.238
		c-0.239-0.377-0.561-0.654-0.984-0.859c-0.418-0.211-0.904-0.297-1.49-0.309l-3.032-0.012L316.574,724.912z M316.575,717.926
		l2.688,0.012c0.478-0.021,0.92-0.102,1.311-0.26c0.384-0.186,0.687-0.436,0.916-0.754c0.234-0.316,0.346-0.703,0.342-1.162
		c-0.002-0.615-0.222-1.121-0.648-1.479c-0.44-0.389-1.057-0.576-1.864-0.592l-2.729,0.014L316.575,717.926z"/>
	<path fill="#06371C" d="M199.974,703.155l-3.529,0.011l5.386-15.596l4.242-0.002l5.37,15.584h-3.536l-3.899-12.021l-0.109,0.007
		L199.974,703.155z M199.755,697.035l8.336-0.009l0.004,2.576l-8.338,0.008L199.755,697.035z"/>
	<path fill="#06371C" d="M211.113,565.776l-3.529,0.011l5.386-15.596l4.242-0.002l5.371,15.584h-3.537l-3.899-12.021l-0.109,0.007
		L211.113,565.776z M210.895,559.656l8.336-0.009l0.004,2.576l-8.338,0.008L210.895,559.656z"/>
	<path fill="#06371C" d="M255.609,576.455l-3.529,0.012l5.385-15.596l4.242-0.002l5.371,15.584h-3.537l-3.898-12.021l-0.109,0.007
		L255.609,576.455z M255.391,570.336l8.336-0.01l0.004,2.576l-8.338,0.008L255.391,570.336z"/>
	<path fill="#06371C" d="M378.45,598.967l0.019-17.08l6.838,0.014c1.241-0.02,2.294,0.176,3.135,0.553
		c0.843,0.377,1.476,0.9,1.884,1.545c0.428,0.666,0.632,1.414,0.645,2.291c-0.007,0.66-0.133,1.25-0.407,1.75
		c-0.27,0.498-0.637,0.906-1.101,1.232c-0.459,0.32-0.989,0.537-1.581,0.676l-0.005,0.164c0.64,0.014,1.252,0.205,1.818,0.545
		c0.57,0.334,1.037,0.816,1.39,1.426c0.354,0.6,0.53,1.326,0.536,2.172c-0.009,0.895-0.234,1.707-0.671,2.438
		c-0.451,0.699-1.121,1.24-1.989,1.654c-0.87,0.418-1.943,0.625-3.218,0.625L378.45,598.967z M382.062,596.02l2.938-0.002
		c1.001-0.006,1.73-0.207,2.202-0.572c0.454-0.398,0.69-0.908,0.687-1.561c0.003-0.467-0.113-0.889-0.328-1.238
		c-0.239-0.377-0.561-0.654-0.984-0.859c-0.418-0.211-0.904-0.297-1.49-0.309l-3.032-0.012L382.062,596.02z M382.063,589.033
		l2.688,0.012c0.478-0.021,0.92-0.102,1.311-0.26c0.384-0.186,0.687-0.436,0.916-0.754c0.234-0.316,0.346-0.703,0.342-1.162
		c-0.002-0.615-0.222-1.121-0.648-1.479c-0.44-0.389-1.057-0.576-1.864-0.592l-2.729,0.014L382.063,589.033z"/>
	<path fill="#06371C" d="M423.489,608.645l0.019-17.08l6.838,0.012c1.241-0.018,2.294,0.176,3.135,0.553
		c0.843,0.379,1.476,0.9,1.884,1.547c0.428,0.666,0.632,1.414,0.645,2.291c-0.007,0.658-0.133,1.25-0.407,1.75
		c-0.27,0.498-0.637,0.906-1.101,1.23c-0.459,0.322-0.989,0.539-1.581,0.678l-0.005,0.164c0.64,0.012,1.252,0.203,1.818,0.543
		c0.57,0.334,1.037,0.816,1.39,1.426c0.354,0.6,0.53,1.326,0.536,2.174c-0.009,0.895-0.234,1.707-0.671,2.436
		c-0.451,0.699-1.121,1.24-1.989,1.654c-0.87,0.418-1.943,0.625-3.218,0.625L423.489,608.645z M427.101,605.697l2.938-0.004
		c1.001-0.006,1.73-0.207,2.202-0.572c0.454-0.398,0.69-0.908,0.687-1.561c0.003-0.467-0.113-0.887-0.328-1.236
		c-0.239-0.377-0.561-0.656-0.984-0.859c-0.418-0.211-0.904-0.297-1.49-0.309l-3.032-0.014L427.101,605.697z M427.102,598.709
		l2.688,0.014c0.478-0.021,0.92-0.104,1.311-0.26c0.384-0.186,0.687-0.438,0.916-0.756c0.234-0.314,0.346-0.701,0.342-1.162
		c-0.002-0.615-0.222-1.119-0.648-1.479c-0.44-0.389-1.057-0.574-1.864-0.59l-2.729,0.012L427.102,598.709z"/>
	<path fill="#06371C" d="M598.668,606.795l-3.529,0.01l5.385-15.596l4.242-0.002l5.371,15.584H606.6l-3.898-12.02l-0.109,0.006
		L598.668,606.795z M598.449,600.674l8.336-0.008l0.004,2.576l-8.338,0.008L598.449,600.674z"/>
	<path fill="#06371C" d="M453.268,773.061l0.019-17.08l6.838,0.014c1.241-0.02,2.294,0.176,3.135,0.553
		c0.843,0.377,1.476,0.9,1.884,1.545c0.428,0.666,0.632,1.414,0.645,2.291c-0.007,0.66-0.133,1.25-0.407,1.75
		c-0.27,0.498-0.637,0.906-1.101,1.232c-0.459,0.32-0.989,0.537-1.581,0.676l-0.005,0.164c0.64,0.014,1.252,0.205,1.818,0.545
		c0.57,0.334,1.037,0.816,1.39,1.426c0.354,0.6,0.53,1.326,0.536,2.172c-0.009,0.895-0.234,1.707-0.671,2.438
		c-0.451,0.699-1.121,1.24-1.989,1.654c-0.87,0.418-1.943,0.625-3.218,0.625L453.268,773.061z M456.879,770.113l2.938-0.002
		c1.001-0.006,1.73-0.207,2.202-0.572c0.454-0.398,0.69-0.908,0.687-1.561c0.003-0.467-0.113-0.889-0.328-1.238
		c-0.239-0.377-0.561-0.654-0.984-0.859c-0.418-0.211-0.904-0.297-1.49-0.309l-3.032-0.012L456.879,770.113z M456.88,763.127
		l2.688,0.012c0.478-0.021,0.92-0.102,1.311-0.26c0.384-0.186,0.687-0.436,0.916-0.754c0.234-0.316,0.346-0.703,0.342-1.162
		c-0.002-0.615-0.222-1.121-0.648-1.479c-0.44-0.389-1.057-0.576-1.864-0.592l-2.729,0.014L456.88,763.127z"/>
	<path fill="#06371C" d="M497.377,781.105l0.019-17.08l6.838,0.012c1.241-0.018,2.294,0.176,3.135,0.553
		c0.843,0.379,1.476,0.9,1.884,1.547c0.428,0.666,0.632,1.414,0.645,2.291c-0.007,0.658-0.133,1.25-0.407,1.75
		c-0.27,0.498-0.637,0.906-1.101,1.23c-0.459,0.322-0.989,0.539-1.581,0.678l-0.005,0.164c0.64,0.012,1.252,0.203,1.818,0.543
		c0.57,0.334,1.037,0.816,1.39,1.426c0.354,0.6,0.53,1.326,0.536,2.174c-0.009,0.895-0.234,1.707-0.671,2.436
		c-0.451,0.699-1.121,1.24-1.989,1.654c-0.87,0.418-1.943,0.625-3.218,0.625L497.377,781.105z M500.988,778.158l2.938-0.004
		c1.001-0.006,1.73-0.207,2.202-0.572c0.454-0.398,0.69-0.908,0.687-1.561c0.003-0.467-0.113-0.887-0.328-1.236
		c-0.239-0.377-0.561-0.656-0.984-0.859c-0.418-0.211-0.904-0.297-1.49-0.309l-3.032-0.014L500.988,778.158z M500.989,771.17
		l2.688,0.014c0.478-0.021,0.92-0.104,1.311-0.26c0.384-0.186,0.687-0.438,0.916-0.756c0.234-0.314,0.346-0.701,0.342-1.162
		c-0.002-0.615-0.222-1.119-0.648-1.479c-0.44-0.389-1.057-0.574-1.864-0.59l-2.729,0.012L500.989,771.17z"/>
	<path fill="#06371C" d="M585.78,674.707l-3.529,0.012l5.385-15.596l4.242-0.002l5.371,15.584h-3.537l-3.898-12.021l-0.109,0.008
		L585.78,674.707z M585.562,668.588l8.336-0.01l0.004,2.576l-8.338,0.008L585.562,668.588z"/>
	<path fill="#06371C" d="M910.961,644.066l0.027-25.127l10.06,0.02c1.826-0.027,3.375,0.258,4.611,0.813
		c1.24,0.557,2.171,1.324,2.771,2.273c0.63,0.98,0.93,2.082,0.948,3.371c-0.01,0.971-0.195,1.84-0.599,2.574
		c-0.396,0.732-0.937,1.334-1.619,1.813c-0.676,0.473-1.456,0.791-2.326,0.996l-0.007,0.24c0.94,0.02,1.842,0.301,2.675,0.801
		c0.839,0.49,1.525,1.201,2.044,2.098c0.521,0.883,0.78,1.951,0.789,3.197c-0.013,1.314-0.345,2.51-0.987,3.584
		c-0.663,1.027-1.649,1.824-2.926,2.434c-1.28,0.615-2.859,0.92-4.734,0.92L910.961,644.066z M916.274,639.73l4.323-0.004
		c1.473-0.008,2.546-0.305,3.24-0.842c0.668-0.586,1.016-1.336,1.01-2.295c0.004-0.688-0.167-1.307-0.483-1.82
		c-0.352-0.555-0.824-0.965-1.447-1.266c-0.615-0.309-1.331-0.436-2.192-0.453l-4.461-0.02L916.274,639.73z M916.276,629.451
		l3.953,0.02c0.703-0.031,1.354-0.15,1.929-0.383c0.564-0.271,1.01-0.643,1.348-1.109c0.345-0.465,0.508-1.033,0.503-1.711
		c-0.003-0.904-0.326-1.646-0.954-2.174c-0.648-0.572-1.555-0.848-2.743-0.869l-4.014,0.018L916.276,629.451z"/>
	<path fill="#06371C" d="M934.805,548.197l-5.778,0.018l8.817-25.533l6.945-0.004l8.793,25.515h-5.789l-6.385-19.681l-0.18,0.012
		L934.805,548.197z M934.447,538.177l13.646-0.015l0.008,4.218l-13.652,0.013L934.447,538.177z"/>
	<path fill="none" stroke="#A4709D" stroke-width="4" stroke-dasharray="12,12" d="M1218.813,537.119l-419.31-83.861
		c-4.36-0.873-8.601,1.986-9.431,6.361l-35.02,185.688c-0.82,4.342,2.04,8.525,6.391,9.344l420.27,79.043
		c4.34,0.816,8.52-2.041,9.34-6.383l34.061-180.866C1225.922,542.136,1223.113,537.978,1218.813,537.119z"/>
	<g>
		<g id="Cirkel_10_">
			<path fill="#FFFFFF" d="M1058.975,842.853h0.002c30.758,0,55.693,24.933,55.693,55.69v0.004
				c0,30.758-24.936,55.691-55.693,55.691h-0.002c-30.758,0-55.691-24.934-55.691-55.691v-0.004
				C1003.283,867.785,1028.217,842.853,1058.975,842.853z"/>
		</g>
		<g id="Color_10_">
			<path fill="#A4709D" d="M1096.439,910.24l-4.051-7.279c-0.248-0.443-0.715-0.721-1.223-0.721h-2.385
				c0.432-1.475,0.883-3.195,1.244-4.986c1.447-7.168,0.715-11.795-2.18-13.752c-2.338-1.58-3.523-2.861-3.725-4.035
				c-0.197-1.141,0.424-2.541,2.221-4.99c1.59-2.17,1.986-4.027,1.176-5.521c-1.016-1.875-3.752-2.697-8.125-2.447
				c-2.756,0.156-4.672,1.115-5.697,2.846c-1.371,2.318-0.959,5.697,1.256,10.326c0.916,1.92,1.027,3.471,0.326,4.604
				c-1.238,2.008-5.205,3.219-10.877,3.318c-2.688,0.055-4.533-0.623-5.494-1.998c-1.264-1.805-1.148-5.02,0.311-8.816
				c1.857-4.826,2.732-11.371,0.51-15.111c-0.984-1.656-2.516-2.666-4.428-2.918c-3.566-0.468-5.119,1.226-6.619,2.865
				c-0.801,0.873-1.66,1.813-2.967,2.641c-0.715,0.454-1.564,0.875-2.613,1.234c-0.621,0.213-1.309,0.406-2.082,0.57
				c-0.285,0.059-0.563,0.119-0.832,0.184c-0.178,0.377-0.283,0.814-0.283,1.285c0,0.59,0.164,1.131,0.434,1.563
				c0.389-0.098,0.809-0.193,1.262-0.293c0.824-0.174,1.574-0.379,2.256-0.607c1.105-0.371,2.041-0.801,2.844-1.262
				c1.92-1.1,3.088-2.379,4.047-3.422c1.377-1.505,2.068-2.259,4.188-1.979c1.072,0.141,1.83,0.641,2.385,1.57
				c1.656,2.785,0.895,8.482-0.717,12.67c-1.059,2.75-2.465,7.896,0.008,11.432c1.527,2.186,4.174,3.262,7.84,3.193
				c8.643-0.154,11.955-2.613,13.213-4.648c1.232-1.998,1.172-4.451-0.182-7.289c-1.707-3.566-2.195-6.297-1.371-7.689
				c0.52-0.879,1.678-1.373,3.443-1.477c3.803-0.219,5.246,0.52,5.502,0.986c0.182,0.332,0.02,1.17-0.973,2.523
				c-1.922,2.623-3.121,4.836-2.721,7.129c0.346,2,1.863,3.814,4.918,5.877c1.811,1.223,2.168,5.076,1.004,10.842
				c-0.406,2.031-0.945,3.986-1.428,5.574h-51.92c-0.051-0.545-0.105-1.088-0.16-1.621c-0.416-3.994-0.742-7.148,2.256-9.783
				c4.805-4.223,2.545-10.271,1.191-13.887c-0.332-0.887-0.615-1.652-0.754-2.229c-0.125-0.529-0.291-1.031-0.436-1.473
				c-0.338-1.029-0.533-1.682-0.301-2.086c0.158-0.275,0.615-0.711,1.889-1.219c-0.332-0.721-0.518-1.537-0.518-2.4
				c0-0.135,0.006-0.271,0.016-0.408c-2.002,0.721-3.201,1.563-3.816,2.629c-0.867,1.51-0.371,3.023,0.068,4.357
				c0.133,0.412,0.271,0.834,0.373,1.25c0.178,0.748,0.49,1.588,0.857,2.563c1.604,4.297,2.684,8.074-0.42,10.801
				c-4.084,3.59-3.631,7.955-3.193,12.176c0.047,0.443,0.094,0.887,0.135,1.334h-3.4c-0.508,0-0.977,0.277-1.225,0.717l-4.07,7.281
				c-0.244,0.434-0.238,0.965,0.014,1.393c0.25,0.428,0.711,0.691,1.207,0.691h71.57c0.496,0,0.957-0.264,1.207-0.691
				c0.252-0.428,0.258-0.959,0.016-1.391V910.24z M1026.035,909.521l2.504-4.477h2.727c0,0.414-0.014,0.824-0.043,1.234
				c-0.057,0.771,0.521,1.443,1.293,1.502c0.773,0.059,1.443-0.52,1.504-1.291c0.035-0.486,0.051-0.967,0.051-1.443h50.863
				c-0.186,0.521-0.301,0.824-0.305,0.834c-0.277,0.725,0.08,1.533,0.805,1.814c0.166,0.061,0.336,0.092,0.502,0.092
				c0.563,0,1.096-0.342,1.311-0.896c0.027-0.072,0.287-0.754,0.654-1.842h2.443l2.492,4.475h-66.801V909.521z"/>
		</g>
		<g id="Yellow_10_">
			<path fill="#FAC80E" d="M1054.605,890.883l-4.736-12.301c-0.58-1.506-2.092-2.377-3.625-2.217l-1.643-4.402
				c1.281-0.959,2.127-2.584,2.127-4.424c0-0.201-0.012-0.4-0.031-0.598c-0.803,0.461-1.738,0.893-2.844,1.26
				c-0.232,1.074-1.014,1.867-1.939,1.867c-0.643,0-1.211-0.379-1.58-0.967c-0.27-0.43-0.432-0.973-0.432-1.563
				c0-0.467,0.104-0.906,0.281-1.283c0.352-0.744,0.994-1.244,1.73-1.244c0.441,0,0.85,0.184,1.182,0.49
				c1.047-0.359,1.898-0.781,2.613-1.234c-0.881-1.252-2.256-2.058-3.795-2.058c-2.531,0-4.611,2.173-4.801,4.921
				c-0.01,0.137-0.016,0.271-0.016,0.408c0,0.865,0.188,1.68,0.516,2.4c0.795,1.738,2.424,2.934,4.297,2.934
				c0.012,0,0.023,0,0.035,0l1.771,4.74c-0.854,0.947-1.158,2.324-0.668,3.594l4.736,12.299c0.693,1.801,2.717,2.697,4.516,2.004
				l0.297-0.113c1.799-0.693,2.697-2.715,2.004-4.514H1054.605z"/>
		</g>
		<path fill="#06371C" d="M1029.836,920.064l-0.004,9.32h-1.699l-4.051-5.861l-0.064-0.004v5.863l-1.973,0.004l0.006-9.32
			l1.723,0.006l4.023,5.852l0.084-0.002l-0.012-5.85L1029.836,920.064z M1034.607,929.518c-0.717-0.002-1.324-0.154-1.855-0.436
			c-0.52-0.293-0.91-0.709-1.184-1.254c-0.281-0.535-0.428-1.166-0.416-1.912c-0.012-0.713,0.137-1.348,0.414-1.891
			s0.676-0.969,1.18-1.27c0.504-0.303,1.096-0.449,1.787-0.453c0.459-0.002,0.889,0.07,1.287,0.221
			c0.395,0.148,0.754,0.361,1.043,0.66c0.307,0.291,0.539,0.66,0.703,1.107c0.162,0.449,0.244,0.965,0.254,1.553l-0.008,0.539
			l-5.896,0.002l0.008-1.207h4.07c-0.002-0.275-0.066-0.52-0.178-0.742c-0.125-0.213-0.301-0.377-0.514-0.502
			c-0.213-0.123-0.463-0.182-0.738-0.188c-0.293,0-0.559,0.074-0.781,0.209c-0.223,0.131-0.395,0.307-0.527,0.541
			c-0.121,0.219-0.197,0.475-0.195,0.75l-0.006,1.145c0.006,0.342,0.064,0.641,0.195,0.891c0.133,0.252,0.311,0.449,0.551,0.584
			c0.238,0.135,0.518,0.203,0.85,0.197c0.211,0.004,0.402-0.023,0.588-0.09c0.174-0.053,0.322-0.143,0.463-0.273
			c0.125-0.121,0.215-0.264,0.283-0.441l1.797,0.113c-0.098,0.434-0.279,0.809-0.561,1.129c-0.283,0.322-0.639,0.566-1.08,0.746
			C1035.695,929.426,1035.189,929.514,1034.607,929.518z M1039.084,929.375l-0.002-6.988l1.873,0.004l0.002,1.217l0.08-0.004
			c0.123-0.43,0.336-0.758,0.627-0.973c0.305-0.23,0.648-0.34,1.045-0.346c0.102,0,0.197,0.012,0.309,0.023
			c0.113,0.014,0.209,0.029,0.305,0.045l-0.008,1.723c-0.082-0.033-0.207-0.057-0.369-0.08c-0.162-0.018-0.311-0.025-0.439-0.027
			c-0.293,0.002-0.545,0.063-0.77,0.189c-0.217,0.117-0.391,0.287-0.529,0.51c-0.125,0.217-0.184,0.465-0.191,0.754v3.957
			L1039.084,929.375z M1051.045,922.383l-2.436,6.986h-2.184l-2.451-6.98l2.055-0.006l1.441,5.004l0.082-0.004l1.438-4.996
			L1051.045,922.383z M1055,929.502c-0.717-0.004-1.338-0.146-1.855-0.438c-0.518-0.293-0.912-0.709-1.193-1.246
			c-0.287-0.531-0.418-1.178-0.422-1.91c0.006-0.723,0.139-1.348,0.416-1.893c0.275-0.541,0.674-0.967,1.178-1.271
			c0.508-0.299,1.111-0.457,1.787-0.451c0.461,0,0.889,0.074,1.287,0.223c0.412,0.139,0.754,0.361,1.045,0.658
			c0.305,0.293,0.539,0.662,0.701,1.109c0.176,0.439,0.262,0.953,0.254,1.555l0.008,0.527l-5.896,0.002l-0.008-1.195l4.072-0.002
			c-0.002-0.275-0.055-0.531-0.178-0.744c-0.127-0.211-0.289-0.387-0.514-0.498c-0.211-0.125-0.447-0.193-0.738-0.189
			c-0.295,0.002-0.545,0.064-0.781,0.203c-0.225,0.135-0.395,0.313-0.529,0.545c-0.119,0.219-0.182,0.467-0.193,0.75l0.008,1.137
			c-0.012,0.35,0.066,0.641,0.184,0.902c0.129,0.248,0.322,0.438,0.549,0.58c0.238,0.139,0.518,0.205,0.85,0.199
			c0.211,0.002,0.402-0.023,0.588-0.088c0.186-0.066,0.336-0.156,0.463-0.277c0.125-0.119,0.215-0.264,0.281-0.439l1.801,0.111
			c-0.1,0.436-0.283,0.811-0.563,1.133c-0.283,0.32-0.639,0.564-1.082,0.746C1056.074,929.416,1055.568,929.504,1055,929.502z
			 M1067.512,922.727c-0.027-0.373-0.197-0.648-0.467-0.857c-0.268-0.207-0.65-0.303-1.131-0.299
			c-0.314-0.002-0.58,0.039-0.809,0.135c-0.215,0.084-0.383,0.207-0.504,0.365c-0.119,0.16-0.168,0.334-0.176,0.537
			c-0.008,0.168,0.029,0.313,0.111,0.432c0.07,0.131,0.184,0.236,0.311,0.332c0.145,0.084,0.303,0.162,0.477,0.23
			c0.189,0.057,0.373,0.115,0.574,0.162l0.832,0.201c0.414,0.086,0.793,0.207,1.129,0.359c0.336,0.15,0.633,0.336,0.871,0.564
			c0.258,0.217,0.455,0.473,0.584,0.779c0.141,0.299,0.211,0.643,0.209,1.033c0.012,0.563-0.146,1.064-0.426,1.479
			c-0.283,0.412-0.703,0.744-1.24,0.971c-0.535,0.229-1.189,0.348-1.945,0.346c-0.74-0.008-1.402-0.117-1.961-0.348
			c-0.557-0.229-0.982-0.574-1.295-1.025c-0.313-0.453-0.473-1.018-0.494-1.684l1.908-0.004c0.025,0.311,0.105,0.578,0.268,0.781
			c0.162,0.207,0.375,0.363,0.641,0.473c0.277,0.096,0.57,0.156,0.922,0.148c0.32,0.008,0.617-0.047,0.867-0.145
			c0.248-0.096,0.43-0.225,0.578-0.406c0.133-0.172,0.203-0.373,0.201-0.592c0-0.211-0.061-0.389-0.195-0.523
			c-0.121-0.145-0.291-0.271-0.527-0.371c-0.234-0.098-0.529-0.186-0.861-0.271l-1.014-0.254c-0.783-0.193-1.408-0.486-1.857-0.896
			c-0.465-0.398-0.68-0.953-0.688-1.633c0.004-0.572,0.148-1.059,0.445-1.48c0.314-0.426,0.738-0.754,1.266-0.99
			c0.531-0.236,1.141-0.357,1.816-0.355c0.691,0,1.297,0.117,1.816,0.352c0.52,0.236,0.916,0.568,1.207,0.99
			c0.291,0.418,0.438,0.906,0.445,1.463L1067.512,922.727z M1070.82,931.979l-0.006-9.605h1.91l0.01,1.168h0.086
			c0.08-0.186,0.199-0.375,0.361-0.568c0.16-0.193,0.379-0.365,0.643-0.498c0.252-0.125,0.58-0.193,0.977-0.195
			c0.506,0.004,0.977,0.137,1.41,0.398c0.434,0.264,0.773,0.664,1.035,1.193c0.26,0.527,0.387,1.199,0.389,1.996
			c-0.002,0.781-0.133,1.443-0.375,1.973c-0.258,0.539-0.592,0.939-1.027,1.219c-0.422,0.273-0.895,0.406-1.436,0.412
			c-0.377,0.002-0.695-0.063-0.951-0.189c-0.271-0.121-0.484-0.275-0.654-0.459c-0.158-0.199-0.289-0.391-0.379-0.582h-0.061
			l0.016,3.73L1070.82,931.979z M1072.719,925.859c-0.002,0.42,0.059,0.779,0.17,1.092c0.109,0.313,0.275,0.553,0.498,0.725
			c0.223,0.166,0.488,0.25,0.803,0.248c0.314,0.002,0.574-0.082,0.791-0.252c0.229-0.186,0.383-0.418,0.502-0.734
			c0.117-0.313,0.168-0.666,0.176-1.08c-0.004-0.398-0.059-0.754-0.168-1.061c-0.123-0.303-0.287-0.541-0.498-0.721
			c-0.221-0.172-0.488-0.256-0.807-0.256c-0.313,0-0.588,0.088-0.809,0.256c-0.205,0.16-0.375,0.398-0.496,0.709
			C1072.775,925.088,1072.711,925.449,1072.719,925.859z M1078.932,929.348l-0.016-6.977l1.947-0.008l0.002,6.986L1078.932,929.348z
			 M1079.887,921.469c-0.289,0.004-0.527-0.1-0.74-0.285c-0.199-0.195-0.299-0.43-0.297-0.703c-0.01-0.258,0.1-0.492,0.303-0.686
			c0.205-0.189,0.451-0.287,0.744-0.291c0.277,0.006,0.529,0.098,0.729,0.297c0.215,0.184,0.311,0.418,0.307,0.686
			c-0.002,0.273-0.096,0.498-0.299,0.691C1080.428,921.369,1080.182,921.467,1079.887,921.469z M1082.416,929.348l-0.014-6.975
			l1.885-0.008l0.002,1.215l0.066,0.006c0.137-0.438,0.352-0.768,0.641-0.982c0.305-0.229,0.648-0.338,1.047-0.342
			c0.086,0.006,0.195,0.01,0.307,0.023c0.113,0.01,0.211,0.027,0.305,0.043l-0.006,1.723c-0.086-0.031-0.221-0.049-0.383-0.07
			c-0.162-0.02-0.299-0.035-0.441-0.029c-0.279-0.008-0.529,0.055-0.756,0.182c-0.229,0.123-0.406,0.295-0.529,0.512
			c-0.123,0.215-0.197,0.473-0.191,0.754l0.002,3.953L1082.416,929.348z M1089.438,929.482c-0.441-0.002-0.834-0.08-1.189-0.23
			c-0.344-0.162-0.627-0.389-0.82-0.701c-0.209-0.303-0.309-0.689-0.311-1.148c0.002-0.391,0.072-0.715,0.223-0.984
			c0.135-0.26,0.34-0.479,0.572-0.631c0.244-0.162,0.535-0.291,0.84-0.365c0.318-0.084,0.654-0.148,0.992-0.174
			c0.408-0.047,0.738-0.086,0.984-0.123s0.436-0.1,0.537-0.17c0.113-0.074,0.178-0.193,0.18-0.344l-0.014-0.018
			c0.008-0.295-0.082-0.518-0.273-0.668c-0.172-0.162-0.418-0.248-0.754-0.244c-0.355,0.004-0.635,0.084-0.844,0.242
			c-0.193,0.143-0.332,0.334-0.404,0.568l-1.781-0.152c0.084-0.42,0.256-0.783,0.523-1.092c0.268-0.314,0.623-0.559,1.037-0.719
			c0.424-0.174,0.912-0.258,1.479-0.26c0.381,0.002,0.748,0.051,1.104,0.141c0.357,0.09,0.682,0.227,0.961,0.416
			c0.277,0.189,0.492,0.441,0.656,0.736c0.164,0.297,0.242,0.652,0.236,1.072l0.002,4.713l-1.828-0.002v-0.973l-0.061,0.004
			c-0.117,0.223-0.26,0.412-0.443,0.572c-0.197,0.17-0.422,0.301-0.676,0.389C1090.094,929.432,1089.791,929.477,1089.438,929.482z
			 M1090,928.141c0.277,0.006,0.529-0.053,0.748-0.164c0.23-0.125,0.396-0.273,0.518-0.467c0.119-0.191,0.193-0.418,0.191-0.662
			l-0.008-0.738c-0.057,0.037-0.139,0.07-0.24,0.104c-0.104,0.033-0.229,0.064-0.357,0.09c-0.131,0.027-0.262,0.049-0.393,0.072
			c-0.133,0.02-0.25,0.035-0.348,0.043c-0.229,0.033-0.439,0.096-0.6,0.164c-0.164,0.068-0.303,0.17-0.402,0.301
			c-0.086,0.117-0.133,0.266-0.131,0.445c-0.006,0.27,0.09,0.469,0.291,0.605C1089.451,928.076,1089.705,928.141,1090,928.141z
			 M1096.82,920.023l-0.006,9.322l-1.934-0.004l-0.008-9.311L1096.82,920.023z"/>
	</g>
	<g>
		<g id="Cirkel_7_">
			<path fill="#FFFFFF" d="M251.194,701.648L251.194,701.648c31.627,0,57.266,25.639,57.266,57.264v0.002
				c0,31.625-25.639,57.264-57.265,57.264h-0.001c-31.627,0-57.264-25.639-57.264-57.264v-0.002
				C193.931,727.287,219.567,701.648,251.194,701.648z"/>
		</g>
		<g id="Color_7_">
			<path fill="#A4709D" d="M291.496,748.123l-25.235-25.236c-0.367-0.367-0.851-0.551-1.332-0.551c-0.48,0-0.964,0.184-1.33,0.551
				l-12.403,12.4l2.184,2.184l11.552-11.555l23.538,23.537l-13.357,13.357c-2.662-0.488-5.603-1.27-8.631-2.285l2.125-0.816
				c0.796-0.303,1.193-1.197,0.887-1.99c-0.305-0.797-1.197-1.193-1.991-0.889l-5.451,2.094c-0.74,0.285-1.146,1.082-0.936,1.848
				l1.676,6.1c0.187,0.686,0.809,1.133,1.487,1.133c0.134,0,0.272-0.019,0.408-0.055c0.823-0.227,1.306-1.074,1.08-1.895
				l-0.761-2.77c2.466,0.846,5.013,1.584,7.495,2.141l-7.569,7.568l-11.552-11.553l-2.184,2.181l12.403,12.403
				c0.366,0.367,0.85,0.551,1.33,0.551c0.481,0,0.965-0.184,1.332-0.551l9.913-9.916c1.626,0.238,3.188,0.374,4.632,0.374
				c3.363,0,6.109-0.716,7.633-2.472c1.831-2.107,1.678-5.166-0.455-9.092c-0.073-0.133-0.164-0.25-0.266-0.355l3.778-3.775
				C292.231,750.053,292.231,748.859,291.496,748.123L291.496,748.123z M286.111,761.988c-0.991,1.14-3.578,1.621-7.158,1.342
				l6.535-6.537C286.4,758.578,287.15,760.789,286.111,761.988z"/>
		</g>
		<g id="Yellow_7_">
			<path fill="#FAC80E" d="M264.03,748.123l-10.651-10.652l-2.184-2.184l-12.4-12.4c-0.735-0.734-1.93-0.734-2.665,0l-9.914,9.912
				c3.575,0.523,7.469,1.557,11.173,2.824l-0.763-2.77c-0.227-0.822,0.258-1.67,1.08-1.895c0.822-0.227,1.671,0.256,1.895,1.078
				l1.674,6.1c0.212,0.766-0.193,1.563-0.935,1.848l-5.45,2.092c-0.183,0.07-0.367,0.105-0.552,0.105
				c-0.62,0-1.203-0.377-1.44-0.992c-0.306-0.795,0.092-1.686,0.887-1.99l2.126-0.816c-4.258-1.43-8.353-2.39-11.723-2.736
				c-0.255-0.025-0.506-0.049-0.751-0.068l-6.535,6.535l0,0l-2.231,2.234l0,0l-3.778,3.775c-0.734,0.736-0.734,1.93,0,2.666
				l25.235,25.236c0.736,0.734,1.931,0.734,2.665,0l12.402-12.403l2.181-2.181l10.652-10.652c0.735-0.736,0.735-1.93,0-2.666H264.03
				z"/>
		</g>
		<g id="color__2_">
			<path fill="#A4709D" d="M239.601,732.041c-0.227-0.823-1.075-1.307-1.895-1.08c-0.822,0.226-1.307,1.074-1.08,1.895l0.763,2.77
				c-9.313-3.191-19.82-4.896-23.437-0.728c-1.832,2.11-1.678,5.169,0.454,9.094c0.074,0.133,0.164,0.251,0.266,0.353l2.233-2.232
				c-0.914-1.783-1.664-3.992-0.623-5.193c1.058-1.219,3.939-1.684,7.906-1.275c3.373,0.35,7.465,1.309,11.723,2.738l-2.125,0.814
				c-0.796,0.307-1.191,1.199-0.887,1.994c0.237,0.613,0.82,0.988,1.44,0.988c0.184,0,0.372-0.031,0.552-0.102l5.45-2.092
				c0.741-0.287,1.146-1.084,0.936-1.851l-1.675-6.099L239.601,732.041z"/>
		</g>
		<path fill="#06371C" d="M211.473,784.665l-0.002-1.667l7.853-0.006l0.002,1.668l-2.921,0.011l0.009,7.897l-2.002-0.006
			l-0.008-7.895L211.473,784.665z M220.591,792.561l-0.011-7.18l1.994,0.008l0.003,7.164L220.591,792.561z M221.58,784.465
			c-0.299-0.01-0.546-0.096-0.759-0.294c-0.207-0.198-0.308-0.431-0.312-0.712c-0.003-0.279,0.106-0.506,0.308-0.713
			c0.215-0.195,0.473-0.291,0.762-0.297c0.3,0.005,0.544,0.096,0.755,0.293c0.213,0.2,0.323,0.445,0.319,0.709
			c0.002,0.279-0.099,0.521-0.314,0.717C222.126,784.36,221.882,784.467,221.58,784.465z M227.413,792.691
			c-0.735-0.003-1.363-0.148-1.896-0.465c-0.531-0.32-0.934-0.754-1.22-1.311c-0.271-0.547-0.422-1.201-0.415-1.918
			c-0.004-0.734,0.141-1.376,0.416-1.938c0.293-0.553,0.699-0.986,1.226-1.293c0.52-0.322,1.147-0.479,1.866-0.486
			c0.634,0.01,1.182,0.124,1.646,0.342c0.472,0.229,0.847,0.551,1.122,0.965c0.266,0.4,0.426,0.891,0.451,1.438h-1.881
			c-0.051-0.355-0.191-0.646-0.417-0.855c-0.219-0.215-0.516-0.33-0.883-0.336c-0.31,0-0.58,0.084-0.802,0.262
			c-0.23,0.16-0.413,0.395-0.537,0.721c-0.13,0.311-0.19,0.699-0.19,1.15c0.002,0.457,0.062,0.844,0.188,1.169
			c0.131,0.321,0.309,0.563,0.534,0.729c0.231,0.165,0.504,0.255,0.813,0.253c0.224-0.004,0.433-0.044,0.605-0.143
			c0.188-0.088,0.335-0.231,0.455-0.406c0.125-0.174,0.199-0.398,0.24-0.645l1.88,0.002c-0.033,0.543-0.188,1.021-0.45,1.441
			c-0.27,0.408-0.627,0.746-1.102,0.969C228.602,792.573,228.053,792.697,227.413,792.691z M233.686,790.482l0.003-2.383
			l0.285-0.009l2.299-2.716l2.284,0.002l-3.09,3.596l-0.469,0.002L233.686,790.482z M231.886,792.545l-0.013-9.563l1.996,0.008
			v9.549L231.886,792.545z M236.365,792.543l-2.106-3.113l1.314-1.42l3.12,4.526L236.365,792.543z M242.506,792.676
			c-0.738-0.002-1.37-0.145-1.902-0.441c-0.527-0.299-0.937-0.73-1.227-1.283c-0.287-0.557-0.433-1.214-0.423-1.957
			c-0.012-0.748,0.136-1.392,0.424-1.941c0.282-0.566,0.685-1,1.211-1.303c0.518-0.318,1.133-0.472,1.829-0.48
			c0.48,0.009,0.924,0.088,1.327,0.234c0.41,0.148,0.77,0.373,1.076,0.678c0.309,0.301,0.544,0.678,0.722,1.141
			c0.163,0.445,0.256,0.986,0.254,1.594l-0.001,0.542l-6.055,0.005l-0.002-1.233l4.18-0.009c0.002-0.285-0.054-0.527-0.185-0.76
			c-0.122-0.217-0.301-0.393-0.511-0.504c-0.22-0.129-0.474-0.19-0.769-0.199c-0.303-0.006-0.567,0.072-0.801,0.212
			c-0.229,0.14-0.414,0.316-0.542,0.557c-0.136,0.223-0.2,0.483-0.2,0.769v1.168c0.006,0.363,0.068,0.664,0.196,0.922
			c0.132,0.256,0.329,0.465,0.568,0.598c0.238,0.139,0.533,0.213,0.865,0.215c0.221-0.002,0.422-0.033,0.604-0.098
			c0.184-0.061,0.344-0.152,0.471-0.285c0.135-0.119,0.234-0.271,0.303-0.451l1.838,0.121c-0.098,0.436-0.286,0.826-0.572,1.156
			c-0.284,0.33-0.665,0.576-1.114,0.762C243.62,792.586,243.096,792.672,242.506,792.676z M250.902,785.359l0.003,1.494
			l-4.323-0.002l-0.001-1.492H250.902z M247.568,783.65l1.985-0.01l0.008,6.688c-0.008,0.18,0.026,0.326,0.087,0.438
			c0.049,0.094,0.133,0.164,0.23,0.205c0.1,0.037,0.221,0.063,0.353,0.055c0.091,0.002,0.19-0.004,0.278-0.023
			c0.092-0.02,0.167-0.029,0.217-0.041l0.318,1.488c-0.103,0.025-0.243,0.062-0.425,0.1c-0.183,0.043-0.401,0.066-0.663,0.076
			c-0.47,0.027-0.896-0.043-1.251-0.182c-0.367-0.154-0.639-0.376-0.842-0.688c-0.194-0.299-0.302-0.699-0.291-1.16L247.568,783.65z
			 M254.909,784.629l-0.001-1.666l7.853-0.006l0.003,1.664l-2.923,0.014v7.883l-1.99,0.01l-0.01-7.896L254.909,784.629z
			 M264.621,792.52l-1.963-7.174l2.021,0.012l1.108,4.807l0.066-0.003l1.155-4.815h1.974l1.179,4.784l0.061,0.003l1.086-4.793h2.009
			l-1.944,7.166l-2.104,0.002l-1.231-4.504L267.946,788l-1.224,4.52H264.621z M274.388,792.514l-0.013-7.18l1.995,0.008l0.003,7.166
			L274.388,792.514z M275.379,784.414c-0.299-0.006-0.546-0.094-0.76-0.287c-0.21-0.199-0.321-0.449-0.312-0.716
			c-0.005-0.276,0.104-0.505,0.306-0.712c0.215-0.193,0.462-0.302,0.762-0.297c0.301,0.008,0.547,0.097,0.756,0.297
			c0.211,0.193,0.315,0.424,0.318,0.705c0.002,0.281-0.097,0.523-0.314,0.719C275.925,784.314,275.678,784.422,275.379,784.414z
			 M283.933,787.382l-1.823,0.106c-0.03-0.151-0.1-0.299-0.201-0.42c-0.104-0.121-0.236-0.225-0.406-0.301
			c-0.167-0.077-0.362-0.111-0.599-0.123c-0.31,0.004-0.564,0.074-0.778,0.199c-0.212,0.126-0.309,0.31-0.312,0.523
			c0.003,0.174,0.063,0.303,0.2,0.422c0.139,0.119,0.373,0.215,0.706,0.285l1.298,0.258c0.706,0.156,1.219,0.381,1.564,0.702
			c0.335,0.308,0.51,0.724,0.511,1.241c0.002,0.475-0.141,0.881-0.411,1.244c-0.279,0.348-0.65,0.629-1.127,0.833
			c-0.485,0.187-1.028,0.288-1.651,0.291c-0.953-0.005-1.701-0.192-2.272-0.596c-0.554-0.388-0.887-0.935-0.985-1.621l1.96-0.099
			c0.054,0.285,0.2,0.508,0.425,0.654c0.234,0.16,0.518,0.224,0.877,0.229c0.347-0.003,0.627-0.071,0.842-0.2
			c0.205-0.146,0.323-0.314,0.325-0.531c-0.002-0.172-0.083-0.33-0.233-0.443c-0.146-0.111-0.38-0.209-0.69-0.271l-1.236-0.242
			c-0.698-0.133-1.23-0.393-1.571-0.734c-0.33-0.334-0.501-0.773-0.506-1.313c0.002-0.457,0.121-0.865,0.372-1.191
			c0.254-0.326,0.603-0.595,1.064-0.77c0.45-0.187,0.983-0.277,1.601-0.277c0.902-0.002,1.613,0.189,2.141,0.578
			C283.534,786.19,283.836,786.713,283.933,787.382z M289.152,785.324v1.493l-4.312,0.013v-1.494L289.152,785.324z M285.817,783.615
			l1.984-0.009l0.007,6.687c0.006,0.189,0.027,0.326,0.09,0.436c0.051,0.092,0.132,0.168,0.23,0.207
			c0.099,0.037,0.221,0.059,0.352,0.055c0.094-0.002,0.19-0.002,0.279-0.023c0.095-0.021,0.167-0.031,0.214-0.043l0.32,1.49
			c-0.101,0.025-0.242,0.061-0.424,0.1c-0.182,0.041-0.401,0.066-0.652,0.09c-0.481,0.015-0.907-0.057-1.264-0.197
			c-0.354-0.139-0.638-0.375-0.841-0.686c-0.191-0.299-0.29-0.686-0.289-1.161L285.817,783.615z"/>
	</g>
	<g>
		<g id="Cirkel_5_">
			<path fill="#FFFFFF" d="M332.162,462.229h0.003c32.412,0,58.687,26.275,58.687,58.687v0.001
				c0,32.412-26.274,58.686-58.687,58.686h-0.003c-32.411,0-58.686-26.274-58.686-58.686v-0.001
				C273.477,488.504,299.751,462.229,332.162,462.229z"/>
		</g>
		<g id="Color_5_">
			<path fill="#A4709D" d="M359.506,479.653h-52.945c-3.836,0-6.958,3.122-6.958,6.958v50.806c0,0.705,0.572,1.277,1.275,1.277
				c0.704,0,1.276-0.573,1.276-1.277v-19.519h4.947v12.224c0,0.705,0.571,1.276,1.275,1.276s1.275-0.571,1.275-1.276v-38.938
				c0-1.361,1.107-2.468,2.469-2.468h41.823c1.36,0,2.467,1.107,2.467,2.468v38.938c0,0.705,0.572,1.276,1.276,1.276
				c0.703,0,1.275-0.571,1.275-1.276v-12.224h4.948v19.519c0,0.705,0.572,1.277,1.274,1.277c0.704,0,1.276-0.573,1.276-1.277
				v-50.806c0-3.836-3.121-6.958-6.958-6.958H359.506z M362.88,483.781c0.644,0.765,1.033,1.754,1.033,2.83v11.463l-4.947,1.939
				v-8.829c0-1.14-0.383-2.191-1.024-3.034L362.88,483.781z M331.686,486.163h-9.436l-1.96-3.958h11.396V486.163z M334.309,482.205
				h11.396l-1.961,3.958h-9.436V482.205z M307.102,500.04l-4.947-1.938v-11.49c0-1.058,0.375-2.032,1-2.793l4.938,4.37
				c-0.622,0.837-0.993,1.874-0.993,2.995v8.857H307.102z M302.154,515.344v-14.502l4.947,1.939v12.563H302.154z M310.127,486.575
				l-4.758-4.208c0.381-0.105,0.778-0.163,1.191-0.163h10.882l1.96,3.958h-7.281c-0.708,0-1.383,0.147-1.996,0.415L310.127,486.575z
				 M346.593,486.161l1.96-3.959h10.953c0.392,0,0.772,0.053,1.134,0.149l-4.746,4.204c-0.601-0.252-1.257-0.394-1.948-0.394
				H346.593L346.593,486.161z M358.966,515.341V502.75l4.947-1.938v14.529H358.966z"/>
		</g>
		<g id="Yellow_5_">
			<g>
				<path fill="#FAC80E" d="M342.703,484.36c-1.64,0.72-3.768,4.484-4.924,6.57c-1.155,2.086-2.501,5.042-6.13,4.703
					c-3.63-0.338-5.867-5.574-9.596-5.542c-3.729,0.03-2.05,2.617-0.451,3.865c1.6,1.245,5.378,4.178,5.515,7.627
					c0.139,3.451-0.323,7.18,0.793,10.989c1.116,3.811,3.788,8.417,5.267,9.315c1.478,0.898,2.224,1.188,3.426,0.583
					c1.204-0.603,1.267-2.364,0.416-4.045c-1.433-2.836-4.639-3.648-4.936-8.842c-0.097-1.691,1.406-3.932,2.96-2.188
					c1.557,1.747,4.107,3.734,7.996,3.959c3.886,0.225,6.599,0.381,6.602-2.049c0-2.428-4.203-2.175-6.891-2.555
					c-2.689-0.382-5.216-2.423-5.646-5.142c-0.443-2.798,2.704-7.432,3.97-9.302c1.267-1.872,3.424-4.108,3.882-5.499
					c0.455-1.392-0.045-3.414-2.248-2.444L342.703,484.36z"/>
				<circle fill="#FAC80E" cx="332.063" cy="490.964" r="3.701"/>
			</g>
		</g>
		<g>
			<path fill="#06371C" d="M289.908,542.902l2.742-0.002l2.881,7.061l0.114,0.006l2.914-7.067l2.719,0.007l0.001,10.505l-2.15-0.002
				l0.015-6.841l-0.088-0.002l-2.723,6.788l-1.469,0.002l-2.718-6.813h-0.086l-0.003,6.861l-2.15,0.003L289.908,542.902z
				 M306.633,553.565c-0.793-0.003-1.489-0.166-2.063-0.509c-0.578-0.347-1.013-0.824-1.342-1.43
				c-0.326-0.603-0.472-1.316-0.463-2.125c0.002-0.818,0.143-1.524,0.466-2.136c0.32-0.615,0.763-1.088,1.346-1.427
				c0.583-0.342,1.27-0.511,2.064-0.511c0.792,0.003,1.487,0.169,2.064,0.511c0.575,0.342,1.013,0.823,1.34,1.427
				c0.301,0.614,0.475,1.321,0.47,2.136c-0.007,0.812-0.148,1.513-0.471,2.127c-0.321,0.61-0.764,1.083-1.346,1.427
				C308.114,553.397,307.426,553.567,306.633,553.565z M306.645,551.87c0.366,0,0.663-0.097,0.909-0.305
				c0.246-0.21,0.434-0.497,0.556-0.856c0.122-0.358,0.171-0.758,0.19-1.225c-0.005-0.457-0.072-0.864-0.202-1.221
				c-0.106-0.366-0.29-0.649-0.549-0.852c-0.236-0.213-0.538-0.319-0.903-0.316c-0.369-0.003-0.664,0.099-0.935,0.316
				c-0.245,0.212-0.433,0.496-0.555,0.854c-0.121,0.357-0.17,0.759-0.166,1.216c-0.021,0.467,0.046,0.872,0.179,1.23
				c0.126,0.354,0.312,0.641,0.546,0.854C305.977,551.766,306.277,551.873,306.645,551.87z M314.129,548.854l-0.015,4.559
				l-2.178-0.002l0.007-7.886l2.069,0.009l-0.007,1.396l0.112-0.008c0.164-0.458,0.457-0.816,0.871-1.085
				c0.397-0.263,0.899-0.404,1.492-0.404c0.538,0.002,1.018,0.124,1.434,0.358c0.392,0.246,0.713,0.586,0.938,1.03
				c0.224,0.442,0.344,0.965,0.333,1.581l0.02,5.01l-2.203,0.005l0.007-4.63c0.011-0.483-0.124-0.856-0.359-1.133
				c-0.261-0.269-0.604-0.404-1.031-0.407c-0.309,0.008-0.563,0.065-0.792,0.192c-0.224,0.126-0.397,0.313-0.516,0.551
				C314.19,548.224,314.121,548.52,314.129,548.854z M322.895,551.147l-0.002-2.617l0.336-0.009l2.519-2.989l2.516-0.002
				l-3.387,3.959l-0.536,0.007L322.895,551.147z M320.928,553.408l0.003-10.506l2.176,0.002l0.002,10.506L320.928,553.408z
				 M325.85,553.412l-2.315-3.437l1.44-1.538l3.425,4.977L325.85,553.412z M332.595,553.565c-0.818,0.002-1.515-0.157-2.086-0.495
				c-0.598-0.325-1.033-0.797-1.357-1.4c-0.303-0.614-0.477-1.326-0.478-2.158c0.005-0.813,0.17-1.524,0.491-2.141
				c0.299-0.603,0.737-1.077,1.319-1.426c0.58-0.345,1.243-0.511,2.03-0.519c0.511,0.005,1,0.089,1.442,0.256
				c0.442,0.169,0.838,0.416,1.178,0.747c0.347,0.328,0.592,0.752,0.783,1.251c0.195,0.497,0.286,1.083,0.297,1.75l-0.013,0.605
				l-6.648-0.006l-0.005-1.348l4.604-0.005c0.005-0.318-0.062-0.591-0.199-0.839c-0.135-0.243-0.333-0.429-0.591-0.559
				c-0.231-0.146-0.514-0.211-0.825-0.211c-0.338,0-0.622,0.07-0.891,0.229c-0.244,0.146-0.436,0.348-0.579,0.605
				c-0.142,0.251-0.213,0.53-0.219,0.844l-0.018,1.297c0.004,0.384,0.092,0.713,0.221,1.004c0.154,0.283,0.362,0.499,0.63,0.653
				c0.267,0.154,0.583,0.234,0.95,0.234c0.228,0.005,0.466-0.036,0.662-0.102c0.196-0.066,0.376-0.176,0.516-0.309
				c0.138-0.13,0.259-0.305,0.341-0.507l2.009,0.136c-0.095,0.483-0.304,0.909-0.623,1.273c-0.319,0.359-0.729,0.642-1.236,0.843
				C333.821,553.461,333.243,553.565,332.595,553.565z M338.76,556.375c-0.258-0.011-0.521-0.03-0.768-0.073
				c-0.242-0.038-0.436-0.094-0.604-0.154l0.492-1.633c0.262,0.078,0.503,0.116,0.706,0.122c0.2,0.015,0.38-0.037,0.532-0.14
				c0.151-0.101,0.271-0.272,0.387-0.527l0.109-0.323l-2.81-8.115l2.291,0.007l1.635,5.784l0.086-0.002l1.644-5.786l2.294,0.011
				l-3.052,8.726c-0.155,0.424-0.354,0.795-0.61,1.11c-0.23,0.309-0.544,0.556-0.947,0.734
				C339.769,556.287,339.298,556.375,338.76,556.375z M345.93,553.415l0.002-10.508l2.181,0.008v3.947l0.057,0.005
				c0.104-0.215,0.235-0.428,0.419-0.651c0.186-0.223,0.442-0.412,0.717-0.553c0.301-0.148,0.665-0.221,1.117-0.225
				c0.566,0.004,1.11,0.144,1.582,0.45c0.5,0.292,0.872,0.75,1.166,1.35c0.296,0.595,0.432,1.351,0.435,2.252
				c-0.005,0.883-0.132,1.615-0.426,2.228c-0.271,0.596-0.66,1.058-1.143,1.366c-0.489,0.308-1.014,0.46-1.635,0.465
				c-0.424,0.002-0.768-0.073-1.08-0.207c-0.291-0.145-0.537-0.317-0.72-0.536c-0.18-0.215-0.333-0.43-0.432-0.647l-0.084-0.005
				l-0.004,1.264L345.93,553.415z M348.061,549.481c0.007,0.461,0.074,0.872,0.201,1.221c0.127,0.352,0.306,0.627,0.561,0.816
				c0.254,0.188,0.551,0.284,0.893,0.29c0.365-0.006,0.663-0.098,0.914-0.295c0.248-0.202,0.416-0.464,0.541-0.818
				c0.151-0.358,0.204-0.759,0.199-1.213c0.02-0.463-0.048-0.865-0.169-1.208c-0.15-0.336-0.329-0.61-0.581-0.797
				c-0.234-0.205-0.531-0.303-0.898-0.301c-0.366,0.002-0.665,0.096-0.893,0.277c-0.256,0.192-0.447,0.462-0.575,0.809
				C348.122,548.605,348.076,549.005,348.061,549.481z M357.309,553.569c-0.507,0-0.943-0.092-1.332-0.266
				c-0.391-0.182-0.704-0.441-0.941-0.783c-0.236-0.343-0.347-0.783-0.349-1.297c0.003-0.438,0.091-0.813,0.245-1.104
				c0.174-0.304,0.383-0.538,0.67-0.724c0.261-0.176,0.591-0.319,0.947-0.414c0.354-0.092,0.721-0.15,1.104-0.186
				c0.46-0.047,0.833-0.096,1.101-0.132c0.291-0.048,0.489-0.11,0.618-0.201c0.133-0.087,0.19-0.209,0.197-0.379l-0.012-0.026
				c-0.001-0.324-0.089-0.583-0.304-0.754c-0.193-0.184-0.486-0.269-0.857-0.269c-0.393,0.002-0.697,0.083-0.93,0.26
				c-0.233,0.175-0.394,0.386-0.475,0.648l-2.024-0.161c0.099-0.478,0.309-0.896,0.606-1.245c0.298-0.348,0.687-0.618,1.169-0.81
				c0.479-0.193,1.03-0.288,1.653-0.282c0.451-0.009,0.87,0.042,1.256,0.15c0.414,0.102,0.768,0.263,1.088,0.472
				c0.32,0.214,0.559,0.492,0.738,0.835c0.175,0.337,0.27,0.734,0.279,1.203l-0.013,5.315h-2.066l-0.006-1.091l-0.056-0.002
				c-0.119,0.24-0.303,0.466-0.505,0.648c-0.224,0.193-0.472,0.333-0.768,0.44C358.052,553.514,357.705,553.565,357.309,553.569z
				 M357.941,552.057c0.313,0.004,0.596-0.06,0.852-0.187c0.251-0.132,0.428-0.303,0.584-0.525c0.13-0.218,0.193-0.463,0.208-0.745
				l-0.003-0.836c-0.064,0.043-0.162,0.086-0.284,0.126c-0.126,0.036-0.252,0.068-0.383,0.091c-0.157,0.033-0.313,0.064-0.446,0.078
				c-0.159,0.027-0.291,0.048-0.399,0.059c-0.263,0.039-0.492,0.101-0.682,0.181c-0.188,0.081-0.338,0.194-0.446,0.334
				c-0.109,0.137-0.149,0.304-0.167,0.517c0.017,0.29,0.118,0.521,0.332,0.678C357.313,551.985,357.604,552.062,357.941,552.057z
				 M363.438,553.421l0.008-7.879h2.121l-0.011,1.377h0.086c0.148-0.494,0.383-0.858,0.724-1.112
				c0.338-0.254,0.733-0.383,1.161-0.376c0.113-0.002,0.229,0.01,0.374,0.017c0.12,0.016,0.239,0.03,0.334,0.05l-0.013,1.949
				c-0.099-0.033-0.252-0.057-0.431-0.082c-0.18-0.022-0.331-0.039-0.498-0.034c-0.313-0.005-0.592,0.059-0.843,0.2
				c-0.251,0.136-0.447,0.33-0.615,0.584c-0.121,0.236-0.195,0.52-0.22,0.854l0.002,4.458L363.438,553.421z"/>
			<path fill="#06371C" d="M375.512,547.735l-2.001,0.117c-0.033-0.167-0.109-0.327-0.223-0.461
				c-0.112-0.133-0.258-0.247-0.444-0.33c-0.182-0.087-0.398-0.123-0.656-0.135c-0.341,0.002-0.621,0.081-0.854,0.218
				c-0.233,0.138-0.341,0.34-0.344,0.575c0.003,0.191,0.07,0.332,0.221,0.463c0.151,0.13,0.409,0.237,0.775,0.313l1.425,0.283
				c0.774,0.171,1.338,0.417,1.719,0.772c0.366,0.337,0.558,0.794,0.561,1.362c0.002,0.521-0.155,0.967-0.452,1.366
				c-0.308,0.38-0.714,0.689-1.238,0.914c-0.53,0.205-1.129,0.317-1.813,0.319c-1.046-0.005-1.868-0.209-2.494-0.652
				c-0.607-0.427-0.975-1.028-1.083-1.781l2.153-0.107c0.059,0.313,0.219,0.558,0.466,0.718c0.258,0.175,0.567,0.246,0.963,0.252
				c0.381-0.004,0.688-0.078,0.923-0.22c0.227-0.161,0.354-0.346,0.358-0.583c-0.002-0.19-0.092-0.364-0.255-0.487
				c-0.161-0.123-0.419-0.229-0.761-0.298l-1.356-0.267c-0.766-0.146-1.352-0.43-1.727-0.805c-0.36-0.367-0.549-0.85-0.555-1.441
				c0.003-0.502,0.134-0.951,0.408-1.309c0.279-0.358,0.662-0.651,1.169-0.845c0.496-0.204,1.08-0.305,1.757-0.305
				c0.991-0.002,1.773,0.208,2.351,0.636C375.074,546.426,375.407,547,375.512,547.735z"/>
		</g>
	</g>
	<g>
		<g id="Cirkel_3_">
			<path fill="#FFFFFF" d="M536.421,656.938h0.002c29.736,0,53.841,24.105,53.841,53.84v0.004c0,29.734-24.104,53.84-53.841,53.84
				h-0.002c-29.735,0-53.84-24.105-53.84-53.84v-0.004C482.581,681.043,506.686,656.938,536.421,656.938z"/>
		</g>
		<g id="Color_3_">
			<path fill="#A4709D" d="M573.628,723.639c0.017-0.029,0.031-0.063,0.043-0.092c0.005-0.016,0.014-0.029,0.019-0.045
				c0.014-0.041,0.029-0.081,0.039-0.123c0-0.006,0.003-0.014,0.003-0.019c0.013-0.05,0.022-0.099,0.03-0.151
				c0-0.008,0-0.018,0.003-0.027c0.002-0.039,0.007-0.08,0.007-0.121c0-0.013,0-0.029,0-0.043c0-0.037-0.002-0.072-0.007-0.109
				c0-0.016,0-0.031-0.003-0.045c-0.004-0.037-0.011-0.074-0.019-0.109c-0.004-0.014-0.007-0.029-0.01-0.043
				c-0.01-0.051-0.024-0.1-0.041-0.148l-13.95-37.826c-0.029-0.166-0.087-0.322-0.169-0.46l-4.503-12.21
				c-0.021-0.06-0.048-0.116-0.077-0.172c-0.004-0.012-0.014-0.023-0.021-0.035c-0.029-0.055-0.063-0.105-0.102-0.152
				c0,0-0.001-0.002-0.003-0.005c-0.04-0.048-0.078-0.091-0.122-0.136c-0.008-0.008-0.018-0.018-0.025-0.025
				c-0.044-0.041-0.092-0.078-0.141-0.111c-0.007-0.004-0.012-0.01-0.021-0.016c-0.045-0.027-0.091-0.057-0.138-0.08
				c-0.012-0.004-0.022-0.012-0.033-0.018c-0.053-0.025-0.108-0.047-0.165-0.066c-0.012-0.004-0.021-0.008-0.034-0.01
				c-0.054-0.016-0.11-0.031-0.168-0.039c-0.004,0-0.01-0.002-0.015-0.004c-0.063-0.01-0.128-0.014-0.19-0.016
				c-0.004,0-0.01,0-0.015,0H519.93c0,0-0.011,0-0.014,0c-0.064,0-0.13,0.006-0.193,0.016c-0.003,0-0.006,0-0.01,0.002
				c-0.061,0.008-0.116,0.022-0.175,0.039c-0.011,0.004-0.019,0.008-0.03,0.01c-0.059,0.018-0.112,0.043-0.168,0.066
				c-0.009,0.006-0.021,0.012-0.031,0.016c-0.048,0.025-0.096,0.053-0.139,0.084c-0.007,0.003-0.015,0.008-0.021,0.013
				c-0.049,0.035-0.097,0.073-0.14,0.114c-0.007,0.008-0.017,0.018-0.025,0.023c-0.043,0.043-0.084,0.086-0.121,0.135
				c0,0,0,0.003-0.001,0.006c-0.039,0.049-0.072,0.1-0.104,0.152c-0.007,0.014-0.013,0.025-0.02,0.037
				c-0.029,0.055-0.057,0.112-0.078,0.168l-18.622,50.498c-0.018,0.051-0.032,0.1-0.044,0.148c-0.003,0.014-0.005,0.026-0.008,0.042
				c-0.008,0.036-0.014,0.073-0.02,0.11c-0.002,0.014-0.003,0.031-0.003,0.045c-0.004,0.037-0.007,0.074-0.007,0.109
				c0,0.014,0,0.029,0,0.043c0,0.043,0.005,0.082,0.008,0.121c0,0.012,0,0.02,0.002,0.028c0.008,0.052,0.017,0.101,0.029,0.149
				c0,0.008,0.004,0.016,0.005,0.02c0.013,0.042,0.026,0.081,0.039,0.121c0.006,0.017,0.011,0.031,0.02,0.047
				c0.014,0.031,0.026,0.061,0.042,0.092c0.007,0.017,0.015,0.032,0.022,0.045c0.02,0.037,0.038,0.068,0.059,0.1
				c0.008,0.008,0.011,0.016,0.016,0.023c0,0.002,0.004,0.004,0.005,0.006c0.028,0.043,0.061,0.082,0.095,0.119
				c0.004,0.006,0.01,0.01,0.013,0.014c0.031,0.031,0.062,0.064,0.095,0.092c0.009,0.012,0.021,0.02,0.03,0.027
				c0.028,0.025,0.056,0.047,0.087,0.069c0.012,0.009,0.024,0.019,0.037,0.026c0.031,0.019,0.062,0.037,0.092,0.054
				c0.013,0.009,0.026,0.017,0.042,0.024c0.034,0.016,0.068,0.031,0.104,0.047c0.011,0.004,0.022,0.01,0.035,0.017
				c0.001,0,0.003,0,0.004,0c0.045,0.019,0.09,0.032,0.133,0.044c0.013,0,0.021,0.004,0.034,0.006
				c0.038,0.01,0.079,0.018,0.119,0.022c0.012,0,0.021,0.005,0.031,0.005c0.05,0.006,0.102,0.01,0.15,0.01h0.004h22.196
				c0,0,0,0,0.003,0c0,0,0.001,0,0.002,0h26.703c0,0,0.001,0,0.005,0c0,0,0,0,0.001,0h22.196c0,0,0.002,0,0.003,0
				c0.05,0,0.102-0.004,0.15-0.01c0.012,0,0.023-0.002,0.032-0.005c0.04-0.005,0.082-0.013,0.12-0.021
				c0.011-0.002,0.021-0.004,0.031-0.008c0.048-0.012,0.091-0.025,0.135-0.041c0,0,0.003,0,0.006-0.003
				c0.011-0.003,0.021-0.009,0.034-0.013c0.035-0.017,0.07-0.033,0.104-0.049c0.013-0.008,0.026-0.016,0.042-0.023
				c0.032-0.016,0.063-0.035,0.091-0.057c0.013-0.006,0.025-0.016,0.038-0.024c0.03-0.022,0.059-0.044,0.089-0.067
				c0.011-0.01,0.019-0.018,0.031-0.028c0.032-0.03,0.064-0.06,0.091-0.091c0.006-0.008,0.012-0.012,0.016-0.017
				c0.033-0.036,0.065-0.077,0.096-0.117c0-0.003,0.002-0.005,0.004-0.007c0.007-0.008,0.01-0.016,0.014-0.023
				c0.021-0.031,0.042-0.064,0.061-0.098c0.009-0.016,0.015-0.031,0.023-0.047H573.628z M528.685,699.916l2.238-13.594h11.881
				l2.237,13.594H528.685L528.685,699.916z M545.487,702.625l3.136,19.051h-23.52l3.136-19.051H545.487z M540.758,673.891
				l1.602,9.721H531.37l1.603-9.721h7.787H540.758z M552.856,673.891l3.585,9.721h-11.337l-1.602-9.721H552.856L552.856,673.891z
				 M528.624,683.611h-11.338l3.585-9.721h9.354L528.624,683.611L528.624,683.611z M516.288,686.322h11.89l-2.238,13.594h-14.664
				L516.288,686.322L516.288,686.322z M545.551,686.322h11.889l5.013,13.594h-14.665L545.551,686.322z M508.167,708.34l2.124-5.761
				c0.112,0.03,0.229,0.046,0.35,0.046h14.853l-3.137,19.051h-19.107l4.916-13.336H508.167z M551.37,721.676l-3.136-19.051h14.875
				c0.113,0,0.223-0.014,0.327-0.039l0.975,2.641l6.066,16.449H551.37L551.37,721.676z"/>
		</g>
		<g id="Yellow_3_">
			<path fill="#FAC80E" d="M568.466,683.826c-4.987,1.141-18.771,4.293-22.062,5.045c-0.281,0.063-0.509-0.229-0.376-0.486
				c0.576-1.117,1.784-3.447,2.679-5.176c0.146-0.283-0.143-0.594-0.435-0.468c-1.674,0.72-5.275,2.271-6.44,2.771
				c-0.193,0.084-0.413-0.027-0.463-0.232c-0.407-1.734-2.05-8.736-2.743-11.654c-0.081-0.342-0.563-0.352-0.656-0.012
				c-1.084,3.961-2.762,9.838-3.243,11.521c-0.064,0.227-0.335,0.32-0.525,0.18l-17.06-12.402c-0.287-0.209-0.661,0.109-0.5,0.428
				l7.412,14.615c0.102,0.199-0.013,0.441-0.232,0.486c-2.254,0.469-12.681,2.635-16.559,3.443
				c-0.353,0.074-0.362,0.576-0.012,0.662c5.174,1.27,13.134,3.223,15.097,3.705c0.224,0.055,0.327,0.309,0.206,0.504l-7.622,12.488
				c-0.188,0.308,0.169,0.656,0.474,0.463c3.365-2.156,12.567-8.049,14.802-9.479c0.222-0.143,0.511,0.008,0.524,0.271
				c0.246,5.256,0.492,10.459,0.735,15.658c0.019,0.362,0.512,0.449,0.651,0.117l6.15-14.583c0.09-0.214,0.364-0.278,0.537-0.126
				c1.894,1.668,10.967,9.646,16.479,14.495c0.267,0.235,0.669-0.044,0.542-0.374c-1.512-3.974-6.11-15.994-6.836-17.891
				c-0.057-0.147-0.004-0.316,0.128-0.402c1.889-1.248,15.053-9.938,19.609-12.953c0.315-0.209,0.104-0.697-0.265-0.613
				L568.466,683.826z"/>
		</g>
		<path fill="#06371C" d="M503.694,732.703l2.588,0.018l2.708,6.648l0.123,0.01l2.738-6.645l2.572-0.006l-0.017,9.895l-2.03-0.005
			l0.014-6.436l-0.087-0.007l-2.565,6.395l-1.38,0.003l-2.556-6.429l-0.084-0.006l-0.012,6.466l-2.015,0.019L503.694,732.703z
			 M516.097,742.631l0.018-7.412l2.052-0.01l-0.019,7.416L516.097,742.631z M517.14,734.25c-0.296,0.01-0.565-0.1-0.784-0.303
			c-0.221-0.211-0.326-0.463-0.315-0.732c-0.006-0.295,0.107-0.527,0.315-0.738c0.232-0.191,0.488-0.305,0.786-0.314
			c0.314,0.016,0.579,0.127,0.783,0.312c0.219,0.208,0.334,0.457,0.337,0.745c-0.011,0.271-0.11,0.536-0.342,0.725
			C517.712,734.156,517.456,734.268,517.14,734.25z M521.862,738.343l0.002,4.306l-2.064-0.018l0.017-7.417l1.952-0.005l0.014,1.328
			l0.071-0.016c0.179-0.418,0.449-0.766,0.829-1.025c0.398-0.24,0.865-0.369,1.407-0.379c0.518,0,0.966,0.117,1.349,0.344
			c0.383,0.223,0.691,0.564,0.9,0.977c0.208,0.412,0.308,0.898,0.314,1.482l-0.007,4.732l-2.065-0.014l0.018-4.346
			c-0.002-0.459-0.113-0.809-0.35-1.068c-0.235-0.26-0.566-0.396-0.971-0.377c-0.274-0.006-0.528,0.041-0.729,0.178
			c-0.213,0.11-0.376,0.285-0.502,0.506C521.938,737.768,521.88,738.038,521.862,738.343z M531.647,742.799
			c-0.764,0.006-1.423-0.157-1.973-0.464c-0.544-0.315-0.961-0.745-1.256-1.325c-0.299-0.576-0.448-1.258-0.448-2.037
			c0.008-0.758,0.146-1.441,0.448-2.006c0.307-0.574,0.726-1.021,1.255-1.352c0.546-0.309,1.178-0.482,1.913-0.467
			c0.483-0.01,0.937,0.07,1.362,0.234c0.43,0.162,0.801,0.396,1.111,0.705c0.313,0.305,0.555,0.693,0.746,1.182
			c0.172,0.467,0.249,1.002,0.257,1.65l-0.003,0.557l-6.261,0.002l0.002-1.274l4.323-0.006c0.002-0.294-0.057-0.55-0.191-0.782
			c-0.13-0.232-0.308-0.408-0.539-0.545c-0.229-0.137-0.479-0.189-0.79-0.205c-0.302,0.016-0.586,0.074-0.818,0.236
			c-0.24,0.133-0.428,0.328-0.571,0.559c-0.128,0.25-0.209,0.5-0.21,0.795L530,739.469c0.013,0.381,0.075,0.697,0.212,0.965
			c0.134,0.262,0.321,0.457,0.576,0.612c0.256,0.149,0.545,0.21,0.903,0.226c0.227,0.006,0.431-0.037,0.625-0.104
			c0.188-0.063,0.356-0.146,0.496-0.275c0.12-0.148,0.232-0.293,0.307-0.471l1.904,0.125c-0.096,0.459-0.3,0.856-0.602,1.192
			c-0.299,0.339-0.681,0.601-1.149,0.792C532.81,742.721,532.26,742.805,531.647,742.799z M539.58,742.666l0.017-9.898l6.559,0.021
			l0.002,1.729l-4.471-0.023l0.012,2.376l4.02,0.008v1.727l-4.037-0.029l0.004,4.107L539.58,742.666z M547.51,742.691l0.017-7.416
			l2.054-0.008l-0.021,7.414L547.51,742.691z M548.556,734.305c-0.299,0.012-0.567-0.098-0.787-0.305
			c-0.222-0.211-0.328-0.459-0.318-0.73c-0.003-0.291,0.107-0.529,0.318-0.737c0.229-0.194,0.486-0.306,0.788-0.317
			c0.312,0.019,0.578,0.125,0.778,0.314c0.221,0.207,0.334,0.457,0.338,0.748c-0.011,0.265-0.111,0.533-0.339,0.723
			C549.126,734.209,548.868,734.322,548.556,734.305z M554.593,742.842c-0.76,0.002-1.42-0.166-1.97-0.471
			c-0.546-0.313-0.961-0.744-1.258-1.32c-0.299-0.578-0.447-1.258-0.447-2.043c0.005-0.754,0.162-1.418,0.452-2.004
			c0.301-0.57,0.72-1.019,1.25-1.348c0.548-0.316,1.173-0.486,1.913-0.471c0.48-0.006,0.938,0.07,1.364,0.236
			c0.43,0.162,0.798,0.396,1.11,0.703c0.313,0.305,0.558,0.693,0.745,1.186c0.171,0.465,0.265,1.021,0.259,1.646l-0.005,0.559
			h-6.262l0.006-1.277l4.317-0.002c0.005-0.295-0.054-0.55-0.186-0.781c-0.132-0.234-0.307-0.412-0.538-0.545
			c-0.229-0.135-0.484-0.189-0.774-0.182c-0.321-0.01-0.605,0.055-0.837,0.211c-0.241,0.139-0.428,0.33-0.572,0.559
			c-0.128,0.249-0.207,0.501-0.209,0.797l0.008,1.231c0,0.362,0.061,0.675,0.198,0.942c0.134,0.266,0.337,0.483,0.581,0.611
			c0.251,0.154,0.559,0.236,0.896,0.234c0.232,0,0.434-0.037,0.623-0.104c0.188-0.07,0.361-0.152,0.5-0.281
			c0.12-0.146,0.235-0.288,0.31-0.475l1.899,0.129c-0.092,0.457-0.294,0.857-0.597,1.195c-0.299,0.336-0.682,0.6-1.149,0.789
			C555.754,742.76,555.208,742.844,554.593,742.842z M561.428,732.826l-0.017,9.895l-2.066-0.016l0.018-9.895L561.428,732.826z
			 M565.791,742.838c-0.569,0-1.073-0.141-1.538-0.445c-0.445-0.277-0.807-0.715-1.071-1.281c-0.266-0.568-0.391-1.266-0.4-2.105
			c0-0.846,0.15-1.543,0.419-2.117c0.269-0.572,0.635-0.989,1.092-1.273c0.456-0.281,0.952-0.426,1.506-0.414
			c0.417,0.004,0.759,0.068,1.033,0.205c0.291,0.154,0.513,0.328,0.685,0.535c0.174,0.209,0.304,0.414,0.396,0.611l0.061-0.008
			l0.002-3.719l2.063,0.01l-0.02,9.9l-2.031-0.006l-0.008-1.202l-0.089-0.005c-0.083,0.227-0.227,0.42-0.396,0.63
			c-0.18,0.192-0.412,0.354-0.695,0.479C566.533,742.789,566.181,742.828,565.791,742.838z M566.451,741.211
			c0.329,0,0.609-0.094,0.831-0.277c0.229-0.195,0.41-0.443,0.537-0.762c0.119-0.344,0.189-0.717,0.181-1.17
			c0.011-0.432-0.048-0.814-0.177-1.146c-0.114-0.313-0.3-0.582-0.525-0.751c-0.229-0.171-0.516-0.265-0.847-0.265
			c-0.335,0.002-0.617,0.096-0.862,0.265c-0.225,0.188-0.404,0.442-0.516,0.779c-0.126,0.314-0.188,0.683-0.196,1.11
			c0.014,0.451,0.077,0.831,0.183,1.151c0.127,0.336,0.307,0.604,0.527,0.776C565.827,741.117,566.097,741.189,566.451,741.211z"/>
	</g>
	<g>
		<g id="Cirkel_2_">
			<path fill="#FFFFFF" d="M1076.619,536.418h0.002c34.172,0,61.877,27.704,61.877,61.878v0.002
				c0,34.174-27.705,61.877-61.877,61.877h-0.002c-34.176,0-61.879-27.703-61.879-61.877v-0.002
				C1014.74,564.123,1042.443,536.418,1076.619,536.418z"/>
		</g>
		<g id="Color_2_">
			<path fill="#A4709D" d="M1118.311,598.559l-4.643-8.338c-0.273-0.492-0.793-0.799-1.357-0.799h-72.682
				c-0.564,0-1.084,0.307-1.361,0.797l-4.662,8.34c-0.27,0.48-0.264,1.07,0.016,1.547c0.279,0.475,0.789,0.768,1.342,0.768h10.289
				c-0.682,1.055-1.076,2.311-1.076,3.656c0,3.734,3.035,6.77,6.77,6.77c3.732,0,6.77-3.035,6.77-6.77
				c0-1.346-0.398-2.6-1.076-3.656h5.285c-0.68,1.055-1.074,2.311-1.074,3.656c0,3.734,3.035,6.77,6.77,6.77
				c3.73,0,6.768-3.035,6.768-6.77c0-1.346-0.396-2.6-1.074-3.656h5.283c-0.68,1.055-1.076,2.311-1.076,3.656
				c0,3.734,3.037,6.77,6.77,6.77c3.734,0,6.77-3.035,6.77-6.77c0-1.346-0.398-2.6-1.076-3.656h5.285
				c-0.682,1.055-1.076,2.311-1.076,3.656c0,3.734,3.035,6.77,6.77,6.77c3.732,0,6.768-3.035,6.768-6.77
				c0-1.346-0.396-2.6-1.074-3.656h10.287c0.551,0,1.064-0.293,1.342-0.768c0.279-0.477,0.287-1.066,0.018-1.547H1118.311z
				 M1054.604,604.529c0,2.016-1.641,3.656-3.656,3.656c-2.018,0-3.656-1.639-3.656-3.656c0-2.016,1.639-3.656,3.656-3.656
				C1052.963,600.873,1054.604,602.514,1054.604,604.529z M1071.277,604.529c0,2.016-1.641,3.656-3.658,3.656
				c-2.016,0-3.654-1.639-3.654-3.656c0-2.016,1.639-3.656,3.654-3.656C1069.637,600.873,1071.277,602.514,1071.277,604.529z
				 M1087.949,604.529c0,2.016-1.639,3.656-3.656,3.656c-2.016,0-3.656-1.639-3.656-3.656c0-2.016,1.641-3.656,3.656-3.656
				C1086.311,600.873,1087.949,602.514,1087.949,604.529z M1104.623,604.529c0,2.016-1.639,3.656-3.656,3.656
				s-3.656-1.639-3.656-3.656c0-2.016,1.639-3.656,3.656-3.656S1104.623,602.514,1104.623,604.529z M1037.621,597.76l2.922-5.223
				h70.852l2.908,5.223H1037.621L1037.621,597.76z"/>
		</g>
		<g id="Yellow_2_">
			<g>
				<circle fill="#FAC80E" cx="1081.559" cy="556.676" r="4.868"/>
				<path fill="#FAC80E" d="M1070.574,562.255c3.006,2.418,2.844,4.738,2.309,8.292c-0.533,3.554-1.006,8.649-4.324,12.916
					c-3.318,4.266-6.16,10.365-3.91,11.729c2.252,1.361,4.621,0.355,5.57-1.895c0.947-2.252,5.518-10.7,6.041-12.795
					c1.064-4.265,4.029,3.438,3.91,6.161c-0.119,2.725-3.318,7.404,0,8.65c3.318,1.244,4.266-3.438,5.213-6.99
					c0.947-3.555-2.607-9.834-2.846-12.204c-0.236-2.368-1.053-9.049,2.5-9.285c3.555-0.238,11.598-1.141,11.48-5.17
					c-0.117-4.03-7.463,0.592-10.07,0.947c-2.605,0.355-5.924,0.83-9.123-0.947c-3.197-1.777-9.596-10.309-11.846-8.41
					c-2.252,1.894,1.055,5.754,5.096,9.004V562.255z"/>
			</g>
		</g>
		<path fill="#06371C" d="M1039.66,624.039l-2.043-0.014c-0.033-0.26-0.109-0.492-0.223-0.699s-0.266-0.393-0.445-0.539
			c-0.178-0.145-0.385-0.252-0.623-0.338c-0.229-0.07-0.479-0.107-0.754-0.111c-0.492,0.002-0.924,0.121-1.291,0.363
			c-0.369,0.242-0.656,0.59-0.855,1.064c-0.207,0.455-0.303,1.023-0.314,1.674c0.002,0.688,0.098,1.25,0.303,1.721
			c0.199,0.455,0.486,0.811,0.857,1.053c0.355,0.23,0.785,0.354,1.27,0.361c0.264-0.012,0.518-0.037,0.748-0.107
			c0.234-0.072,0.434-0.186,0.623-0.307c0.172-0.154,0.326-0.314,0.445-0.514c0.121-0.201,0.209-0.42,0.256-0.674l2.031,0.004
			c-0.053,0.438-0.184,0.865-0.396,1.268c-0.211,0.4-0.49,0.766-0.848,1.078c-0.344,0.328-0.773,0.566-1.254,0.76
			c-0.488,0.18-1.031,0.275-1.645,0.271c-0.854-0.004-1.611-0.195-2.279-0.584c-0.67-0.391-1.199-0.953-1.578-1.674
			c-0.385-0.734-0.574-1.617-0.57-2.65c0-1.049,0.201-1.928,0.588-2.666c0.396-0.723,0.932-1.273,1.604-1.654
			c0.674-0.379,1.428-0.57,2.264-0.574c0.553,0.002,1.068,0.09,1.539,0.242c0.473,0.154,0.895,0.385,1.252,0.674
			c0.369,0.305,0.672,0.672,0.895,1.09C1039.447,622.99,1039.594,623.479,1039.66,624.039z M1041.047,630.236l0.02-7.156l1.926,0.01
			v1.25l0.07-0.004c0.131-0.447,0.355-0.777,0.662-1c0.303-0.238,0.66-0.35,1.059-0.348c0.107,0.01,0.207,0.004,0.328,0.027
			c0.111,0.008,0.211,0.025,0.297,0.047l-0.004,1.758c-0.09-0.023-0.223-0.055-0.385-0.07c-0.158-0.018-0.318-0.037-0.449-0.029
			c-0.297-0.01-0.553,0.059-0.781,0.189c-0.234,0.111-0.412,0.289-0.543,0.518c-0.129,0.225-0.199,0.475-0.197,0.773l-0.016,4.045
			L1041.047,630.236z M1049.316,630.41c-0.725-0.01-1.352-0.166-1.873-0.469c-0.527-0.322-0.926-0.744-1.215-1.303
			c-0.285-0.561-0.422-1.197-0.426-1.941c0.008-0.73,0.146-1.385,0.432-1.938c0.291-0.551,0.699-0.98,1.225-1.285
			c0.529-0.305,1.158-0.455,1.875-0.461c0.729,0.008,1.354,0.164,1.871,0.469c0.531,0.318,0.934,0.744,1.219,1.303
			c0.285,0.557,0.422,1.197,0.426,1.941c-0.008,0.73-0.154,1.369-0.441,1.922c-0.289,0.553-0.688,0.996-1.217,1.303
			C1050.662,630.254,1050.037,630.404,1049.316,630.41z M1049.332,628.867c0.33,0.004,0.604-0.09,0.822-0.277
			c0.225-0.186,0.383-0.453,0.502-0.771c0.111-0.334,0.172-0.697,0.168-1.119c0.01-0.408-0.047-0.777-0.16-1.104
			c-0.113-0.33-0.277-0.586-0.502-0.781c-0.215-0.184-0.492-0.285-0.822-0.291c-0.334-0.002-0.609,0.098-0.84,0.287
			c-0.225,0.188-0.395,0.441-0.506,0.773c-0.117,0.322-0.17,0.699-0.176,1.105c0.002,0.424,0.055,0.791,0.168,1.121
			c0.115,0.328,0.283,0.582,0.508,0.777C1048.715,628.766,1048.998,628.865,1049.332,628.867z M1055.361,630.285l-1.93-7.166
			l2.012,0.014l1.096,4.809h0.063l1.17-4.801l1.971,0.002l1.152,4.773h0.059l1.105-4.777l2.01,0.018l-1.973,7.139h-2.094
			l-1.221-4.508h-0.088l-1.238,4.5L1055.361,630.285z M1067.559,630.432c-0.547-0.004-1.039-0.146-1.477-0.424
			c-0.436-0.281-0.783-0.699-1.035-1.238c-0.258-0.561-0.379-1.227-0.381-2.033c0.008-0.811,0.137-1.498,0.404-2.037
			c0.26-0.557,0.619-0.953,1.059-1.217c0.436-0.285,0.918-0.42,1.451-0.408c0.4,0,0.73,0.068,0.994,0.199
			c0.271,0.143,0.488,0.303,0.648,0.502c0.174,0.211,0.301,0.408,0.387,0.596h0.061l0.014-3.582l1.975,0.002l-0.027,9.537
			l-1.959-0.006v-1.152l-0.078,0.012c-0.092,0.199-0.227,0.389-0.398,0.586c-0.172,0.189-0.387,0.352-0.662,0.473
			C1068.271,630.371,1067.949,630.439,1067.559,630.432z M1068.189,628.85c0.324,0.01,0.592-0.084,0.816-0.25
			c0.219-0.184,0.396-0.422,0.512-0.742c0.121-0.318,0.184-0.686,0.188-1.107c0.002-0.428-0.057-0.793-0.178-1.115
			c-0.113-0.311-0.289-0.557-0.504-0.719c-0.229-0.174-0.496-0.26-0.824-0.27c-0.316,0.006-0.598,0.09-0.816,0.273
			c-0.229,0.168-0.395,0.422-0.518,0.721c-0.113,0.316-0.172,0.68-0.168,1.1c-0.006,0.406,0.049,0.777,0.164,1.102
			c0.115,0.311,0.283,0.563,0.504,0.742C1067.588,628.76,1067.867,628.859,1068.189,628.85z M1081.531,623.568
			c-0.035-0.381-0.201-0.678-0.479-0.877c-0.287-0.217-0.664-0.314-1.15-0.318c-0.33-0.004-0.611,0.037-0.83,0.141
			c-0.229,0.088-0.406,0.205-0.531,0.367c-0.119,0.16-0.178,0.342-0.17,0.557c-0.008,0.168,0.02,0.309,0.098,0.439
			c0.08,0.129,0.191,0.238,0.33,0.328c0.137,0.092,0.309,0.182,0.488,0.248c0.18,0.063,0.375,0.117,0.582,0.162l0.855,0.207
			c0.422,0.105,0.799,0.223,1.145,0.381c0.348,0.152,0.646,0.344,0.906,0.578c0.25,0.217,0.449,0.492,0.588,0.803
			c0.145,0.309,0.219,0.664,0.215,1.051c-0.006,0.588-0.156,1.092-0.449,1.523c-0.299,0.416-0.717,0.752-1.268,0.992
			c-0.555,0.221-1.219,0.334-1.994,0.336c-0.77,0-1.443-0.125-2.01-0.357c-0.566-0.236-1.012-0.592-1.328-1.049
			c-0.32-0.477-0.477-1.041-0.496-1.734l1.955,0.014c0.018,0.311,0.107,0.576,0.268,0.793c0.166,0.211,0.385,0.373,0.654,0.48
			c0.283,0.115,0.588,0.158,0.941,0.17c0.342-0.002,0.635-0.053,0.887-0.154c0.258-0.092,0.451-0.236,0.592-0.41
			c0.145-0.176,0.213-0.381,0.215-0.607c-0.002-0.217-0.064-0.398-0.189-0.541c-0.121-0.139-0.313-0.279-0.555-0.381
			c-0.23-0.092-0.529-0.197-0.873-0.279l-1.041-0.264c-0.805-0.199-1.439-0.51-1.896-0.918c-0.469-0.42-0.695-0.977-0.689-1.686
			c-0.008-0.58,0.148-1.088,0.461-1.516c0.316-0.428,0.746-0.768,1.293-1.008c0.551-0.238,1.17-0.357,1.867-0.354
			c0.707,0,1.324,0.125,1.848,0.367c0.539,0.25,0.949,0.588,1.244,1.023c0.291,0.43,0.436,0.922,0.451,1.496L1081.531,623.568z
			 M1089.486,627.336l0.016-4.104l1.977-0.004l-0.02,7.154l-1.904-0.004l0.008-1.295l-0.08-0.01
			c-0.16,0.428-0.426,0.764-0.807,1.014c-0.371,0.262-0.828,0.381-1.361,0.387c-0.482-0.01-0.902-0.117-1.266-0.342
			c-0.359-0.207-0.646-0.525-0.846-0.918c-0.207-0.41-0.307-0.891-0.303-1.438l0.01-4.564l1.99,0.01l-0.016,4.203
			c0.002,0.422,0.113,0.754,0.332,0.994c0.229,0.252,0.527,0.379,0.902,0.379c0.24,0.002,0.461-0.061,0.674-0.16
			c0.205-0.113,0.371-0.283,0.504-0.492C1089.424,627.924,1089.49,627.656,1089.486,627.336z M1093.049,630.389l0.021-7.152
			l1.928,0.012l-0.004,1.252l0.07-0.006c0.129-0.447,0.354-0.775,0.664-1c0.301-0.236,0.656-0.35,1.059-0.35
			c0.096-0.002,0.205,0.006,0.322,0.027c0.113,0.008,0.213,0.025,0.301,0.049l-0.004,1.758c-0.09-0.021-0.223-0.055-0.385-0.072
			c-0.17-0.029-0.316-0.031-0.457-0.043c-0.287,0.008-0.545,0.074-0.785,0.191c-0.225,0.127-0.4,0.303-0.533,0.529
			c-0.139,0.211-0.203,0.475-0.205,0.76l-0.008,4.061L1093.049,630.389z M1102.641,623.266v1.494l-4.418-0.012l0.004-1.496
			L1102.641,623.266z M1099.215,630.41l0.027-7.664c0-0.521,0.102-0.953,0.307-1.289c0.199-0.354,0.486-0.598,0.84-0.771
			c0.352-0.168,0.758-0.252,1.209-0.246c0.295-0.012,0.58,0.023,0.826,0.064c0.26,0.051,0.447,0.092,0.572,0.129l-0.361,1.488
			c-0.078-0.029-0.174-0.047-0.289-0.074c-0.107-0.008-0.225-0.033-0.346-0.035c-0.289,0.006-0.488,0.078-0.604,0.213
			c-0.125,0.123-0.178,0.316-0.178,0.563l-0.02,7.635L1099.215,630.41z M1103.838,630.432l0.021-7.156h1.977l-0.02,7.152
			L1103.838,630.432z M1104.85,622.346c-0.291,0.006-0.541-0.09-0.756-0.289c-0.201-0.193-0.314-0.443-0.307-0.711
			c-0.004-0.279,0.104-0.512,0.311-0.709c0.211-0.197,0.471-0.287,0.762-0.293c0.299,0.008,0.545,0.104,0.75,0.295
			c0.211,0.201,0.32,0.436,0.322,0.717c-0.008,0.266-0.107,0.516-0.318,0.713C1105.396,622.252,1105.146,622.352,1104.85,622.346z
			 M1109.4,626.307l-0.008,4.141l-1.986-0.01l0.02-7.158l1.896,0.012l-0.008,1.258l0.086,0.002c0.154-0.422,0.426-0.74,0.797-0.986
			c0.375-0.242,0.83-0.361,1.357-0.361c0.496-0.002,0.934,0.115,1.295,0.322c0.369,0.221,0.66,0.535,0.867,0.945
			c0.197,0.393,0.299,0.875,0.301,1.436l-0.016,4.551l-1.986-0.01l0.01-4.205c0.01-0.428-0.105-0.777-0.328-1.018
			c-0.227-0.25-0.537-0.371-0.934-0.377c-0.27-0.002-0.508,0.051-0.713,0.166c-0.201,0.113-0.352,0.291-0.471,0.512
			C1109.467,625.738,1109.408,626,1109.4,626.307z M1118.777,633.301c-0.641-0.004-1.189-0.086-1.65-0.268
			c-0.451-0.172-0.818-0.414-1.094-0.721c-0.26-0.293-0.438-0.637-0.516-1.014l1.83-0.248c0.057,0.146,0.148,0.285,0.27,0.408
			c0.119,0.125,0.277,0.223,0.475,0.297c0.207,0.086,0.453,0.125,0.736,0.121c0.432-0.002,0.785-0.109,1.068-0.314
			c0.285-0.209,0.424-0.561,0.426-1.047l0.004-1.314l-0.08,0.012c-0.084,0.199-0.217,0.385-0.391,0.561
			c-0.176,0.174-0.4,0.322-0.678,0.426c-0.271,0.113-0.6,0.166-0.975,0.168c-0.541-0.006-1.027-0.131-1.473-0.385
			c-0.43-0.244-0.785-0.639-1.045-1.154c-0.254-0.52-0.375-1.164-0.373-1.953c-0.006-0.824,0.131-1.498,0.4-2.037
			c0.268-0.537,0.617-0.949,1.057-1.215c0.438-0.27,0.924-0.404,1.445-0.404c0.402,0,0.734,0.066,1.01,0.211
			c0.266,0.125,0.488,0.305,0.646,0.5c0.166,0.195,0.295,0.395,0.391,0.596l0.068-0.008l0.01-1.195l1.967,0.004l-0.025,7.221
			c-0.002,0.605-0.146,1.123-0.451,1.525c-0.295,0.414-0.707,0.725-1.234,0.928C1120.064,633.205,1119.459,633.299,1118.777,633.301
			z M1118.83,628.869c0.324,0.012,0.596-0.064,0.814-0.23c0.221-0.164,0.4-0.379,0.518-0.68c0.121-0.303,0.182-0.664,0.182-1.088
			c-0.002-0.424-0.051-0.771-0.168-1.08c-0.125-0.32-0.293-0.557-0.518-0.73c-0.225-0.18-0.494-0.26-0.809-0.258
			c-0.334-0.004-0.6,0.092-0.832,0.26c-0.225,0.17-0.389,0.418-0.502,0.732c-0.123,0.305-0.18,0.664-0.182,1.07
			c0.006,0.42,0.055,0.77,0.174,1.076c0.111,0.289,0.279,0.521,0.508,0.697C1118.234,628.795,1118.51,628.879,1118.83,628.869z"/>
	</g>
</g>
</svg>
