<svg width="50" height="50" viewBox="0 0 50 50" fill="none" xmlns="http://www.w3.org/2000/svg">
<rect width="50" height="50" rx="25" fill="white"/>
<g clip-path="url(#clip0_83_1684)">
<path d="M24.9999 41.0555C16.1324 41.0555 8.94434 33.8674 8.94434 24.9999C8.94434 16.1324 16.1324 8.94434 24.9999 8.94434C33.8674 8.94434 41.0555 16.1324 41.0555 24.9999C41.0555 33.8674 33.8674 41.0555 24.9999 41.0555Z" stroke="#313131" stroke-width="2.5" stroke-linecap="round" stroke-linejoin="round"/>
<path d="M24.9999 31.4221C23.2966 31.4221 21.6631 30.7455 20.4587 29.5411M24.9999 31.4221C26.7032 31.4221 28.3367 30.7455 29.5411 29.5411M24.9999 31.4221V41.0555M20.4587 29.5411C19.2543 28.3367 18.5777 26.7032 18.5777 24.9999M20.4587 29.5411L13.647 36.3528M18.5777 24.9999C18.5777 23.2966 19.2543 21.6631 20.4587 20.4587C21.6631 19.2543 23.2966 18.5777 24.9999 18.5777M18.5777 24.9999H8.94434M24.9999 18.5777C26.7032 18.5777 28.3367 19.2543 29.5411 20.4587M24.9999 18.5777V8.94434M29.5411 20.4587C30.7455 21.6631 31.4221 23.2966 31.4221 24.9999M29.5411 20.4587L36.3528 13.647M31.4221 24.9999C31.4221 26.7032 30.7455 28.3367 29.5411 29.5411M31.4221 24.9999H41.0555M29.5411 29.5411L36.3528 36.3528M13.647 13.647L20.4594 20.4562" stroke="#313131" stroke-width="2.5" stroke-linecap="round" stroke-linejoin="round"/>
</g>
<defs>
<clipPath id="clip0_83_1684">
<rect width="36" height="36" fill="white" transform="translate(7 7)"/>
</clipPath>
</defs>
</svg>
