<svg width="165" height="165" viewBox="0 0 165 165" fill="none" xmlns="http://www.w3.org/2000/svg">
<rect width="165" height="165" rx="82.5" fill="white"/>
<path d="M122.123 77.3535C121.937 76.5213 121.551 75.747 120.998 75.0975C120.445 74.4481 119.743 73.943 118.951 73.626L96.5599 64.6704L101.193 33.7785C101.363 32.6692 101.173 31.5346 100.651 30.5411C100.129 29.5476 99.3027 28.7476 98.2928 28.2582C97.2828 27.7689 96.1426 27.6161 95.0395 27.8222C93.9363 28.0283 92.9282 28.5825 92.1631 29.4035L43.1631 81.9035C42.5806 82.5273 42.159 83.2836 41.9347 84.1071C41.7105 84.9305 41.6903 85.7962 41.8761 86.6291C42.0618 87.4621 42.4478 88.2372 43.0006 88.8874C43.5534 89.5376 44.2564 90.0432 45.0487 90.3604L67.4399 99.316L62.8068 130.221C62.6367 131.33 62.8266 132.465 63.3486 133.458C63.8705 134.452 64.6971 135.252 65.7071 135.741C66.717 136.231 67.8572 136.383 68.9604 136.177C70.0636 135.971 71.0717 135.417 71.8368 134.596L120.837 82.096C121.422 81.4704 121.845 80.7112 122.069 79.8846C122.293 79.0579 122.312 78.189 122.123 77.3535ZM75.6999 115.053L78.4431 96.7785C78.6183 95.6089 78.3936 94.4144 77.8052 93.3885C77.2168 92.3625 76.2992 91.5653 75.2012 91.126L56.0737 83.4741L88.2999 48.9467L85.5568 67.221C85.3815 68.3906 85.6063 69.5852 86.1947 70.6111C86.7831 71.637 87.7006 72.4342 88.7987 72.8735L107.926 80.5254L75.6999 115.053Z" fill="#A0ACA7"/>
</svg>
