<svg width="165" height="165" viewBox="0 0 165 165" fill="none" xmlns="http://www.w3.org/2000/svg">
<rect width="165" height="165" rx="82.5" fill="white"/>
<path d="M139.039 72.9877L127.471 49.8783C126.941 48.8119 126.206 47.8603 125.308 47.0781C124.41 46.2958 123.367 45.6983 122.238 45.3195C121.109 44.9408 119.916 44.7883 118.728 44.8708C117.54 44.9532 116.38 45.2691 115.314 45.8002L104.81 51.0519L83.6767 44.2007C82.5862 43.8517 81.414 43.8517 80.3235 44.2007L59.1898 51.0519L48.6864 45.8002C47.6204 45.2691 46.4603 44.9532 45.2722 44.8708C44.0842 44.7883 42.8915 44.9408 41.7624 45.3195C40.6334 45.6983 39.59 46.2958 38.692 47.0781C37.794 47.8603 37.059 48.8119 36.529 49.8783L24.9607 72.9877C24.4296 74.0536 24.1138 75.2138 24.0313 76.4018C23.9488 77.5899 24.1013 78.7825 24.48 79.9116C24.8588 81.0407 25.4564 82.0841 26.2386 82.9821C27.0208 83.88 27.9724 84.6151 29.0389 85.1451L41.1237 91.1897L64.3146 108.141C64.864 108.543 65.4832 108.84 66.1407 109.016L94.2345 116.266C94.6788 116.379 95.1354 116.437 95.5939 116.438C97.0355 116.437 98.4176 115.863 99.4364 114.843L123.28 90.9994L134.984 85.1451C137.134 84.0706 138.769 82.1862 139.53 79.9063C140.29 77.6263 140.114 75.1377 139.039 72.9877ZM112.704 86.1963L100.234 74.4151C99.203 73.4398 97.8316 72.9062 96.4127 72.9282C94.9938 72.9502 93.6396 73.5261 92.6395 74.5329C88.2623 78.9463 81.2842 82.1499 74.1475 78.8602L91.4523 62.0946H101.747L113.442 85.4894L112.704 86.1963ZM45.442 56.3399L51.455 59.3441L41.4862 79.2363L35.4732 76.2321L45.442 56.3399ZM93.9264 104.96L69.87 98.766L50.8387 84.8732L62.5928 61.3832L82.0001 55.0893L82.7659 55.3385L64.7814 72.7929L64.7225 72.8472C63.764 73.8067 63.0332 74.969 62.5837 76.2484C62.1343 77.5279 61.9777 78.8919 62.1256 80.24C62.2734 81.588 62.7219 82.8857 63.438 84.0373C64.1541 85.189 65.1195 86.1652 66.2631 86.8941C75.756 92.9615 87.1068 92.3633 96.3189 85.6571L105.019 93.8813L93.9264 104.96ZM122.473 79.2363L112.504 59.3441L118.517 56.3399L128.464 76.2321L122.473 79.2363ZM77.7181 123.235C77.5396 123.926 77.2267 124.576 76.7972 125.146C76.3677 125.717 75.8299 126.197 75.2148 126.56C74.5996 126.923 73.919 127.161 73.2119 127.26C72.5047 127.36 71.7848 127.319 71.0934 127.141L59.0403 124.028C58.3742 123.856 57.7469 123.559 57.1915 123.153L46.167 115.078C45.0394 114.214 44.2949 112.943 44.0927 111.537C43.8905 110.13 44.2468 108.701 45.0852 107.554C45.9237 106.407 47.1777 105.634 48.579 105.4C49.9803 105.166 51.4175 105.489 52.5832 106.301L62.765 113.742L73.8121 116.592C74.5056 116.77 75.157 117.084 75.7289 117.515C76.3008 117.945 76.7821 118.485 77.145 119.102C77.5079 119.719 77.7454 120.402 77.8437 121.111C77.9421 121.82 77.8994 122.542 77.7181 123.235Z" fill="#313131"/>
</svg>
