<svg width="165" height="165" viewBox="0 0 165 165" fill="none" xmlns="http://www.w3.org/2000/svg">
<rect width="165" height="165" rx="82.5" fill="white"/>
<g clip-path="url(#clip0_83_1655)">
<path d="M131.138 89.429C131.607 97.4988 127.91 105.256 121.298 109.994L125.307 117.751C126.504 120.094 126.661 122.853 125.619 125.3C124.63 127.747 122.6 129.674 120.101 130.507L115.988 131.808C114.275 132.385 112.426 132.42 110.693 131.907C108.96 131.395 107.427 130.36 106.304 128.945L95.2667 115.929C90.6331 115.148 86.2598 113.17 82.5633 110.202C79.9602 110.983 77.357 111.4 74.7539 111.4C70.1723 111.4 65.5908 109.994 61.7381 107.287C58.9788 108.12 56.1674 108.484 53.3039 108.432C49.1909 108.484 45.13 107.651 41.3294 106.089C37.6711 104.457 34.5453 101.829 32.3084 98.5062C30.0714 95.183 28.8135 91.298 28.6781 87.2944C28.2616 83.5459 28.8864 79.7453 30.5003 76.3091C28.9905 72.4044 28.8343 68.1353 30.1359 64.1785C32.0622 59.2325 35.7066 55.1195 40.2361 52.5163C43.2557 43.7177 51.742 37.8346 61.0613 38.4593C69.3914 30.6499 82.1468 29.8169 91.414 36.533C93.6007 35.9603 95.8914 35.6479 98.1822 35.6479C105.263 35.4917 111.979 38.6155 116.404 44.1863C127.025 46.9456 134.626 56.4211 135.043 67.4584C135.303 73.2374 133.741 78.9123 130.565 83.7541C130.93 85.6284 131.138 87.5027 131.138 89.429ZM105.107 82.0881C108.074 82.4526 110.417 84.6913 110.417 87.6589C110.417 89.0397 109.868 90.3639 108.892 91.3403C107.916 92.3167 106.592 92.8652 105.211 92.8652H101.931C100.265 97.5508 97.3492 101.664 93.4965 104.788C94.7981 105.256 96.1518 105.516 97.5054 105.881C124.214 105.516 121.09 89.2208 121.09 88.9604C120.952 85.3842 119.399 82.0093 116.772 79.5782C114.146 77.1471 110.661 75.8588 107.085 75.9968C105.704 75.9968 104.38 75.4482 103.404 74.4719C102.427 73.4955 101.879 72.1713 101.879 70.7905C101.879 69.4097 102.427 68.0854 103.404 67.1091C104.38 66.1327 105.704 65.5842 107.085 65.5842C113.489 65.7403 119.632 68.1352 124.422 72.3524C124.682 70.8425 124.838 69.2806 124.838 67.7187C124.526 61.2629 121.611 55.6401 109.896 54.5468C103.389 39.1362 86.9887 47.6745 86.9887 52.4643C86.8325 53.6617 88.082 56.2128 88.2902 56.369C89.671 56.369 90.9953 56.9175 91.9717 57.8939C92.948 58.8703 93.4965 60.1945 93.4965 61.5753C93.4965 64.4388 91.1537 66.7816 88.2902 66.7816C85.5309 66.6775 82.9278 65.6362 80.8452 63.8661C78.3462 65.48 75.4827 66.4692 72.5152 66.7816C69.5476 67.0419 67.1006 64.9594 66.9444 62.0959C66.8485 61.4159 66.8926 60.7233 67.074 60.0609C67.2554 59.3985 67.5703 58.7801 67.9994 58.2438C68.4284 57.7075 68.9626 57.2646 69.569 56.9422C70.1755 56.6198 70.8414 56.4247 71.526 56.369C72.359 56.2649 76.4199 55.6401 76.4199 52.3602C76.4199 48.924 77.7215 45.644 79.9602 43.0409C75.1704 41.7393 70.0161 43.4574 64.8098 49.757C55.2302 48.2472 51.3255 49.5488 48.462 59.701C43.5161 62.148 40.9129 63.8661 39.7675 69.0724C45.3903 67.927 51.1693 68.3956 56.5318 70.374C59.135 71.3632 60.5927 74.2787 59.6035 77.0901C58.6143 79.7974 55.5947 81.151 52.8874 80.1618C49.0868 78.4958 44.8176 78.3917 40.9129 79.8494C39.2469 81.2551 39.2469 84.1707 39.2469 86.4614C39.2469 90.3141 41.1732 93.9064 44.4532 95.989C47.2125 97.3947 50.2843 98.1235 53.356 98.0715C52.575 96.7178 51.8982 95.3121 51.3255 93.8544C50.9156 92.5167 51.0405 91.0723 51.6738 89.8248C52.3071 88.5774 53.3995 87.6241 54.7212 87.1655C56.0429 86.707 57.491 86.7789 58.7608 87.3661C60.0306 87.9533 61.0232 89.01 61.5299 90.3141C63.6124 96.2493 68.9228 100.31 75.1704 100.987C82.303 100.623 88.6547 96.4055 91.7785 89.8976C92.9759 82.7129 98.7549 82.0881 105.107 82.0881ZM115.519 120.979L112.291 114.211L108.595 115.044L113.801 121.552L115.519 120.979ZM91.3099 76.1529C91.3552 74.8229 90.8894 73.5261 90.0083 72.5288C89.1272 71.5315 87.8976 70.9095 86.5722 70.7905C82.8757 70.5822 79.2833 71.8317 76.524 74.2787C73.5564 77.2983 71.9945 81.4634 72.1507 85.6805C72.1507 87.0613 72.6992 88.3855 73.6756 89.3619C74.652 90.3383 75.9762 90.8868 77.357 90.8868C80.3246 90.8868 82.5633 88.5439 82.5633 85.6805C82.5633 84.2748 82.9278 82.8691 83.7608 81.7237C84.3855 81.2031 85.1665 80.9427 85.9995 80.9427C88.8629 81.0989 91.3099 78.9644 91.3099 76.1529Z" fill="#A0ACA7"/>
</g>
<defs>
<clipPath id="clip0_83_1655">
<rect width="108" height="101" fill="white" transform="translate(28 32)"/>
</clipPath>
</defs>
</svg>
