<svg width="20" height="20" viewBox="0 0 20 20" fill="none" xmlns="http://www.w3.org/2000/svg">
    <path d="M17.3923 5.16234L13.0196 1.2987C11.0519 -0.4329 8.07851 -0.4329 6.11081 1.2987L1.73814 5.16234C0.634037 6.13636 0 7.53247 0 9.00433V15.8874C0 18.1602 1.83652 20.0108 4.09938 20.0108H15.0311C17.2939 20.0108 19.1304 18.1602 19.1304 15.8874V9.00433C19.1304 7.54329 18.4964 6.13636 17.3923 5.16234ZM13.6646 16.7532C13.6646 17.197 13.2929 17.5649 12.8447 17.5649C12.3965 17.5649 12.0248 17.197 12.0248 16.7532V13.5065C12.0248 12.1645 10.9207 11.0714 9.56522 11.0714C8.20969 11.0714 7.10559 12.1645 7.10559 13.5065V16.7532C7.10559 17.197 6.73391 17.5649 6.28571 17.5649C5.83752 17.5649 5.46584 17.197 5.46584 16.7532V13.5065C5.46584 11.2662 7.30236 9.44805 9.56522 9.44805C11.8281 9.44805 13.6646 11.2662 13.6646 13.5065V16.7532Z" fill="currentColor" />
</svg>
