<?xml version="1.0" encoding="utf-8"?>
<svg version="1.1" xmlns="http://www.w3.org/2000/svg" xmlns:xlink="http://www.w3.org/1999/xlink" x="0px" y="0px"
	 viewBox="0 0 79.61 79.61" style="enable-background:new 0 0 79.61 79.61;" xml:space="preserve">
<style type="text/css">
	.st2016{fill:#FACC18;}
</style>
<g id="Information">
	<g>
		<g>
			<g>
				<g>
					<path class="st2016" d="M37.02,65.69c-0.72,0-1.3-0.58-1.3-1.29c0-0.72,0.58-1.3,1.29-1.31l5.81-0.03c0,0,0,0,0.01,0
						c0.72,0,1.3,0.58,1.3,1.29c0,0.72-0.58,1.3-1.29,1.31L37.02,65.69C37.03,65.69,37.02,65.69,37.02,65.69z"/>
				</g>
				<g>
					<path class="st2016" d="M45.29,61.14H34.87c-0.72,0-1.3-0.58-1.3-1.3s0.58-1.3,1.3-1.3h10.43c0.72,0,1.3,0.58,1.3,1.3
						S46.01,61.14,45.29,61.14z"/>
				</g>
				<g>
					<path class="st2016" d="M35.68,56.59c-1.95,0-2.45-0.73-2.71-2.18l-0.03-0.15c-0.56-3.02-1.71-5.59-3.53-7.88
						c-2.69-3.38-3.59-7.15-2.7-11.21c1.07-4.85,4-8.19,8.71-9.94c1.09-0.4,2.28-0.65,3.75-0.79c0.05,0,0.1,0,0.15-0.01l0,0
						c1.73-0.03,3.23,0.17,4.57,0.62c3.78,1.27,6.54,3.72,8.2,7.27c0.99,2.12,1.39,4.36,1.2,6.65c-0.23,2.78-1.24,5.29-2.99,7.47
						c-0.78,0.97-1.41,1.94-1.94,2.96c-0.73,1.43-1.25,3.05-1.63,5.09c-0.28,1.52-0.97,2.08-2.54,2.08l-2.74,0
						c-1.92,0-3.85,0-5.77,0.01C35.7,56.59,35.69,56.59,35.68,56.59z M35.62,54.35h0.01H35.62z M35.54,53.98c0.05,0,0.1,0,0.16,0
						c1.93-0.01,3.85,0,5.78-0.01l2.72,0c0.43-2.28,1.02-4.11,1.86-5.76c0.6-1.17,1.35-2.32,2.23-3.41
						c1.42-1.77,2.24-3.81,2.43-6.06c0.15-1.83-0.17-3.63-0.97-5.34c-1.36-2.92-3.54-4.85-6.66-5.9c-1.05-0.35-2.26-0.52-3.69-0.48
						c-0.01,0-0.02,0-0.03,0c-1.21,0.11-2.17,0.32-3.03,0.63c-3.88,1.44-6.19,4.07-7.07,8.06c-0.72,3.26,0.02,6.29,2.19,9.03
						c2.09,2.63,3.41,5.58,4.05,9.02l0.03,0.16C35.54,53.96,35.54,53.97,35.54,53.98z"/>
				</g>
			</g>
		</g>
		<g>
			<path class="st2016" d="M39.87,22.11c-0.72,0-1.3-0.58-1.3-1.3v-5.59c0-0.72,0.58-1.3,1.3-1.3c0.72,0,1.3,0.58,1.3,1.3v5.59
				C41.17,21.53,40.59,22.11,39.87,22.11z"/>
		</g>
		<g>
			<path class="st2016" d="M31.22,24.39c-0.45,0-0.89-0.23-1.13-0.65l-2.8-4.84c-0.36-0.62-0.15-1.42,0.48-1.78
				c0.62-0.36,1.42-0.15,1.78,0.48l2.8,4.84c0.36,0.62,0.15,1.42-0.48,1.78C31.67,24.34,31.44,24.39,31.22,24.39z"/>
		</g>
		<g>
			<path class="st2016" d="M24.87,30.69c-0.22,0-0.44-0.06-0.65-0.17l-4.84-2.8c-0.62-0.36-0.84-1.16-0.48-1.78
				c0.36-0.62,1.16-0.83,1.78-0.48l4.84,2.8c0.62,0.36,0.84,1.16,0.48,1.78C25.76,30.46,25.32,30.69,24.87,30.69z"/>
		</g>
		<g>
			<path class="st2016" d="M22.52,39.33h-5.59c-0.72,0-1.3-0.58-1.3-1.3c0-0.72,0.58-1.3,1.3-1.3h5.59c0.72,0,1.3,0.58,1.3,1.3
				C23.82,38.74,23.24,39.33,22.52,39.33z"/>
		</g>
		<g>
			<path class="st2016" d="M19.96,50.77c-0.45,0-0.89-0.23-1.13-0.65c-0.36-0.62-0.15-1.42,0.48-1.78l4.84-2.8
				c0.62-0.36,1.42-0.15,1.78,0.48c0.36,0.62,0.15,1.42-0.48,1.78l-4.84,2.8C20.41,50.72,20.18,50.77,19.96,50.77z"/>
		</g>
		<g>
			<path class="st2016" d="M59.58,50.89c-0.22,0-0.44-0.06-0.65-0.17l-4.84-2.8c-0.62-0.36-0.84-1.16-0.48-1.78
				c0.36-0.62,1.16-0.83,1.78-0.48l4.84,2.8c0.62,0.36,0.84,1.16,0.48,1.78C60.47,50.65,60.03,50.89,59.58,50.89z"/>
		</g>
		<g>
			<path class="st2016" d="M62.68,39.46h-5.59c-0.72,0-1.3-0.58-1.3-1.3s0.58-1.3,1.3-1.3h5.59c0.72,0,1.3,0.58,1.3,1.3
				S63.4,39.46,62.68,39.46z"/>
		</g>
		<g>
			<path class="st2016" d="M54.8,30.81c-0.45,0-0.89-0.23-1.13-0.65c-0.36-0.62-0.15-1.42,0.48-1.78l4.84-2.8
				c0.62-0.36,1.42-0.15,1.78,0.48c0.36,0.62,0.15,1.42-0.48,1.78l-4.84,2.8C55.25,30.75,55.02,30.81,54.8,30.81z"/>
		</g>
		<g>
			<path class="st2016" d="M48.5,24.46c-0.22,0-0.44-0.06-0.65-0.17c-0.62-0.36-0.84-1.16-0.48-1.78l2.8-4.84
				c0.36-0.62,1.16-0.83,1.78-0.48c0.62,0.36,0.84,1.16,0.48,1.78l-2.8,4.84C49.39,24.23,48.95,24.46,48.5,24.46z"/>
		</g>
	</g>
</g>
</svg>
