<?xml version="1.0" encoding="utf-8"?>
<!-- Generator: Adobe Illustrator 27.7.0, SVG Export Plug-In . SVG Version: 6.00 Build 0)  -->
<svg version="1.1" xmlns="http://www.w3.org/2000/svg" xmlns:xlink="http://www.w3.org/1999/xlink" x="0px" y="0px"
	 viewBox="0 0 79.61 79.61" style="enable-background:new 0 0 79.61 79.61;" xml:space="preserve">
<style type="text/css">
	.st2017{fill:none;stroke:#FACC18;stroke-width:2.4;stroke-linecap:round;stroke-linejoin:round;stroke-miterlimit:10;}
</style>
<g id="Information">
	<g id="YkVCme_00000132773946536651067470000004623866523683297212_">
		<g>
			<path class="st2017" d="M26.01,24.35c-0.01,1.21,0.06,2.39,0.88,3.41c0.92,1.16,2.11,1.66,3.55,1.7c0.89,0.02,1.78-0.1,2.66,0.26
				c1.36,0.56,2.66,2.05,2.62,4.03"/>
			<path class="st2017" d="M53.66,24.35c0.04,1.12-0.04,2.23-0.69,3.2c-0.88,1.33-2.18,1.87-3.74,1.91
				c-0.89,0.02-1.78-0.1-2.66,0.26c-1.36,0.56-2.66,2.05-2.62,4.03"/>
			<path class="st2017" d="M18.85,46.9c-0.15,0.51-0.45,0.93-0.75,1.36c-2.99,4.32-0.5,10.2,4.84,11.01
				c0.84,0.13,1.73,0.1,2.59-0.16c0.44-0.13,0.93-0.24,1.42-0.16"/>
			<path class="st2017" d="M27.22,59.37c0.19,0.28,0.23,0.66,0.28,1.01c0.4,2.63,3.2,4.96,5.93,4.93c2.28-0.03,4.02-0.91,5.31-2.75
				c0.27-0.39,0.57-0.75,0.96-1.02"/>
			<path class="st2017" d="M49.47,41.11c-0.02,0.62,0.18,1.15,0.57,1.64c0.43,0.56,0.76,1.19,1.17,1.76
				c1.57,2.2,1.36,5.33-0.62,7.36c-0.81,0.83-1.63,1.64-2.45,2.45"/>
			<path class="st2017" d="M58.36,40.56c-0.57-0.05-1.14-0.05-1.7-0.14c-2.07-0.36-3.17-2.16-3.04-4.01
				c0.15-2.25,1.71-3.66,3.79-3.69c1.02-0.01,2.05,0.14,3.07-0.12c0.07-0.02,0.17-0.05,0.28,0.05c0.98,0.87,2.2,1.41,3.07,2.45
				c2.39,2.83,2.3,7.01-0.29,9.62c-0.47,0.47-0.98,0.9-1.57,1.23c-0.47,0.26-0.91,0.58-1.29,0.95"/>
			<path class="st2017" d="M60.99,47.56c0.38,0.77,1.02,1.41,1.33,2.27c1.29,3.64-0.34,7.64-4.16,9.06
				c-1.27,0.47-2.57,0.54-3.88,0.27c-0.56-0.12-1.12-0.23-1.7-0.2"/>
			<path class="st2017" d="M60.67,32.52c0.16-0.3,0.27-0.64,0.48-0.88c3.01-3.3,1.55-9.06-2.59-10.72c-1.47-0.59-2.91-0.76-4.44-0.4
				c-0.48,0.11-0.99,0.2-1.5,0.15"/>
			<path class="st2017" d="M52.58,20.7c-0.25-0.5-0.31-1.02-0.44-1.52c-0.59-2.42-2.07-4.11-4.49-4.75
				c-2.55-0.68-4.73,0.1-6.46,2.09c-0.42,0.49-0.78,1.02-1.22,1.51c-0.36,0.41-0.24,0.98-0.2,1.48c0.02,0.27,0.05,0.55,0.05,0.82
				c0,5.47,0.05,10.94-0.04,16.41c-0.02,1.07,0.05,2.13,0.04,3.2c0,1.11-0.1,2.24,0.03,3.33c0.12,1.04-0.01,2.05-0.02,3.07
				c-0.03,4.34-0.01,8.67-0.02,13.01c0,0.34,0.01,0.69-0.07,1.02c-0.25,0.98,0.52,1.47,0.96,2.11c0.82,1.2,1.89,2.1,3.27,2.58
				c2.45,0.86,5.17,0.05,6.75-1.83c0.79-0.95,1.27-2.01,1.49-3.21c0.04-0.21,0.06-0.42,0.14-0.61"/>
			<path class="st2017" d="M26.29,20.64c-1.18-0.24-2.35-0.43-3.55-0.24c-5.08,0.8-7.69,6.88-4.57,10.9c0.3,0.38,0.57,0.8,0.69,1.29
				"/>
			<path class="st2017" d="M25.9,45.33c0.35,2.19,0.99,4.29,2.57,5.91c1.28,1.31,2.9,1.82,4.75,1.59c1.34-0.17,2.66-0.52,4.02-0.58"
				/>
			<path class="st2017" d="M46.37,49.42c0.19-2.64-2.06-4.88-4.7-4.7c-0.5,0.03-1,0-1.5,0"/>
			<path class="st2017" d="M39.76,18.15c-0.44-0.31-0.78-0.72-1.09-1.16c-1.83-2.6-4.21-3.02-6.4-2.55
				c-2.67,0.57-4.31,2.34-4.85,5.07c-0.08,0.4-0.26,0.77-0.4,1.16"/>
			<path class="st2017" d="M39.53,38.18c-0.62,0.02-1.28-0.06-1.87,0.09c-2.47,0.62-3.57,2.56-3.48,4.48c0.01,0.11,0,0.23,0,0.34"/>
			<path class="st2017" d="M21.31,40.56c0.7-0.1,1.43,0.02,2.11-0.21c1.92-0.64,2.88-2.49,2.59-4.42c-0.29-1.91-1.83-3.19-3.81-3.2
				c-1.02-0.01-2.04-0.03-3.06-0.08c-0.15-0.01-0.23-0.04-0.34,0.08c-0.44,0.47-1.04,0.74-1.57,1.09c-4.08,2.72-4.5,9.25,0.49,12.18
				c0.24,0.14,0.58,0.25,0.72,0.44"/>
		</g>
	</g>
</g>

</svg>
