<svg version="1.1" xmlns="http://www.w3.org/2000/svg" xmlns:xlink="http://www.w3.org/1999/xlink" x="0px" y="0px"
	 viewBox="0 0 79.61 79.61" style="enable-background:new 0 0 79.61 79.61;" xml:space="preserve">
<style type="text/css">
	.st2016{fill:#FACC18;}
</style>
<g>
	<g>
		<g>
			<path class="st2016" d="M37.16,15.83c-1.08,2.33-2.28,5.67-3.56,9.08c1.3,3.36,2.55,6.58,3.58,8.93h-8.14
				c-0.26-1.06-0.55-2.11-0.94-3.41c-0.26-1.03-0.53-2.21-0.74-3.41h-0.1c-0.26,1.25-0.55,2.47-0.82,3.46
				c-0.38,1.27-0.62,2.31-0.86,3.36h-7.42c0.99-2.31,2.28-5.76,3.55-9.17c-1.25-3.31-2.47-6.46-3.46-8.84h8.12
				c0.26,1.13,0.6,2.35,0.99,3.63c0.26,0.94,0.5,2.04,0.7,3.17h0.12c0.19-1.11,0.43-2.21,0.67-3.17c0.43-1.42,0.67-2.52,0.94-3.63
				H37.16 M37.16,13.43h-7.37c-0.66,0-1.27,0.27-1.71,0.71c-0.44-0.44-1.05-0.71-1.71-0.71h-8.12c-0.8,0-1.55,0.4-2,1.07
				s-0.53,1.51-0.22,2.25c0.84,2.04,1.91,4.76,3.11,7.93c-1.24,3.31-2.33,6.2-3.2,8.23c-0.32,0.74-0.24,1.59,0.2,2.27
				s1.2,1.08,2,1.08h7.42c0.67,0,1.29-0.28,1.73-0.74c0.44,0.46,1.06,0.74,1.73,0.74h8.14c0.81,0,1.57-0.41,2.01-1.09
				c0.44-0.68,0.51-1.53,0.19-2.28c-0.91-2.07-1.99-4.84-3.21-7.99l0.25-0.66c1.05-2.83,2.04-5.5,2.92-7.39
				c0.34-0.74,0.29-1.61-0.15-2.3C38.74,13.85,37.98,13.43,37.16,13.43L37.16,13.43z M37.16,18.23L37.16,18.23L37.16,18.23
				L37.16,18.23z"/>
		</g>
		<g>
			<path class="st2016" d="M61.45,27.08c-0.03,0.76-0.03,1.49-0.03,2.28c0,0.88,0,1.67,0.03,2.49c-1.64-0.09-4.68-0.12-6.92-0.12
				c-2.13,0-5.16,0.03-6.89,0.12c0.03-0.82,0.06-1.61,0.06-2.49c0-0.79-0.03-1.52-0.06-2.28c1.73,0.12,4.77,0.12,6.89,0.12
				C56.77,27.2,59.81,27.2,61.45,27.08 M47.63,24.68c-0.62,0-1.22,0.24-1.67,0.68c-0.49,0.48-0.75,1.14-0.73,1.82l0,0.05
				c0.03,0.72,0.06,1.41,0.06,2.13c0,0.82-0.03,1.57-0.06,2.36c-0.03,0.67,0.23,1.35,0.71,1.82c0.45,0.45,1.06,0.71,1.69,0.71
				c0.04,0,0.08,0,0.12,0c1.67-0.09,4.69-0.12,6.77-0.12c2.25,0,5.22,0.03,6.79,0.12c0.04,0,0.09,0,0.13,0
				c0.63,0,1.23-0.25,1.68-0.69c0.48-0.47,0.74-1.13,0.72-1.8c-0.03-0.78-0.03-1.53-0.03-2.4c0-0.79,0-1.47,0.03-2.18
				c0.03-0.68-0.24-1.35-0.73-1.82c-0.45-0.43-1.05-0.67-1.67-0.67c-0.06,0-0.12,0-0.18,0.01c-1.55,0.11-4.55,0.11-6.75,0.11
				c-2.02,0-5.08,0-6.73-0.12C47.74,24.68,47.69,24.68,47.63,24.68L47.63,24.68z M61.45,29.48L61.45,29.48L61.45,29.48L61.45,29.48z
				"/>
		</g>
		<g>
			<path class="st2016" d="M36.84,46.56c0.51,0.56,1.02,1.08,1.58,1.64c0.62,0.62,1.18,1.18,1.79,1.73
				c-1.57,1.44-4.38,4.21-6.45,6.27c-1.95,1.95-4.72,4.76-6.25,6.42c-0.55-0.61-1.08-1.19-1.71-1.82c-0.56-0.56-1.1-1.05-1.67-1.55
				c1.68-1.5,4.46-4.29,6.42-6.25C32.63,50.94,35.42,48.15,36.84,46.56 M36.84,44.16C36.84,44.16,36.84,44.16,36.84,44.16
				c-0.69,0-1.34,0.29-1.79,0.8c-1.38,1.54-4.15,4.32-6.18,6.35c-1.89,1.89-4.7,4.7-6.32,6.16c-0.51,0.46-0.8,1.1-0.8,1.78
				c0,0.68,0.29,1.33,0.79,1.79l0.04,0.04c0.53,0.48,1.03,0.93,1.53,1.43c0.57,0.57,1.07,1.12,1.6,1.71c0.45,0.5,1.1,0.8,1.78,0.8
				c0,0,0.01,0,0.01,0c0.67,0,1.32-0.27,1.77-0.76c1.47-1.6,4.16-4.33,6.18-6.35c2.08-2.08,4.85-4.81,6.37-6.2
				c0.5-0.46,0.78-1.1,0.78-1.77c0-0.67-0.29-1.32-0.79-1.77c-0.56-0.51-1.09-1.04-1.7-1.65c-0.56-0.56-1.03-1.03-1.5-1.55
				C38.17,44.45,37.52,44.16,36.84,44.16L36.84,44.16z"/>
		</g>
		<g>
			<path class="st2016" d="M61.45,39.19c-0.03,0.76-0.03,1.49-0.03,2.28c0,0.88,0,1.67,0.03,2.49c-1.64-0.09-4.68-0.12-6.92-0.12
				c-2.13,0-5.16,0.03-6.89,0.12c0.03-0.82,0.06-1.61,0.06-2.49c0-0.79-0.03-1.52-0.06-2.28c1.73,0.12,4.77,0.12,6.89,0.12
				C56.77,39.31,59.81,39.31,61.45,39.19 M47.63,36.79c-0.62,0-1.22,0.24-1.67,0.68c-0.49,0.48-0.75,1.14-0.73,1.82l0,0.05
				c0.03,0.72,0.06,1.41,0.06,2.13c0,0.82-0.03,1.57-0.06,2.36c-0.03,0.67,0.23,1.35,0.71,1.82c0.45,0.45,1.06,0.71,1.69,0.71
				c0.04,0,0.08,0,0.12,0c1.66-0.09,4.58-0.12,6.77-0.12c2.26,0,5.23,0.03,6.79,0.12c0.04,0,0.09,0,0.13,0
				c0.63,0,1.23-0.25,1.68-0.69c0.48-0.47,0.74-1.13,0.72-1.8c-0.03-0.78-0.03-1.53-0.03-2.4c0-0.79,0-1.47,0.03-2.18
				c0.03-0.68-0.24-1.35-0.73-1.82c-0.45-0.43-1.05-0.67-1.67-0.67c-0.06,0-0.12,0-0.18,0.01c-1.55,0.11-4.55,0.11-6.75,0.11
				c-2.02,0-5.08,0-6.73-0.12C47.74,36.79,47.69,36.79,47.63,36.79L47.63,36.79z M61.45,41.59L61.45,41.59L61.45,41.59L61.45,41.59z
				"/>
		</g>
		<g>
			<path class="st2016" d="M25.07,43.96c1.44,0,2.6,1.17,2.6,2.6c0,1.44-1.17,2.6-2.6,2.6c-1.44,0-2.6-1.17-2.6-2.6
				C22.46,45.12,23.63,43.96,25.07,43.96 M25.07,41.56c-2.76,0-5,2.25-5,5c0,2.76,2.25,5,5,5s5-2.25,5-5
				C30.07,43.8,27.82,41.56,25.07,41.56L25.07,41.56z"/>
		</g>
		<g>
			<path class="st2016" d="M40.78,58.57c1.44,0,2.6,1.17,2.6,2.6c0,1.44-1.17,2.6-2.6,2.6c-1.44,0-2.6-1.17-2.6-2.6
				C38.17,59.73,39.34,58.57,40.78,58.57 M40.78,56.17c-2.76,0-5,2.25-5,5c0,2.76,2.25,5,5,5c2.76,0,5-2.25,5-5
				C45.78,58.41,43.53,56.17,40.78,56.17L40.78,56.17z"/>
		</g>
	</g>
</g>
</svg>
