<svg version="1.1" xmlns="http://www.w3.org/2000/svg" xmlns:xlink="http://www.w3.org/1999/xlink" x="0px" y="0px"
	 viewBox="0 0 79.61 79.61" style="enable-background:new 0 0 79.61 79.61;" xml:space="preserve">
<style type="text/css">
	.st2017{fill:none;stroke:#FACC18;stroke-width:2.4;stroke-linecap:round;stroke-linejoin:round;stroke-miterlimit:10;}
</style>
<g id="Information">
	<g>
		<g>
			<path class="st2017" d="M38.53,31.24c0.03,2.15-0.04,6.41,0.06,8.56c0,0,4.96,3.99,5.47,3.99"/>
			<path class="st2017" d="M37.92,24.9c-1.91,0.23-3.76,0.6-5.54,1.41c-6.04,2.76-9.51,9.06-8.57,15.68
				c0.92,6.51,6.23,11.76,12.88,12.61c8.13,1.04,15.72-4.71,16.66-13.02c0.98-8.74-5.31-15.45-12.35-16.4
				c-0.99-0.13-1.97-0.29-2.97-0.28"/>
			<path class="st2017" d="M47.53,16.94c-8.88-3.18-17.17-1.96-24.53,3.91c-5.3,4.23-8.36,9.95-8.9,16.75
				c-0.6,7.48,1.67,14.04,7.02,19.45c3.84,3.89,8.43,6.27,13.83,7.05c7.47,1.08,14.03-0.94,19.76-5.82
				c3.78-3.22,6.26-7.26,7.54-11.99c1.44-5.34,1.26-10.64-1.1-15.74"/>
		</g>
		<polyline class="st2017" points="58.64,34.65 60.99,30.04 65.6,32.39 		"/>
	</g>
</g>
</svg>
