<svg width="47" height="33" viewBox="0 0 47 33" fill="none" xmlns="http://www.w3.org/2000/svg">
<path d="M5.2875 4.66283C5.2875 3.59167 5.72078 2.56439 6.49202 1.80696C7.26327 1.04954 8.3093 0.624023 9.4 0.624023C10.4907 0.624023 11.5367 1.04954 12.308 1.80696C13.0792 2.56439 13.5125 3.59167 13.5125 4.66283C13.5125 5.73399 13.0792 6.76127 12.308 7.5187C11.5367 8.27612 10.4907 8.70164 9.4 8.70164C8.3093 8.70164 7.26327 8.27612 6.49202 7.5187C5.72078 6.76127 5.2875 5.73399 5.2875 4.66283ZM4.7 16.0364C3.96562 16.8442 3.525 17.9188 3.525 19.0871C3.525 20.2555 3.96562 21.3301 4.7 22.1379V16.0364ZM15.3044 12.4808C13.1233 14.3776 11.75 17.1543 11.75 20.2411C11.75 22.7148 12.6312 24.9867 14.1 26.7681V28.3187C14.1 29.5952 13.0498 30.6266 11.75 30.6266H7.05C5.75016 30.6266 4.7 29.5952 4.7 28.3187V26.3858C1.92406 25.0877 0 22.311 0 19.0871C0 14.6228 3.67922 11.0095 8.225 11.0095H10.575C12.3375 11.0095 13.9678 11.5504 15.3044 12.4736V12.4808ZM32.9 28.3187V26.7681C34.3687 24.9867 35.25 22.7148 35.25 20.2411C35.25 17.1543 33.8767 14.3776 31.6956 12.4736C33.0322 11.5504 34.6625 11.0095 36.425 11.0095H38.775C43.3208 11.0095 47 14.6228 47 19.0871C47 22.311 45.0759 25.0877 42.3 26.3858V28.3187C42.3 29.5952 41.2498 30.6266 39.95 30.6266H35.25C33.9502 30.6266 32.9 29.5952 32.9 28.3187ZM33.4875 4.66283C33.4875 3.59167 33.9208 2.56439 34.692 1.80696C35.4633 1.04954 36.5093 0.624023 37.6 0.624023C38.6907 0.624023 39.7367 1.04954 40.508 1.80696C41.2792 2.56439 41.7125 3.59167 41.7125 4.66283C41.7125 5.73399 41.2792 6.76127 40.508 7.5187C39.7367 8.27612 38.6907 8.70164 37.6 8.70164C36.5093 8.70164 35.4633 8.27612 34.692 7.5187C33.9208 6.76127 33.4875 5.73399 33.4875 4.66283ZM42.3 16.0364V22.1451C43.0344 21.3301 43.475 20.2627 43.475 19.0943C43.475 17.926 43.0344 16.8514 42.3 16.0436V16.0364ZM23.5 0.624023C24.7465 0.624023 25.942 1.11033 26.8234 1.97595C27.7048 2.84158 28.2 4.01562 28.2 5.2398C28.2 6.46398 27.7048 7.63802 26.8234 8.50365C25.942 9.36928 24.7465 9.85558 23.5 9.85558C22.2535 9.85558 21.058 9.36928 20.1766 8.50365C19.2952 7.63802 18.8 6.46398 18.8 5.2398C18.8 4.01562 19.2952 2.84158 20.1766 1.97595C21.058 1.11033 22.2535 0.624023 23.5 0.624023ZM17.625 20.2411C17.625 21.4095 18.0656 22.4768 18.8 23.2918V17.1903C18.0656 18.0053 17.625 19.0727 17.625 20.2411ZM28.2 17.1903V23.299C28.9344 22.4841 29.375 21.4167 29.375 20.2483C29.375 19.0799 28.9344 18.0053 28.2 17.1976V17.1903ZM32.9 20.2411C32.9 23.4649 30.9759 26.2416 28.2 27.5398V30.6266C28.2 31.9031 27.1498 32.9345 25.85 32.9345H21.15C19.8502 32.9345 18.8 31.9031 18.8 30.6266V27.5398C16.0241 26.2416 14.1 23.4649 14.1 20.2411C14.1 15.7768 17.7792 12.1635 22.325 12.1635H24.675C29.2208 12.1635 32.9 15.7768 32.9 20.2411Z" fill="black"/>
</svg>
