<svg width="71" height="47" viewBox="0 0 71 47" fill="none" xmlns="http://www.w3.org/2000/svg">
<g clip-path="url(#clip0_247_2695)">
<path d="M35.9157 1.70703L3.44629 23.2619L35.9157 44.7557L68.3242 23.2619L35.9157 1.70703Z" fill="#F58166"/>
<path d="M43.5649 34.67C43.6698 34.509 43.885 34.4639 44.0454 34.5688C44.2057 34.6736 44.2515 34.8889 44.146 35.0492C44.0411 35.2096 43.8259 35.2553 43.6655 35.1505C43.5051 35.0456 43.46 34.8303 43.5649 34.67Z" fill="#FEF9D7"/>
<path d="M27.8369 34.7337C27.9918 34.8472 28.0247 35.0648 27.9113 35.2191C27.7979 35.374 27.5803 35.4069 27.426 35.2935C27.2711 35.1801 27.2382 34.9624 27.3516 34.8081C27.465 34.6539 27.6827 34.6203 27.8369 34.7337Z" fill="#FEF9D7"/>
<path d="M44.2308 10.1744C44.1253 10.5689 44.2247 10.9415 44.2186 11.3141C44.2138 11.6293 44.1034 11.8854 43.8808 12.1C43.8625 12.1177 43.8406 12.133 43.793 12.172C43.9796 11.7269 44.0894 11.3 44.0101 10.8421C43.9973 10.9177 43.9869 10.9933 43.9711 11.0683C43.9168 11.3263 43.8827 11.5903 43.8022 11.8397C43.479 12.8403 42.7875 13.4281 41.7546 13.6159C41.6729 13.6305 41.5894 13.6366 41.4985 13.6476C41.4912 13.6055 41.4851 13.5744 41.479 13.5415C41.6558 13.508 41.8266 13.4866 41.9918 13.4433C42.6589 13.2689 43.1979 12.9165 43.5485 12.3061C43.5997 12.2171 43.6223 12.1293 43.6119 12.0238C43.5747 11.6549 43.5442 11.2848 43.6686 10.9226C43.7723 10.6208 43.9442 10.372 44.2302 10.1738L44.2308 10.1744Z" fill="#FEF9D7"/>
<path d="M43.0756 13.4099C43.5659 13.394 44.0342 13.3233 44.4616 13.0763C43.9506 13.1733 43.4464 13.3117 42.9195 13.2763C42.9147 13.2635 42.9092 13.2507 42.9043 13.2373C43.1823 13.1105 43.4525 12.9635 43.7397 12.8617C44.1842 12.7038 44.6317 12.7117 45.0604 12.9367C45.1 12.9574 45.1366 12.983 45.1927 13.0172C44.786 13.0751 44.4677 13.2977 44.1189 13.4428C43.8025 13.5745 43.4927 13.5965 43.1762 13.4586C43.1421 13.444 43.1098 13.4257 43.0762 13.4086L43.0756 13.4099Z" fill="#FEF9D7"/>
<path d="M44.0322 12.3541C44.4322 12.273 44.7926 12.1333 45.0901 11.8602C44.7035 12.0254 44.3279 12.2199 43.873 12.2937C44.281 11.9266 44.6688 11.5931 45.2279 11.6022C45.3669 11.6047 45.5048 11.6382 45.6371 11.6565C45.3608 11.8577 45.0968 12.0553 44.8267 12.2449C44.5828 12.4156 44.3121 12.4504 44.0316 12.3547L44.0322 12.3541Z" fill="#FEF9D7"/>
<path d="M42.513 11.7323C42.3758 11.6671 42.249 11.714 42.2228 11.8634C42.2045 11.9665 42.2332 12.0787 42.2411 12.1866C42.2344 12.0677 42.2002 11.9457 42.2758 11.8323C42.2984 11.9604 42.299 12.0915 42.3466 12.2037C42.3947 12.3177 42.4886 12.4122 42.5697 12.525C42.5015 12.4878 42.4344 12.4518 42.3673 12.4152C42.3899 12.4408 42.4106 12.4683 42.4356 12.4908C42.5685 12.6116 42.7429 12.578 42.7978 12.4226C42.8783 12.1963 42.7289 11.8348 42.5124 11.7317L42.513 11.7323Z" fill="#FEF9D7"/>
<path d="M42.5448 10.8419C42.421 10.7992 42.3241 10.8443 42.2838 10.9687C42.243 11.0931 42.2503 11.2162 42.3119 11.3339C42.3015 11.2059 42.2485 11.0736 42.3588 10.9284C42.3265 11.2309 42.4143 11.4601 42.6497 11.6248C42.643 11.6327 42.6357 11.6412 42.629 11.6492C42.5576 11.6059 42.4857 11.5626 42.4143 11.5199C42.4784 11.5711 42.5357 11.6364 42.6082 11.6699C42.7076 11.7162 42.7985 11.6717 42.8466 11.576C42.9619 11.3473 42.7893 10.9272 42.5454 10.8425L42.5448 10.8419Z" fill="#FEF9D7"/>
<path d="M43.2163 12.3528C43.2541 12.2351 43.3138 12.1193 43.3242 11.9991C43.3346 11.8754 43.2974 11.7479 43.2803 11.6193C43.3925 11.7187 43.4077 11.8436 43.4035 11.9741C43.4023 12.0174 43.3986 12.0619 43.3956 12.1058C43.4443 11.9504 43.4364 11.7979 43.359 11.6546C43.2712 11.493 43.1157 11.4796 42.9974 11.6205C42.8821 11.7583 42.8614 11.9217 42.8754 12.0936C42.8913 12.2845 42.9882 12.4193 43.1132 12.4254C43.2425 12.4315 43.3407 12.3272 43.3852 12.1376C43.334 12.2138 43.2821 12.29 43.2309 12.3662L43.2163 12.3528Z" fill="#FEF9D7"/>
<path d="M28.5616 13.0699C28.3628 12.8114 28.2031 12.5339 28.1482 12.2102C28.3079 12.5211 28.4512 12.8413 28.6866 13.1065C28.6195 12.6803 28.5287 12.2644 28.1671 11.9669C28.0829 11.8974 27.9848 11.8474 27.8872 11.7949C28.022 12.0516 28.0421 12.3315 28.1311 12.5943C28.2037 12.8083 28.3366 12.9626 28.5262 13.0687C28.5335 13.073 28.5415 13.0742 28.5494 13.0766C28.5512 13.0766 28.5537 13.0742 28.561 13.0699H28.5616Z" fill="#FEF9D7"/>
<path d="M30.1155 12.2799C29.6057 12.2091 29.2624 12.5451 28.9795 13.1109C29.1417 13.0451 29.2679 12.9469 29.3899 12.8433C29.51 12.7414 29.6258 12.6335 29.7496 12.5231C29.6953 12.6988 29.4161 12.9756 29.1094 13.1286C29.3179 13.1725 29.5502 13.0402 29.6386 12.9116C29.7539 12.7439 29.8685 12.5756 29.9868 12.4103C30.0216 12.3622 30.0697 12.325 30.1149 12.2799H30.1155Z" fill="#FEF9D7"/>
<path d="M29.4356 11.2387C29.2905 11.2107 29.1747 11.2729 29.0747 11.3595C29.0027 11.4217 28.9442 11.5009 28.8795 11.5723C28.8009 11.7217 28.7527 11.8778 28.7588 12.0534C28.7619 12.1491 28.7954 12.2333 28.8558 12.3131C28.8753 12.3387 28.8771 12.3924 28.8667 12.4241C28.8125 12.5954 28.7674 12.768 28.7747 12.9558C28.7789 13.065 28.8046 13.1692 28.885 13.2534C28.8948 13.2637 28.9167 13.2613 28.9332 13.265C28.9314 13.2503 28.9338 13.232 28.9265 13.2211C28.7869 13.0272 28.8094 12.8247 28.8448 12.6217C28.8497 12.5924 28.8582 12.5631 28.8674 12.5351C28.882 12.4887 28.8863 12.4278 28.918 12.4022C28.9454 12.3796 29.0046 12.3967 29.0491 12.3961C29.2119 12.3936 29.3338 12.3101 29.4356 12.1979C29.5826 12.0363 29.6716 11.8424 29.6753 11.6058C29.6783 11.418 29.5808 11.2668 29.4363 11.2387H29.4356ZM28.8454 12.1985C28.8283 12.1418 28.8296 12.0784 28.8326 12.0198C28.8338 12.0022 28.8674 11.9796 28.8887 11.9778C28.9046 11.9765 28.9381 12.004 28.9417 12.0217C28.9552 12.0826 28.9582 12.1454 28.9655 12.2076C28.9204 12.2583 28.8631 12.257 28.8454 12.1985ZM29.1137 11.6375C29.0856 11.7229 29.0515 11.8064 29.0113 11.8851C29.007 11.893 28.9991 11.8991 28.9887 11.904C28.9722 11.9119 28.9503 11.9162 28.9338 11.9241C28.932 11.918 28.9289 11.9119 28.9265 11.9058C28.9155 11.8808 28.9015 11.8552 28.9052 11.8339C28.9088 11.8113 28.9137 11.7894 28.9198 11.7674C28.9308 11.7241 28.9448 11.682 28.9564 11.6394C28.96 11.6406 28.9637 11.6424 28.9667 11.6436C28.9789 11.6229 28.9863 11.5961 29.0039 11.5839C29.0131 11.5772 29.0235 11.5723 29.0338 11.5674C29.0521 11.5595 29.0716 11.5534 29.0905 11.5454C29.0991 11.5765 29.1216 11.6131 29.1137 11.6369V11.6375Z" fill="#FEF9D7"/>
<path d="M26.7393 10.6655C26.9204 11.0314 26.896 11.4167 26.9752 11.7808C27.0423 12.0887 27.2002 12.3186 27.4612 12.485C27.4832 12.4991 27.5069 12.5094 27.5618 12.5381C27.2911 12.1381 27.1002 11.7411 27.0874 11.2771C27.1149 11.3485 27.1399 11.421 27.1697 11.4911C27.2734 11.7332 27.3588 11.9856 27.4868 12.2143C28.0002 13.132 28.7941 13.5722 29.8435 13.5533C29.9264 13.5521 30.0094 13.5411 30.1008 13.5338C30.1002 13.4911 30.0996 13.4594 30.099 13.4259C29.9191 13.4283 29.7472 13.4405 29.5771 13.4308C28.8886 13.3911 28.2911 13.1515 27.8271 12.6222C27.7594 12.5448 27.7197 12.4637 27.7094 12.3582C27.6728 11.9887 27.6301 11.6204 27.4374 11.2899C27.2765 11.0143 27.0588 10.8046 26.7393 10.6661V10.6655Z" fill="#FEF9D7"/>
<path d="M36.0426 8.41455C37.8042 8.41455 39.2218 9.85174 39.2023 11.6115C39.1828 13.3554 37.7456 14.7597 35.9938 14.7341C34.2871 14.7091 32.8615 13.3066 32.8841 11.5316C32.9054 9.81638 34.2999 8.41638 36.0426 8.41455ZM35.1633 12.1182C35.12 12.4987 35.2749 12.8365 35.5786 13.0176C35.9066 13.2127 36.2383 13.2048 36.5517 12.9883C36.8511 12.7816 36.9548 12.4798 36.9273 12.1255C36.9176 12.1225 36.9115 12.1188 36.906 12.1188C36.8438 12.1182 36.7822 12.117 36.72 12.1176C36.5944 12.1188 36.5456 12.1658 36.5383 12.292C36.5261 12.4932 36.3975 12.6658 36.2097 12.7316C35.8926 12.8426 35.5645 12.62 35.5493 12.2828C35.5444 12.1786 35.4944 12.1225 35.3956 12.1182C35.3194 12.1152 35.2432 12.1176 35.1639 12.1176L35.1633 12.1182ZM34.2908 10.8853C34.3194 10.9353 34.3401 10.9731 34.3627 11.0097C34.4322 11.1225 34.4347 11.2353 34.3664 11.3487C34.3103 11.442 34.2554 11.5365 34.2938 11.6505C34.3109 11.7005 34.3371 11.7487 34.3645 11.7944C34.4328 11.9109 34.4322 12.0249 34.3627 12.1395C34.3401 12.1773 34.3188 12.2164 34.2932 12.2621C34.4536 12.2621 34.6023 12.2621 34.7511 12.2621C34.7627 12.2621 34.7804 12.2584 34.784 12.2511C34.8249 12.1664 34.8755 12.0841 34.9005 11.995C34.9292 11.8908 34.8639 11.803 34.809 11.7213C34.742 11.6213 34.7377 11.5304 34.8084 11.4304C34.845 11.3792 34.8749 11.32 34.8944 11.2597C34.9408 11.1152 34.8511 11.0072 34.7822 10.8956C34.7779 10.8889 34.7639 10.8859 34.7548 10.8859C34.6048 10.8859 34.4542 10.8859 34.2914 10.8859L34.2908 10.8853ZM38.6542 12.2621C38.5383 12.0591 38.4304 11.867 38.3188 11.6767C38.2779 11.6066 38.2767 11.5432 38.3176 11.4731C38.42 11.2987 38.5194 11.1219 38.6194 10.9463C38.6298 10.928 38.6383 10.9091 38.6511 10.8841C38.495 10.8841 38.3499 10.8828 38.2054 10.8853C38.1859 10.8853 38.1584 10.9017 38.1487 10.9188C38.0481 11.0895 37.9499 11.2621 37.8529 11.4353C37.8029 11.5243 37.8017 11.6188 37.8505 11.7084C37.9475 11.8841 38.0481 12.0572 38.1487 12.2304C38.1572 12.245 38.1792 12.2603 38.195 12.2603C38.3438 12.2627 38.4926 12.2615 38.6536 12.2615L38.6542 12.2621ZM33.967 10.8847C33.8737 10.8847 33.7847 10.8847 33.6962 10.8847C33.5853 10.8853 33.5298 10.9414 33.5298 11.0542C33.5298 11.1987 33.5298 11.3438 33.5298 11.4883C33.5298 11.6932 33.5298 11.8981 33.5298 12.1023C33.5298 12.1908 33.5786 12.256 33.6548 12.2597C33.7572 12.2645 33.8603 12.2609 33.9664 12.2609V10.8847H33.967ZM37.6164 10.8847C37.5212 10.8847 37.431 10.8841 37.3408 10.8847C37.242 10.8859 37.1804 10.9432 37.1798 11.042C37.1779 11.395 37.1792 11.7487 37.1798 12.1017C37.1798 12.1182 37.1816 12.1353 37.1859 12.1511C37.2017 12.2103 37.2401 12.2542 37.2999 12.2584C37.4042 12.2652 37.509 12.2603 37.617 12.2603V10.8847H37.6164Z" fill="#FEF9D7"/>
<path d="M47.1035 30.9746C46.5401 30.9746 46.0193 30.8068 45.5413 30.471C45.0632 30.1295 44.8242 29.6856 44.8242 29.1393H45.8828C45.8828 29.3555 46.0251 29.5348 46.3096 29.6771C46.5998 29.8193 46.8645 29.8905 47.1035 29.8905C47.3995 29.8905 47.6698 29.8136 47.9145 29.66C48.1649 29.5063 48.2901 29.2901 48.2901 29.0112C48.2901 28.7608 48.199 28.573 48.0169 28.4478C47.8405 28.3169 47.6242 28.2287 47.3681 28.1832C47.1177 28.1319 46.8645 28.0751 46.6084 28.0124C46.3523 27.9441 46.1332 27.8161 45.951 27.6283C45.7746 27.4348 45.6864 27.1702 45.6864 26.8344C45.6864 26.5726 45.8145 26.362 46.0706 26.2027C46.3324 26.0433 46.6084 25.9637 46.8986 25.9637C47.1718 25.9637 47.4478 26.0291 47.7267 26.16C48.0056 26.2852 48.182 26.4616 48.2559 26.6893H48.6059C48.5661 26.4616 48.4466 26.2624 48.2474 26.0917C48.0539 25.921 47.8376 25.7986 47.5986 25.7246C47.3653 25.6449 47.132 25.6051 46.8986 25.6051C46.5003 25.6051 46.1389 25.7132 45.8145 25.9295C45.4958 26.1458 45.3364 26.4474 45.3364 26.8344C45.3364 27.3124 45.4958 27.6937 45.8145 27.9783C46.1389 28.2571 46.5486 28.4137 47.0437 28.4478V28.4905C46.4746 28.4905 45.9881 28.351 45.584 28.0722C45.1856 27.7933 44.9864 27.3807 44.9864 26.8344C44.9864 26.3449 45.1771 25.958 45.5584 25.6734C45.9454 25.3888 46.3921 25.2466 46.8986 25.2466C47.2173 25.2466 47.5303 25.3063 47.8376 25.4259C48.1507 25.5397 48.4181 25.7218 48.6401 25.9722C48.8678 26.2226 48.9815 26.5129 48.9815 26.8429V27.0393H47.8974V26.8429C47.8974 26.6779 47.7807 26.5498 47.5474 26.4588C47.3198 26.3677 47.1035 26.3222 46.8986 26.3222C46.6937 26.3222 46.4974 26.3677 46.3096 26.4588C46.1275 26.5498 46.0364 26.7007 46.0364 26.9112C46.0364 27.1161 46.1303 27.2954 46.3181 27.449C46.5117 27.6027 46.7393 27.6994 47.001 27.7393C48.1279 27.91 48.6913 28.3197 48.6913 28.9685C48.6913 29.3441 48.5263 29.6515 48.1962 29.8905C47.8661 30.1295 47.5047 30.249 47.112 30.249C46.8275 30.249 46.5344 30.1807 46.2328 30.0441C45.9312 29.9019 45.7234 29.7169 45.6096 29.4893H45.2254C45.3279 29.825 45.5698 30.0982 45.951 30.3088C46.3381 30.5136 46.7222 30.6161 47.1035 30.6161C47.5645 30.6161 47.9998 30.4681 48.4096 30.1722C48.8251 29.8763 49.0328 29.5092 49.0328 29.071C49.0328 28.6441 48.919 28.3311 48.6913 28.1319V28.0807C48.8677 28.1832 49.0129 28.3397 49.1267 28.5502C49.2462 28.7608 49.3059 28.9685 49.3059 29.1734C49.3059 29.5376 49.1921 29.862 48.9645 30.1466C48.7368 30.4254 48.458 30.6332 48.1279 30.7697C47.7978 30.9063 47.4563 30.9746 47.1035 30.9746Z" fill="#FEF9D7"/>
<path d="M44.2384 30.9144H40.3799V25.2974H43.8884V26.3474H41.4299V28.1059H43.1884V27.7559H41.7799V27.4059H43.5384V28.4559H41.0799V25.9974H43.5384V25.6474H40.7299V30.5644H43.8884V30.2144H41.0799V28.8059H41.4299V29.8644H44.2384V30.9144Z" fill="#FEF9D7"/>
<path d="M39.0527 30.9144H37.9942V28.5157L38.3442 27.7559V30.5644H38.7027V26.151L36.5344 30.8205L34.8356 27.7303V30.9144H33.7856V25.2974H34.6991L36.4576 28.4986L37.9259 25.2974H38.31L36.4832 29.2669L34.4856 25.6474H34.1356V30.5644H34.4856V26.3644L36.5173 30.0522L38.7027 25.2974H39.0527V30.9144Z" fill="#FEF9D7"/>
<path d="M33.161 30.9144H32.0256L31.5476 29.5059H29.8659L29.3793 30.9144H28.2524L30.1646 25.2974H31.2829L30.8902 26.4839L31.6927 28.8059H29.7122L30.3183 27.0303L30.5146 27.6022L30.2073 28.4559H31.189L30.5146 26.4754L30.7963 25.6474H30.4207L28.7305 30.5644H29.1061L29.5927 29.1559H31.8037L32.2817 30.5644H32.6573L31.2659 26.4839L31.4622 25.9205L33.161 30.9144Z" fill="#FEF9D7"/>
<path d="M28.0668 28.4563C27.9871 29.1449 27.6969 29.734 27.1961 30.2234C26.701 30.7129 26.1148 30.9576 25.4376 30.9576C24.692 30.9576 24.0603 30.673 23.5425 30.1039C23.0245 29.5348 22.7656 28.8746 22.7656 28.1234H22.8083C22.8083 28.8519 23.0615 29.4495 23.5681 29.9161C24.0803 30.3771 24.7034 30.6076 25.4376 30.6076C25.9498 30.6076 26.4079 30.4368 26.812 30.0954C27.216 29.7482 27.4892 29.3185 27.6315 28.8063H25.9583V29.1563H27.1107C26.9286 29.4921 26.6924 29.7624 26.4022 29.9673C26.1176 30.1665 25.7961 30.2661 25.4376 30.2661C24.8059 30.2661 24.2652 30.0242 23.8156 29.5405C23.366 29.0568 23.1412 28.499 23.1412 27.8673C23.1412 27.1617 23.3518 26.5527 23.7729 26.0405C24.194 25.5226 24.7489 25.2637 25.4376 25.2637C25.9782 25.2637 26.4676 25.4315 26.9059 25.7673C27.3498 26.1031 27.6742 26.5328 27.879 27.0564H26.701C26.5587 26.8344 26.3737 26.658 26.1461 26.5271C25.9242 26.3962 25.6879 26.3307 25.4376 26.3307C24.9937 26.3307 24.6294 26.5157 24.3449 26.8856C24.0603 27.2498 23.9181 27.6624 23.9181 28.1234H23.8754C23.8754 27.8559 23.901 27.6027 23.9522 27.3637C24.0091 27.1246 24.0945 26.897 24.2083 26.6807C24.3221 26.4588 24.4843 26.2852 24.6949 26.16C24.9054 26.0291 25.153 25.9637 25.4376 25.9637C25.7107 25.9637 25.9725 26.032 26.2229 26.1685C26.479 26.2995 26.6981 26.4759 26.8803 26.6978H27.3156C27.105 26.362 26.8347 26.0974 26.5046 25.9039C26.1803 25.7104 25.8245 25.6137 25.4376 25.6137C24.8628 25.6137 24.3932 25.8413 24.029 26.2966C23.6705 26.7462 23.4912 27.2641 23.4912 27.8503C23.4912 28.3681 23.6876 28.8434 24.0803 29.2759C24.4729 29.7027 24.9254 29.9161 25.4376 29.9161C25.7506 29.9161 26.0635 29.7795 26.3766 29.5063H25.6083V28.4563H28.0668Z" fill="#FEF9D7"/>
<path d="M56.9978 23.6586H53.4893V23.3086H56.6478V22.9586H53.4893V18.0415H54.5393V22.25H54.1893V18.3915H53.8393V22.6086H56.9978V23.6586Z" fill="#FEF9D7"/>
<path d="M52.7806 23.6586H51.6452L51.1672 22.25H49.4855L48.9989 23.6586H47.8721L49.7843 18.0415H50.9026L50.5099 19.2281L51.3123 21.55H49.3318L49.9379 19.7744L50.1343 20.3464L49.8269 21.2H50.8087L50.1343 19.2196L50.416 18.3915H50.0404L48.3501 23.3086H48.7257L49.2123 21.9H51.4233L51.9013 23.3086H52.2769L50.8855 19.2281L51.0818 18.6647L52.7806 23.6586Z" fill="#FEF9D7"/>
<path d="M45.3154 23.7183C44.752 23.7183 44.2313 23.5504 43.7532 23.2146C43.2752 22.8732 43.0361 22.4293 43.0361 21.8829H44.0947C44.0947 22.0992 44.237 22.2785 44.5215 22.4207C44.8117 22.563 45.0764 22.6341 45.3154 22.6341C45.6114 22.6341 45.8817 22.5573 46.1264 22.4036C46.3768 22.25 46.502 22.0337 46.502 21.7549C46.502 21.5044 46.4109 21.3166 46.2288 21.1914C46.0524 21.0605 45.8361 20.9724 45.58 20.9268C45.3297 20.8756 45.0764 20.8187 44.8203 20.7561C44.5642 20.6878 44.3451 20.5597 44.163 20.3719C43.9866 20.1785 43.8983 19.9138 43.8983 19.578C43.8983 19.3163 44.0264 19.1057 44.2825 18.9463C44.5443 18.787 44.8203 18.7073 45.1105 18.7073C45.3837 18.7073 45.6597 18.7727 45.9386 18.9036C46.2175 19.0288 46.3939 19.2053 46.4678 19.4329H46.8178C46.778 19.2053 46.6585 19.0061 46.4593 18.8354C46.2658 18.6646 46.0495 18.5422 45.8105 18.4683C45.5772 18.3886 45.3439 18.3488 45.1105 18.3488C44.7122 18.3488 44.3508 18.4569 44.0264 18.6732C43.7077 18.8894 43.5483 19.191 43.5483 19.578C43.5483 20.0561 43.7077 20.4374 44.0264 20.7219C44.3508 21.0008 44.7605 21.1573 45.2556 21.1914V21.2341C44.6866 21.2341 44.2 21.0947 43.7959 20.8158C43.3975 20.537 43.1983 20.1244 43.1983 19.578C43.1983 19.0886 43.389 18.7016 43.7703 18.4171C44.1573 18.1325 44.6041 17.9902 45.1105 17.9902C45.4292 17.9902 45.7422 18.05 46.0495 18.1695C46.3626 18.2833 46.63 18.4654 46.852 18.7158C47.0797 18.9663 47.1934 19.2565 47.1934 19.5866V19.7829H46.1093V19.5866C46.1093 19.4215 45.9927 19.2935 45.7593 19.2024C45.5317 19.1114 45.3154 19.0658 45.1105 19.0658C44.9056 19.0658 44.7093 19.1114 44.5215 19.2024C44.3394 19.2935 44.2483 19.4443 44.2483 19.6549C44.2483 19.8597 44.3422 20.039 44.53 20.1927C44.7236 20.3463 44.9512 20.4431 45.213 20.4829C46.3398 20.6536 46.9032 21.0634 46.9032 21.7122C46.9032 22.0878 46.7382 22.3951 46.4081 22.6341C46.078 22.8732 45.7166 22.9927 45.3239 22.9927C45.0394 22.9927 44.7463 22.9244 44.4447 22.7878C44.1431 22.6455 43.9353 22.4605 43.8215 22.2329H43.4374C43.5398 22.5687 43.7817 22.8419 44.163 23.0524C44.55 23.2573 44.9341 23.3597 45.3154 23.3597C45.7764 23.3597 46.2117 23.2118 46.6215 22.9158C47.037 22.6199 47.2447 22.2529 47.2447 21.8146C47.2447 21.3878 47.1309 21.0748 46.9032 20.8756V20.8244C47.0797 20.9268 47.2248 21.0833 47.3386 21.2939C47.4581 21.5044 47.5178 21.7122 47.5178 21.9171C47.5178 22.2813 47.4041 22.6057 47.1764 22.8902C46.9487 23.1691 46.6699 23.3768 46.3398 23.5134C46.0097 23.65 45.6683 23.7183 45.3154 23.7183Z" fill="#FEF9D7"/>
<path d="M42.7199 23.6586H41.5418L40.1333 21.2H39.4333V23.6586H38.3833V18.0415H40.6711C41.0068 18.0415 41.2943 18.161 41.5333 18.4C41.7723 18.6334 41.8918 18.9179 41.8918 19.2537C41.8918 19.5895 41.7751 19.8825 41.5418 20.133C41.3141 20.3777 41.0324 20.5 40.6967 20.5H39.0833V18.7415H40.3979C40.6768 18.7415 40.8788 18.7899 41.004 18.8866C41.1292 18.9834 41.1918 19.1683 41.1918 19.4415H41.1491C41.1491 19.2081 40.9727 19.0915 40.6199 19.0915H39.4333V20.15H40.7138C40.9528 20.15 41.1492 20.0618 41.3028 19.8854C41.4621 19.7033 41.5418 19.4927 41.5418 19.2537C41.5418 19.0203 41.4565 18.8183 41.2857 18.6476C41.1207 18.4769 40.9215 18.3915 40.6882 18.3915H38.7333V23.3086H39.0833V20.85H40.304L41.7126 23.3086H42.1223L40.7138 20.85C41.1121 20.85 41.4593 20.7191 41.7552 20.4574C42.0568 20.1899 42.2077 19.8569 42.2077 19.4586H42.2418C42.2418 19.8456 42.1621 20.1899 42.0028 20.4915C41.8491 20.7931 41.6044 20.998 41.2687 21.1061L42.7199 23.6586Z" fill="#FEF9D7"/>
<path d="M37.3981 23.6586H33.5396V18.0415H37.0481V19.0915H34.5896V20.85H36.3481V20.5H34.9395V20.15H36.6981V21.2H34.2396V18.7415H36.6981V18.3915H33.8896V23.3086H37.0481V22.9586H34.2396V21.55H34.5896V22.6086H37.3981V23.6586Z" fill="#FEF9D7"/>
<path d="M32.8396 18.0415L31.1322 23.6586H30.7396L29.1518 18.3915H28.7762L30.364 23.6586H29.9969L28.3066 18.0415H29.4079L30.9359 23.0866L32.3615 18.3915H31.9859L30.9359 21.8659L30.7566 21.2683L31.7298 18.0415H32.8396Z" fill="#FEF9D7"/>
<path d="M27.677 23.6586H26.627V18.7415H27.327V18.3915H26.627V18.0415H27.677V19.0915H26.977V23.3086H27.327V19.4415H27.677V23.6586Z" fill="#FEF9D7"/>
<path d="M25.3687 23.6586H25.0187L21.8602 18.3915H21.5102V23.3086H21.8602V19.0915L24.6089 23.6586H24.1821L22.2102 20.3549V23.6586H21.1602V18.0415H22.065L25.0187 22.9586V18.3915H24.6687V21.6952L24.3187 21.0976V18.0415H25.3687V23.6586Z" fill="#FEF9D7"/>
<path d="M20.1046 21.3964C20.1046 22.011 19.8713 22.5488 19.4046 23.0098C18.9437 23.4708 18.4059 23.7013 17.7912 23.7013C17.1538 23.7013 16.6132 23.448 16.1693 22.9415C15.7254 22.4293 15.5034 21.8517 15.5034 21.2086V18.0415H16.5534V21.2086C16.5534 21.6069 16.6615 21.9456 16.8778 22.2244C17.0998 22.5033 17.4071 22.6427 17.7998 22.6427C18.1241 22.6427 18.4059 22.5574 18.6449 22.3866C18.8896 22.2102 19.0774 21.9968 19.2083 21.7464C19.3392 21.496 19.4444 21.1944 19.5241 20.8415C19.6038 20.4886 19.6551 20.1756 19.6778 19.9025C19.7005 19.6293 19.7119 19.3419 19.7119 19.0403V18.3915H19.3619V18.5196C19.3619 19.9081 19.2595 20.8472 19.0546 21.3366H19.0119V18.0415H20.0705V19.0915C20.0705 19.4216 20.0534 19.746 20.0193 20.0647C19.9851 20.3834 19.9168 20.7249 19.8144 21.0891C19.7119 21.4533 19.581 21.772 19.4217 22.0452C19.2624 22.3183 19.0432 22.5459 18.7644 22.7281C18.4855 22.9045 18.164 22.9927 17.7998 22.9927C17.2932 22.9927 16.9005 22.8249 16.6217 22.4891C16.3429 22.1476 16.2034 21.7208 16.2034 21.2086V18.3915H15.8534V21.1915C15.8534 21.8118 16.0241 22.3269 16.3656 22.7366C16.7127 23.1407 17.1908 23.3427 17.7998 23.3427C18.2266 23.3427 18.6079 23.2374 18.9437 23.0269C19.2851 22.8106 19.5612 22.5147 19.7717 22.1391C19.9424 21.8317 20.042 21.5842 20.0705 21.3964H20.1046Z" fill="#FEF9D7"/>
<path d="M41.2224 35.7561C41.3119 35.7784 41.3769 35.8069 41.4176 35.8414C41.4582 35.876 41.4785 35.9207 41.4785 35.9756H40.4176C40.4176 35.937 40.4186 35.9095 40.4206 35.8933C40.4247 35.877 40.4338 35.8587 40.448 35.8384C40.4643 35.816 40.4897 35.7998 40.5243 35.7896C40.5588 35.7774 40.6076 35.7652 40.6706 35.753V35.4207H39.7529V35.2561L40.6767 34.0305C40.7092 33.9858 40.7509 33.9634 40.8017 33.9634H41.2224V35.1951H41.4968V35.4207H41.2224V35.7561ZM40.0212 35.189V35.1981L40.6737 35.1951L40.6767 34.3536H40.6676L40.0212 35.189Z" fill="#FEF9D7"/>
<path d="M37.8403 35.6954C37.8748 35.5694 37.9124 35.4911 37.9531 35.4606C37.9957 35.4281 38.074 35.4099 38.1878 35.4058L38.1726 35.9759H36.6421V35.8143C36.9531 35.5013 37.1461 35.3011 37.2214 35.2137C37.4002 35.0044 37.5049 34.8062 37.5354 34.6192C37.5435 34.5643 37.5476 34.5094 37.5476 34.4546C37.5476 34.3204 37.5313 34.2239 37.4988 34.1649C37.4662 34.106 37.4104 34.0755 37.3311 34.0735C37.2843 34.0714 37.2193 34.0836 37.136 34.11C37.1177 34.2096 37.0994 34.2869 37.0811 34.3417C37.0628 34.3966 37.0374 34.4383 37.0049 34.4667C36.9723 34.4952 36.9398 34.5125 36.9073 34.5186C36.8768 34.5247 36.827 34.5297 36.7579 34.5338L36.7732 34.0338C37.011 33.9566 37.2488 33.918 37.4866 33.918C37.7081 33.918 37.8738 33.9688 37.9836 34.0704C38.0933 34.17 38.1482 34.298 38.1482 34.4546C38.1482 34.5663 38.1187 34.6791 38.0598 34.793C38.0008 34.9068 37.9144 35.0175 37.8006 35.1253C37.6888 35.233 37.5781 35.3296 37.4683 35.4149C37.3606 35.4983 37.2295 35.5907 37.075 35.6924V35.7015L37.8403 35.6954Z" fill="#FEF9D7"/>
<path d="M34.7081 35.7776C34.7466 35.5905 34.7852 35.4757 34.8239 35.433C34.8625 35.3883 34.9377 35.3629 35.0495 35.3568L35.0343 35.869C34.9631 35.9015 34.9052 35.9259 34.8605 35.9422C34.8178 35.9585 34.7456 35.9757 34.644 35.994C34.5424 36.0123 34.4296 36.0215 34.3056 36.0215C33.9276 36.0215 33.6582 35.9341 33.4977 35.7593C33.3371 35.5824 33.2568 35.3182 33.2568 34.9666C33.2568 34.5946 33.3432 34.3192 33.516 34.1404C33.6887 33.9615 33.9581 33.8721 34.3239 33.8721C34.4398 33.8721 34.5495 33.8823 34.6532 33.9026C34.7568 33.9209 34.827 33.9371 34.8635 33.9513C34.9001 33.9635 34.954 33.9849 35.0251 34.0154L35.0404 34.5245C34.9265 34.5204 34.8493 34.4981 34.8087 34.4574C34.77 34.4168 34.7314 34.3091 34.6928 34.1343C34.6359 34.0774 34.5088 34.0489 34.3117 34.0489C34.2081 34.0489 34.1267 34.0733 34.0678 34.1221C34.0109 34.1688 33.9672 34.2562 33.9367 34.3843C33.9082 34.5103 33.894 34.6891 33.894 34.9208C33.894 35.1769 33.9062 35.369 33.9306 35.4971C33.955 35.6231 33.9967 35.7125 34.0556 35.7654C34.1166 35.8162 34.207 35.8416 34.327 35.8416C34.5322 35.8416 34.6593 35.8202 34.7081 35.7776Z" fill="#FEF9D7"/>
<path d="M31.1659 34.7166C31.3916 34.8223 31.546 34.9208 31.6294 35.0123C31.7126 35.1038 31.7544 35.2247 31.7544 35.3751C31.7544 35.5966 31.6801 35.7603 31.5318 35.866C31.3834 35.9696 31.1842 36.0215 30.9342 36.0215C30.8326 36.0215 30.735 36.0123 30.6416 35.994C30.548 35.9777 30.4769 35.9615 30.4281 35.9452C30.3814 35.9269 30.3173 35.9015 30.2361 35.869L30.2178 35.366C30.3356 35.3701 30.4159 35.3944 30.4586 35.4391C30.5033 35.4818 30.5409 35.5957 30.5714 35.7806C30.6202 35.8274 30.7137 35.8507 30.8519 35.8507C30.9759 35.8507 31.0633 35.8263 31.1141 35.7776C31.1649 35.7268 31.1903 35.6434 31.1903 35.5276C31.1903 35.4341 31.1588 35.3579 31.0958 35.2989C31.0328 35.2379 30.9159 35.1698 30.7452 35.0946C30.5704 35.0194 30.4423 34.9381 30.3611 34.8507C30.2797 34.7633 30.2391 34.6444 30.2391 34.494C30.2391 34.303 30.3062 34.1515 30.4403 34.0398C30.5765 33.928 30.7767 33.8721 31.0409 33.8721C31.1385 33.8721 31.2309 33.8812 31.3184 33.8995C31.4058 33.9158 31.4667 33.931 31.5013 33.9452C31.5358 33.9574 31.5856 33.9777 31.6507 34.0062L31.669 34.5154C31.5551 34.5113 31.4779 34.4879 31.4373 34.4452C31.3986 34.4005 31.362 34.2837 31.3275 34.0946C31.2767 34.058 31.1873 34.0398 31.0592 34.0398C30.8763 34.0398 30.7848 34.1323 30.7848 34.3172C30.7848 34.4148 30.8133 34.4899 30.8702 34.5428C30.9271 34.5936 31.0257 34.6515 31.1659 34.7166Z" fill="#FEF9D7"/>
<path fill-rule="evenodd" clip-rule="evenodd" d="M35.9265 0L70.8851 23.273L35.9265 46.4633L0.885254 23.273L35.9265 0ZM1.57623 23.2724L35.9263 46.0054L70.1955 23.2724L35.9263 0.458516L1.57623 23.2724Z" fill="#F58166"/>
<path fill-rule="evenodd" clip-rule="evenodd" d="M35.9236 1.70703L68.3242 23.2697L35.9236 44.7557L3.44629 23.2697L35.9236 1.70703ZM4.0867 23.2691L35.9233 44.3314L67.6846 23.2691L35.9233 2.13185L4.0867 23.2691Z" fill="#F58166"/>
</g>
<defs>
<clipPath id="clip0_247_2695">
<rect width="69.9999" height="46.4633" fill="white" transform="translate(0.885254)"/>
</clipPath>
</defs>
</svg>
