<svg width="20" height="20" viewBox="0 0 20 20" fill="none" xmlns="http://www.w3.org/2000/svg">
    <g clip-path="url(#clip0_122_4112)">
        <path d="M16.0062 2.91301L16.4694 2.34688C14.8842 0.998447 12.9593 0.195565 10.8904 0.0102844L10.7668 1.24549C10.9315 2.32629 11.4359 4.20998 12.9285 5.97014L15.9959 2.90272L16.0062 2.91301Z" fill="currentColor" />
        <path d="M18.7854 9.23316H20C19.8353 7.07155 18.9912 5.06435 17.5708 3.4277L17.1487 3.94237L14.0298 7.06126C14.9974 7.87444 16.5826 8.90377 18.7854 9.23316Z" fill="currentColor" />
        <path d="M9.76837 8.6876L9.99482 8.91405L11.8476 7.06125C10.0051 4.94081 9.4081 2.62481 9.23311 1.37931C9.23311 1.31755 9.23311 1.25579 9.23311 1.19403L9.34634 0C7.16415 0.144107 5.12606 0.967576 3.47913 2.38806L3.99379 2.90273L9.76837 8.6773V8.6876Z" fill="currentColor" />
        <path d="M1.36902 9.24343C2.62481 9.41842 4.93052 10.0154 7.05095 11.8579L8.90376 10.0051L8.6773 9.77868L2.90273 4.00411L2.38806 3.48944C0.988162 5.1055 0.164694 7.09212 0 9.22284H1.26608C1.26608 9.22284 1.33814 9.22284 1.36902 9.23314V9.24343Z" fill="currentColor" />
        <path d="M11.3948 12.4962L9.99486 11.0963L8.15234 12.9388C9.11992 14.0607 10.3757 15.965 10.7566 18.631C10.7566 18.6722 10.7566 18.703 10.7566 18.7442V20.0103C12.8873 19.8456 14.8842 19.0221 16.5106 17.6325L15.9959 17.1179L11.3845 12.5064L11.3948 12.4962Z" fill="currentColor" />
        <path d="M18.7339 10.7772C18.7339 10.7772 18.6619 10.7772 18.6207 10.7772C15.9547 10.3963 14.0504 9.14052 12.9284 8.17294L11.0859 10.0155L12.4858 11.4154L17.0973 16.0268L17.6119 16.5414C19.0118 14.9151 19.8353 12.9182 20 10.7772H18.7442H18.7339Z" fill="currentColor" />
        <path d="M3.99384 17.0973L3.53064 17.6737C5.1467 19.0324 7.11273 19.8456 9.22287 20V18.7957C8.89348 16.5929 7.87444 14.9974 7.05097 14.0298L3.98355 17.0973H3.99384Z" fill="currentColor" />
        <path d="M1.20432 10.7771H0C0.164694 12.9285 1.00875 14.9562 2.42923 16.5826L2.84097 16.0679L5.95986 12.9387C4.1791 11.4256 2.26454 10.9315 1.19403 10.7668L1.20432 10.7771Z" fill="currentColor" />
    </g>
    <defs>
        <clipPath id="clip0_122_4112">
            <rect width="20" height="20" fill="white" />
        </clipPath>
    </defs>
</svg>
