<svg version="1.1" xmlns="http://www.w3.org/2000/svg" xmlns:xlink="http://www.w3.org/1999/xlink" x="0px" y="0px"
	 viewBox="0 0 79.61 79.61" style="enable-background:new 0 0 79.61 79.61;" xml:space="preserve">
<style type="text/css">
	.st2016{fill:#FACC18;}
</style>
<g>
	<path class="st2016" d="M56.92,17.41c-3.64-2.38-9.08-3.49-17.12-3.49c-8.66,0-14.36,1.29-17.91,4.05
		c-3.3,2.57-4.84,6.49-4.84,12.33c0,1.35,0.06,2.74,0.12,4.22l0.01,0.2c0.01,0.3,0.15,0.57,0.37,0.77
		c0.22,0.19,0.52,0.29,0.81,0.25c2.26-0.24,6.15-0.39,9.9-0.39c2.58,0,5.02,0,6.52,0.07c0.32,0.01,0.63-0.12,0.85-0.36
		c0.21-0.24,0.31-0.56,0.26-0.88c-0.09-0.56-0.07-1.17-0.06-1.7c0-0.19,0.01-0.36,0.01-0.53c0-3.72,1.36-4.23,2.84-4.23
		c1.97,0,2.37,0.84,2.37,2.11c0,2.18-0.39,4.11-5.18,5.75c-3.19,1.13-5.22,2.47-6.57,4.36c-1.39,1.93-2.03,4.45-2.03,7.93
		c0,0.67,0,1.25,0.07,1.91c0.06,0.55,0.52,0.95,1.07,0.95c0.03,0,0.05,0,0.08,0c3.84-0.28,6.79-0.39,10.53-0.39
		c2.01,0,7.06,0.03,10.53,0.26c0.32,0.02,0.63-0.1,0.85-0.33c0.22-0.23,0.32-0.55,0.28-0.87c-0.06-0.46-0.06-0.68-0.06-1.19
		c0-1.04,0.34-2.64,3.3-4.44c6.29-3.33,8.63-7.24,8.63-14.39C62.56,23.8,60.71,19.89,56.92,17.41z M48.24,48.14
		c-3.4-0.17-7.57-0.18-9.23-0.18c-3.38,0-6.11,0.09-9.36,0.31c0-0.12,0-0.25,0-0.39c0-5.65,1.77-8.18,7-10.03
		c2.72-0.93,4.55-2.12,5.61-3.65c1.04-1.5,1.17-3.11,1.17-4.35c0-2.85-1.73-4.49-4.76-4.49c-1.85,0-3.25,0.68-4.14,2.02
		c-0.73,1.09-1.08,2.6-1.08,4.6c0,0.15,0,0.3-0.01,0.48c0,0.17-0.01,0.36-0.01,0.56c-1.42-0.03-3.16-0.03-5.17-0.03
		c-2.44,0-5.99,0.07-8.76,0.28c-0.04-0.96-0.07-1.97-0.07-2.95c0-5.1,1.12-8.18,3.75-10.32c3.1-2.51,8.38-3.69,16.62-3.69
		c7.45,0,12.63,1.01,15.82,3.1c3.11,2.03,4.55,5.2,4.55,9.98c0,6.28-1.86,9.38-7.39,12.3c-0.02,0.01-0.04,0.02-0.07,0.04
		C49.73,43.52,48.27,45.62,48.24,48.14z"/>
	<path class="st2016" d="M46.58,53.69c-1.73-1-4.23-1.49-7.64-1.49c-3.41,0-5.91,0.49-7.64,1.49c-1.93,1.12-2.91,2.87-2.91,5.2
		c0,4.51,3.55,6.8,10.55,6.8c7,0,10.55-2.29,10.55-6.8C49.49,56.56,48.51,54.81,46.58,53.69z M47.11,58.89c0,1.21,0,4.42-8.16,4.42
		c-8.16,0-8.16-3.21-8.16-4.42c0-1.29,0-4.31,8.16-4.31C47.11,54.58,47.11,57.6,47.11,58.89z"/>
</g>
</svg>
